<svg width="34px" height="32px" viewBox="0 0 34 32" version="1.1">
    <g stroke="none" stroke-width="1" fill="none" fill-rule="evenodd">
        <g class="icon-fill" transform="translate(0.000000, 2.000000)" fill="#9D9E9E">
            <path d="M1.27875993,17.2902104 C2.81947462,18.8631325 5.32069609,18.8602173 6.86328401,17.2853828 C8.40621708,15.7101959 8.40886909,13.1571853 6.86801277,11.5841185 C5.32681191,10.0107001 2.82656388,10.0136142 1.28348869,11.5889462 C-0.259241384,13.1639258 -0.262299319,15.7169365 1.27875993,17.2902104 L1.27875993,17.2902104 Z M2.72125776,15.8175583 C1.97765886,15.058415 1.97913735,13.8240598 2.72598652,13.0615983 C3.47312854,12.2988378 4.68172187,12.2974292 5.42551493,13.0567707 C6.169016,13.8158141 6.16773379,15.0501687 5.42078618,15.8127307 C4.67413144,16.5749936 3.46456465,16.5764034 2.72125776,15.8175583 L2.72125776,15.8175583 Z"></path>
            <path d="M27.2037462,17.4130459 C28.7444608,18.9859681 31.2456823,18.9830528 32.7882702,17.4082183 C34.3312033,15.8330314 34.3338553,13.2800208 32.792999,11.7069541 C31.2517981,10.1335356 28.7515501,10.1364497 27.2084749,11.7117817 C25.6657448,13.2867613 25.6626869,15.839772 27.2037462,17.4130459 L27.2037462,17.4130459 Z M28.646244,15.9403938 C27.9026451,15.1812505 27.9041236,13.9468953 28.6509727,13.1844338 C29.3981148,12.4216734 30.6067081,12.4202647 31.3505012,13.1796062 C32.0940022,13.9386496 32.09272,15.1730042 31.3457724,15.9355662 C30.5991177,16.6978292 29.3895509,16.6992389 28.646244,15.9403938 L28.646244,15.9403938 Z"></path>
            <path d="M14.0307585,16.7563521 C13.7417602,16.0249788 13.8863253,15.1684116 14.46841,14.586327 C15.2553796,13.7993574 16.5440654,13.8121135 17.3467704,14.6148185 C18.1494754,15.4175235 18.1622315,16.7062094 17.375262,17.4931789 C16.8169786,18.0514623 16.006201,18.2072747 15.2955546,17.9641067 C14.4091681,18.8504933 13.0142652,20.2453962 13.0142652,20.2453962 C12.3860858,20.8735755 12.3773134,21.8868629 12.9946269,22.5041764 L16.1401236,25.6496731 C16.7574371,26.2669866 17.7707245,26.2582141 18.3989038,25.6300348 L27.2920038,16.7369352 L28.692524,17.8089658 L19.6351792,26.8663102 C18.3134113,28.188078 16.1812512,28.206537 14.8822554,26.9075412 L11.7367588,23.7620446 C10.437763,22.4630488 10.456222,20.3308886 11.7779898,19.0091208 C11.7779898,19.0091208 13.1891514,17.5979592 14.0307581,16.7563525 Z"></path>
            <path d="M19.2956686,1.69496974 L19.2956683,14.2455138 C19.2956683,15.1338936 18.585369,15.856599 17.7123558,15.856599 L13.2639518,15.856599 C12.3909387,15.856599 11.6806393,15.1338936 11.6806393,14.2455138 L11.6806393,10.8023762 L10.0645784,11.4799378 L9.93228192,14.2455138 C9.93228192,16.1147758 11.4268944,17.6354932 13.2639518,17.6354932 L17.7123558,17.6354932 C19.5494132,17.6354932 21.0440257,16.1147758 21.0440257,14.2455138 L21.044026,1.78236371 L19.2956686,1.69496974 Z" transform="translate(15.488154, 9.665231) rotate(-135.000000) translate(-15.488154, -9.665231) "></path>
            <path d="M20.2770062,18.0976095 C22.0236276,16.3144763 22.0223657,13.4226929 20.2747587,11.6385536 C18.5275632,9.85483436 15.6943998,9.853311 13.9479596,11.6362592 L15.2301799,12.9452833 C16.2681669,11.885598 17.9531915,11.8865041 18.9925384,12.9475777 C20.0322503,14.009024 20.0330007,15.7286674 18.9947859,16.7885854 L20.2770062,18.0976095 L20.2770062,18.0976095 Z"w></path>
        </g>
    </g>
</svg>
