<?xml version="1.0" encoding="UTF-8" standalone="no"?>
<svg width="585px" height="183px" viewBox="0 0 585 183" version="1.1" xmlns="http://www.w3.org/2000/svg" xmlns:xlink="http://www.w3.org/1999/xlink">
    <!-- Generator: Sketch 3.7.2 (28276) - http://www.bohemiancoding.com/sketch -->
    <title>mesosphere export</title>
    <desc>Created with Sketch.</desc>
    <defs></defs>
    <g id="Page-1" stroke="none" stroke-width="1" fill="none" fill-rule="evenodd">
        <g id="mesosphere-export">
            <g id="Group-19-Copy" transform="translate(0.000000, 19.000000)" fill="#AB3FE6">
                <path d="M5.60236791,23.421875 C5.60236791,24.4843803 5.91226065,25.2786432 6.53205541,25.8046875 C7.15185018,26.3307318 8.20652713,26.6093748 9.69611791,26.640625 L9.69611791,28.0625 C7.66485776,28.0625 6.21955971,27.6718789 5.36018041,26.890625 C4.50080112,26.1093711 4.07111791,24.9062581 4.07111791,23.28125 L4.07111791,18.015625 C4.07111791,15.8801977 2.87321322,14.7916669 0.477367912,14.75 L0.477367912,13.5 C1.7482076,13.4791666 2.6648651,13.2135442 3.22736791,12.703125 C3.78987072,12.1927058 4.07111791,11.4218802 4.07111791,10.390625 L4.07111791,4.921875 C4.07111791,1.80727609 5.94609916,0.218750312 9.69611791,0.15625 L9.69611791,1.5625 C8.25861072,1.61458359 7.21695447,1.91666391 6.57111791,2.46875 C5.92528135,3.02083609 5.60236791,3.83853625 5.60236791,4.921875 L5.60236791,9.6875 C5.60236791,11.0416734 5.37320354,12.05208 4.91486791,12.71875 C4.45653229,13.38542 3.71695635,13.8281239 2.69611791,14.046875 L2.69611791,14.171875 C3.70653963,14.3802094 4.44351143,14.8151009 4.90705541,15.4765625 C5.3705994,16.1380241 5.60236791,17.1093686 5.60236791,18.390625 L5.60236791,23.421875 Z" id="{"></path>
                <path d="M35.4606153,23.421875 C35.4606153,24.4843803 35.7705081,25.2786432 36.3903028,25.8046875 C37.0100976,26.3307318 38.0647746,26.6093748 39.5543653,26.640625 L39.5543653,28.0625 C37.5231052,28.0625 36.0778071,27.6718789 35.2184278,26.890625 C34.3590485,26.1093711 33.9293653,24.9062581 33.9293653,23.28125 L33.9293653,18.015625 C33.9293653,15.8801977 32.7314606,14.7916669 30.3356153,14.75 L30.3356153,13.5 C31.606455,13.4791666 32.5231125,13.2135442 33.0856153,12.703125 C33.6481181,12.1927058 33.9293653,11.4218802 33.9293653,10.390625 L33.9293653,4.921875 C33.9293653,1.80727609 35.8043466,0.218750312 39.5543653,0.15625 L39.5543653,1.5625 C38.1168581,1.61458359 37.0752019,1.91666391 36.4293653,2.46875 C35.7835288,3.02083609 35.4606153,3.83853625 35.4606153,4.921875 L35.4606153,9.6875 C35.4606153,11.0416734 35.231451,12.05208 34.7731153,12.71875 C34.3147797,13.38542 33.5752038,13.8281239 32.5543653,14.046875 L32.5543653,14.171875 C33.5647871,14.3802094 34.3017589,14.8151009 34.7653028,15.4765625 C35.2288468,16.1380241 35.4606153,17.1093686 35.4606153,18.390625 L35.4606153,23.421875 Z" id="{" transform="translate(35.507490, 14.109375) scale(-1, 1) translate(-35.507490, -14.109375) "></path>
                <path d="M15.9810126,13.5791016 L19.658747,13.5791016 L19.658747,18.5966797 C19.0571815,18.7926442 18.4795506,18.9316402 17.9258369,19.0136719 C17.3721231,19.0957035 16.7739846,19.1367188 16.1314033,19.1367188 C14.6183749,19.1367188 13.4517199,18.6889693 12.6314033,17.793457 C11.8110867,16.8979447 11.4009345,15.6344483 11.4009345,14.0029297 C11.4009345,12.3941977 11.863495,11.1352585 12.7886298,10.2260742 C13.7137647,9.31688999 14.9875149,8.86230469 16.6099189,8.86230469 C17.6535439,8.86230469 18.6424663,9.06282352 19.5767158,9.46386719 L19.002497,10.8242188 C18.191295,10.450519 17.3801052,10.2636719 16.5689033,10.2636719 C15.5024917,10.2636719 14.6594012,10.5986295 14.0396064,11.2685547 C13.4198116,11.9384799 13.1099189,12.8544864 13.1099189,14.0166016 C13.1099189,15.2379618 13.3890502,16.1665007 13.9473212,16.8022461 C14.5055923,17.4379915 15.3088069,17.7558594 16.3569892,17.7558594 C16.8856377,17.7558594 17.4507362,17.6897793 18.0523017,17.5576172 L18.0523017,14.9804688 L15.9810126,14.9804688 L15.9810126,13.5791016 Z M23.4937079,19 L21.8872626,19 L21.8872626,11.4394531 L23.4937079,11.4394531 L23.4937079,19 Z M21.7915595,9.43652344 C21.7915595,9.14941263 21.870172,8.92838619 22.0273994,8.7734375 C22.1846267,8.61848881 22.4090711,8.54101562 22.7007392,8.54101562 C22.9832927,8.54101562 23.2031798,8.61848881 23.3604072,8.7734375 C23.5176345,8.92838619 23.596247,9.14941263 23.596247,9.43652344 C23.596247,9.7099623 23.5176345,9.92529218 23.3604072,10.0825195 C23.2031798,10.2397469 22.9832927,10.3183594 22.7007392,10.3183594 C22.4090711,10.3183594 22.1846267,10.2397469 22.0273994,10.0825195 C21.870172,9.92529218 21.7915595,9.7099623 21.7915595,9.43652344 L21.7915595,9.43652344 Z M28.6069892,17.8378906 C28.9989182,17.8378906 29.3908414,17.7763678 29.7827704,17.6533203 L29.7827704,18.8632812 C29.6050352,18.9407556 29.3760336,19.0056964 29.0957587,19.0581055 C28.8154839,19.1105146 28.5249595,19.1367188 28.2241767,19.1367188 C26.7020337,19.1367188 25.9409736,18.3346434 25.9409736,16.7304688 L25.9409736,12.65625 L24.908747,12.65625 L24.908747,11.9453125 L26.0161689,11.3574219 L26.5630439,9.7578125 L27.5542548,9.7578125 L27.5542548,11.4394531 L29.7075751,11.4394531 L29.7075751,12.65625 L27.5542548,12.65625 L27.5542548,16.703125 C27.5542548,17.0904967 27.6510963,17.3764639 27.8447822,17.5610352 C28.038468,17.7456064 28.2925345,17.8378906 28.6069892,17.8378906 L28.6069892,17.8378906 Z" id="Git"></path>
            </g>
            <g id="Group-2" transform="translate(51.000000, 23.000000)" stroke="#AB3FE6" stroke-width="2">
                <path d="M8.96983789,10 L102.18903,10" id="Line-Copy-6" stroke-linecap="square" transform="translate(55.579434, 10.000000) scale(-1, 1) translate(-55.579434, -10.000000) "></path>
                <circle id="Oval-26" fill="#FFFFFF" cx="5" cy="10" r="5"></circle>
                <circle id="Oval-26-Copy-3" fill="#FFFFFF" cx="51.5" cy="10" r="3"></circle>
                <polyline id="Path-10-Copy-6" stroke-linecap="round" points="93 1.77635684e-14 103 9.99898323 93 19.9979665"></polyline>
            </g>
            <g id="Group-2-Copy" transform="translate(165.000000, 23.000000)" stroke="#AB3FE6" stroke-width="2">
                <path d="M8.96983789,10 L102.18903,10" id="Line-Copy-6" stroke-linecap="square" transform="translate(55.579434, 10.000000) scale(-1, 1) translate(-55.579434, -10.000000) "></path>
                <circle id="Oval-26" fill="#FFFFFF" cx="5" cy="10" r="5"></circle>
                <circle id="Oval-26-Copy-3" fill="#FFFFFF" cx="51.5" cy="10" r="3"></circle>
                <polyline id="Path-10-Copy-6" stroke-linecap="round" points="93 1.77635684e-14 103 9.99898323 93 19.9979665"></polyline>
            </g>
            <path d="M54.9648438,9.83789062 C55.3567728,9.83789062 55.748696,9.7763678 56.140625,9.65332031 L56.140625,10.8632812 C55.9628897,10.9407556 55.7338881,11.0056964 55.4536133,11.0581055 C55.1733384,11.1105146 54.882814,11.1367188 54.5820312,11.1367188 C53.0598882,11.1367188 52.2988281,10.3346434 52.2988281,8.73046875 L52.2988281,4.65625 L51.2666016,4.65625 L51.2666016,3.9453125 L52.3740234,3.35742188 L52.9208984,1.7578125 L53.9121094,1.7578125 L53.9121094,3.43945312 L56.0654297,3.43945312 L56.0654297,4.65625 L53.9121094,4.65625 L53.9121094,8.703125 C53.9121094,9.09049673 54.0089509,9.37646392 54.2026367,9.56103516 C54.3963226,9.74560639 54.6503891,9.83789062 54.9648438,9.83789062 L54.9648438,9.83789062 Z M60.953125,11.1367188 C59.7773379,11.1367188 58.8579135,10.793786 58.1948242,10.1079102 C57.531735,9.42203433 57.2001953,8.47754508 57.2001953,7.27441406 C57.2001953,6.03938185 57.5078094,5.06868843 58.1230469,4.36230469 C58.7382843,3.65592095 59.5836535,3.30273438 60.6591797,3.30273438 C61.6572316,3.30273438 62.4456351,3.60579124 63.0244141,4.21191406 C63.603193,4.81803688 63.8925781,5.65201292 63.8925781,6.71386719 L63.8925781,7.58203125 L58.8544922,7.58203125 C58.8772788,8.31575888 59.075519,8.87971808 59.4492188,9.27392578 C59.8229185,9.66813348 60.3492805,9.86523438 61.0283203,9.86523438 C61.4749371,9.86523438 61.8907858,9.82307985 62.2758789,9.73876953 C62.660972,9.65445921 63.0745421,9.5143239 63.5166016,9.31835938 L63.5166016,10.6240234 C63.1246725,10.8108733 62.7281921,10.9430335 62.3271484,11.0205078 C61.9261048,11.0979822 61.4681015,11.1367188 60.953125,11.1367188 L60.953125,11.1367188 Z M60.6591797,4.51953125 C60.1487605,4.51953125 59.7397476,4.68131349 59.4321289,5.00488281 C59.1245102,5.32845214 58.941081,5.80012711 58.8818359,6.41992188 L62.3134766,6.41992188 C62.3043619,5.79556979 62.1539728,5.32275551 61.8623047,5.00146484 C61.5706366,4.68017417 61.1695989,4.51953125 60.6591797,4.51953125 L60.6591797,4.51953125 Z M70.796875,8.84667969 C70.796875,9.58496463 70.5279975,10.1512025 69.9902344,10.5454102 C69.4524713,10.9396179 68.6822967,11.1367188 67.6796875,11.1367188 C66.672521,11.1367188 65.8636098,10.984051 65.2529297,10.6787109 L65.2529297,9.29101562 C66.141606,9.70117393 66.9687462,9.90625 67.734375,9.90625 C68.7233122,9.90625 69.2177734,9.60775038 69.2177734,9.01074219 C69.2177734,8.81933498 69.1630865,8.65983137 69.0537109,8.53222656 C68.9443354,8.40462176 68.7643242,8.27246162 68.5136719,8.13574219 C68.2630196,7.99902275 67.9143903,7.84407639 67.4677734,7.67089844 C66.5973264,7.33365717 66.0083023,6.99642096 65.7006836,6.65917969 C65.3930649,6.32193842 65.2392578,5.88444279 65.2392578,5.34667969 C65.2392578,4.69954104 65.5001602,4.19710465 66.0219727,3.83935547 C66.5437852,3.48160628 67.2535762,3.30273438 68.1513672,3.30273438 C69.0400435,3.30273438 69.8808554,3.4827456 70.6738281,3.84277344 L70.1542969,5.05273438 C69.3385376,4.71549311 68.6526721,4.546875 68.0966797,4.546875 C67.2490192,4.546875 66.8251953,4.78840904 66.8251953,5.27148438 C66.8251953,5.50846473 66.9357085,5.70898355 67.1567383,5.87304688 C67.377768,6.0371102 67.8596968,6.26269388 68.6025391,6.54980469 C69.2268911,6.79134235 69.6803371,7.01236879 69.9628906,7.21289062 C70.2454441,7.41341246 70.4550774,7.6446927 70.5917969,7.90673828 C70.7285163,8.16878386 70.796875,8.48209453 70.796875,8.84667969 L70.796875,8.84667969 Z M75.3496094,9.83789062 C75.7415384,9.83789062 76.1334616,9.7763678 76.5253906,9.65332031 L76.5253906,10.8632812 C76.3476554,10.9407556 76.1186537,11.0056964 75.8383789,11.0581055 C75.5581041,11.1105146 75.2675796,11.1367188 74.9667969,11.1367188 C73.4446538,11.1367188 72.6835938,10.3346434 72.6835938,8.73046875 L72.6835938,4.65625 L71.6513672,4.65625 L71.6513672,3.9453125 L72.7587891,3.35742188 L73.3056641,1.7578125 L74.296875,1.7578125 L74.296875,3.43945312 L76.4501953,3.43945312 L76.4501953,4.65625 L74.296875,4.65625 L74.296875,8.703125 C74.296875,9.09049673 74.3937165,9.37646392 74.5874023,9.56103516 C74.7810882,9.74560639 75.0351547,9.83789062 75.3496094,9.83789062 L75.3496094,9.83789062 Z" id="test" fill="#626463"></path>
            <g id="Group-5" transform="translate(365.000000, 104.000000)" stroke="#24B2E8" stroke-width="2">
                <path d="M4.37301195,10 L103.408223,10" id="Line-Copy-6" stroke-linecap="square" transform="translate(54.189030, 10.000000) scale(-1, 1) translate(-54.189030, -10.000000) "></path>
                <circle id="Oval-26" fill="#FFFFFF" cx="5" cy="10" r="5"></circle>
                <circle id="Oval-26-Copy-3" fill="#FFFFFF" cx="55" cy="10" r="3"></circle>
                <polyline id="Path-10-Copy-6" stroke-linecap="round" points="95 1.77635684e-14 105 9.99898323 95 19.9979665"></polyline>
            </g>
            <g id="Group-5-Copy-4" transform="translate(155.000000, 48.000000)" stroke="#24B2E8" stroke-width="2">
                <polyline id="Line-Copy-6" stroke-linecap="square" transform="translate(54.487443, 38.046426) scale(-1, 1) translate(-54.487443, -38.046426) " points="4.96983789 66 104.005049 66 104.005049 10.092853"></polyline>
                <circle id="Oval-26" fill="#FFFFFF" cx="5" cy="5" r="5"></circle>
                <circle id="Oval-26-Copy-3" fill="#FFFFFF" cx="55" cy="66" r="3"></circle>
                <circle id="Oval-26-Copy-4" fill="#FFFFFF" cx="5" cy="66" r="3"></circle>
                <polyline id="Path-10-Copy-6" stroke-linecap="round" points="95 56 105 65.9989832 95 75.9979665"></polyline>
            </g>
            <path d="M169.010742,3.30273438 C169.954106,3.30273438 170.688962,3.64452783 171.215332,4.328125 C171.741702,5.01172217 172.004883,5.97102247 172.004883,7.20605469 C172.004883,8.44564422 171.738284,9.41064108 171.205078,10.1010742 C170.671872,10.7915074 169.93132,11.1367188 168.983398,11.1367188 C168.026362,11.1367188 167.283531,10.7926467 166.754883,10.1044922 L166.645508,10.1044922 L166.351562,11 L165.148438,11 L165.148438,0.36328125 L166.754883,0.36328125 L166.754883,2.89257812 C166.754883,3.07942802 166.745768,3.35742003 166.727539,3.7265625 C166.70931,4.09570497 166.695638,4.33040314 166.686523,4.43066406 L166.754883,4.43066406 C167.265302,3.67870718 168.017248,3.30273438 169.010742,3.30273438 L169.010742,3.30273438 Z M168.59375,4.61523438 C167.946611,4.61523438 167.480633,4.8054994 167.195801,5.18603516 C166.910969,5.56657091 166.763997,6.20344605 166.754883,7.09667969 L166.754883,7.20605469 C166.754883,8.12663221 166.900715,8.79312945 167.192383,9.20556641 C167.484051,9.61800336 167.960283,9.82421875 168.621094,9.82421875 C169.190758,9.82421875 169.622557,9.59863507 169.916504,9.14746094 C170.210451,8.69628681 170.357422,8.04460062 170.357422,7.19238281 C170.357422,5.47427526 169.769537,4.61523438 168.59375,4.61523438 L168.59375,4.61523438 Z M179.203125,11 L178.977539,10.0087891 L178.895508,10.0087891 C178.672199,10.3597023 178.354331,10.6354157 177.941895,10.8359375 C177.529458,11.0364593 177.058922,11.1367188 176.530273,11.1367188 C175.614253,11.1367188 174.930666,10.9088564 174.479492,10.453125 C174.028318,9.99739355 173.802734,9.30697077 173.802734,8.38183594 L173.802734,3.43945312 L175.422852,3.43945312 L175.422852,8.1015625 C175.422852,8.68034144 175.54134,9.11441913 175.77832,9.40380859 C176.015301,9.69319806 176.386716,9.83789062 176.892578,9.83789062 C177.567061,9.83789062 178.062661,9.63623249 178.379395,9.23291016 C178.696128,8.82958783 178.854492,8.15397609 178.854492,7.20605469 L178.854492,3.43945312 L180.467773,3.43945312 L180.467773,11 L179.203125,11 Z M184.364258,11 L182.757812,11 L182.757812,3.43945312 L184.364258,3.43945312 L184.364258,11 Z M182.662109,1.43652344 C182.662109,1.14941263 182.740722,0.928386191 182.897949,0.7734375 C183.055177,0.618488809 183.279621,0.541015625 183.571289,0.541015625 C183.853843,0.541015625 184.07373,0.618488809 184.230957,0.7734375 C184.388184,0.928386191 184.466797,1.14941263 184.466797,1.43652344 C184.466797,1.7099623 184.388184,1.92529218 184.230957,2.08251953 C184.07373,2.23974688 183.853843,2.31835938 183.571289,2.31835938 C183.279621,2.31835938 183.055177,2.23974688 182.897949,2.08251953 C182.740722,1.92529218 182.662109,1.7099623 182.662109,1.43652344 L182.662109,1.43652344 Z M188.267578,11 L186.661133,11 L186.661133,0.36328125 L188.267578,0.36328125 L188.267578,11 Z M193.114258,11.1367188 C192.170894,11.1367188 191.434898,10.7949253 190.90625,10.1113281 C190.377602,9.42773096 190.113281,8.46843065 190.113281,7.23339844 C190.113281,5.99380891 190.381019,5.02881205 190.916504,4.33837891 C191.451988,3.64794577 192.19368,3.30273438 193.141602,3.30273438 C194.135096,3.30273438 194.891599,3.66959269 195.411133,4.40332031 L195.493164,4.40332031 C195.41569,3.86099989 195.376953,3.43261876 195.376953,3.11816406 L195.376953,0.36328125 L196.990234,0.36328125 L196.990234,11 L195.732422,11 L195.452148,10.0087891 L195.376953,10.0087891 C194.861977,10.7607459 194.107752,11.1367188 193.114258,11.1367188 L193.114258,11.1367188 Z M193.544922,9.83789062 C194.205732,9.83789062 194.686522,9.65218285 194.987305,9.28076172 C195.288087,8.90934059 195.443034,8.30664479 195.452148,7.47265625 L195.452148,7.24707031 C195.452148,6.29459159 195.297202,5.61784055 194.987305,5.21679688 C194.677407,4.8157532 194.192061,4.61523438 193.53125,4.61523438 C192.966143,4.61523438 192.530926,4.84423599 192.225586,5.30224609 C191.920246,5.7602562 191.767578,6.4130817 191.767578,7.26074219 C191.767578,8.09928805 191.915689,8.73844181 192.211914,9.17822266 C192.50814,9.6180035 192.952471,9.83789062 193.544922,9.83789062 L193.544922,9.83789062 Z M198.630859,7.93066406 L198.630859,6.56347656 L202.144531,6.56347656 L202.144531,7.93066406 L198.630859,7.93066406 Z M206.341797,11.1367188 C205.398433,11.1367188 204.662438,10.7949253 204.133789,10.1113281 C203.605141,9.42773096 203.34082,8.46843065 203.34082,7.23339844 C203.34082,5.99380891 203.608559,5.02881205 204.144043,4.33837891 C204.679527,3.64794577 205.421219,3.30273438 206.369141,3.30273438 C207.362635,3.30273438 208.119138,3.66959269 208.638672,4.40332031 L208.720703,4.40332031 C208.643229,3.86099989 208.604492,3.43261876 208.604492,3.11816406 L208.604492,0.36328125 L210.217773,0.36328125 L210.217773,11 L208.959961,11 L208.679688,10.0087891 L208.604492,10.0087891 C208.089516,10.7607459 207.335291,11.1367188 206.341797,11.1367188 L206.341797,11.1367188 Z M206.772461,9.83789062 C207.433272,9.83789062 207.914061,9.65218285 208.214844,9.28076172 C208.515627,8.90934059 208.670573,8.30664479 208.679688,7.47265625 L208.679688,7.24707031 C208.679688,6.29459159 208.524741,5.61784055 208.214844,5.21679688 C207.904946,4.8157532 207.4196,4.61523438 206.758789,4.61523438 C206.193682,4.61523438 205.758465,4.84423599 205.453125,5.30224609 C205.147785,5.7602562 204.995117,6.4130817 204.995117,7.26074219 C204.995117,8.09928805 205.143228,8.73844181 205.439453,9.17822266 C205.735679,9.6180035 206.18001,9.83789062 206.772461,9.83789062 L206.772461,9.83789062 Z M215.816406,11.1367188 C214.640619,11.1367188 213.721195,10.793786 213.058105,10.1079102 C212.395016,9.42203433 212.063477,8.47754508 212.063477,7.27441406 C212.063477,6.03938185 212.371091,5.06868843 212.986328,4.36230469 C213.601566,3.65592095 214.446935,3.30273438 215.522461,3.30273438 C216.520513,3.30273438 217.308916,3.60579124 217.887695,4.21191406 C218.466474,4.81803688 218.755859,5.65201292 218.755859,6.71386719 L218.755859,7.58203125 L213.717773,7.58203125 C213.74056,8.31575888 213.9388,8.87971808 214.3125,9.27392578 C214.6862,9.66813348 215.212562,9.86523438 215.891602,9.86523438 C216.338218,9.86523438 216.754067,9.82307985 217.13916,9.73876953 C217.524253,9.65445921 217.937823,9.5143239 218.379883,9.31835938 L218.379883,10.6240234 C217.987954,10.8108733 217.591473,10.9430335 217.19043,11.0205078 C216.789386,11.0979822 216.331383,11.1367188 215.816406,11.1367188 L215.816406,11.1367188 Z M215.522461,4.51953125 C215.012042,4.51953125 214.603029,4.68131349 214.29541,5.00488281 C213.987791,5.32845214 213.804362,5.80012711 213.745117,6.41992188 L217.176758,6.41992188 C217.167643,5.79556979 217.017254,5.32275551 216.725586,5.00146484 C216.433918,4.68017417 216.03288,4.51953125 215.522461,4.51953125 L215.522461,4.51953125 Z M222.303711,11 L219.432617,3.43945312 L221.12793,3.43945312 L222.666016,7.83496094 C222.93034,8.57324588 223.089843,9.17024512 223.144531,9.62597656 L223.199219,9.62597656 C223.240235,9.29784992 223.399738,8.70085068 223.677734,7.83496094 L225.21582,3.43945312 L226.924805,3.43945312 L224.040039,11 L222.303711,11 Z" id="build-dev" fill="#626463"></path>
            <path d="M178.010742,86.3027344 C178.954106,86.3027344 179.688962,86.6445278 180.215332,87.328125 C180.741702,88.0117222 181.004883,88.9710225 181.004883,90.2060547 C181.004883,91.4456442 180.738284,92.4106411 180.205078,93.1010742 C179.671872,93.7915074 178.93132,94.1367188 177.983398,94.1367188 C177.026362,94.1367188 176.283531,93.7926467 175.754883,93.1044922 L175.645508,93.1044922 L175.351562,94 L174.148438,94 L174.148438,83.3632812 L175.754883,83.3632812 L175.754883,85.8925781 C175.754883,86.079428 175.745768,86.35742 175.727539,86.7265625 C175.70931,87.095705 175.695638,87.3304031 175.686523,87.4306641 L175.754883,87.4306641 C176.265302,86.6787072 177.017248,86.3027344 178.010742,86.3027344 L178.010742,86.3027344 Z M177.59375,87.6152344 C176.946611,87.6152344 176.480633,87.8054994 176.195801,88.1860352 C175.910969,88.5665709 175.763997,89.2034461 175.754883,90.0966797 L175.754883,90.2060547 C175.754883,91.1266322 175.900715,91.7931294 176.192383,92.2055664 C176.484051,92.6180034 176.960283,92.8242188 177.621094,92.8242188 C178.190758,92.8242188 178.622557,92.5986351 178.916504,92.1474609 C179.210451,91.6962868 179.357422,91.0446006 179.357422,90.1923828 C179.357422,88.4742753 178.769537,87.6152344 177.59375,87.6152344 L177.59375,87.6152344 Z M188.203125,94 L187.977539,93.0087891 L187.895508,93.0087891 C187.672199,93.3597023 187.354331,93.6354157 186.941895,93.8359375 C186.529458,94.0364593 186.058922,94.1367188 185.530273,94.1367188 C184.614253,94.1367188 183.930666,93.9088564 183.479492,93.453125 C183.028318,92.9973936 182.802734,92.3069708 182.802734,91.3818359 L182.802734,86.4394531 L184.422852,86.4394531 L184.422852,91.1015625 C184.422852,91.6803414 184.54134,92.1144191 184.77832,92.4038086 C185.015301,92.6931981 185.386716,92.8378906 185.892578,92.8378906 C186.567061,92.8378906 187.062661,92.6362325 187.379395,92.2329102 C187.696128,91.8295878 187.854492,91.1539761 187.854492,90.2060547 L187.854492,86.4394531 L189.467773,86.4394531 L189.467773,94 L188.203125,94 Z M193.364258,94 L191.757812,94 L191.757812,86.4394531 L193.364258,86.4394531 L193.364258,94 Z M191.662109,84.4365234 C191.662109,84.1494126 191.740722,83.9283862 191.897949,83.7734375 C192.055177,83.6184888 192.279621,83.5410156 192.571289,83.5410156 C192.853843,83.5410156 193.07373,83.6184888 193.230957,83.7734375 C193.388184,83.9283862 193.466797,84.1494126 193.466797,84.4365234 C193.466797,84.7099623 193.388184,84.9252922 193.230957,85.0825195 C193.07373,85.2397469 192.853843,85.3183594 192.571289,85.3183594 C192.279621,85.3183594 192.055177,85.2397469 191.897949,85.0825195 C191.740722,84.9252922 191.662109,84.7099623 191.662109,84.4365234 L191.662109,84.4365234 Z M197.267578,94 L195.661133,94 L195.661133,83.3632812 L197.267578,83.3632812 L197.267578,94 Z M202.114258,94.1367188 C201.170894,94.1367188 200.434898,93.7949253 199.90625,93.1113281 C199.377602,92.427731 199.113281,91.4684307 199.113281,90.2333984 C199.113281,88.9938089 199.381019,88.028812 199.916504,87.3383789 C200.451988,86.6479458 201.19368,86.3027344 202.141602,86.3027344 C203.135096,86.3027344 203.891599,86.6695927 204.411133,87.4033203 L204.493164,87.4033203 C204.41569,86.8609999 204.376953,86.4326188 204.376953,86.1181641 L204.376953,83.3632812 L205.990234,83.3632812 L205.990234,94 L204.732422,94 L204.452148,93.0087891 L204.376953,93.0087891 C203.861977,93.7607459 203.107752,94.1367188 202.114258,94.1367188 L202.114258,94.1367188 Z M202.544922,92.8378906 C203.205732,92.8378906 203.686522,92.6521828 203.987305,92.2807617 C204.288087,91.9093406 204.443034,91.3066448 204.452148,90.4726562 L204.452148,90.2470703 C204.452148,89.2945916 204.297202,88.6178405 203.987305,88.2167969 C203.677407,87.8157532 203.192061,87.6152344 202.53125,87.6152344 C201.966143,87.6152344 201.530926,87.844236 201.225586,88.3022461 C200.920246,88.7602562 200.767578,89.4130817 200.767578,90.2607422 C200.767578,91.099288 200.915689,91.7384418 201.211914,92.1782227 C201.50814,92.6180035 201.952471,92.8378906 202.544922,92.8378906 L202.544922,92.8378906 Z M207.630859,90.9306641 L207.630859,89.5634766 L211.144531,89.5634766 L211.144531,90.9306641 L207.630859,90.9306641 Z M216.626953,94.1367188 C215.669917,94.1367188 214.927086,93.7926467 214.398438,93.1044922 L214.302734,93.1044922 C214.366537,93.7425162 214.398438,94.1298821 214.398438,94.2666016 L214.398438,97.3632812 L212.791992,97.3632812 L212.791992,86.4394531 L214.09082,86.4394531 C214.127279,86.5807299 214.202473,86.9179661 214.316406,87.4511719 L214.398438,87.4511719 C214.899742,86.685543 215.651688,86.3027344 216.654297,86.3027344 C217.597661,86.3027344 218.332517,86.6445278 218.858887,87.328125 C219.385257,88.0117222 219.648438,88.9710225 219.648438,90.2060547 C219.648438,91.4410869 219.380699,92.4049445 218.845215,93.0976562 C218.30973,93.790368 217.570317,94.1367188 216.626953,94.1367188 L216.626953,94.1367188 Z M216.237305,87.6152344 C215.599281,87.6152344 215.133302,87.8020815 214.839355,88.1757812 C214.545409,88.549481 214.398438,89.1464803 214.398438,89.9667969 L214.398438,90.2060547 C214.398438,91.1266322 214.544269,91.7931294 214.835938,92.2055664 C215.127606,92.6180034 215.603838,92.8242188 216.264648,92.8242188 C216.820641,92.8242188 217.249022,92.5963564 217.549805,92.140625 C217.850587,91.6848936 218.000977,91.035486 218.000977,90.1923828 C218.000977,89.3447223 217.851727,88.7032899 217.553223,88.2680664 C217.254719,87.8328429 216.816084,87.6152344 216.237305,87.6152344 L216.237305,87.6152344 Z M225.349609,86.3027344 C225.673179,86.3027344 225.939778,86.3255206 226.149414,86.3710938 L225.992188,87.8681641 C225.764322,87.8134763 225.527345,87.7861328 225.28125,87.7861328 C224.638669,87.7861328 224.118003,87.9957661 223.719238,88.4150391 C223.320473,88.834312 223.121094,89.3789029 223.121094,90.0488281 L223.121094,94 L221.514648,94 L221.514648,86.4394531 L222.772461,86.4394531 L222.984375,87.7724609 L223.066406,87.7724609 C223.317059,87.3212868 223.644041,86.963543 224.047363,86.6992188 C224.450686,86.4348945 224.884763,86.3027344 225.349609,86.3027344 L225.349609,86.3027344 Z M234.256836,90.2060547 C234.256836,91.4410869 233.940107,92.4049445 233.306641,93.0976562 C232.673174,93.790368 231.791347,94.1367188 230.661133,94.1367188 C229.954749,94.1367188 229.330406,93.9772151 228.788086,93.6582031 C228.245766,93.3391911 227.828778,92.8811879 227.537109,92.2841797 C227.245441,91.6871715 227.099609,90.9944701 227.099609,90.2060547 C227.099609,88.9801371 227.414059,88.0231154 228.042969,87.3349609 C228.671878,86.6468065 229.558263,86.3027344 230.702148,86.3027344 C231.795904,86.3027344 232.661781,86.6547816 233.299805,87.3588867 C233.937829,88.0629918 234.256836,89.0120383 234.256836,90.2060547 L234.256836,90.2060547 Z M228.753906,90.2060547 C228.753906,91.9515061 229.398757,92.8242188 230.688477,92.8242188 C231.964525,92.8242188 232.602539,91.9515061 232.602539,90.2060547 C232.602539,88.4788325 231.959967,87.6152344 230.674805,87.6152344 C230.000322,87.6152344 229.511558,87.8385394 229.208496,88.2851562 C228.905435,88.7317731 228.753906,89.3720661 228.753906,90.2060547 L228.753906,90.2060547 Z M238.652344,94.1367188 C237.70898,94.1367188 236.972984,93.7949253 236.444336,93.1113281 C235.915687,92.427731 235.651367,91.4684307 235.651367,90.2333984 C235.651367,88.9938089 235.919105,88.028812 236.45459,87.3383789 C236.990074,86.6479458 237.731766,86.3027344 238.679688,86.3027344 C239.673182,86.3027344 240.429685,86.6695927 240.949219,87.4033203 L241.03125,87.4033203 C240.953776,86.8609999 240.915039,86.4326188 240.915039,86.1181641 L240.915039,83.3632812 L242.52832,83.3632812 L242.52832,94 L241.270508,94 L240.990234,93.0087891 L240.915039,93.0087891 C240.400063,93.7607459 239.645838,94.1367188 238.652344,94.1367188 L238.652344,94.1367188 Z M239.083008,92.8378906 C239.743818,92.8378906 240.224608,92.6521828 240.525391,92.2807617 C240.826173,91.9093406 240.98112,91.3066448 240.990234,90.4726562 L240.990234,90.2470703 C240.990234,89.2945916 240.835288,88.6178405 240.525391,88.2167969 C240.215493,87.8157532 239.730147,87.6152344 239.069336,87.6152344 C238.504229,87.6152344 238.069012,87.844236 237.763672,88.3022461 C237.458332,88.7602562 237.305664,89.4130817 237.305664,90.2607422 C237.305664,91.099288 237.453775,91.7384418 237.75,92.1782227 C238.046225,92.6180035 238.490557,92.8378906 239.083008,92.8378906 L239.083008,92.8378906 Z" id="build-prod" fill="#626463"></path>
            <path d="M285.574707,152.136719 C284.690588,152.136719 284.004722,151.892906 283.51709,151.405273 C283.029457,150.917641 282.785645,150.229497 282.785645,149.34082 C282.785645,148.429357 282.954263,147.588546 283.291504,146.818359 C283.628745,146.048173 284.094724,145.447756 284.689453,145.01709 C285.284183,144.586424 285.952959,144.371094 286.695801,144.371094 C287.320153,144.371094 287.930824,144.487304 288.527832,144.719727 L288.206543,145.683594 C287.659665,145.451171 287.160647,145.334961 286.709473,145.334961 C286.199053,145.334961 285.733075,145.509276 285.311523,145.85791 C284.889972,146.206545 284.559572,146.691891 284.320312,147.313965 C284.081053,147.936038 283.961426,148.61165 283.961426,149.34082 C283.961426,149.924157 284.112954,150.377603 284.416016,150.701172 C284.719077,151.024741 285.137204,151.186523 285.67041,151.186523 C285.998537,151.186523 286.30843,151.140951 286.600098,151.049805 C286.891766,150.958658 287.178872,150.851563 287.461426,150.728516 L287.461426,151.706055 C286.896319,151.993165 286.267419,152.136719 285.574707,152.136719 L285.574707,152.136719 Z M292.813965,144.412109 C293.679855,144.412109 294.363442,144.668454 294.864746,145.181152 C295.366051,145.69385 295.616699,146.399084 295.616699,147.296875 C295.616699,148.15365 295.452638,148.962561 295.124512,149.723633 C294.796385,150.484704 294.352054,151.072589 293.791504,151.487305 C293.230954,151.90202 292.597497,152.109375 291.891113,152.109375 C291.016109,152.109375 290.330243,151.851891 289.833496,151.336914 C289.336749,150.821938 289.088379,150.117843 289.088379,149.224609 C289.088379,148.35872 289.254718,147.544112 289.587402,146.780762 C289.920086,146.017412 290.368975,145.431805 290.934082,145.023926 C291.499189,144.616046 292.12581,144.412109 292.813965,144.412109 L292.813965,144.412109 Z M294.427246,147.139648 C294.427246,146.615557 294.284832,146.190594 294,145.864746 C293.715168,145.538898 293.328941,145.375977 292.841309,145.375977 C292.344561,145.375977 291.899091,145.544595 291.504883,145.881836 C291.110675,146.219077 290.80534,146.687334 290.588867,147.286621 C290.372395,147.885908 290.26416,148.552405 290.26416,149.286133 C290.26416,149.883141 290.408853,150.344562 290.698242,150.67041 C290.987632,150.996258 291.40348,151.15918 291.945801,151.15918 C292.419761,151.15918 292.845864,150.99284 293.224121,150.660156 C293.602378,150.327472 293.89746,149.854658 294.109375,149.241699 C294.32129,148.62874 294.427246,147.928064 294.427246,147.139648 L294.427246,147.139648 Z M301.256348,152 L302.268066,147.269531 C302.359213,146.795571 302.404785,146.467449 302.404785,146.285156 C302.404785,145.998045 302.323894,145.767905 302.162109,145.594727 C302.000325,145.421549 301.741701,145.334961 301.38623,145.334961 C300.980629,145.334961 300.585288,145.471678 300.200195,145.745117 C299.815102,146.018556 299.475587,146.408201 299.181641,146.914062 C298.887694,147.419924 298.665528,148.032874 298.515137,148.75293 L297.824707,152 L296.67627,152 L298.275879,144.507812 L299.226074,144.507812 L299.075684,145.895508 L299.144043,145.895508 C299.581545,145.339515 300.00423,144.946453 300.412109,144.716309 C300.819989,144.486164 301.242674,144.371094 301.680176,144.371094 C302.258955,144.371094 302.715819,144.529458 303.050781,144.846191 C303.385744,145.162925 303.553223,145.606117 303.553223,146.175781 C303.553223,146.535809 303.500814,146.945961 303.395996,147.40625 L302.418457,152 L301.256348,152 Z M307.053223,151.200195 C307.303875,151.200195 307.631997,151.140951 308.037598,151.022461 L308.037598,151.904297 C307.882649,151.968099 307.691245,152.022786 307.463379,152.068359 C307.235513,152.113933 307.053223,152.136719 306.916504,152.136719 C306.34684,152.136719 305.910483,152.001141 305.607422,151.72998 C305.30436,151.45882 305.152832,151.054365 305.152832,150.516602 C305.152832,150.215819 305.193847,149.874025 305.275879,149.491211 L306.144043,145.375977 L304.968262,145.375977 L305.063965,144.876953 L306.328613,144.34375 L307.183105,142.785156 L307.853027,142.785156 L307.477051,144.507812 L309.350098,144.507812 L309.172363,145.375977 L307.306152,145.375977 L306.424316,149.504883 C306.342285,149.901369 306.30127,150.202147 306.30127,150.407227 C306.30127,150.662436 306.36735,150.858398 306.499512,150.995117 C306.631674,151.131837 306.816242,151.200195 307.053223,151.200195 L307.053223,151.200195 Z M313.260254,144.371094 C313.679527,144.371094 314.053221,144.483886 314.381348,144.709473 C314.709474,144.93506 314.96468,145.259764 315.146973,145.683594 L315.222168,145.683594 L315.680176,144.507812 L316.54834,144.507812 L314.955566,152 L314.046387,152 L314.224121,150.571289 L314.169434,150.571289 C313.353674,151.614914 312.494633,152.136719 311.592285,152.136719 C310.958818,152.136719 310.462079,151.911135 310.102051,151.459961 C309.742023,151.008787 309.562012,150.39128 309.562012,149.607422 C309.562012,148.6595 309.723794,147.779952 310.047363,146.96875 C310.370933,146.157548 310.817543,145.521812 311.387207,145.061523 C311.956871,144.601235 312.581214,144.371094 313.260254,144.371094 L313.260254,144.371094 Z M311.961426,151.186523 C312.403485,151.186523 312.84326,150.975751 313.280762,150.554199 C313.718264,150.132648 314.073729,149.583499 314.347168,148.906738 C314.620607,148.229977 314.757324,147.552087 314.757324,146.873047 C314.757324,146.403643 314.629721,146.029949 314.374512,145.751953 C314.119302,145.473957 313.784345,145.334961 313.369629,145.334961 C312.895668,145.334961 312.454755,145.530923 312.046875,145.922852 C311.638995,146.314781 311.318849,146.8457 311.086426,147.515625 C310.854003,148.18555 310.737793,148.891923 310.737793,149.634766 C310.737793,150.154299 310.844888,150.542805 311.059082,150.800293 C311.273276,151.057781 311.574054,151.186523 311.961426,151.186523 L311.961426,151.186523 Z M318.353027,152 L317.20459,152 L318.804199,144.507812 L319.952637,144.507812 L318.353027,152 Z M319.125488,142.59375 C319.125488,142.33854 319.198404,142.130046 319.344238,141.968262 C319.490072,141.806477 319.679198,141.725586 319.911621,141.725586 C320.312665,141.725586 320.513184,141.930662 320.513184,142.34082 C320.513184,142.591473 320.43685,142.803385 320.28418,142.976562 C320.13151,143.14974 319.954916,143.236328 319.754395,143.236328 C319.572102,143.236328 319.421713,143.180502 319.303223,143.068848 C319.184732,142.957193 319.125488,142.798829 319.125488,142.59375 L319.125488,142.59375 Z M325.339355,152 L326.351074,147.269531 C326.442221,146.795571 326.487793,146.467449 326.487793,146.285156 C326.487793,145.998045 326.406902,145.767905 326.245117,145.594727 C326.083333,145.421549 325.824709,145.334961 325.469238,145.334961 C325.063637,145.334961 324.668296,145.471678 324.283203,145.745117 C323.89811,146.018556 323.558595,146.408201 323.264648,146.914062 C322.970702,147.419924 322.748536,148.032874 322.598145,148.75293 L321.907715,152 L320.759277,152 L322.358887,144.507812 L323.309082,144.507812 L323.158691,145.895508 L323.227051,145.895508 C323.664553,145.339515 324.087238,144.946453 324.495117,144.716309 C324.902997,144.486164 325.325681,144.371094 325.763184,144.371094 C326.341963,144.371094 326.798826,144.529458 327.133789,144.846191 C327.468752,145.162925 327.63623,145.606117 327.63623,146.175781 C327.63623,146.535809 327.583822,146.945961 327.479004,147.40625 L326.501465,152 L325.339355,152 Z M331.799316,152.136719 C330.960771,152.136719 330.302248,151.888349 329.82373,151.391602 C329.345212,150.894854 329.105957,150.20671 329.105957,149.327148 C329.105957,148.470373 329.275714,147.64893 329.615234,146.862793 C329.954754,146.076656 330.404782,145.464846 330.965332,145.027344 C331.525882,144.589842 332.143389,144.371094 332.817871,144.371094 C333.51514,144.371094 334.039224,144.522622 334.390137,144.825684 C334.74105,145.128745 334.916504,145.55143 334.916504,146.09375 C334.916504,146.914067 334.538252,147.557778 333.781738,148.024902 C333.025224,148.492027 331.942878,148.725586 330.534668,148.725586 L330.309082,148.725586 L330.281738,149.272461 C330.281738,149.869469 330.421874,150.335448 330.702148,150.67041 C330.982423,151.005373 331.416501,151.172852 332.004395,151.172852 C332.291505,151.172852 332.586587,151.131836 332.889648,151.049805 C333.19271,150.967773 333.569822,150.817384 334.020996,150.598633 L334.020996,151.59668 C333.592609,151.797202 333.214357,151.937337 332.88623,152.01709 C332.558104,152.096843 332.195803,152.136719 331.799316,152.136719 L331.799316,152.136719 Z M332.749512,145.348633 C332.280108,145.348633 331.839195,145.562823 331.426758,145.991211 C331.014321,146.419598 330.698732,147.014319 330.47998,147.775391 L330.562012,147.775391 C331.601079,147.775391 332.397458,147.639813 332.951172,147.368652 C333.504886,147.097492 333.781738,146.70443 333.781738,146.189453 C333.781738,145.947915 333.698569,145.747397 333.532227,145.587891 C333.365885,145.428385 333.104982,145.348633 332.749512,145.348633 L332.749512,145.348633 Z M340.480957,144.371094 C340.795412,144.371094 341.068846,144.402994 341.30127,144.466797 L341.055176,145.492188 C340.813638,145.432942 340.574383,145.40332 340.337402,145.40332 C339.922687,145.40332 339.534181,145.540038 339.171875,145.813477 C338.809569,146.086915 338.49284,146.466306 338.22168,146.95166 C337.950519,147.437014 337.75114,147.975908 337.623535,148.568359 L336.89209,152 L335.743652,152 L337.343262,144.507812 L338.293457,144.507812 L338.143066,145.895508 L338.211426,145.895508 C338.539552,145.462563 338.810709,145.151531 339.024902,144.962402 C339.239096,144.773274 339.46354,144.627442 339.698242,144.524902 C339.932944,144.422363 340.193846,144.371094 340.480957,144.371094 L340.480957,144.371094 Z M293.859863,159.371094 C294.174318,159.371094 294.447753,159.402994 294.680176,159.466797 L294.434082,160.492188 C294.192544,160.432942 293.953289,160.40332 293.716309,160.40332 C293.301593,160.40332 292.913088,160.540038 292.550781,160.813477 C292.188475,161.086915 291.871746,161.466306 291.600586,161.95166 C291.329426,162.437014 291.130046,162.975908 291.002441,163.568359 L290.270996,167 L289.122559,167 L290.722168,159.507812 L291.672363,159.507812 L291.521973,160.895508 L291.590332,160.895508 C291.918459,160.462563 292.189615,160.151531 292.403809,159.962402 C292.618002,159.773274 292.842447,159.627442 293.077148,159.524902 C293.31185,159.422363 293.572752,159.371094 293.859863,159.371094 L293.859863,159.371094 Z M297.626465,167.136719 C296.787919,167.136719 296.129397,166.888349 295.650879,166.391602 C295.172361,165.894854 294.933105,165.20671 294.933105,164.327148 C294.933105,163.470373 295.102863,162.64893 295.442383,161.862793 C295.781903,161.076656 296.231931,160.464846 296.79248,160.027344 C297.35303,159.589842 297.970537,159.371094 298.64502,159.371094 C299.342289,159.371094 299.866372,159.522622 300.217285,159.825684 C300.568198,160.128745 300.743652,160.55143 300.743652,161.09375 C300.743652,161.914067 300.365401,162.557778 299.608887,163.024902 C298.852373,163.492027 297.770027,163.725586 296.361816,163.725586 L296.13623,163.725586 L296.108887,164.272461 C296.108887,164.869469 296.249022,165.335448 296.529297,165.67041 C296.809572,166.005373 297.243649,166.172852 297.831543,166.172852 C298.118654,166.172852 298.413735,166.131836 298.716797,166.049805 C299.019858,165.967773 299.39697,165.817384 299.848145,165.598633 L299.848145,166.59668 C299.419757,166.797202 299.041506,166.937337 298.713379,167.01709 C298.385252,167.096843 298.022951,167.136719 297.626465,167.136719 L297.626465,167.136719 Z M298.57666,160.348633 C298.107257,160.348633 297.666343,160.562823 297.253906,160.991211 C296.841469,161.419598 296.52588,162.014319 296.307129,162.775391 L296.38916,162.775391 C297.428228,162.775391 298.224607,162.639813 298.77832,162.368652 C299.332034,162.097492 299.608887,161.70443 299.608887,161.189453 C299.608887,160.947915 299.525717,160.747397 299.359375,160.587891 C299.193033,160.428385 298.932131,160.348633 298.57666,160.348633 L298.57666,160.348633 Z M308.687012,159.507812 L308.516113,160.239258 L307.07373,160.40332 C307.26058,160.685874 307.354004,161.045896 307.354004,161.483398 C307.354004,162.353845 307.088544,163.047686 306.557617,163.564941 C306.02669,164.082197 305.316899,164.34082 304.428223,164.34082 C304.17757,164.34082 303.986166,164.322591 303.854004,164.286133 C303.220537,164.52767 302.903809,164.82617 302.903809,165.181641 C302.903809,165.368491 302.979003,165.492675 303.129395,165.554199 C303.279786,165.615723 303.498534,165.664713 303.785645,165.701172 L304.585449,165.796875 C305.410323,165.897136 306.008462,166.097655 306.379883,166.398438 C306.751304,166.69922 306.937012,167.141273 306.937012,167.724609 C306.937012,168.563155 306.604333,169.212563 305.938965,169.672852 C305.273597,170.13314 304.337083,170.363281 303.129395,170.363281 C302.245276,170.363281 301.552574,170.195802 301.05127,169.86084 C300.549965,169.525877 300.299316,169.053063 300.299316,168.442383 C300.299316,167.963865 300.463377,167.549155 300.791504,167.198242 C301.119631,166.847329 301.65055,166.548829 302.384277,166.302734 C302.028807,166.115884 301.851074,165.840171 301.851074,165.475586 C301.851074,165.161131 301.967284,164.891114 302.199707,164.665527 C302.43213,164.43994 302.755695,164.229168 303.17041,164.033203 C302.883299,163.887369 302.648601,163.672039 302.466309,163.387207 C302.284016,163.102375 302.192871,162.770835 302.192871,162.392578 C302.192871,161.508459 302.465167,160.783857 303.009766,160.21875 C303.554365,159.653643 304.250484,159.371094 305.098145,159.371094 C305.453615,159.371094 305.804523,159.416666 306.150879,159.507812 L308.687012,159.507812 Z M301.406738,168.333008 C301.406738,168.683921 301.554849,168.961913 301.851074,169.166992 C302.1473,169.372071 302.587074,169.474609 303.17041,169.474609 C303.999841,169.474609 304.64811,169.329917 305.115234,169.040527 C305.582359,168.751138 305.815918,168.342125 305.815918,167.813477 C305.815918,167.530923 305.692872,167.307618 305.446777,167.143555 C305.200682,166.979491 304.781416,166.86556 304.188965,166.801758 L303.102051,166.692383 C302.555173,166.806316 302.135906,167.006835 301.844238,167.293945 C301.55257,167.581056 301.406738,167.927407 301.406738,168.333008 L301.406738,168.333008 Z M303.307129,162.351562 C303.307129,162.738934 303.409667,163.034016 303.614746,163.236816 C303.819825,163.439617 304.104653,163.541016 304.469238,163.541016 C304.829266,163.541016 305.143716,163.445313 305.412598,163.253906 C305.681479,163.062499 305.887695,162.799318 306.03125,162.464355 C306.174805,162.129393 306.246582,161.765952 306.246582,161.374023 C306.246582,161.000324 306.146323,160.715496 305.945801,160.519531 C305.745279,160.323567 305.458172,160.225586 305.084473,160.225586 C304.729002,160.225586 304.41797,160.31787 304.151367,160.502441 C303.884764,160.687013 303.67741,160.944497 303.529297,161.274902 C303.381184,161.605308 303.307129,161.964191 303.307129,162.351562 L303.307129,162.351562 Z M309.73291,167 L308.584473,167 L310.184082,159.507812 L311.33252,159.507812 L309.73291,167 Z M310.505371,157.59375 C310.505371,157.33854 310.578287,157.130046 310.724121,156.968262 C310.869955,156.806477 311.059081,156.725586 311.291504,156.725586 C311.692548,156.725586 311.893066,156.930662 311.893066,157.34082 C311.893066,157.591473 311.816733,157.803385 311.664062,157.976562 C311.511392,158.14974 311.334799,158.236328 311.134277,158.236328 C310.951985,158.236328 310.801596,158.180502 310.683105,158.068848 C310.564615,157.957193 310.505371,157.798829 310.505371,157.59375 L310.505371,157.59375 Z M316.760254,164.874023 C316.760254,165.584964 316.508466,166.139809 316.004883,166.538574 C315.5013,166.937339 314.791508,167.136719 313.875488,167.136719 C313.105302,167.136719 312.410322,166.979494 311.790527,166.665039 L311.790527,165.584961 C312.109539,165.776368 312.453611,165.924479 312.822754,166.029297 C313.191896,166.134115 313.53369,166.186523 313.848145,166.186523 C314.422366,166.186523 314.855305,166.072592 315.146973,165.844727 C315.438641,165.616861 315.584473,165.325197 315.584473,164.969727 C315.584473,164.70996 315.504721,164.491212 315.345215,164.313477 C315.185709,164.135741 314.841637,163.891929 314.312988,163.582031 C313.720537,163.249347 313.301271,162.923504 313.055176,162.604492 C312.809081,162.28548 312.686035,161.907229 312.686035,161.469727 C312.686035,160.840817 312.916176,160.333824 313.376465,159.94873 C313.836754,159.563637 314.442867,159.371094 315.194824,159.371094 C315.974125,159.371094 316.726071,159.539712 317.450684,159.876953 L317.081543,160.813477 L316.69873,160.642578 C316.238442,160.446614 315.737145,160.348633 315.194824,160.348633 C314.770994,160.348633 314.438315,160.447753 314.196777,160.645996 C313.95524,160.844239 313.834473,161.100584 313.834473,161.415039 C313.834473,161.670249 313.915364,161.888996 314.077148,162.071289 C314.238933,162.253582 314.572751,162.48828 315.078613,162.775391 C315.566246,163.048829 315.916015,163.283528 316.12793,163.479492 C316.339845,163.675457 316.498209,163.886229 316.603027,164.111816 C316.707846,164.337403 316.760254,164.59147 316.760254,164.874023 L316.760254,164.874023 Z M320.431152,166.200195 C320.681805,166.200195 321.009926,166.140951 321.415527,166.022461 L321.415527,166.904297 C321.260579,166.968099 321.069174,167.022786 320.841309,167.068359 C320.613443,167.113933 320.431153,167.136719 320.294434,167.136719 C319.724769,167.136719 319.288413,167.001141 318.985352,166.72998 C318.68229,166.45882 318.530762,166.054365 318.530762,165.516602 C318.530762,165.215819 318.571777,164.874025 318.653809,164.491211 L319.521973,160.375977 L318.346191,160.375977 L318.441895,159.876953 L319.706543,159.34375 L320.561035,157.785156 L321.230957,157.785156 L320.85498,159.507812 L322.728027,159.507812 L322.550293,160.375977 L320.684082,160.375977 L319.802246,164.504883 C319.720214,164.901369 319.679199,165.202147 319.679199,165.407227 C319.679199,165.662436 319.745279,165.858398 319.877441,165.995117 C320.009604,166.131837 320.194172,166.200195 320.431152,166.200195 L320.431152,166.200195 Z M327.410645,159.371094 C327.725099,159.371094 327.998534,159.402994 328.230957,159.466797 L327.984863,160.492188 C327.743326,160.432942 327.50407,160.40332 327.26709,160.40332 C326.852374,160.40332 326.463869,160.540038 326.101562,160.813477 C325.739256,161.086915 325.422527,161.466306 325.151367,161.95166 C324.880207,162.437014 324.680827,162.975908 324.553223,163.568359 L323.821777,167 L322.67334,167 L324.272949,159.507812 L325.223145,159.507812 L325.072754,160.895508 L325.141113,160.895508 C325.46924,160.462563 325.740396,160.151531 325.95459,159.962402 C326.168784,159.773274 326.393228,159.627442 326.62793,159.524902 C326.862631,159.422363 327.123534,159.371094 327.410645,159.371094 L327.410645,159.371094 Z M328.483887,159.507812 L329.632324,159.507812 L330.138184,163.233398 C330.183757,163.547853 330.22819,164.011553 330.271484,164.624512 C330.314779,165.237471 330.336426,165.730792 330.336426,166.104492 L330.377441,166.104492 C330.536947,165.708006 330.735188,165.252281 330.972168,164.737305 C331.209148,164.222328 331.384602,163.866863 331.498535,163.670898 L333.720215,159.507812 L334.937012,159.507812 L330.179199,168.271484 C329.755369,169.055342 329.336102,169.599933 328.921387,169.905273 C328.506671,170.210614 328.007653,170.363281 327.424316,170.363281 C327.09619,170.363281 326.777183,170.31543 326.467285,170.219727 L326.467285,169.296875 C326.754396,169.378907 327.052896,169.419922 327.362793,169.419922 C327.736493,169.419922 328.056639,169.304851 328.323242,169.074707 C328.589845,168.844563 328.848469,168.503909 329.099121,168.052734 L329.618652,167.123047 L328.483887,159.507812 Z" id="container" fill="#9D9E9E"></path>
            <path d="M507.801758,179.874023 C507.801758,180.584964 507.54997,181.139809 507.046387,181.538574 C506.542803,181.937339 505.833012,182.136719 504.916992,182.136719 C504.146806,182.136719 503.451826,181.979494 502.832031,181.665039 L502.832031,180.584961 C503.151043,180.776368 503.495115,180.924479 503.864258,181.029297 C504.2334,181.134115 504.575194,181.186523 504.889648,181.186523 C505.46387,181.186523 505.896808,181.072592 506.188477,180.844727 C506.480145,180.616861 506.625977,180.325197 506.625977,179.969727 C506.625977,179.70996 506.546225,179.491212 506.386719,179.313477 C506.227213,179.135741 505.883141,178.891929 505.354492,178.582031 C504.762041,178.249347 504.342775,177.923504 504.09668,177.604492 C503.850585,177.28548 503.727539,176.907229 503.727539,176.469727 C503.727539,175.840817 503.95768,175.333824 504.417969,174.94873 C504.878258,174.563637 505.484371,174.371094 506.236328,174.371094 C507.015629,174.371094 507.767575,174.539712 508.492188,174.876953 L508.123047,175.813477 L507.740234,175.642578 C507.279946,175.446614 506.778649,175.348633 506.236328,175.348633 C505.812498,175.348633 505.479819,175.447753 505.238281,175.645996 C504.996744,175.844239 504.875977,176.100584 504.875977,176.415039 C504.875977,176.670249 504.956868,176.888996 505.118652,177.071289 C505.280437,177.253582 505.614255,177.48828 506.120117,177.775391 C506.60775,178.048829 506.957518,178.283528 507.169434,178.479492 C507.381349,178.675457 507.539713,178.886229 507.644531,179.111816 C507.749349,179.337403 507.801758,179.59147 507.801758,179.874023 L507.801758,179.874023 Z M512.231445,182.136719 C511.347326,182.136719 510.661461,181.892906 510.173828,181.405273 C509.686195,180.917641 509.442383,180.229497 509.442383,179.34082 C509.442383,178.429357 509.611001,177.588546 509.948242,176.818359 C510.285483,176.048173 510.751462,175.447756 511.346191,175.01709 C511.940921,174.586424 512.609697,174.371094 513.352539,174.371094 C513.976891,174.371094 514.587562,174.487304 515.18457,174.719727 L514.863281,175.683594 C514.316404,175.451171 513.817385,175.334961 513.366211,175.334961 C512.855792,175.334961 512.389813,175.509276 511.968262,175.85791 C511.54671,176.206545 511.21631,176.691891 510.977051,177.313965 C510.737792,177.936038 510.618164,178.61165 510.618164,179.34082 C510.618164,179.924157 510.769692,180.377603 511.072754,180.701172 C511.375815,181.024741 511.793943,181.186523 512.327148,181.186523 C512.655275,181.186523 512.965168,181.140951 513.256836,181.049805 C513.548504,180.958658 513.835611,180.851563 514.118164,180.728516 L514.118164,181.706055 C513.553057,181.993165 512.924157,182.136719 512.231445,182.136719 L512.231445,182.136719 Z M520.058594,182 L521.070312,177.269531 C521.152344,176.841144 521.193359,176.53353 521.193359,176.34668 C521.193359,175.672197 520.858402,175.334961 520.188477,175.334961 C519.782876,175.334961 519.387534,175.4694 519.002441,175.738281 C518.617348,176.007163 518.277834,176.397947 517.983887,176.910645 C517.68994,177.423342 517.467774,178.041989 517.317383,178.766602 L516.626953,182 L515.478516,182 L517.734375,171.363281 L518.882812,171.363281 C518.800781,171.736981 518.722168,172.099282 518.646973,172.450195 C518.571777,172.801109 518.494304,173.157713 518.414551,173.52002 C518.334798,173.882326 518.24821,174.261717 518.154785,174.658203 C518.06136,175.054689 517.953126,175.485349 517.830078,175.950195 L517.905273,175.950195 C518.333661,175.389646 518.756346,174.988608 519.17334,174.74707 C519.590334,174.505533 520.02669,174.384766 520.482422,174.384766 C521.07943,174.384766 521.540851,174.548826 521.866699,174.876953 C522.192547,175.20508 522.355469,175.669919 522.355469,176.271484 C522.355469,176.554038 522.30306,176.932289 522.198242,177.40625 C522.020507,178.285812 521.690107,179.817046 521.207031,182 L520.058594,182 Z M526.518555,182.136719 C525.680009,182.136719 525.021487,181.888349 524.542969,181.391602 C524.064451,180.894854 523.825195,180.20671 523.825195,179.327148 C523.825195,178.470373 523.994953,177.64893 524.334473,176.862793 C524.673993,176.076656 525.124021,175.464846 525.68457,175.027344 C526.24512,174.589842 526.862627,174.371094 527.537109,174.371094 C528.234378,174.371094 528.758462,174.522622 529.109375,174.825684 C529.460288,175.128745 529.635742,175.55143 529.635742,176.09375 C529.635742,176.914067 529.257491,177.557778 528.500977,178.024902 C527.744462,178.492027 526.662116,178.725586 525.253906,178.725586 L525.02832,178.725586 L525.000977,179.272461 C525.000977,179.869469 525.141112,180.335448 525.421387,180.67041 C525.701662,181.005373 526.135739,181.172852 526.723633,181.172852 C527.010744,181.172852 527.305825,181.131836 527.608887,181.049805 C527.911948,180.967773 528.28906,180.817384 528.740234,180.598633 L528.740234,181.59668 C528.311847,181.797202 527.933595,181.937337 527.605469,182.01709 C527.277342,182.096843 526.915041,182.136719 526.518555,182.136719 L526.518555,182.136719 Z M527.46875,175.348633 C526.999347,175.348633 526.558433,175.562823 526.145996,175.991211 C525.733559,176.419598 525.41797,177.014319 525.199219,177.775391 L525.28125,177.775391 C526.320318,177.775391 527.116696,177.639813 527.67041,177.368652 C528.224124,177.097492 528.500977,176.70443 528.500977,176.189453 C528.500977,175.947915 528.417807,175.747397 528.251465,175.587891 C528.085123,175.428385 527.824221,175.348633 527.46875,175.348633 L527.46875,175.348633 Z M534.427734,174.384766 C535.311853,174.384766 535.952146,174.817704 536.348633,175.683594 L536.416992,175.683594 C536.494467,174.97721 536.597005,174.352867 536.724609,173.810547 L537.257812,171.363281 L538.392578,171.363281 L536.136719,182 L535.186523,182 L535.336914,180.571289 L535.282227,180.571289 C534.821938,181.140953 534.391278,181.54427 533.990234,181.78125 C533.589191,182.01823 533.174481,182.136719 532.746094,182.136719 C532.112627,182.136719 531.618166,181.913414 531.262695,181.466797 C530.907225,181.02018 530.729492,180.400395 530.729492,179.607422 C530.729492,178.632157 530.893553,177.738936 531.22168,176.927734 C531.549806,176.116532 531.992999,175.489911 532.55127,175.047852 C533.109541,174.605792 533.735023,174.384766 534.427734,174.384766 L534.427734,174.384766 Z M533.128906,181.186523 C533.557294,181.186523 533.999347,180.973472 534.455078,180.547363 C534.91081,180.121254 535.271971,179.576663 535.538574,178.913574 C535.805177,178.250485 535.938477,177.574873 535.938477,176.886719 C535.938477,176.380857 535.815431,175.99577 535.569336,175.731445 C535.323241,175.467121 534.965497,175.334961 534.496094,175.334961 C534.035805,175.334961 533.608563,175.522947 533.214355,175.898926 C532.820148,176.274904 532.503419,176.803545 532.26416,177.484863 C532.024901,178.166182 531.905273,178.882809 531.905273,179.634766 C531.905273,180.669276 532.313147,181.186523 533.128906,181.186523 L533.128906,181.186523 Z M541.222656,174.507812 L540.197266,179.258789 C540.115234,179.66439 540.074219,179.981119 540.074219,180.208984 C540.074219,180.86068 540.409176,181.186523 541.079102,181.186523 C541.480145,181.186523 541.874347,181.049806 542.261719,180.776367 C542.64909,180.502928 542.990884,180.111005 543.287109,179.600586 C543.583335,179.090167 543.808918,178.474938 543.963867,177.754883 L544.647461,174.507812 L545.782227,174.507812 L544.203125,182 L543.25293,182 L543.40332,180.612305 L543.321289,180.612305 C542.874672,181.181969 542.44857,181.578449 542.042969,181.801758 C541.637368,182.025066 541.218101,182.136719 540.785156,182.136719 C540.20182,182.136719 539.743817,181.978354 539.411133,181.661621 C539.078449,181.344888 538.912109,180.892581 538.912109,180.304688 C538.912109,180.022134 538.962239,179.630211 539.0625,179.128906 L540.060547,174.507812 L541.222656,174.507812 Z M547.757812,182 L546.609375,182 L548.878906,171.363281 L550.027344,171.363281 L547.757812,182 Z M553.137695,182.136719 C552.299149,182.136719 551.640627,181.888349 551.162109,181.391602 C550.683591,180.894854 550.444336,180.20671 550.444336,179.327148 C550.444336,178.470373 550.614093,177.64893 550.953613,176.862793 C551.293133,176.076656 551.743161,175.464846 552.303711,175.027344 C552.864261,174.589842 553.481767,174.371094 554.15625,174.371094 C554.853519,174.371094 555.377602,174.522622 555.728516,174.825684 C556.079429,175.128745 556.254883,175.55143 556.254883,176.09375 C556.254883,176.914067 555.876631,177.557778 555.120117,178.024902 C554.363603,178.492027 553.281257,178.725586 551.873047,178.725586 L551.647461,178.725586 L551.620117,179.272461 C551.620117,179.869469 551.760253,180.335448 552.040527,180.67041 C552.320802,181.005373 552.75488,181.172852 553.342773,181.172852 C553.629884,181.172852 553.924966,181.131836 554.228027,181.049805 C554.531089,180.967773 554.908201,180.817384 555.359375,180.598633 L555.359375,181.59668 C554.930987,181.797202 554.552736,181.937337 554.224609,182.01709 C553.896483,182.096843 553.534182,182.136719 553.137695,182.136719 L553.137695,182.136719 Z M554.087891,175.348633 C553.618487,175.348633 553.177574,175.562823 552.765137,175.991211 C552.3527,176.419598 552.03711,177.014319 551.818359,177.775391 L551.900391,177.775391 C552.939458,177.775391 553.735837,177.639813 554.289551,177.368652 C554.843264,177.097492 555.120117,176.70443 555.120117,176.189453 C555.120117,175.947915 555.036947,175.747397 554.870605,175.587891 C554.704263,175.428385 554.443361,175.348633 554.087891,175.348633 L554.087891,175.348633 Z M561.819336,174.371094 C562.133791,174.371094 562.407225,174.402994 562.639648,174.466797 L562.393555,175.492188 C562.152017,175.432942 561.912762,175.40332 561.675781,175.40332 C561.261066,175.40332 560.87256,175.540038 560.510254,175.813477 C560.147947,176.086915 559.831219,176.466306 559.560059,176.95166 C559.288898,177.437014 559.089519,177.975908 558.961914,178.568359 L558.230469,182 L557.082031,182 L558.681641,174.507812 L559.631836,174.507812 L559.481445,175.895508 L559.549805,175.895508 C559.877931,175.462563 560.149087,175.151531 560.363281,174.962402 C560.577475,174.773274 560.801919,174.627442 561.036621,174.524902 C561.271323,174.422363 561.532225,174.371094 561.819336,174.371094 L561.819336,174.371094 Z" id="scheduler" fill="#9D9E9E"></path>
            <g id="Group-6" transform="translate(270.000000, 15.000000)">
                <g id="Group-14-Copy" transform="translate(51.000000, 36.000000)">
                    <polyline id="Fill-5" fill="#EFF3FB" points="16.1949775 18.7138409 32.3907262 9.35653461 16.1957487 0 0 9.35653461 16.1949775 18.7138409"></polyline>
                    <polyline id="Fill-3" fill="#D3DCE9" points="15.7865475 37.2426807 31.9830674 27.8861461 31.9822962 9.17307692 15.7865475 18.5303833 15.7865475 37.2426807"></polyline>
                    <polyline id="Fill-1" fill="#DFE6F2" points="0.00154252571 27.8861461 16.19652 37.241909 16.19652 18.5296115 0 9.17307692 0.00154252571 27.8861461"></polyline>
                </g>
                <g id="Group-14-Copy-2" transform="translate(31.000000, 47.000000)">
                    <polyline id="Fill-5" fill="#EFF3FB" points="16.1949775 18.7138409 32.3907262 9.35653461 16.1957487 0 0 9.35653461 16.1949775 18.7138409"></polyline>
                    <polyline id="Fill-3" fill="#D3DCE9" points="15.7865475 37.2426807 31.9830674 27.8861461 31.9822962 9.17307692 15.7865475 18.5303833 15.7865475 37.2426807"></polyline>
                    <polyline id="Fill-1" fill="#DFE6F2" points="0.00154252571 27.8861461 16.19652 37.241909 16.19652 18.5296115 0 9.17307692 0.00154252571 27.8861461"></polyline>
                </g>
                <g id="Group-14-Copy-19" transform="translate(10.000000, 59.000000)">
                    <polyline id="Fill-5" fill="#EFF3FB" points="16.1949775 18.7138409 32.3907262 9.35653461 16.1957487 0 0 9.35653461 16.1949775 18.7138409"></polyline>
                    <polyline id="Fill-3" fill="#D3DCE9" points="15.7865475 37.2426807 31.9830674 27.8861461 31.9822962 9.17307692 15.7865475 18.5303833 15.7865475 37.2426807"></polyline>
                    <polyline id="Fill-1" fill="#DFE6F2" points="0.00154252571 27.8861461 16.19652 37.241909 16.19652 18.5296115 0 9.17307692 0.00154252571 27.8861461"></polyline>
                </g>
                <g id="Group-14-Copy-6" transform="translate(31.000000, 24.000000)">
                    <polyline id="Fill-5" fill="#EFF3FB" points="16.1949775 18.7138409 32.3907262 9.35653461 16.1957487 0 0 9.35653461 16.1949775 18.7138409"></polyline>
                    <polyline id="Fill-3" fill="#D3DCE9" points="15.7865475 37.2426807 31.9830674 27.8861461 31.9822962 9.17307692 15.7865475 18.5303833 15.7865475 37.2426807"></polyline>
                    <polyline id="Fill-1" fill="#DFE6F2" points="0.00154252571 27.8861461 16.19652 37.241909 16.19652 18.5296115 0 9.17307692 0.00154252571 27.8861461"></polyline>
                </g>
                <g id="Group-14-Copy-13" transform="translate(51.000000, 59.000000)">
                    <polyline id="Fill-5" fill="#EFF3FB" points="16.1949775 18.7138409 32.3907262 9.35653461 16.1957487 0 0 9.35653461 16.1949775 18.7138409"></polyline>
                    <polyline id="Fill-3" fill="#D3DCE9" points="15.7865475 37.2426807 31.9830674 27.8861461 31.9822962 9.17307692 15.7865475 18.5303833 15.7865475 37.2426807"></polyline>
                    <polyline id="Fill-1" fill="#DFE6F2" points="0.00154252571 27.8861461 16.19652 37.241909 16.19652 18.5296115 0 9.17307692 0.00154252571 27.8861461"></polyline>
                </g>
                <g id="Group-14-Copy-22" transform="translate(30.000000, 71.000000)">
                    <polyline id="Fill-5" fill="#EFF3FB" points="16.1949775 18.7138409 32.3907262 9.35653461 16.1957487 0 0 9.35653461 16.1949775 18.7138409"></polyline>
                    <polyline id="Fill-3" fill="#D3DCE9" points="15.7865475 37.2426807 31.9830674 27.8861461 31.9822962 9.17307692 15.7865475 18.5303833 15.7865475 37.2426807"></polyline>
                    <polyline id="Fill-1" fill="#DFE6F2" points="0.00154252571 27.8861461 16.19652 37.241909 16.19652 18.5296115 0 9.17307692 0.00154252571 27.8861461"></polyline>
                </g>
                <g id="Group-14-Copy-23" transform="translate(0.000000, 81.000000)">
                    <polyline id="Fill-5" fill="#B8EBFF" points="16.1949775 18.7138409 32.3907262 9.35653461 16.1957487 0 0 9.35653461 16.1949775 18.7138409"></polyline>
                    <polyline id="Fill-3" fill="#24B2E8" points="15.7865475 37.2426807 31.9830674 27.8861461 31.9822962 9.17307692 15.7865475 18.5303833 15.7865475 37.2426807"></polyline>
                    <polyline id="Fill-1" fill="#92D9F4" points="0.00154252571 27.8861461 16.19652 37.241909 16.19652 18.5296115 0 9.17307692 0.00154252571 27.8861461"></polyline>
                </g>
                <g id="Group-14-Copy-15" transform="translate(51.000000, 36.000000)">
                    <polyline id="Fill-5" fill="#EFF3FB" points="16.1949775 18.7138409 32.3907262 9.35653461 16.1957487 0 0 9.35653461 16.1949775 18.7138409"></polyline>
                    <polyline id="Fill-3" fill="#D3DCE9" points="15.7865475 37.2426807 31.9830674 27.8861461 31.9822962 9.17307692 15.7865475 18.5303833 15.7865475 37.2426807"></polyline>
                    <polyline id="Fill-1" fill="#DFE6F2" points="0.00154252571 27.8861461 16.19652 37.241909 16.19652 18.5296115 0 9.17307692 0.00154252571 27.8861461"></polyline>
                </g>
                <g id="Group-14-Copy-16" transform="translate(51.000000, 13.000000)">
                    <polyline id="Fill-5" fill="#EFF3FB" points="16.1949775 18.7138409 32.3907262 9.35653461 16.1957487 0 0 9.35653461 16.1949775 18.7138409"></polyline>
                    <polyline id="Fill-3" fill="#D3DCE9" points="15.7865475 37.2426807 31.9830674 27.8861461 31.9822962 9.17307692 15.7865475 18.5303833 15.7865475 37.2426807"></polyline>
                    <polyline id="Fill-1" fill="#DFE6F2" points="0.00154252571 27.8861461 16.19652 37.241909 16.19652 18.5296115 0 9.17307692 0.00154252571 27.8861461"></polyline>
                </g>
                <g id="Group-13-Copy-9" transform="translate(13.000000, 0.000000)">
                    <polyline id="Fill-5" fill="#D69FF4" points="16.9907221 19.5433008 33.4822296 9.97126787 16.9915075 0.400024414 0.5 9.97126787 16.9907221 19.5433008"></polyline>
                    <polyline id="Fill-3" fill="#AB3FE6" points="17 38.7137304 33.4922928 29.1424869 33.4915075 10 17 19.5720329 17 38.7137304"></polyline>
                    <polyline id="Fill-1" fill="#BF7EE3" points="0.520113713 29.0473726 17.0108358 38.6178266 17.0108358 19.4761291 0.518543019 9.90488565 0.520113713 29.0473726"></polyline>
                </g>
            </g>
            <path d="M366.698242,75.1367188 C365.754878,75.1367188 365.018883,74.7949253 364.490234,74.1113281 C363.961586,73.427731 363.697266,72.4684307 363.697266,71.2333984 C363.697266,69.9938089 363.965004,69.028812 364.500488,68.3383789 C365.035973,67.6479458 365.777665,67.3027344 366.725586,67.3027344 C367.71908,67.3027344 368.475583,67.6695927 368.995117,68.4033203 L369.077148,68.4033203 C368.999674,67.8609999 368.960938,67.4326188 368.960938,67.1181641 L368.960938,64.3632812 L370.574219,64.3632812 L370.574219,75 L369.316406,75 L369.036133,74.0087891 L368.960938,74.0087891 C368.445961,74.7607459 367.691737,75.1367188 366.698242,75.1367188 L366.698242,75.1367188 Z M367.128906,73.8378906 C367.789717,73.8378906 368.270506,73.6521828 368.571289,73.2807617 C368.872072,72.9093406 369.027018,72.3066448 369.036133,71.4726562 L369.036133,71.2470703 C369.036133,70.2945916 368.881186,69.6178405 368.571289,69.2167969 C368.261392,68.8157532 367.776045,68.6152344 367.115234,68.6152344 C366.550127,68.6152344 366.11491,68.844236 365.80957,69.3022461 C365.50423,69.7602562 365.351562,70.4130817 365.351562,71.2607422 C365.351562,72.099288 365.499673,72.7384418 365.795898,73.1782227 C366.092124,73.6180035 366.536455,73.8378906 367.128906,73.8378906 L367.128906,73.8378906 Z M376.172852,75.1367188 C374.997064,75.1367188 374.07764,74.793786 373.414551,74.1079102 C372.751462,73.4220343 372.419922,72.4775451 372.419922,71.2744141 C372.419922,70.0393818 372.727536,69.0686884 373.342773,68.3623047 C373.958011,67.6559209 374.80338,67.3027344 375.878906,67.3027344 C376.876958,67.3027344 377.665362,67.6057912 378.244141,68.2119141 C378.82292,68.8180369 379.112305,69.6520129 379.112305,70.7138672 L379.112305,71.5820312 L374.074219,71.5820312 C374.097005,72.3157589 374.295246,72.8797181 374.668945,73.2739258 C375.042645,73.6681335 375.569007,73.8652344 376.248047,73.8652344 C376.694664,73.8652344 377.110512,73.8230798 377.495605,73.7387695 C377.880699,73.6544592 378.294269,73.5143239 378.736328,73.3183594 L378.736328,74.6240234 C378.344399,74.8108733 377.947919,74.9430335 377.546875,75.0205078 C377.145831,75.0979822 376.687828,75.1367188 376.172852,75.1367188 L376.172852,75.1367188 Z M375.878906,68.5195312 C375.368487,68.5195312 374.959474,68.6813135 374.651855,69.0048828 C374.344237,69.3284521 374.160808,69.8001271 374.101562,70.4199219 L377.533203,70.4199219 C377.524088,69.7955698 377.373699,69.3227555 377.082031,69.0014648 C376.790363,68.6801742 376.389325,68.5195312 375.878906,68.5195312 L375.878906,68.5195312 Z M384.772461,75.1367188 C383.815425,75.1367188 383.072594,74.7926467 382.543945,74.1044922 L382.448242,74.1044922 C382.512045,74.7425162 382.543945,75.1298821 382.543945,75.2666016 L382.543945,78.3632812 L380.9375,78.3632812 L380.9375,67.4394531 L382.236328,67.4394531 C382.272787,67.5807299 382.347981,67.9179661 382.461914,68.4511719 L382.543945,68.4511719 C383.04525,67.685543 383.797196,67.3027344 384.799805,67.3027344 C385.743169,67.3027344 386.478025,67.6445278 387.004395,68.328125 C387.530764,69.0117222 387.793945,69.9710225 387.793945,71.2060547 C387.793945,72.4410869 387.526207,73.4049445 386.990723,74.0976562 C386.455238,74.790368 385.715825,75.1367188 384.772461,75.1367188 L384.772461,75.1367188 Z M384.382812,68.6152344 C383.744788,68.6152344 383.27881,68.8020815 382.984863,69.1757812 C382.690916,69.549481 382.543945,70.1464803 382.543945,70.9667969 L382.543945,71.2060547 C382.543945,72.1266322 382.689777,72.7931294 382.981445,73.2055664 C383.273113,73.6180034 383.749346,73.8242188 384.410156,73.8242188 C384.966149,73.8242188 385.39453,73.5963564 385.695312,73.140625 C385.996095,72.6848936 386.146484,72.035486 386.146484,71.1923828 C386.146484,70.3447223 385.997235,69.7032899 385.69873,69.2680664 C385.400226,68.8328429 384.961591,68.6152344 384.382812,68.6152344 L384.382812,68.6152344 Z M391.266602,75 L389.660156,75 L389.660156,64.3632812 L391.266602,64.3632812 L391.266602,75 Z M400.269531,71.2060547 C400.269531,72.4410869 399.952803,73.4049445 399.319336,74.0976562 C398.685869,74.790368 397.804042,75.1367188 396.673828,75.1367188 C395.967444,75.1367188 395.343102,74.9772151 394.800781,74.6582031 C394.258461,74.3391911 393.841473,73.8811879 393.549805,73.2841797 C393.258137,72.6871715 393.112305,71.9944701 393.112305,71.2060547 C393.112305,69.9801371 393.426755,69.0231154 394.055664,68.3349609 C394.684573,67.6468065 395.570958,67.3027344 396.714844,67.3027344 C397.808599,67.3027344 398.674476,67.6547816 399.3125,68.3588867 C399.950524,69.0629918 400.269531,70.0120383 400.269531,71.2060547 L400.269531,71.2060547 Z M394.766602,71.2060547 C394.766602,72.9515061 395.411452,73.8242188 396.701172,73.8242188 C397.97722,73.8242188 398.615234,72.9515061 398.615234,71.2060547 C398.615234,69.4788325 397.972663,68.6152344 396.6875,68.6152344 C396.013017,68.6152344 395.524253,68.8385394 395.221191,69.2851562 C394.91813,69.7317731 394.766602,70.3720661 394.766602,71.2060547 L394.766602,71.2060547 Z M400.966797,67.4394531 L402.716797,67.4394531 L404.254883,71.7255859 C404.487306,72.3362661 404.642252,72.9104791 404.719727,73.4482422 L404.774414,73.4482422 C404.81543,73.1975899 404.890624,72.8933937 405,72.5356445 C405.109376,72.1778953 405.688146,70.4791819 406.736328,67.4394531 L408.472656,67.4394531 L405.239258,76.0048828 C404.651364,77.5771563 403.671556,78.3632812 402.299805,78.3632812 C401.944334,78.3632812 401.597983,78.3245447 401.260742,78.2470703 L401.260742,76.9755859 C401.50228,77.0302737 401.777993,77.0576172 402.087891,77.0576172 C402.862634,77.0576172 403.407225,76.6087284 403.72168,75.7109375 L404.001953,75 L400.966797,67.4394531 Z M408.964844,71.9306641 L408.964844,70.5634766 L412.478516,70.5634766 L412.478516,71.9306641 L408.964844,71.9306641 Z M416.942383,73.8378906 C417.334312,73.8378906 417.726235,73.7763678 418.118164,73.6533203 L418.118164,74.8632812 C417.940429,74.9407556 417.711427,75.0056964 417.431152,75.0581055 C417.150878,75.1105146 416.860353,75.1367188 416.55957,75.1367188 C415.037427,75.1367188 414.276367,74.3346434 414.276367,72.7304688 L414.276367,68.65625 L413.244141,68.65625 L413.244141,67.9453125 L414.351562,67.3574219 L414.898438,65.7578125 L415.889648,65.7578125 L415.889648,67.4394531 L418.042969,67.4394531 L418.042969,68.65625 L415.889648,68.65625 L415.889648,72.703125 C415.889648,73.0904967 415.98649,73.3764639 416.180176,73.5610352 C416.373862,73.7456064 416.627928,73.8378906 416.942383,73.8378906 L416.942383,73.8378906 Z M426.334961,71.2060547 C426.334961,72.4410869 426.018232,73.4049445 425.384766,74.0976562 C424.751299,74.790368 423.869472,75.1367188 422.739258,75.1367188 C422.032874,75.1367188 421.408531,74.9772151 420.866211,74.6582031 C420.323891,74.3391911 419.906903,73.8811879 419.615234,73.2841797 C419.323566,72.6871715 419.177734,71.9944701 419.177734,71.2060547 C419.177734,69.9801371 419.492184,69.0231154 420.121094,68.3349609 C420.750003,67.6468065 421.636388,67.3027344 422.780273,67.3027344 C423.874029,67.3027344 424.739906,67.6547816 425.37793,68.3588867 C426.015954,69.0629918 426.334961,70.0120383 426.334961,71.2060547 L426.334961,71.2060547 Z M420.832031,71.2060547 C420.832031,72.9515061 421.476882,73.8242188 422.766602,73.8242188 C424.04265,73.8242188 424.680664,72.9515061 424.680664,71.2060547 C424.680664,69.4788325 424.038092,68.6152344 422.75293,68.6152344 C422.078447,68.6152344 421.589683,68.8385394 421.286621,69.2851562 C420.98356,69.7317731 420.832031,70.3720661 420.832031,71.2060547 L420.832031,71.2060547 Z M427.524414,71.9306641 L427.524414,70.5634766 L431.038086,70.5634766 L431.038086,71.9306641 L427.524414,71.9306641 Z M370.519531,94 L368.90625,94 L368.90625,89.3378906 C368.90625,88.7591117 368.796876,88.3273126 368.578125,88.0424805 C368.359374,87.7576483 368.01758,87.6152344 367.552734,87.6152344 C366.93294,87.6152344 366.478354,87.8168925 366.188965,88.2202148 C365.899575,88.6235372 365.754883,89.2945917 365.754883,90.2333984 L365.754883,94 L364.148438,94 L364.148438,86.4394531 L365.40625,86.4394531 L365.631836,87.4306641 L365.713867,87.4306641 C365.923504,87.0706362 366.2277,86.7926442 366.626465,86.5966797 C367.02523,86.4007152 367.463865,86.3027344 367.942383,86.3027344 C369.104498,86.3027344 369.874673,86.6992148 370.25293,87.4921875 L370.362305,87.4921875 C370.585613,87.1184877 370.900063,86.826824 371.305664,86.6171875 C371.711265,86.407551 372.176104,86.3027344 372.700195,86.3027344 C373.602544,86.3027344 374.259926,86.5305967 374.672363,86.9863281 C375.0848,87.4420596 375.291016,88.1370396 375.291016,89.0712891 L375.291016,94 L373.68457,94 L373.68457,89.3378906 C373.68457,88.7591117 373.574057,88.3273126 373.353027,88.0424805 C373.131998,87.7576483 372.789065,87.6152344 372.324219,87.6152344 C371.699867,87.6152344 371.243003,87.8100566 370.953613,88.199707 C370.664224,88.5893574 370.519531,89.187496 370.519531,89.9941406 L370.519531,94 Z M382.263672,94 L381.942383,92.9472656 L381.887695,92.9472656 C381.52311,93.4075544 381.156252,93.7208651 380.787109,93.887207 C380.417967,94.053549 379.944013,94.1367188 379.365234,94.1367188 C378.622392,94.1367188 378.042483,93.9361999 377.625488,93.5351562 C377.208494,93.1341126 377,92.5667354 377,91.8330078 C377,91.053707 377.289385,90.4658223 377.868164,90.0693359 C378.446943,89.6728496 379.32877,89.4563804 380.513672,89.4199219 L381.819336,89.3789062 L381.819336,88.9755859 C381.819336,88.4925106 381.706544,88.1313489 381.480957,87.8920898 C381.25537,87.6528308 380.905601,87.5332031 380.431641,87.5332031 C380.044269,87.5332031 379.672853,87.5901687 379.317383,87.7041016 C378.961912,87.8180344 378.620119,87.9524732 378.291992,88.1074219 L377.772461,86.9589844 C378.182619,86.7447906 378.631508,86.581869 379.119141,86.4702148 C379.606773,86.3585606 380.067055,86.3027344 380.5,86.3027344 C381.461593,86.3027344 382.187335,86.5123677 382.677246,86.9316406 C383.167157,87.3509136 383.412109,88.0094356 383.412109,88.9072266 L383.412109,94 L382.263672,94 Z M379.871094,92.90625 C380.45443,92.90625 380.922687,92.7433285 381.275879,92.4174805 C381.629071,92.0916325 381.805664,91.6347686 381.805664,91.046875 L381.805664,90.390625 L380.834961,90.4316406 C380.078447,90.4589845 379.528159,90.5854481 379.184082,90.8110352 C378.840005,91.0366222 378.667969,91.3818336 378.667969,91.8466797 C378.667969,92.183921 378.768228,92.4448233 378.96875,92.6293945 C379.169272,92.8139658 379.47005,92.90625 379.871094,92.90625 L379.871094,92.90625 Z M389.489258,86.3027344 C389.812827,86.3027344 390.079426,86.3255206 390.289062,86.3710938 L390.131836,87.8681641 C389.90397,87.8134763 389.666993,87.7861328 389.420898,87.7861328 C388.778317,87.7861328 388.257652,87.9957661 387.858887,88.4150391 C387.460122,88.834312 387.260742,89.3789029 387.260742,90.0488281 L387.260742,94 L385.654297,94 L385.654297,86.4394531 L386.912109,86.4394531 L387.124023,87.7724609 L387.206055,87.7724609 C387.456707,87.3212868 387.783689,86.963543 388.187012,86.6992188 C388.590334,86.4348945 389.024412,86.3027344 389.489258,86.3027344 L389.489258,86.3027344 Z M396.420898,94 L396.099609,92.9472656 L396.044922,92.9472656 C395.680337,93.4075544 395.313478,93.7208651 394.944336,93.887207 C394.575193,94.053549 394.10124,94.1367188 393.522461,94.1367188 C392.779619,94.1367188 392.199709,93.9361999 391.782715,93.5351562 C391.365721,93.1341126 391.157227,92.5667354 391.157227,91.8330078 C391.157227,91.053707 391.446612,90.4658223 392.025391,90.0693359 C392.60417,89.6728496 393.485997,89.4563804 394.670898,89.4199219 L395.976562,89.3789062 L395.976562,88.9755859 C395.976562,88.4925106 395.863771,88.1313489 395.638184,87.8920898 C395.412597,87.6528308 395.062828,87.5332031 394.588867,87.5332031 C394.201495,87.5332031 393.83008,87.5901687 393.474609,87.7041016 C393.119139,87.8180344 392.777345,87.9524732 392.449219,88.1074219 L391.929688,86.9589844 C392.339846,86.7447906 392.788735,86.581869 393.276367,86.4702148 C393.764,86.3585606 394.224282,86.3027344 394.657227,86.3027344 C395.61882,86.3027344 396.344561,86.5123677 396.834473,86.9316406 C397.324384,87.3509136 397.569336,88.0094356 397.569336,88.9072266 L397.569336,94 L396.420898,94 Z M394.02832,92.90625 C394.611657,92.90625 395.079914,92.7433285 395.433105,92.4174805 C395.786297,92.0916325 395.962891,91.6347686 395.962891,91.046875 L395.962891,90.390625 L394.992188,90.4316406 C394.235673,90.4589845 393.685386,90.5854481 393.341309,90.8110352 C392.997231,91.0366222 392.825195,91.3818336 392.825195,91.8466797 C392.825195,92.183921 392.925455,92.4448233 393.125977,92.6293945 C393.326498,92.8139658 393.627277,92.90625 394.02832,92.90625 L394.02832,92.90625 Z M402.62793,92.8378906 C403.019859,92.8378906 403.411782,92.7763678 403.803711,92.6533203 L403.803711,93.8632812 C403.625976,93.9407556 403.396974,94.0056964 403.116699,94.0581055 C402.836424,94.1105146 402.5459,94.1367188 402.245117,94.1367188 C400.722974,94.1367188 399.961914,93.3346434 399.961914,91.7304688 L399.961914,87.65625 L398.929688,87.65625 L398.929688,86.9453125 L400.037109,86.3574219 L400.583984,84.7578125 L401.575195,84.7578125 L401.575195,86.4394531 L403.728516,86.4394531 L403.728516,87.65625 L401.575195,87.65625 L401.575195,91.703125 C401.575195,92.0904967 401.672037,92.3764639 401.865723,92.5610352 C402.059409,92.7456064 402.313475,92.8378906 402.62793,92.8378906 L402.62793,92.8378906 Z M411.96582,94 L410.352539,94 L410.352539,89.3515625 C410.352539,88.7682262 410.23519,88.3330092 410.000488,88.0458984 C409.765787,87.7587876 409.393232,87.6152344 408.882812,87.6152344 C408.20833,87.6152344 407.712729,87.8168925 407.395996,88.2202148 C407.079263,88.6235372 406.920898,89.2991489 406.920898,90.2470703 L406.920898,94 L405.314453,94 L405.314453,83.3632812 L406.920898,83.3632812 L406.920898,86.0634766 C406.920898,86.4964214 406.893555,86.9589819 406.838867,87.4511719 L406.941406,87.4511719 C407.160157,87.0865867 407.464354,86.8040375 407.854004,86.6035156 C408.243654,86.4029938 408.69824,86.3027344 409.217773,86.3027344 C411.049814,86.3027344 411.96582,87.2255767 411.96582,89.0712891 L411.96582,94 Z M420.907227,90.2060547 C420.907227,91.4410869 420.590498,92.4049445 419.957031,93.0976562 C419.323565,93.790368 418.441737,94.1367188 417.311523,94.1367188 C416.60514,94.1367188 415.980797,93.9772151 415.438477,93.6582031 C414.896156,93.3391911 414.479168,92.8811879 414.1875,92.2841797 C413.895832,91.6871715 413.75,90.9944701 413.75,90.2060547 C413.75,88.9801371 414.06445,88.0231154 414.693359,87.3349609 C415.322269,86.6468065 416.208653,86.3027344 417.352539,86.3027344 C418.446295,86.3027344 419.312171,86.6547816 419.950195,87.3588867 C420.588219,88.0629918 420.907227,89.0120383 420.907227,90.2060547 L420.907227,90.2060547 Z M415.404297,90.2060547 C415.404297,91.9515061 416.049147,92.8242188 417.338867,92.8242188 C418.614915,92.8242188 419.25293,91.9515061 419.25293,90.2060547 C419.25293,88.4788325 418.610358,87.6152344 417.325195,87.6152344 C416.650713,87.6152344 416.161948,87.8385394 415.858887,88.2851562 C415.555825,88.7317731 415.404297,89.3720661 415.404297,90.2060547 L415.404297,90.2060547 Z M429.404297,94 L427.791016,94 L427.791016,89.3515625 C427.791016,88.7682262 427.673667,88.3330092 427.438965,88.0458984 C427.204263,87.7587876 426.831708,87.6152344 426.321289,87.6152344 C425.642249,87.6152344 425.145509,87.8157532 424.831055,88.2167969 C424.5166,88.6178405 424.359375,89.2900343 424.359375,90.2333984 L424.359375,94 L422.75293,94 L422.75293,86.4394531 L424.010742,86.4394531 L424.236328,87.4306641 L424.318359,87.4306641 C424.546225,87.0706362 424.86979,86.7926442 425.289062,86.5966797 C425.708335,86.4007152 426.173175,86.3027344 426.683594,86.3027344 C428.497405,86.3027344 429.404297,87.2255767 429.404297,89.0712891 L429.404297,94 Z" id="deploy-to-" fill="#626463"></path>
            <g id="Group-3" transform="translate(481.000000, 63.000000)">
                <g id="Group-14-Copy-24" transform="translate(0.000000, 32.000000)">
                    <polyline id="Fill-5" fill="#B8EBFF" points="16.1949775 18.7138409 32.3907262 9.35653461 16.1957487 0 0 9.35653461 16.1949775 18.7138409"></polyline>
                    <polyline id="Fill-3" fill="#24B2E8" points="15.7865475 37.2426807 31.9830674 27.8861461 31.9822962 9.17307692 15.7865475 18.5303833 15.7865475 37.2426807"></polyline>
                    <polyline id="Fill-1" fill="#92D9F4" points="0.00154252571 27.8861461 16.19652 37.241909 16.19652 18.5296115 0 9.17307692 0.00154252571 27.8861461"></polyline>
                </g>
                <g id="Group-13-Copy-6" transform="translate(35.000000, 31.000000)">
                    <g id="Group-14" transform="translate(0.515033, 0.520532)">
                        <polyline id="Fill-5" fill="#EFF3FB" points="16.3790902 19.1147174 32.7589605 9.55696455 16.3798703 0 0 9.55696455 16.3790902 19.1147174"></polyline>
                        <polyline id="Fill-3" fill="#D3DCE9" points="15.966017 38.0404706 32.3466673 28.483506 32.3458873 9.36957695 15.966017 18.9273298 15.966017 38.0404706"></polyline>
                        <polyline id="Fill-1" fill="#DFE6F2" points="0.00156006193 28.483506 16.3806503 38.0396823 16.3806503 18.9265415 0 9.36957695 0.00156006193 28.483506"></polyline>
                    </g>
                </g>
                <g id="Group-13-Copy-15" transform="translate(70.000000, 31.000000)">
                    <g id="Group-14" transform="translate(0.515033, 0.520532)">
                        <polyline id="Fill-5" fill="#EFF3FB" points="16.3790902 19.1147174 32.7589605 9.55696455 16.3798703 0 0 9.55696455 16.3790902 19.1147174"></polyline>
                        <polyline id="Fill-3" fill="#D3DCE9" points="15.966017 38.0404706 32.3466673 28.483506 32.3458873 9.36957695 15.966017 18.9273298 15.966017 38.0404706"></polyline>
                        <polyline id="Fill-1" fill="#DFE6F2" points="0.00156006193 28.483506 16.3806503 38.0396823 16.3806503 18.9265415 0 9.36957695 0.00156006193 28.483506"></polyline>
                    </g>
                </g>
                <g id="Group-13-Copy-16" transform="translate(53.000000, 0.000000)">
                    <g id="Group-14" transform="translate(0.515033, 0.520532)">
                        <polyline id="Fill-5" fill="#EFF3FB" points="16.3790902 19.1147174 32.7589605 9.55696455 16.3798703 0 0 9.55696455 16.3790902 19.1147174"></polyline>
                        <polyline id="Fill-3" fill="#D3DCE9" points="15.966017 38.0404706 32.3466673 28.483506 32.3458873 9.36957695 15.966017 18.9273298 15.966017 38.0404706"></polyline>
                        <polyline id="Fill-1" fill="#DFE6F2" points="0.00156006193 28.483506 16.3806503 38.0396823 16.3806503 18.9265415 0 9.36957695 0.00156006193 28.483506"></polyline>
                    </g>
                </g>
                <g id="Group-13-Copy-17" transform="translate(52.000000, 61.000000)">
                    <g id="Group-14" transform="translate(0.515033, 0.520532)">
                        <polyline id="Fill-5" fill="#EFF3FB" points="16.3790902 19.1147174 32.7589605 9.55696455 16.3798703 0 0 9.55696455 16.3790902 19.1147174"></polyline>
                        <polyline id="Fill-3" fill="#D3DCE9" points="15.966017 38.0404706 32.3466673 28.483506 32.3458873 9.36957695 15.966017 18.9273298 15.966017 38.0404706"></polyline>
                        <polyline id="Fill-1" fill="#DFE6F2" points="0.00156006193 28.483506 16.3806503 38.0396823 16.3806503 18.9265415 0 9.36957695 0.00156006193 28.483506"></polyline>
                    </g>
                </g>
                <g id="Group-13-Copy-18" transform="translate(17.000000, 0.000000)">
                    <g id="Group-14" transform="translate(0.515033, 0.520532)">
                        <polyline id="Fill-5" fill="#EFF3FB" points="16.3790902 19.1147174 32.7589605 9.55696455 16.3798703 0 0 9.55696455 16.3790902 19.1147174"></polyline>
                        <polyline id="Fill-3" fill="#D3DCE9" points="15.966017 38.0404706 32.3466673 28.483506 32.3458873 9.36957695 15.966017 18.9273298 15.966017 38.0404706"></polyline>
                        <polyline id="Fill-1" fill="#DFE6F2" points="0.00156006193 28.483506 16.3806503 38.0396823 16.3806503 18.9265415 0 9.36957695 0.00156006193 28.483506"></polyline>
                    </g>
                </g>
                <g id="Group-13-Copy-19" transform="translate(17.000000, 61.000000)">
                    <g id="Group-14" transform="translate(0.515033, 0.520532)">
                        <polyline id="Fill-5" fill="#EFF3FB" points="16.3790902 19.1147174 32.7589605 9.55696455 16.3798703 0 0 9.55696455 16.3790902 19.1147174"></polyline>
                        <polyline id="Fill-3" fill="#D3DCE9" points="15.966017 38.0404706 32.3466673 28.483506 32.3458873 9.36957695 15.966017 18.9273298 15.966017 38.0404706"></polyline>
                        <polyline id="Fill-1" fill="#DFE6F2" points="0.00156006193 28.483506 16.3806503 38.0396823 16.3806503 18.9265415 0 9.36957695 0.00156006193 28.483506"></polyline>
                    </g>
                </g>
            </g>
        </g>
    </g>
</svg>