<?xml version="1.0" encoding="UTF-8" standalone="no"?>
<svg width="780px" height="262px" viewBox="0 0 780 262" version="1.1" xmlns="http://www.w3.org/2000/svg" xmlns:xlink="http://www.w3.org/1999/xlink">
    <!-- Generator: Sketch 3.6.1 (26313) - http://www.bohemiancoding.com/sketch -->
    <title>Group 35</title>
    <desc>Created with Sketch.</desc>
    <defs></defs>
    <g id="Page-1" stroke="none" stroke-width="1" fill="none" fill-rule="evenodd">
        <g id="Group-35">
            <rect id="Rectangle-26" fill="#FFFFFF" x="0" y="0" width="780" height="262"></rect>
            <g id="Group-34" transform="translate(111.000000, 95.000000)">
                <g id="Group-16" transform="translate(378.000000, 58.000000)">
                    <g id="Group-7">
                        <rect id="Rectangle-path" fill="#B0B8C6" x="6.72463768" y="8" width="16.1391304" height="1.33333333"></rect>
                        <rect id="Rectangle-path" fill="#B0B8C6" x="6.72463768" y="12" width="6.72463768" height="1.33333333"></rect>
                        <rect id="Rectangle-path" fill="#B0B8C6" x="14.7942029" y="12" width="5.37971014" height="1.33333333"></rect>
                        <rect id="Rectangle-path" fill="#B0B8C6" x="9.41449275" y="16" width="10.7594203" height="1.33333333"></rect>
                        <rect id="Rectangle-path" fill="#B0B8C6" x="9.41449275" y="24" width="8.06956522" height="1.33333333"></rect>
                        <rect id="Rectangle-path" fill="#B0B8C6" x="6.72463768" y="20" width="4.03478261" height="1.33333333"></rect>
                        <path d="M9.41423839,31.6666667 L7.48080704,31.6666667 L6.92989285,31.6666667 L4.70695172,31.6666667 C2.10723358,31.6666667 -0.000141253704,29.5889283 0,26.9941409 L0.00121512589,4.67252572 C0.00135560492,2.09196103 2.11257529,0 4.69998836,0 L9.41596224,0" id="Shape" stroke="#B0B8C6" stroke-width="1.5"></path>
                        <path d="M29.5881515,31.6666667 L24.8725072,31.6666667 L24.8725072,31.6666667 C22.2774049,31.6666667 20.1737718,29.5889283 20.173913,26.9941409 L20.1751282,4.67252572 C20.1752686,2.09196103 22.2852274,7.83047101e-15 24.8838678,3.09351941e-15 C24.8838678,3.09351941e-15 26.4458926,-6.38038379e-15 24.8739014,7.83047101e-15 C23.3019101,3.62521803e-14 28.017884,7.83047101e-15 29.5898753,7.83047101e-15" id="Shape" stroke="#B0B8C6" stroke-width="1.5" transform="translate(24.881894, 15.833333) scale(-1, 1) translate(-24.881894, -15.833333) "></path>
                    </g>
                    <path d="M48.2519531,5.43310547 C48.2519531,6.53760318 48.0297874,7.5130166 47.5854492,8.359375 C47.1411111,9.2057334 46.5063518,9.85741959 45.6811523,10.3144531 C44.8559529,10.7714867 43.8890029,11 42.7802734,11 L40.5458984,11 L42.5073242,1.71972656 L44.6782227,1.71972656 C45.8461972,1.71972656 46.7338023,2.03604827 47.3410645,2.66870117 C47.9483266,3.30135407 48.2519531,4.22281296 48.2519531,5.43310547 L48.2519531,5.43310547 Z M42.8500977,10.0668945 C43.7049196,10.0668945 44.4560515,9.87329295 45.1035156,9.48608398 C45.7509798,9.09887502 46.24715,8.55192411 46.592041,7.84521484 C46.9369321,7.13850558 47.109375,6.33024543 47.109375,5.42041016 C47.109375,4.51057488 46.891441,3.82186106 46.4555664,3.35424805 C46.0196918,2.88663503 45.3807008,2.65283203 44.5385742,2.65283203 L43.4086914,2.65283203 L41.8217773,10.0668945 L42.8500977,10.0668945 Z M51.78125,11.1269531 C51.0026003,11.1269531 50.3911155,10.8963239 49.9467773,10.4350586 C49.5024392,9.97379327 49.2802734,9.33480226 49.2802734,8.51806641 C49.2802734,7.72248951 49.4379053,6.95972045 49.7531738,6.22973633 C50.0684423,5.49975221 50.4863255,4.93164266 51.0068359,4.52539062 C51.5273464,4.11913859 52.1007456,3.91601562 52.7270508,3.91601562 C53.374515,3.91601562 53.8611637,4.0567206 54.1870117,4.33813477 C54.5128597,4.61954893 54.6757812,5.01204175 54.6757812,5.515625 C54.6757812,6.27734756 54.3245478,6.87507921 53.6220703,7.30883789 C52.9195928,7.74259657 51.9145573,7.95947266 50.6069336,7.95947266 L50.3974609,7.95947266 L50.3720703,8.46728516 C50.3720703,9.02164991 50.502196,9.45434415 50.7624512,9.76538086 C51.0227064,10.0764176 51.4257785,10.2319336 51.9716797,10.2319336 C52.2382826,10.2319336 52.512287,10.193848 52.7937012,10.1176758 C53.0751153,10.0415035 53.4252909,9.90185648 53.8442383,9.69873047 L53.8442383,10.6254883 C53.4464498,10.8116871 53.0952164,10.9418128 52.7905273,11.0158691 C52.4858383,11.0899255 52.1494159,11.1269531 51.78125,11.1269531 L51.78125,11.1269531 Z M52.6635742,4.82373047 C52.2276996,4.82373047 51.8182799,5.02262171 51.4353027,5.42041016 C51.0523256,5.8181986 50.7592784,6.37043917 50.5561523,7.07714844 L50.6323242,7.07714844 C51.5971728,7.07714844 52.3366674,6.95125451 52.8508301,6.69946289 C53.3649928,6.44767127 53.6220703,6.08268468 53.6220703,5.60449219 C53.6220703,5.38020721 53.5448413,5.19401116 53.3903809,5.04589844 C53.2359205,4.89778572 52.993654,4.82373047 52.6635742,4.82373047 L52.6635742,4.82373047 Z M54.4091797,14.1230469 C54.117186,14.1230469 53.852703,14.0786137 53.6157227,13.9897461 L53.6157227,13.0947266 C53.8865573,13.187826 54.1235341,13.234375 54.3266602,13.234375 C54.6482763,13.234375 54.8958325,13.1031914 55.0693359,12.8408203 C55.2428394,12.5784492 55.3824865,12.2039412 55.4882812,11.7172852 L56.9291992,4.84912109 L55.7041016,4.84912109 L55.7866211,4.42382812 L57.0942383,4.00488281 L57.2402344,3.37011719 C57.4348968,2.52375879 57.7046695,1.92602714 58.0495605,1.5769043 C58.3944516,1.22778146 58.9054328,1.05322266 59.5825195,1.05322266 C59.7517912,1.05322266 59.9591459,1.0775551 60.2045898,1.1262207 C60.4500338,1.17488631 60.6404616,1.22884085 60.7758789,1.28808594 L60.5029297,2.10693359 C60.1813135,1.98421163 59.8914401,1.92285156 59.6333008,1.92285156 C59.2651349,1.92285156 58.982667,2.02547098 58.7858887,2.23071289 C58.5891103,2.4359548 58.4293626,2.81152071 58.3066406,3.35742188 L58.1479492,4.04296875 L59.6586914,4.04296875 L59.5,4.84912109 L57.9956055,4.84912109 L56.5229492,11.8188477 C56.3579093,12.6186563 56.1040056,13.2026349 55.7612305,13.5708008 C55.4184553,13.9389667 54.9677762,14.1230469 54.4091797,14.1230469 L54.4091797,14.1230469 Z M60.5917969,11 L59.5253906,11 L61.0107422,4.04296875 L62.0771484,4.04296875 L60.5917969,11 Z M61.309082,2.265625 C61.309082,2.02864465 61.3767897,1.83504307 61.512207,1.68481445 C61.6476244,1.53458584 61.8232411,1.45947266 62.0390625,1.45947266 C62.4114602,1.45947266 62.5976562,1.64990044 62.5976562,2.03076172 C62.5976562,2.26351028 62.5267748,2.46028565 62.3850098,2.62109375 C62.2432447,2.78190185 62.0792653,2.86230469 61.8930664,2.86230469 C61.7237947,2.86230469 61.5841477,2.81046601 61.4741211,2.70678711 C61.3640945,2.60310821 61.309082,2.45605564 61.309082,2.265625 L61.309082,2.265625 Z M67.0917969,11 L68.03125,6.60742188 C68.1158858,6.16731551 68.1582031,5.86263105 68.1582031,5.69335938 C68.1582031,5.42675648 68.0830899,5.21305419 67.9328613,5.05224609 C67.7826327,4.891438 67.5424821,4.81103516 67.2124023,4.81103516 C66.8357729,4.81103516 66.4686704,4.93798701 66.111084,5.19189453 C65.7534976,5.44580205 65.4382338,5.80761484 65.1652832,6.27734375 C64.8923326,6.74707266 64.6860359,7.31624015 64.5463867,7.98486328 L63.9052734,11 L62.8388672,11 L64.3242188,4.04296875 L65.206543,4.04296875 L65.0668945,5.33154297 L65.1303711,5.33154297 C65.5366231,4.81526435 65.9291159,4.45027776 66.3078613,4.23657227 C66.6866067,4.02286677 67.0790995,3.91601562 67.4853516,3.91601562 C68.0227891,3.91601562 68.4470199,4.06306819 68.7580566,4.35717773 C69.0690934,4.65128728 69.2246094,5.06282288 69.2246094,5.59179688 C69.2246094,5.92610844 69.1759445,6.30696401 69.0786133,6.734375 L68.1708984,11 L67.0917969,11 Z M73.090332,11.1269531 C72.3116823,11.1269531 71.7001975,10.8963239 71.2558594,10.4350586 C70.8115212,9.97379327 70.5893555,9.33480226 70.5893555,8.51806641 C70.5893555,7.72248951 70.7469874,6.95972045 71.0622559,6.22973633 C71.3775244,5.49975221 71.7954076,4.93164266 72.315918,4.52539062 C72.8364284,4.11913859 73.4098276,3.91601562 74.0361328,3.91601562 C74.683597,3.91601562 75.1702458,4.0567206 75.4960938,4.33813477 C75.8219417,4.61954893 75.9848633,5.01204175 75.9848633,5.515625 C75.9848633,6.27734756 75.6336298,6.87507921 74.9311523,7.30883789 C74.2286749,7.74259657 73.2236394,7.95947266 71.9160156,7.95947266 L71.706543,7.95947266 L71.6811523,8.46728516 C71.6811523,9.02164991 71.811278,9.45434415 72.0715332,9.76538086 C72.3317884,10.0764176 72.7348606,10.2319336 73.2807617,10.2319336 C73.5473646,10.2319336 73.821369,10.193848 74.1027832,10.1176758 C74.3841974,10.0415035 74.7343729,9.90185648 75.1533203,9.69873047 L75.1533203,10.6254883 C74.7555319,10.8116871 74.4042984,10.9418128 74.0996094,11.0158691 C73.7949204,11.0899255 73.4584979,11.1269531 73.090332,11.1269531 L73.090332,11.1269531 Z M73.9726562,4.82373047 C73.5367817,4.82373047 73.1273619,5.02262171 72.7443848,5.42041016 C72.3614076,5.8181986 72.0683604,6.37043917 71.8652344,7.07714844 L71.9414062,7.07714844 C72.9062548,7.07714844 73.6457494,6.95125451 74.1599121,6.69946289 C74.6740748,6.44767127 74.9311523,6.08268468 74.9311523,5.60449219 C74.9311523,5.38020721 74.8539233,5.19401116 74.6994629,5.04589844 C74.5450025,4.89778572 74.302736,4.82373047 73.9726562,4.82373047 L73.9726562,4.82373047 Z M80.4345703,3.92871094 C81.255538,3.92871094 81.8500958,4.33072515 82.2182617,5.13476562 L82.2817383,5.13476562 C82.3536787,4.47883787 82.4488926,3.89909106 82.5673828,3.39550781 L83.0625,1.12304688 L84.1162109,1.12304688 L82.0214844,11 L81.1391602,11 L81.2788086,9.67333984 L81.2280273,9.67333984 C80.8006164,10.2023138 80.400718,10.5768218 80.0283203,10.796875 C79.6559226,11.0169282 79.2708353,11.1269531 78.8730469,11.1269531 C78.2848278,11.1269531 77.8256852,10.9195984 77.4956055,10.5048828 C77.1655257,10.0901672 77.0004883,9.51465212 77.0004883,8.77832031 C77.0004883,7.87271683 77.1528305,7.04329804 77.4575195,6.29003906 C77.7622086,5.53678009 78.1737442,4.95491742 78.6921387,4.54443359 C79.2105332,4.13394977 79.7913379,3.92871094 80.4345703,3.92871094 L80.4345703,3.92871094 Z M79.2285156,10.2446289 C79.6263041,10.2446289 80.0367817,10.0467956 80.4599609,9.65112305 C80.8831401,9.2554505 81.2185046,8.74975894 81.4660645,8.1340332 C81.7136243,7.51830747 81.8374023,6.89095372 81.8374023,6.25195312 C81.8374023,5.78222421 81.7231457,5.42464315 81.4946289,5.17919922 C81.2661121,4.93375528 80.9339215,4.81103516 80.4980469,4.81103516 C80.0706359,4.81103516 79.6739113,4.98559396 79.3078613,5.3347168 C78.9418113,5.68383964 78.6477062,6.17472014 78.4255371,6.80737305 C78.203368,7.44002595 78.0922852,8.10546526 78.0922852,8.80371094 C78.0922852,9.76432772 78.4710249,10.2446289 79.2285156,10.2446289 L79.2285156,10.2446289 Z M88.6992188,11 L87.6328125,11 L89.1181641,4.04296875 L90.1845703,4.04296875 L88.6992188,11 Z M89.4165039,2.265625 C89.4165039,2.02864465 89.4842116,1.83504307 89.6196289,1.68481445 C89.7550462,1.53458584 89.930663,1.45947266 90.1464844,1.45947266 C90.5188821,1.45947266 90.7050781,1.64990044 90.7050781,2.03076172 C90.7050781,2.26351028 90.6341967,2.46028565 90.4924316,2.62109375 C90.3506666,2.78190185 90.1866871,2.86230469 90.0004883,2.86230469 C89.8312166,2.86230469 89.6915696,2.81046601 89.581543,2.70678711 C89.4715164,2.60310821 89.4165039,2.45605564 89.4165039,2.265625 L89.4165039,2.265625 Z M95.1865234,11 L96.1259766,6.60742188 C96.2106124,6.16731551 96.2529297,5.86263105 96.2529297,5.69335938 C96.2529297,5.42675648 96.1778165,5.21305419 96.0275879,5.05224609 C95.8773593,4.891438 95.6372087,4.81103516 95.3071289,4.81103516 C94.9304994,4.81103516 94.563397,4.93798701 94.2058105,5.19189453 C93.8482241,5.44580205 93.5329603,5.80761484 93.2600098,6.27734375 C92.9870592,6.74707266 92.7807624,7.31624015 92.6411133,7.98486328 L92,11 L90.9335938,11 L92.4189453,4.04296875 L93.3012695,4.04296875 L93.1616211,5.33154297 L93.2250977,5.33154297 C93.6313497,4.81526435 94.0238425,4.45027776 94.4025879,4.23657227 C94.7813333,4.02286677 95.1738261,3.91601562 95.5800781,3.91601562 C96.1175157,3.91601562 96.5417465,4.06306819 96.8527832,4.35717773 C97.1638199,4.65128728 97.3193359,5.06282288 97.3193359,5.59179688 C97.3193359,5.92610844 97.2706711,6.30696401 97.1733398,6.734375 L96.265625,11 L95.1865234,11 Z M45.2749023,29 L45.0717773,25.1787109 C45.0548502,24.7809225 45.0463867,24.4169938 45.0463867,24.0869141 L45.0463867,23.0966797 L44.9892578,23.0966797 L44.671875,23.8457031 L44.1450195,25.0454102 L42.2978516,29 L41.015625,29 L40.7426758,22.0429688 L41.7836914,22.0429688 L41.8979492,25.8134766 L41.8979492,26.3720703 C41.8979492,26.9941437 41.8810223,27.5633112 41.847168,28.0795898 L41.8852539,28.0795898 C42.0841481,27.5548476 42.3740215,26.8735393 42.7548828,26.0356445 L44.6274414,22.0429688 L45.7827148,22.0429688 L46.0175781,25.8134766 C46.0429689,26.5244176 46.0556641,27.0787741 46.0556641,27.4765625 L46.0556641,27.8129883 L46.0429688,28.0795898 L46.0810547,28.0795898 C46.1995449,27.7156557 46.3751616,27.2533394 46.6079102,26.692627 C46.8406587,26.1319145 47.5240829,24.5820439 48.6582031,22.0429688 L49.7880859,22.0429688 L46.5761719,29 L45.2749023,29 Z M52.4414062,29.1269531 C51.6627565,29.1269531 51.0512718,28.8963239 50.6069336,28.4350586 C50.1625954,27.9737933 49.9404297,27.3348023 49.9404297,26.5180664 C49.9404297,25.7224895 50.0980616,24.9597204 50.4133301,24.2297363 C50.7285986,23.4997522 51.1464818,22.9316427 51.6669922,22.5253906 C52.1875026,22.1191386 52.7609018,21.9160156 53.387207,21.9160156 C54.0346712,21.9160156 54.52132,22.0567206 54.847168,22.3381348 C55.173016,22.6195489 55.3359375,23.0120418 55.3359375,23.515625 C55.3359375,24.2773476 54.984704,24.8750792 54.2822266,25.3088379 C53.5797491,25.7425966 52.5747136,25.9594727 51.2670898,25.9594727 L51.0576172,25.9594727 L51.0322266,26.4672852 C51.0322266,27.0216499 51.1623522,27.4543441 51.4226074,27.7653809 C51.6828626,28.0764176 52.0859348,28.2319336 52.6318359,28.2319336 C52.8984388,28.2319336 53.1724433,28.193848 53.4538574,28.1176758 C53.7352716,28.0415035 54.0854471,27.9018565 54.5043945,27.6987305 L54.5043945,28.6254883 C54.1066061,28.8116871 53.7553726,28.9418128 53.4506836,29.0158691 C53.1459946,29.0899255 52.8095722,29.1269531 52.4414062,29.1269531 L52.4414062,29.1269531 Z M53.3237305,22.8237305 C52.8878559,22.8237305 52.4784362,23.0226217 52.095459,23.4204102 C51.7124818,23.8181986 51.4194346,24.3704392 51.2163086,25.0771484 L51.2924805,25.0771484 C52.257329,25.0771484 52.9968236,24.9512545 53.5109863,24.6994629 C54.0251491,24.4476713 54.2822266,24.0826847 54.2822266,23.6044922 C54.2822266,23.3802072 54.2049975,23.1940112 54.0505371,23.0458984 C53.8960767,22.8977857 53.6538102,22.8237305 53.3237305,22.8237305 L53.3237305,22.8237305 Z M60.5029297,21.9160156 C60.7949233,21.9160156 61.048827,21.9456377 61.2646484,22.0048828 L61.0361328,22.9570312 C60.8118478,22.902018 60.5896821,22.8745117 60.3696289,22.8745117 C59.9845358,22.8745117 59.623781,23.0014636 59.2873535,23.2553711 C58.9509261,23.5092786 58.6568209,23.86157 58.4050293,24.3122559 C58.1532377,24.7629417 57.9680996,25.2633436 57.8496094,25.8134766 L57.1704102,29 L56.1040039,29 L57.5893555,22.0429688 L58.4716797,22.0429688 L58.3320312,23.331543 L58.3955078,23.331543 C58.7001968,22.9295227 58.9519847,22.6407073 59.1508789,22.4650879 C59.3497731,22.2894685 59.5581858,22.1540532 59.776123,22.0588379 C59.9940603,21.9636226 60.2363268,21.9160156 60.5029297,21.9160156 L60.5029297,21.9160156 Z M64.0893555,29.1269531 C63.2683878,29.1269531 62.6315127,28.9005556 62.1787109,28.4477539 C61.7259092,27.9949522 61.4995117,27.3559612 61.4995117,26.5307617 C61.4995117,25.6844033 61.6560857,24.9036494 61.9692383,24.1884766 C62.2823909,23.4733037 62.7150851,22.9157735 63.267334,22.5158691 C63.8195828,22.1159648 64.440589,21.9160156 65.1303711,21.9160156 C65.7101266,21.9160156 66.2771782,22.0239247 66.831543,22.2397461 L66.5332031,23.1347656 C66.0253881,22.9189442 65.5620138,22.8110352 65.1430664,22.8110352 C64.6691057,22.8110352 64.2364115,22.9728988 63.8449707,23.2966309 C63.4535299,23.6203629 63.1467296,24.071042 62.9245605,24.6486816 C62.7023915,25.2263212 62.5913086,25.853675 62.5913086,26.5307617 C62.5913086,27.0724311 62.7320136,27.4934881 63.0134277,27.7939453 C63.2948419,28.0944025 63.683103,28.2446289 64.1782227,28.2446289 C64.4829117,28.2446289 64.7706692,28.2023116 65.0415039,28.1176758 C65.3123386,28.0330399 65.5789375,27.9335943 65.8413086,27.8193359 L65.8413086,28.7270508 C65.3165664,28.9936537 64.7325879,29.1269531 64.0893555,29.1269531 L64.0893555,29.1269531 Z M68.824707,25.4516602 L72.1635742,22.0429688 L73.4394531,22.0429688 L70.4624023,25.0073242 L72.3349609,29 L71.1479492,29 L69.65625,25.6738281 L68.6914062,26.4545898 L68.1708984,29 L67.0917969,29 L69.1865234,19.1230469 L70.265625,19.1230469 C69.960936,20.544929 69.6879895,21.8186793 69.4467773,22.9443359 C69.2055652,24.0699926 68.989747,24.905759 68.7993164,25.4516602 L68.824707,25.4516602 Z M76.1943359,29.1269531 C75.4156862,29.1269531 74.8042014,28.8963239 74.3598633,28.4350586 C73.9155251,27.9737933 73.6933594,27.3348023 73.6933594,26.5180664 C73.6933594,25.7224895 73.8509913,24.9597204 74.1662598,24.2297363 C74.4815283,23.4997522 74.8994115,22.9316427 75.4199219,22.5253906 C75.9404323,22.1191386 76.5138315,21.9160156 77.1401367,21.9160156 C77.7876009,21.9160156 78.2742497,22.0567206 78.6000977,22.3381348 C78.9259456,22.6195489 79.0888672,23.0120418 79.0888672,23.515625 C79.0888672,24.2773476 78.7376337,24.8750792 78.0351562,25.3088379 C77.3326788,25.7425966 76.3276433,25.9594727 75.0200195,25.9594727 L74.8105469,25.9594727 L74.7851562,26.4672852 C74.7851562,27.0216499 74.9152819,27.4543441 75.1755371,27.7653809 C75.4357923,28.0764176 75.8388645,28.2319336 76.3847656,28.2319336 C76.6513685,28.2319336 76.9253729,28.193848 77.2067871,28.1176758 C77.4882013,28.0415035 77.8383768,27.9018565 78.2573242,27.6987305 L78.2573242,28.6254883 C77.8595358,28.8116871 77.5083023,28.9418128 77.2036133,29.0158691 C76.8989243,29.0899255 76.5625018,29.1269531 76.1943359,29.1269531 L76.1943359,29.1269531 Z M77.0766602,22.8237305 C76.6407856,22.8237305 76.2313658,23.0226217 75.8483887,23.4204102 C75.4654115,23.8181986 75.1723643,24.3704392 74.9692383,25.0771484 L75.0454102,25.0771484 C76.0102587,25.0771484 76.7497533,24.9512545 77.263916,24.6994629 C77.7780787,24.4476713 78.0351562,24.0826847 78.0351562,23.6044922 C78.0351562,23.3802072 77.9579272,23.1940112 77.8034668,23.0458984 C77.6490064,22.8977857 77.4067399,22.8237305 77.0766602,22.8237305 L77.0766602,22.8237305 Z M84.2558594,21.9160156 C84.547853,21.9160156 84.8017567,21.9456377 85.0175781,22.0048828 L84.7890625,22.9570312 C84.5647775,22.902018 84.3426118,22.8745117 84.1225586,22.8745117 C83.7374655,22.8745117 83.3767107,23.0014636 83.0402832,23.2553711 C82.7038557,23.5092786 82.4097506,23.86157 82.157959,24.3122559 C81.9061674,24.7629417 81.7210292,25.2633436 81.6025391,25.8134766 L80.9233398,29 L79.8569336,29 L81.3422852,22.0429688 L82.2246094,22.0429688 L82.0849609,23.331543 L82.1484375,23.331543 C82.4531265,22.9295227 82.7049144,22.6407073 82.9038086,22.4650879 C83.1027028,22.2894685 83.3111154,22.1540532 83.5290527,22.0588379 C83.74699,21.9636226 83.9892565,21.9160156 84.2558594,21.9160156 L84.2558594,21.9160156 Z M84.9033203,28.5302734 C84.9033203,28.2044255 84.9890128,27.9452321 85.1604004,27.7526855 C85.331788,27.560139 85.5677068,27.4638672 85.8681641,27.4638672 C86.0501311,27.4638672 86.1971837,27.5188797 86.3093262,27.6289062 C86.4214687,27.7389328 86.4775391,27.9060861 86.4775391,28.1303711 C86.4775391,28.4308283 86.3929045,28.6815582 86.2236328,28.8825684 C86.0543611,29.0835785 85.8258478,29.184082 85.5380859,29.184082 C85.3434235,29.184082 85.1889654,29.1290696 85.074707,29.019043 C84.9604486,28.9090164 84.9033203,28.7460948 84.9033203,28.5302734 L84.9033203,28.5302734 Z M88.5405273,22.0429688 L89.6069336,22.0429688 L90.0766602,25.5024414 C90.1189781,25.7944351 90.1602374,26.2250134 90.2004395,26.7941895 C90.2406415,27.3633655 90.2607422,27.8214501 90.2607422,28.168457 L90.2988281,28.168457 C90.4469408,27.8002911 90.631021,27.3771183 90.8510742,26.8989258 C91.0711274,26.4207333 91.234049,26.0906585 91.3398438,25.9086914 L93.402832,22.0429688 L94.5327148,22.0429688 L90.1147461,30.1806641 C89.7211894,30.9085323 89.3318704,31.4142238 88.9467773,31.6977539 C88.5616843,31.981284 88.09831,32.1230469 87.5566406,32.1230469 C87.2519516,32.1230469 86.9557306,32.0786137 86.6679688,31.9897461 L86.6679688,31.1328125 C86.9345716,31.2089848 87.2117499,31.2470703 87.4995117,31.2470703 C87.8465187,31.2470703 88.1437976,31.1402192 88.3913574,30.9265137 C88.6389173,30.7128082 88.8790678,30.3964865 89.1118164,29.9775391 L89.5942383,29.1142578 L88.5405273,22.0429688 Z M98.3413086,29 L99.2807617,24.6074219 C99.356934,24.2096334 99.3950195,23.9239918 99.3950195,23.7504883 C99.3950195,23.4542628 99.3294277,23.2236336 99.1982422,23.0585938 C99.0670566,22.8935539 98.842775,22.8110352 98.5253906,22.8110352 C98.1699201,22.8110352 97.8239763,22.937987 97.4875488,23.1918945 C97.1511214,23.4458021 96.8549004,23.8086728 96.598877,24.2805176 C96.3428535,24.7523624 96.1450202,25.3204719 96.0053711,25.9848633 L95.3642578,29 L94.2978516,29 L95.7832031,22.0429688 L96.6655273,22.0429688 L96.5258789,23.331543 L96.5893555,23.331543 C96.9575214,22.8279597 97.3246238,22.4661469 97.6906738,22.2460938 C98.0567238,22.0260406 98.4344056,21.9160156 98.8237305,21.9160156 C99.301923,21.9160156 99.6700833,22.0535468 99.9282227,22.3286133 C100.186362,22.6036798 100.338704,22.9866512 100.385254,23.4775391 L100.436035,23.4775391 C100.799969,22.9485651 101.187172,22.5560722 101.597656,22.3000488 C102.00814,22.0440254 102.422849,21.9160156 102.841797,21.9160156 C103.379234,21.9160156 103.795002,22.0598944 104.089111,22.3476562 C104.383221,22.6354181 104.530273,23.0543592 104.530273,23.6044922 C104.530273,23.892254 104.483724,24.2688779 104.390625,24.734375 L103.476562,29 L102.397461,29 L103.336914,24.6074219 C103.42155,24.1673155 103.463867,23.8583993 103.463867,23.6806641 C103.463867,23.418293 103.39087,23.2077645 103.244873,23.0490723 C103.098876,22.8903801 102.869305,22.8110352 102.556152,22.8110352 C102.213377,22.8110352 101.874839,22.9337553 101.540527,23.1791992 C101.206216,23.4246432 100.913169,23.7727028 100.661377,24.2233887 C100.409585,24.6740745 100.2181,25.2083302 100.086914,25.8261719 L99.4077148,29 L98.3413086,29 Z M106.688477,29 L105.62207,29 L107.729492,19.1230469 L108.795898,19.1230469 L106.688477,29 Z" id="Defined-in" fill="#9B9B9B"></path>
                </g>
                <g id="Group-17" transform="translate(51.000000, 57.000000)">
                    <path d="M51.2519531,6.43310547 C51.2519531,7.53760318 51.0297874,8.5130166 50.5854492,9.359375 C50.1411111,10.2057334 49.5063518,10.8574196 48.6811523,11.3144531 C47.8559529,11.7714867 46.8890029,12 45.7802734,12 L43.5458984,12 L45.5073242,2.71972656 L47.6782227,2.71972656 C48.8461972,2.71972656 49.7338023,3.03604827 50.3410645,3.66870117 C50.9483266,4.30135407 51.2519531,5.22281296 51.2519531,6.43310547 L51.2519531,6.43310547 Z M45.8500977,11.0668945 C46.7049196,11.0668945 47.4560515,10.873293 48.1035156,10.486084 C48.7509798,10.098875 49.24715,9.55192411 49.592041,8.84521484 C49.9369321,8.13850558 50.109375,7.33024543 50.109375,6.42041016 C50.109375,5.51057488 49.891441,4.82186106 49.4555664,4.35424805 C49.0196918,3.88663503 48.3807008,3.65283203 47.5385742,3.65283203 L46.4086914,3.65283203 L44.8217773,11.0668945 L45.8500977,11.0668945 Z M54.78125,12.1269531 C54.0026003,12.1269531 53.3911155,11.8963239 52.9467773,11.4350586 C52.5024392,10.9737933 52.2802734,10.3348023 52.2802734,9.51806641 C52.2802734,8.72248951 52.4379053,7.95972045 52.7531738,7.22973633 C53.0684423,6.49975221 53.4863255,5.93164266 54.0068359,5.52539062 C54.5273464,5.11913859 55.1007456,4.91601562 55.7270508,4.91601562 C56.374515,4.91601562 56.8611637,5.0567206 57.1870117,5.33813477 C57.5128597,5.61954893 57.6757812,6.01204175 57.6757812,6.515625 C57.6757812,7.27734756 57.3245478,7.87507921 56.6220703,8.30883789 C55.9195928,8.74259657 54.9145573,8.95947266 53.6069336,8.95947266 L53.3974609,8.95947266 L53.3720703,9.46728516 C53.3720703,10.0216499 53.502196,10.4543441 53.7624512,10.7653809 C54.0227064,11.0764176 54.4257785,11.2319336 54.9716797,11.2319336 C55.2382826,11.2319336 55.512287,11.193848 55.7937012,11.1176758 C56.0751153,11.0415035 56.4252909,10.9018565 56.8442383,10.6987305 L56.8442383,11.6254883 C56.4464498,11.8116871 56.0952164,11.9418128 55.7905273,12.0158691 C55.4858383,12.0899255 55.1494159,12.1269531 54.78125,12.1269531 L54.78125,12.1269531 Z M55.6635742,5.82373047 C55.2276996,5.82373047 54.8182799,6.02262171 54.4353027,6.42041016 C54.0523256,6.8181986 53.7592784,7.37043917 53.5561523,8.07714844 L53.6323242,8.07714844 C54.5971728,8.07714844 55.3366674,7.95125451 55.8508301,7.69946289 C56.3649928,7.44767127 56.6220703,7.08268468 56.6220703,6.60449219 C56.6220703,6.38020721 56.5448413,6.19401116 56.3903809,6.04589844 C56.2359205,5.89778572 55.993654,5.82373047 55.6635742,5.82373047 L55.6635742,5.82373047 Z M57.4091797,15.1230469 C57.117186,15.1230469 56.852703,15.0786137 56.6157227,14.9897461 L56.6157227,14.0947266 C56.8865573,14.187826 57.1235341,14.234375 57.3266602,14.234375 C57.6482763,14.234375 57.8958325,14.1031914 58.0693359,13.8408203 C58.2428394,13.5784492 58.3824865,13.2039412 58.4882812,12.7172852 L59.9291992,5.84912109 L58.7041016,5.84912109 L58.7866211,5.42382812 L60.0942383,5.00488281 L60.2402344,4.37011719 C60.4348968,3.52375879 60.7046695,2.92602714 61.0495605,2.5769043 C61.3944516,2.22778146 61.9054328,2.05322266 62.5825195,2.05322266 C62.7517912,2.05322266 62.9591459,2.0775551 63.2045898,2.1262207 C63.4500338,2.17488631 63.6404616,2.22884085 63.7758789,2.28808594 L63.5029297,3.10693359 C63.1813135,2.98421163 62.8914401,2.92285156 62.6333008,2.92285156 C62.2651349,2.92285156 61.982667,3.02547098 61.7858887,3.23071289 C61.5891103,3.4359548 61.4293626,3.81152071 61.3066406,4.35742188 L61.1479492,5.04296875 L62.6586914,5.04296875 L62.5,5.84912109 L60.9956055,5.84912109 L59.5229492,12.8188477 C59.3579093,13.6186563 59.1040056,14.2026349 58.7612305,14.5708008 C58.4184553,14.9389667 57.9677762,15.1230469 57.4091797,15.1230469 L57.4091797,15.1230469 Z M63.5917969,12 L62.5253906,12 L64.0107422,5.04296875 L65.0771484,5.04296875 L63.5917969,12 Z M64.309082,3.265625 C64.309082,3.02864465 64.3767897,2.83504307 64.512207,2.68481445 C64.6476244,2.53458584 64.8232411,2.45947266 65.0390625,2.45947266 C65.4114602,2.45947266 65.5976562,2.64990044 65.5976562,3.03076172 C65.5976562,3.26351028 65.5267748,3.46028565 65.3850098,3.62109375 C65.2432447,3.78190185 65.0792653,3.86230469 64.8930664,3.86230469 C64.7237947,3.86230469 64.5841477,3.81046601 64.4741211,3.70678711 C64.3640945,3.60310821 64.309082,3.45605564 64.309082,3.265625 L64.309082,3.265625 Z M70.0917969,12 L71.03125,7.60742188 C71.1158858,7.16731551 71.1582031,6.86263105 71.1582031,6.69335938 C71.1582031,6.42675648 71.0830899,6.21305419 70.9328613,6.05224609 C70.7826327,5.891438 70.5424821,5.81103516 70.2124023,5.81103516 C69.8357729,5.81103516 69.4686704,5.93798701 69.111084,6.19189453 C68.7534976,6.44580205 68.4382338,6.80761484 68.1652832,7.27734375 C67.8923326,7.74707266 67.6860359,8.31624015 67.5463867,8.98486328 L66.9052734,12 L65.8388672,12 L67.3242188,5.04296875 L68.206543,5.04296875 L68.0668945,6.33154297 L68.1303711,6.33154297 C68.5366231,5.81526435 68.9291159,5.45027776 69.3078613,5.23657227 C69.6866067,5.02286677 70.0790995,4.91601562 70.4853516,4.91601562 C71.0227891,4.91601562 71.4470199,5.06306819 71.7580566,5.35717773 C72.0690934,5.65128728 72.2246094,6.06282288 72.2246094,6.59179688 C72.2246094,6.92610844 72.1759445,7.30696401 72.0786133,7.734375 L71.1708984,12 L70.0917969,12 Z M76.090332,12.1269531 C75.3116823,12.1269531 74.7001975,11.8963239 74.2558594,11.4350586 C73.8115212,10.9737933 73.5893555,10.3348023 73.5893555,9.51806641 C73.5893555,8.72248951 73.7469874,7.95972045 74.0622559,7.22973633 C74.3775244,6.49975221 74.7954076,5.93164266 75.315918,5.52539062 C75.8364284,5.11913859 76.4098276,4.91601562 77.0361328,4.91601562 C77.683597,4.91601562 78.1702458,5.0567206 78.4960938,5.33813477 C78.8219417,5.61954893 78.9848633,6.01204175 78.9848633,6.515625 C78.9848633,7.27734756 78.6336298,7.87507921 77.9311523,8.30883789 C77.2286749,8.74259657 76.2236394,8.95947266 74.9160156,8.95947266 L74.706543,8.95947266 L74.6811523,9.46728516 C74.6811523,10.0216499 74.811278,10.4543441 75.0715332,10.7653809 C75.3317884,11.0764176 75.7348606,11.2319336 76.2807617,11.2319336 C76.5473646,11.2319336 76.821369,11.193848 77.1027832,11.1176758 C77.3841974,11.0415035 77.7343729,10.9018565 78.1533203,10.6987305 L78.1533203,11.6254883 C77.7555319,11.8116871 77.4042984,11.9418128 77.0996094,12.0158691 C76.7949204,12.0899255 76.4584979,12.1269531 76.090332,12.1269531 L76.090332,12.1269531 Z M76.9726562,5.82373047 C76.5367817,5.82373047 76.1273619,6.02262171 75.7443848,6.42041016 C75.3614076,6.8181986 75.0683604,7.37043917 74.8652344,8.07714844 L74.9414062,8.07714844 C75.9062548,8.07714844 76.6457494,7.95125451 77.1599121,7.69946289 C77.6740748,7.44767127 77.9311523,7.08268468 77.9311523,6.60449219 C77.9311523,6.38020721 77.8539233,6.19401116 77.6994629,6.04589844 C77.5450025,5.89778572 77.302736,5.82373047 76.9726562,5.82373047 L76.9726562,5.82373047 Z M83.4345703,4.92871094 C84.255538,4.92871094 84.8500958,5.33072515 85.2182617,6.13476562 L85.2817383,6.13476562 C85.3536787,5.47883787 85.4488926,4.89909106 85.5673828,4.39550781 L86.0625,2.12304688 L87.1162109,2.12304688 L85.0214844,12 L84.1391602,12 L84.2788086,10.6733398 L84.2280273,10.6733398 C83.8006164,11.2023138 83.400718,11.5768218 83.0283203,11.796875 C82.6559226,12.0169282 82.2708353,12.1269531 81.8730469,12.1269531 C81.2848278,12.1269531 80.8256852,11.9195984 80.4956055,11.5048828 C80.1655257,11.0901672 80.0004883,10.5146521 80.0004883,9.77832031 C80.0004883,8.87271683 80.1528305,8.04329804 80.4575195,7.29003906 C80.7622086,6.53678009 81.1737442,5.95491742 81.6921387,5.54443359 C82.2105332,5.13394977 82.7913379,4.92871094 83.4345703,4.92871094 L83.4345703,4.92871094 Z M82.2285156,11.2446289 C82.6263041,11.2446289 83.0367817,11.0467956 83.4599609,10.651123 C83.8831401,10.2554505 84.2185046,9.74975894 84.4660645,9.1340332 C84.7136243,8.51830747 84.8374023,7.89095372 84.8374023,7.25195312 C84.8374023,6.78222421 84.7231457,6.42464315 84.4946289,6.17919922 C84.2661121,5.93375528 83.9339215,5.81103516 83.4980469,5.81103516 C83.0706359,5.81103516 82.6739113,5.98559396 82.3078613,6.3347168 C81.9418113,6.68383964 81.6477062,7.17472014 81.4255371,7.80737305 C81.203368,8.44002595 81.0922852,9.10546526 81.0922852,9.80371094 C81.0922852,10.7643277 81.4710249,11.2446289 82.2285156,11.2446289 L82.2285156,11.2446289 Z M91.6992188,12 L90.6328125,12 L92.1181641,5.04296875 L93.1845703,5.04296875 L91.6992188,12 Z M92.4165039,3.265625 C92.4165039,3.02864465 92.4842116,2.83504307 92.6196289,2.68481445 C92.7550462,2.53458584 92.930663,2.45947266 93.1464844,2.45947266 C93.5188821,2.45947266 93.7050781,2.64990044 93.7050781,3.03076172 C93.7050781,3.26351028 93.6341967,3.46028565 93.4924316,3.62109375 C93.3506666,3.78190185 93.1866871,3.86230469 93.0004883,3.86230469 C92.8312166,3.86230469 92.6915696,3.81046601 92.581543,3.70678711 C92.4715164,3.60310821 92.4165039,3.45605564 92.4165039,3.265625 L92.4165039,3.265625 Z M98.1865234,12 L99.1259766,7.60742188 C99.2106124,7.16731551 99.2529297,6.86263105 99.2529297,6.69335938 C99.2529297,6.42675648 99.1778165,6.21305419 99.0275879,6.05224609 C98.8773593,5.891438 98.6372087,5.81103516 98.3071289,5.81103516 C97.9304994,5.81103516 97.563397,5.93798701 97.2058105,6.19189453 C96.8482241,6.44580205 96.5329603,6.80761484 96.2600098,7.27734375 C95.9870592,7.74707266 95.7807624,8.31624015 95.6411133,8.98486328 L95,12 L93.9335938,12 L95.4189453,5.04296875 L96.3012695,5.04296875 L96.1616211,6.33154297 L96.2250977,6.33154297 C96.6313497,5.81526435 97.0238425,5.45027776 97.4025879,5.23657227 C97.7813333,5.02286677 98.1738261,4.91601562 98.5800781,4.91601562 C99.1175157,4.91601562 99.5417465,5.06306819 99.8527832,5.35717773 C100.16382,5.65128728 100.319336,6.06282288 100.319336,6.59179688 C100.319336,6.92610844 100.270671,7.30696401 100.17334,7.734375 L99.265625,12 L98.1865234,12 Z M51.9311523,20.7197266 L50.6298828,26.8515625 C50.3971343,27.9645238 49.9792511,28.7886529 49.3762207,29.3239746 C48.7731903,29.8592963 47.9511771,30.1269531 46.9101562,30.1269531 C45.9368441,30.1269531 45.2153344,29.9069032 44.7456055,29.4667969 C44.2758766,29.0266905 44.0410156,28.3940471 44.0410156,27.5688477 C44.0410156,27.2260725 44.0917964,26.8007838 44.1933594,26.2929688 L45.3930664,20.7197266 L46.472168,20.7197266 L45.2597656,26.3754883 C45.1666662,26.8240582 45.1201172,27.2218407 45.1201172,27.5688477 C45.1201172,28.0639673 45.2745753,28.4543443 45.5834961,28.7399902 C45.8924169,29.0256362 46.3536753,29.168457 46.9672852,29.168457 C47.6951534,29.168457 48.2611471,28.9833189 48.6652832,28.6130371 C49.0694193,28.2427553 49.3645824,27.6302126 49.5507812,26.7753906 L50.8520508,20.7197266 L51.9311523,20.7197266 Z M56.4506836,28.0258789 C56.4506836,28.6860385 56.2168806,29.2012514 55.7492676,29.5715332 C55.2816546,29.941815 54.6225628,30.1269531 53.7719727,30.1269531 C53.0567998,30.1269531 52.4114612,29.9809585 51.8359375,29.6889648 L51.8359375,28.6860352 C52.1321629,28.8637704 52.4516584,29.0013016 52.7944336,29.0986328 C53.1372087,29.195964 53.4545884,29.2446289 53.746582,29.2446289 C54.2797878,29.2446289 54.681802,29.1388357 54.9526367,28.9272461 C55.2234714,28.7156565 55.3588867,28.4448259 55.3588867,28.1147461 C55.3588867,27.873534 55.2848315,27.670411 55.1367188,27.5053711 C54.988606,27.3403312 54.6691105,27.1139337 54.1782227,26.8261719 C53.6280897,26.5172511 53.2387707,26.2146825 53.0102539,25.918457 C52.7817371,25.6222316 52.6674805,25.2709981 52.6674805,24.8647461 C52.6674805,24.2807588 52.8811828,23.809979 53.3085938,23.4523926 C53.7360047,23.0948062 54.2988246,22.9160156 54.9970703,22.9160156 C55.7207067,22.9160156 56.4189419,23.0725896 57.0917969,23.3857422 L56.7490234,24.2553711 L56.3935547,24.0966797 C55.9661437,23.9147126 55.5006536,23.8237305 54.9970703,23.8237305 C54.6035137,23.8237305 54.2945975,23.9157706 54.0703125,24.0998535 C53.8460275,24.2839365 53.7338867,24.5219712 53.7338867,24.8139648 C53.7338867,25.0509452 53.8089999,25.2540682 53.9592285,25.4233398 C54.1094571,25.5926115 54.4194312,25.8105455 54.8891602,26.0771484 C55.3419619,26.331056 55.6667471,26.54899 55.8635254,26.730957 C56.0603037,26.9129241 56.2073563,27.1086415 56.3046875,27.3181152 C56.4020187,27.5275889 56.4506836,27.7635078 56.4506836,28.0258789 L56.4506836,28.0258789 Z M60.4750977,30.1269531 C59.6964479,30.1269531 59.0849632,29.8963239 58.640625,29.4350586 C58.1962868,28.9737933 57.9741211,28.3348023 57.9741211,27.5180664 C57.9741211,26.7224895 58.131753,25.9597204 58.4470215,25.2297363 C58.76229,24.4997522 59.1801732,23.9316427 59.7006836,23.5253906 C60.221194,23.1191386 60.7945932,22.9160156 61.4208984,22.9160156 C62.0683626,22.9160156 62.5550114,23.0567206 62.8808594,23.3381348 C63.2067074,23.6195489 63.3696289,24.0120418 63.3696289,24.515625 C63.3696289,25.2773476 63.0183954,25.8750792 62.315918,26.3088379 C61.6134405,26.7425966 60.608405,26.9594727 59.3007812,26.9594727 L59.0913086,26.9594727 L59.065918,27.4672852 C59.065918,28.0216499 59.1960436,28.4543441 59.4562988,28.7653809 C59.716554,29.0764176 60.1196262,29.2319336 60.6655273,29.2319336 C60.9321302,29.2319336 61.2061347,29.193848 61.4875488,29.1176758 C61.768963,29.0415035 62.1191385,28.9018565 62.5380859,28.6987305 L62.5380859,29.6254883 C62.1402975,29.8116871 61.789064,29.9418128 61.484375,30.0158691 C61.179686,30.0899255 60.8432636,30.1269531 60.4750977,30.1269531 L60.4750977,30.1269531 Z M61.3574219,23.8237305 C60.9215473,23.8237305 60.5121276,24.0226217 60.1291504,24.4204102 C59.7461732,24.8181986 59.453126,25.3704392 59.25,26.0771484 L59.3261719,26.0771484 C60.2910204,26.0771484 61.030515,25.9512545 61.5446777,25.6994629 C62.0588405,25.4476713 62.315918,25.0826847 62.315918,24.6044922 C62.315918,24.3802072 62.2386889,24.1940112 62.0842285,24.0458984 C61.9297681,23.8977857 61.6875017,23.8237305 61.3574219,23.8237305 L61.3574219,23.8237305 Z M68.5366211,22.9160156 C68.8286147,22.9160156 69.0825185,22.9456377 69.2983398,23.0048828 L69.0698242,23.9570312 C68.8455392,23.902018 68.6233735,23.8745117 68.4033203,23.8745117 C68.0182272,23.8745117 67.6574724,24.0014636 67.3210449,24.2553711 C66.9846175,24.5092786 66.6905123,24.86157 66.4387207,25.3122559 C66.1869291,25.7629417 66.001791,26.2633436 65.8833008,26.8134766 L65.2041016,30 L64.1376953,30 L65.6230469,23.0429688 L66.5053711,23.0429688 L66.3657227,24.331543 L66.4291992,24.331543 C66.7338882,23.9295227 66.9856761,23.6407073 67.1845703,23.4650879 C67.3834645,23.2894685 67.5918772,23.1540532 67.8098145,23.0588379 C68.0277517,22.9636226 68.2700182,22.9160156 68.5366211,22.9160156 L68.5366211,22.9160156 Z M72.8339844,30 L74.8081055,20.7197266 L75.8745117,20.7197266 L73.9003906,30 L72.8339844,30 Z M80.4638672,30 L81.4033203,25.6074219 C81.4879562,25.1673155 81.5302734,24.8626311 81.5302734,24.6933594 C81.5302734,24.4267565 81.4551603,24.2130542 81.3049316,24.0522461 C81.154703,23.891438 80.9145524,23.8110352 80.5844727,23.8110352 C80.2078432,23.8110352 79.8407407,23.937987 79.4831543,24.1918945 C79.1255679,24.4458021 78.8103041,24.8076148 78.5373535,25.2773438 C78.2644029,25.7470727 78.0581062,26.3162401 77.918457,26.9848633 L77.2773438,30 L76.2109375,30 L77.6962891,23.0429688 L78.5786133,23.0429688 L78.4389648,24.331543 L78.5024414,24.331543 C78.9086934,23.8152643 79.3011863,23.4502778 79.6799316,23.2365723 C80.058677,23.0228668 80.4511698,22.9160156 80.8574219,22.9160156 C81.3948595,22.9160156 81.8190902,23.0630682 82.130127,23.3571777 C82.4411637,23.6512873 82.5966797,24.0628229 82.5966797,24.5917969 C82.5966797,24.9261084 82.5480148,25.306964 82.4506836,25.734375 L81.5429688,30 L80.4638672,30 Z M85.8466797,29.2573242 C86.0794282,29.2573242 86.3841127,29.2023117 86.7607422,29.0922852 L86.7607422,29.9111328 C86.6168613,29.9703779 86.4391287,30.0211586 86.2275391,30.0634766 C86.0159495,30.1057945 85.8466803,30.1269531 85.7197266,30.1269531 C85.1907526,30.1269531 84.7855646,30.0010592 84.5041504,29.7492676 C84.2227362,29.497476 84.0820312,29.12191 84.0820312,28.6225586 C84.0820312,28.3432603 84.1201168,28.0258807 84.1962891,27.6704102 L85.0024414,23.8491211 L83.9106445,23.8491211 L83.9995117,23.3857422 L85.1738281,22.890625 L85.9672852,21.4433594 L86.5893555,21.4433594 L86.2402344,23.0429688 L87.9794922,23.0429688 L87.8144531,23.8491211 L86.081543,23.8491211 L85.2626953,27.6831055 C85.1865231,28.0512714 85.1484375,28.3305655 85.1484375,28.5209961 C85.1484375,28.7579764 85.2097976,28.9399408 85.3325195,29.0668945 C85.4552415,29.1938483 85.6266265,29.2573242 85.8466797,29.2573242 L85.8466797,29.2573242 Z M90.6772461,30.1269531 C89.8985964,30.1269531 89.2871116,29.8963239 88.8427734,29.4350586 C88.3984353,28.9737933 88.1762695,28.3348023 88.1762695,27.5180664 C88.1762695,26.7224895 88.3339014,25.9597204 88.6491699,25.2297363 C88.9644384,24.4997522 89.3823216,23.9316427 89.902832,23.5253906 C90.4233424,23.1191386 90.9967417,22.9160156 91.6230469,22.9160156 C92.270511,22.9160156 92.7571598,23.0567206 93.0830078,23.3381348 C93.4088558,23.6195489 93.5717773,24.0120418 93.5717773,24.515625 C93.5717773,25.2773476 93.2205439,25.8750792 92.5180664,26.3088379 C91.8155889,26.7425966 90.8105534,26.9594727 89.5029297,26.9594727 L89.293457,26.9594727 L89.2680664,27.4672852 C89.2680664,28.0216499 89.3981921,28.4543441 89.6584473,28.7653809 C89.9187025,29.0764176 90.3217746,29.2319336 90.8676758,29.2319336 C91.1342787,29.2319336 91.4082831,29.193848 91.6896973,29.1176758 C91.9711114,29.0415035 92.321287,28.9018565 92.7402344,28.6987305 L92.7402344,29.6254883 C92.3424459,29.8116871 91.9912125,29.9418128 91.6865234,30.0158691 C91.3818344,30.0899255 91.045412,30.1269531 90.6772461,30.1269531 L90.6772461,30.1269531 Z M91.5595703,23.8237305 C91.1236957,23.8237305 90.714276,24.0226217 90.3312988,24.4204102 C89.9483217,24.8181986 89.6552745,25.3704392 89.4521484,26.0771484 L89.5283203,26.0771484 C90.4931689,26.0771484 91.2326634,25.9512545 91.7468262,25.6994629 C92.2609889,25.4476713 92.5180664,25.0826847 92.5180664,24.6044922 C92.5180664,24.3802072 92.4408374,24.1940112 92.286377,24.0458984 C92.1319165,23.8977857 91.8896501,23.8237305 91.5595703,23.8237305 L91.5595703,23.8237305 Z M98.7387695,22.9160156 C99.0307632,22.9160156 99.2846669,22.9456377 99.5004883,23.0048828 L99.2719727,23.9570312 C99.0476877,23.902018 98.8255219,23.8745117 98.6054688,23.8745117 C98.2203757,23.8745117 97.8596208,24.0014636 97.5231934,24.2553711 C97.1867659,24.5092786 96.8926608,24.86157 96.6408691,25.3122559 C96.3890775,25.7629417 96.2039394,26.2633436 96.0854492,26.8134766 L95.40625,30 L94.3398438,30 L95.8251953,23.0429688 L96.7075195,23.0429688 L96.5678711,24.331543 L96.6313477,24.331543 C96.9360367,23.9295227 97.1878245,23.6407073 97.3867188,23.4650879 C97.585613,23.2894685 97.7940256,23.1540532 98.0119629,23.0588379 C98.2299002,22.9636226 98.4721666,22.9160156 98.7387695,22.9160156 L98.7387695,22.9160156 Z M98.453125,33.1230469 C98.1611314,33.1230469 97.8966483,33.0786137 97.659668,32.9897461 L97.659668,32.0947266 C97.9305027,32.187826 98.1674795,32.234375 98.3706055,32.234375 C98.6922217,32.234375 98.9397778,32.1031914 99.1132812,31.8408203 C99.2867847,31.5784492 99.4264318,31.2039412 99.5322266,30.7172852 L100.973145,23.8491211 L99.7480469,23.8491211 L99.8305664,23.4238281 L101.138184,23.0048828 L101.28418,22.3701172 C101.478842,21.5237588 101.748615,20.9260271 102.093506,20.5769043 C102.438397,20.2277815 102.949378,20.0532227 103.626465,20.0532227 C103.795737,20.0532227 104.003091,20.0775551 104.248535,20.1262207 C104.493979,20.1748863 104.684407,20.2288408 104.819824,20.2880859 L104.546875,21.1069336 C104.225259,20.9842116 103.935385,20.9228516 103.677246,20.9228516 C103.30908,20.9228516 103.026612,21.025471 102.829834,21.2307129 C102.633056,21.4359548 102.473308,21.8115207 102.350586,22.3574219 L102.191895,23.0429688 L103.702637,23.0429688 L103.543945,23.8491211 L102.039551,23.8491211 L100.566895,30.8188477 C100.401855,31.6186563 100.147951,32.2026349 99.8051758,32.5708008 C99.4624006,32.9389667 99.0117215,33.1230469 98.453125,33.1230469 L98.453125,33.1230469 Z M107.238281,22.9160156 C107.627606,22.9160156 107.974608,23.0207509 108.279297,23.2302246 C108.583986,23.4396983 108.820963,23.741209 108.990234,24.1347656 L109.060059,24.1347656 L109.485352,23.0429688 L110.291504,23.0429688 L108.8125,30 L107.968262,30 L108.133301,28.6733398 L108.08252,28.6733398 C107.325029,29.6424202 106.527348,30.1269531 105.689453,30.1269531 C105.101234,30.1269531 104.639976,29.9174826 104.305664,29.4985352 C103.971352,29.0795877 103.804199,28.5061885 103.804199,27.7783203 C103.804199,26.8981076 103.954426,26.081384 104.254883,25.328125 C104.55534,24.574866 104.970049,23.9845399 105.499023,23.5571289 C106.027997,23.1297179 106.607744,22.9160156 107.238281,22.9160156 L107.238281,22.9160156 Z M106.032227,29.2446289 C106.44271,29.2446289 106.851072,29.0489115 107.257324,28.6574707 C107.663576,28.2660299 107.993651,27.7561067 108.247559,27.1276855 C108.501466,26.4992644 108.628418,25.8697948 108.628418,25.2392578 C108.628418,24.8033832 108.50993,24.4563815 108.272949,24.1982422 C108.035969,23.9401029 107.724937,23.8110352 107.339844,23.8110352 C106.899737,23.8110352 106.490318,23.9929995 106.111572,24.3569336 C105.732827,24.7208677 105.435548,25.2138641 105.219727,25.8359375 C105.003905,26.4580109 104.895996,27.1139288 104.895996,27.8037109 C104.895996,28.2861352 104.995442,28.6468901 105.194336,28.8859863 C105.39323,29.1250826 105.672524,29.2446289 106.032227,29.2446289 L106.032227,29.2446289 Z M113.738281,30.1269531 C112.917314,30.1269531 112.280438,29.9005556 111.827637,29.4477539 C111.374835,28.9949522 111.148438,28.3559612 111.148438,27.5307617 C111.148438,26.6844033 111.305011,25.9036494 111.618164,25.1884766 C111.931317,24.4733037 112.364011,23.9157735 112.91626,23.5158691 C113.468509,23.1159648 114.089515,22.9160156 114.779297,22.9160156 C115.359052,22.9160156 115.926104,23.0239247 116.480469,23.2397461 L116.182129,24.1347656 C115.674314,23.9189442 115.21094,23.8110352 114.791992,23.8110352 C114.318031,23.8110352 113.885337,23.9728988 113.493896,24.2966309 C113.102456,24.6203629 112.795655,25.071042 112.573486,25.6486816 C112.351317,26.2263212 112.240234,26.853675 112.240234,27.5307617 C112.240234,28.0724311 112.380939,28.4934881 112.662354,28.7939453 C112.943768,29.0944025 113.332029,29.2446289 113.827148,29.2446289 C114.131837,29.2446289 114.419595,29.2023116 114.69043,29.1176758 C114.961264,29.0330399 115.227863,28.9335943 115.490234,28.8193359 L115.490234,29.7270508 C114.965492,29.9936537 114.381514,30.1269531 113.738281,30.1269531 L113.738281,30.1269531 Z M119.501953,30.1269531 C118.723303,30.1269531 118.111819,29.8963239 117.66748,29.4350586 C117.223142,28.9737933 117.000977,28.3348023 117.000977,27.5180664 C117.000977,26.7224895 117.158608,25.9597204 117.473877,25.2297363 C117.789145,24.4997522 118.207029,23.9316427 118.727539,23.5253906 C119.248049,23.1191386 119.821449,22.9160156 120.447754,22.9160156 C121.095218,22.9160156 121.581867,23.0567206 121.907715,23.3381348 C122.233563,23.6195489 122.396484,24.0120418 122.396484,24.515625 C122.396484,25.2773476 122.045251,25.8750792 121.342773,26.3088379 C120.640296,26.7425966 119.63526,26.9594727 118.327637,26.9594727 L118.118164,26.9594727 L118.092773,27.4672852 C118.092773,28.0216499 118.222899,28.4543441 118.483154,28.7653809 C118.74341,29.0764176 119.146482,29.2319336 119.692383,29.2319336 C119.958986,29.2319336 120.23299,29.193848 120.514404,29.1176758 C120.795818,29.0415035 121.145994,28.9018565 121.564941,28.6987305 L121.564941,29.6254883 C121.167153,29.8116871 120.815919,29.9418128 120.51123,30.0158691 C120.206541,30.0899255 119.870119,30.1269531 119.501953,30.1269531 L119.501953,30.1269531 Z M120.384277,23.8237305 C119.948403,23.8237305 119.538983,24.0226217 119.156006,24.4204102 C118.773029,24.8181986 118.479981,25.3704392 118.276855,26.0771484 L118.353027,26.0771484 C119.317876,26.0771484 120.05737,25.9512545 120.571533,25.6994629 C121.085696,25.4476713 121.342773,25.0826847 121.342773,24.6044922 C121.342773,24.3802072 121.265544,24.1940112 121.111084,24.0458984 C120.956624,23.8977857 120.714357,23.8237305 120.384277,23.8237305 L120.384277,23.8237305 Z" id="Defined-in" fill="#9B9B9B"></path>
                    <g id="Group-14">
                        <path d="M1.83333333,10.6944444 L31.1911117,10.6944444" id="Line" stroke="#B0B8C6" stroke-width="1.5" stroke-linecap="square"></path>
                        <rect id="Rectangle-165" stroke="#B0B8C6" stroke-width="1.5" x="0" y="0" width="33" height="33" rx="4"></rect>
                        <circle id="Oval-27" fill="#B0B8C6" cx="4.88888889" cy="6.11111111" r="1.22222222"></circle>
                        <circle id="Oval-27-Copy" fill="#B0B8C6" cx="8.55555556" cy="6.11111111" r="1.22222222"></circle>
                        <ellipse id="Oval-27-Copy-2" fill="#B0B8C6" cx="12.2222222" cy="6.11111111" rx="1.22222222" ry="1.22222222"></ellipse>
                    </g>
                </g>
                <path d="M0,18 C0,8.0588745 8.0643084,0 17.9998933,0 L107,0 L114.991409,18 L107,36 L17.9998933,36 C8.05882675,36 0,27.9433113 0,18 L0,18 Z" id="Rectangle-27-Copy" fill="#6AC03B"></path>
                <path d="M559,18 C559,8.0588745 550.9415,0 540.999503,0 L436,0 L444.008591,18 L436,36 L540.999503,36 C550.940903,36 559,27.9433113 559,18 L559,18 Z" id="Rectangle-27-Copy-4" fill="#33BCF0"></path>
                <path d="M117,17.8916016 L109,0 L216,0 L223.991409,18 L216,36 L109,36 L117,17.8916016 Z" id="Rectangle-27-Copy-2" fill="#6AC03B"></path>
                <path d="M335,17.8916016 L327,0 L434,0 L441.991409,18 L434,36 L327,36 L335,17.8916016 Z" id="Rectangle-27-Copy-5" fill="#33BCF0"></path>
                <path d="M225.99991,17.8916016 L218,0 L324.998679,0 L332.989998,18 L324.998679,36 L218,36 L225.99991,17.8916016 Z" id="Rectangle-27-Copy-3" fill="#DCDFE0"></path>
                <path d="M48.4765625,24 L47.1484375,24 L47.1484375,18.625 L41.1328125,18.625 L41.1328125,24 L39.8046875,24 L39.8046875,12.578125 L41.1328125,12.578125 L41.1328125,17.4375 L47.1484375,17.4375 L47.1484375,12.578125 L48.4765625,12.578125 L48.4765625,24 Z M58.8046875,19.7109375 C58.8046875,21.1067778 58.4531285,22.1966107 57.75,22.9804688 C57.0468715,23.7643268 56.075527,24.15625 54.8359375,24.15625 C54.0703087,24.15625 53.390628,23.9765643 52.796875,23.6171875 C52.203122,23.2578107 51.7447933,22.7421909 51.421875,22.0703125 C51.0989567,21.3984341 50.9375,20.6119837 50.9375,19.7109375 C50.9375,18.3150972 51.2864548,17.2278685 51.984375,16.4492188 C52.6822952,15.670569 53.6510355,15.28125 54.890625,15.28125 C56.0885477,15.28125 57.0403611,15.6796835 57.7460938,16.4765625 C58.4518264,17.2734415 58.8046875,18.3515557 58.8046875,19.7109375 L58.8046875,19.7109375 Z M52.28125,19.7109375 C52.28125,20.804693 52.4999978,21.638018 52.9375,22.2109375 C53.3750022,22.783857 54.0182249,23.0703125 54.8671875,23.0703125 C55.7161501,23.0703125 56.3606749,22.7851591 56.8007812,22.2148438 C57.2408876,21.6445284 57.4609375,20.8099013 57.4609375,19.7109375 C57.4609375,18.6223904 57.2408876,17.7955757 56.8007812,17.2304688 C56.3606749,16.6653618 55.7109418,16.3828125 54.8515625,16.3828125 C54.0025999,16.3828125 53.3619813,16.6614555 52.9296875,17.21875 C52.4973937,17.7760445 52.28125,18.6067653 52.28125,19.7109375 L52.28125,19.7109375 Z M68.46875,19.7109375 C68.46875,21.1067778 68.117191,22.1966107 67.4140625,22.9804688 C66.710934,23.7643268 65.7395895,24.15625 64.5,24.15625 C63.7343712,24.15625 63.0546905,23.9765643 62.4609375,23.6171875 C61.8671845,23.2578107 61.4088558,22.7421909 61.0859375,22.0703125 C60.7630192,21.3984341 60.6015625,20.6119837 60.6015625,19.7109375 C60.6015625,18.3150972 60.9505173,17.2278685 61.6484375,16.4492188 C62.3463577,15.670569 63.315098,15.28125 64.5546875,15.28125 C65.7526102,15.28125 66.7044236,15.6796835 67.4101562,16.4765625 C68.1158889,17.2734415 68.46875,18.3515557 68.46875,19.7109375 L68.46875,19.7109375 Z M61.9453125,19.7109375 C61.9453125,20.804693 62.1640603,21.638018 62.6015625,22.2109375 C63.0390647,22.783857 63.6822874,23.0703125 64.53125,23.0703125 C65.3802126,23.0703125 66.0247374,22.7851591 66.4648438,22.2148438 C66.9049501,21.6445284 67.125,20.8099013 67.125,19.7109375 C67.125,18.6223904 66.9049501,17.7955757 66.4648438,17.2304688 C66.0247374,16.6653618 65.3750043,16.3828125 64.515625,16.3828125 C63.6666624,16.3828125 63.0260438,16.6614555 62.59375,17.21875 C62.1614562,17.7760445 61.9453125,18.6067653 61.9453125,19.7109375 L61.9453125,19.7109375 Z M72.0234375,19.6171875 C72.247397,19.2994776 72.5885394,18.8828151 73.046875,18.3671875 L75.8125,15.4375 L77.3515625,15.4375 L73.8828125,19.0859375 L77.59375,24 L76.0234375,24 L73,19.953125 L72.0234375,20.796875 L72.0234375,24 L70.7421875,24 L70.7421875,11.84375 L72.0234375,11.84375 L72.0234375,18.2890625 C72.0234375,18.5755223 72.0026044,19.0182262 71.9609375,19.6171875 L72.0234375,19.6171875 Z" id="Hook" fill="#FFFFFF"></path>
                <path d="M141.367188,24 L140.054688,24 L137.75,16.3515625 C137.640624,16.0130191 137.51823,15.5859401 137.382812,15.0703125 C137.247395,14.5546849 137.177083,14.2447922 137.171875,14.140625 C137.057291,14.8281284 136.875001,15.5807251 136.625,16.3984375 L134.390625,24 L133.078125,24 L130.039062,12.578125 L131.445312,12.578125 L133.25,19.6328125 C133.500001,20.6224008 133.682291,21.5182252 133.796875,22.3203125 C133.937501,21.3671827 134.145832,20.4349004 134.421875,19.5234375 L136.46875,12.578125 L137.875,12.578125 L140.023438,19.5859375 C140.273439,20.3932332 140.484374,21.3046824 140.65625,22.3203125 C140.755209,21.5807255 140.942707,20.6796928 141.21875,19.6171875 L143.015625,12.578125 L144.421875,12.578125 L141.367188,24 Z M153.085938,19.7109375 C153.085938,21.1067778 152.734379,22.1966107 152.03125,22.9804688 C151.328121,23.7643268 150.356777,24.15625 149.117188,24.15625 C148.351559,24.15625 147.671878,23.9765643 147.078125,23.6171875 C146.484372,23.2578107 146.026043,22.7421909 145.703125,22.0703125 C145.380207,21.3984341 145.21875,20.6119837 145.21875,19.7109375 C145.21875,18.3150972 145.567705,17.2278685 146.265625,16.4492188 C146.963545,15.670569 147.932285,15.28125 149.171875,15.28125 C150.369798,15.28125 151.321611,15.6796835 152.027344,16.4765625 C152.733076,17.2734415 153.085938,18.3515557 153.085938,19.7109375 L153.085938,19.7109375 Z M146.5625,19.7109375 C146.5625,20.804693 146.781248,21.638018 147.21875,22.2109375 C147.656252,22.783857 148.299475,23.0703125 149.148438,23.0703125 C149.9974,23.0703125 150.641925,22.7851591 151.082031,22.2148438 C151.522138,21.6445284 151.742188,20.8099013 151.742188,19.7109375 C151.742188,18.6223904 151.522138,17.7955757 151.082031,17.2304688 C150.641925,16.6653618 149.992192,16.3828125 149.132812,16.3828125 C148.28385,16.3828125 147.643231,16.6614555 147.210938,17.21875 C146.778644,17.7760445 146.5625,18.6067653 146.5625,19.7109375 L146.5625,19.7109375 Z M159.265625,15.28125 C159.645835,15.28125 159.986978,15.3124997 160.289062,15.375 L160.109375,16.578125 C159.755207,16.4999996 159.44271,16.4609375 159.171875,16.4609375 C158.479163,16.4609375 157.886721,16.7421847 157.394531,17.3046875 C156.902341,17.8671903 156.65625,18.5677041 156.65625,19.40625 L156.65625,24 L155.359375,24 L155.359375,15.4375 L156.429688,15.4375 L156.578125,17.0234375 L156.640625,17.0234375 C156.958335,16.466143 157.341144,16.0364598 157.789062,15.734375 C158.236981,15.4322902 158.729164,15.28125 159.265625,15.28125 L159.265625,15.28125 Z M163.171875,19.6171875 C163.395834,19.2994776 163.736977,18.8828151 164.195312,18.3671875 L166.960938,15.4375 L168.5,15.4375 L165.03125,19.0859375 L168.742188,24 L167.171875,24 L164.148438,19.953125 L163.171875,20.796875 L163.171875,24 L161.890625,24 L161.890625,11.84375 L163.171875,11.84375 L163.171875,18.2890625 C163.171875,18.5755223 163.151042,19.0182262 163.109375,19.6171875 L163.171875,19.6171875 Z M174.148438,16.4453125 L171.96875,16.4453125 L171.96875,24 L170.671875,24 L170.671875,16.4453125 L169.140625,16.4453125 L169.140625,15.859375 L170.671875,15.390625 L170.671875,14.9140625 C170.671875,12.8098853 171.591137,11.7578125 173.429688,11.7578125 C173.882815,11.7578125 174.414059,11.8489574 175.023438,12.03125 L174.6875,13.0703125 C174.187498,12.9088534 173.760418,12.828125 173.40625,12.828125 C172.916664,12.828125 172.554689,12.9908838 172.320312,13.3164062 C172.085936,13.6419287 171.96875,14.1640589 171.96875,14.8828125 L171.96875,15.4375 L174.148438,15.4375 L174.148438,16.4453125 Z M177.007812,24 L175.710938,24 L175.710938,11.84375 L177.007812,11.84375 L177.007812,24 Z M187.148438,19.7109375 C187.148438,21.1067778 186.796879,22.1966107 186.09375,22.9804688 C185.390621,23.7643268 184.419277,24.15625 183.179688,24.15625 C182.414059,24.15625 181.734378,23.9765643 181.140625,23.6171875 C180.546872,23.2578107 180.088543,22.7421909 179.765625,22.0703125 C179.442707,21.3984341 179.28125,20.6119837 179.28125,19.7109375 C179.28125,18.3150972 179.630205,17.2278685 180.328125,16.4492188 C181.026045,15.670569 181.994785,15.28125 183.234375,15.28125 C184.432298,15.28125 185.384111,15.6796835 186.089844,16.4765625 C186.795576,17.2734415 187.148438,18.3515557 187.148438,19.7109375 L187.148438,19.7109375 Z M180.625,19.7109375 C180.625,20.804693 180.843748,21.638018 181.28125,22.2109375 C181.718752,22.783857 182.361975,23.0703125 183.210938,23.0703125 C184.0599,23.0703125 184.704425,22.7851591 185.144531,22.2148438 C185.584638,21.6445284 185.804688,20.8099013 185.804688,19.7109375 C185.804688,18.6223904 185.584638,17.7955757 185.144531,17.2304688 C184.704425,16.6653618 184.054692,16.3828125 183.195312,16.3828125 C182.34635,16.3828125 181.705731,16.6614555 181.273438,17.21875 C180.841144,17.7760445 180.625,18.6067653 180.625,19.7109375 L180.625,19.7109375 Z M196.09375,24 L194.523438,18.9765625 C194.424479,18.6692693 194.239585,17.9713596 193.96875,16.8828125 L193.90625,16.8828125 C193.697916,17.7942754 193.515626,18.4973934 193.359375,18.9921875 L191.742188,24 L190.242188,24 L187.90625,15.4375 L189.265625,15.4375 C189.817711,17.5885524 190.23828,19.2265569 190.527344,20.3515625 C190.816408,21.4765681 190.981771,22.234373 191.023438,22.625 L191.085938,22.625 C191.143229,22.3281235 191.235676,21.9440128 191.363281,21.4726562 C191.490886,21.0012997 191.601562,20.6276055 191.695312,20.3515625 L193.265625,15.4375 L194.671875,15.4375 L196.203125,20.3515625 C196.494793,21.2474003 196.692708,21.999997 196.796875,22.609375 L196.859375,22.609375 C196.880208,22.4218741 196.936197,22.1328145 197.027344,21.7421875 C197.11849,21.3515605 197.661453,19.2500191 198.65625,15.4375 L200,15.4375 L197.632812,24 L196.09375,24 Z" id="Workflow" fill="#FFFFFF"></path>
                <path d="M364.636719,15.90625 C364.636719,17.0625058 364.242191,17.9518198 363.453125,18.5742188 C362.664059,19.1966177 361.535164,19.5078125 360.066406,19.5078125 L358.722656,19.5078125 L358.722656,24 L357.394531,24 L357.394531,12.578125 L360.355469,12.578125 C363.20965,12.578125 364.636719,13.6874889 364.636719,15.90625 L364.636719,15.90625 Z M358.722656,18.3671875 L359.917969,18.3671875 C361.095058,18.3671875 361.946612,18.1770852 362.472656,17.796875 C362.998701,17.4166648 363.261719,16.8072959 363.261719,15.96875 C363.261719,15.2135379 363.014325,14.6510435 362.519531,14.28125 C362.024737,13.9114565 361.253911,13.7265625 360.207031,13.7265625 L358.722656,13.7265625 L358.722656,18.3671875 Z M368.128906,24 L366.832031,24 L366.832031,15.4375 L368.128906,15.4375 L368.128906,24 Z M366.722656,13.1171875 C366.722656,12.820311 366.795572,12.6028653 366.941406,12.4648438 C367.08724,12.3268222 367.26953,12.2578125 367.488281,12.2578125 C367.696616,12.2578125 367.876301,12.3281243 368.027344,12.46875 C368.178386,12.6093757 368.253906,12.8255194 368.253906,13.1171875 C368.253906,13.4088556 368.178386,13.6263014 368.027344,13.7695312 C367.876301,13.9127611 367.696616,13.984375 367.488281,13.984375 C367.26953,13.984375 367.08724,13.9127611 366.941406,13.7695312 C366.795572,13.6263014 366.722656,13.4088556 366.722656,13.1171875 L366.722656,13.1171875 Z M374.863281,24.15625 C374.305987,24.15625 373.796877,24.0533864 373.335938,23.8476562 C372.874998,23.6419261 372.488283,23.325523 372.175781,22.8984375 L372.082031,22.8984375 C372.144532,23.39844 372.175781,23.8723936 372.175781,24.3203125 L372.175781,27.84375 L370.878906,27.84375 L370.878906,15.4375 L371.933594,15.4375 L372.113281,16.609375 L372.175781,16.609375 C372.509116,16.1406227 372.897133,15.8020844 373.339844,15.59375 C373.782554,15.3854156 374.290362,15.28125 374.863281,15.28125 C375.998704,15.28125 376.874997,15.669267 377.492188,16.4453125 C378.109378,17.221358 378.417969,18.3098888 378.417969,19.7109375 C378.417969,21.1171945 378.10417,22.2096315 377.476562,22.9882812 C376.848955,23.766931 375.97787,24.15625 374.863281,24.15625 L374.863281,24.15625 Z M374.675781,16.3828125 C373.800777,16.3828125 373.167971,16.6249976 372.777344,17.109375 C372.386717,17.5937524 372.186198,18.364578 372.175781,19.421875 L372.175781,19.7109375 C372.175781,20.9140685 372.3763,21.774737 372.777344,22.2929688 C373.178387,22.8112005 373.82161,23.0703125 374.707031,23.0703125 C375.446618,23.0703125 376.02604,22.7708363 376.445312,22.171875 C376.864585,21.5729137 377.074219,20.7474011 377.074219,19.6953125 C377.074219,18.6275988 376.864585,17.8085966 376.445312,17.2382812 C376.02604,16.6679659 375.436202,16.3828125 374.675781,16.3828125 L374.675781,16.3828125 Z M384.300781,24.15625 C383.03515,24.15625 382.036462,23.7708372 381.304688,23 C380.572913,22.2291628 380.207031,21.158861 380.207031,19.7890625 C380.207031,18.4088473 380.546872,17.3125041 381.226562,16.5 C381.906253,15.6874959 382.819005,15.28125 383.964844,15.28125 C385.037766,15.28125 385.886716,15.6341111 386.511719,16.3398438 C387.136722,17.0455764 387.449219,17.9765567 387.449219,19.1328125 L387.449219,19.953125 L381.550781,19.953125 C381.576823,20.9583384 381.830727,21.7213516 382.3125,22.2421875 C382.794273,22.7630234 383.472652,23.0234375 384.347656,23.0234375 C385.269536,23.0234375 386.180985,22.8307311 387.082031,22.4453125 L387.082031,23.6015625 C386.623696,23.7994802 386.190106,23.9414058 385.78125,24.0273438 C385.372394,24.1132817 384.878909,24.15625 384.300781,24.15625 L384.300781,24.15625 Z M383.949219,16.3671875 C383.261715,16.3671875 382.713544,16.5911436 382.304688,17.0390625 C381.895831,17.4869814 381.654948,18.1067669 381.582031,18.8984375 L386.058594,18.8984375 C386.058594,18.0807251 385.876304,17.4544293 385.511719,17.0195312 C385.147134,16.5846332 384.626305,16.3671875 383.949219,16.3671875 L383.949219,16.3671875 Z M390.957031,24 L389.660156,24 L389.660156,11.84375 L390.957031,11.84375 L390.957031,24 Z M395.003906,24 L393.707031,24 L393.707031,15.4375 L395.003906,15.4375 L395.003906,24 Z M393.597656,13.1171875 C393.597656,12.820311 393.670572,12.6028653 393.816406,12.4648438 C393.96224,12.3268222 394.14453,12.2578125 394.363281,12.2578125 C394.571616,12.2578125 394.751301,12.3281243 394.902344,12.46875 C395.053386,12.6093757 395.128906,12.8255194 395.128906,13.1171875 C395.128906,13.4088556 395.053386,13.6263014 394.902344,13.7695312 C394.751301,13.9127611 394.571616,13.984375 394.363281,13.984375 C394.14453,13.984375 393.96224,13.9127611 393.816406,13.7695312 C393.670572,13.6263014 393.597656,13.4088556 393.597656,13.1171875 L393.597656,13.1171875 Z M403.613281,24 L403.613281,18.4609375 C403.613281,17.7630173 403.454429,17.2421892 403.136719,16.8984375 C402.819009,16.5546858 402.321618,16.3828125 401.644531,16.3828125 C400.748693,16.3828125 400.09245,16.6249976 399.675781,17.109375 C399.259113,17.5937524 399.050781,18.3932236 399.050781,19.5078125 L399.050781,24 L397.753906,24 L397.753906,15.4375 L398.808594,15.4375 L399.019531,16.609375 L399.082031,16.609375 C399.347658,16.1874979 399.72005,15.8606782 400.199219,15.6289062 C400.678388,15.3971343 401.212237,15.28125 401.800781,15.28125 C402.832036,15.28125 403.60807,15.5299454 404.128906,16.0273438 C404.649742,16.5247421 404.910156,17.320307 404.910156,18.4140625 L404.910156,24 L403.613281,24 Z M411.191406,24.15625 C409.925775,24.15625 408.927087,23.7708372 408.195312,23 C407.463538,22.2291628 407.097656,21.158861 407.097656,19.7890625 C407.097656,18.4088473 407.437497,17.3125041 408.117188,16.5 C408.796878,15.6874959 409.70963,15.28125 410.855469,15.28125 C411.928391,15.28125 412.777341,15.6341111 413.402344,16.3398438 C414.027347,17.0455764 414.339844,17.9765567 414.339844,19.1328125 L414.339844,19.953125 L408.441406,19.953125 C408.467448,20.9583384 408.721352,21.7213516 409.203125,22.2421875 C409.684898,22.7630234 410.363277,23.0234375 411.238281,23.0234375 C412.160161,23.0234375 413.07161,22.8307311 413.972656,22.4453125 L413.972656,23.6015625 C413.514321,23.7994802 413.080731,23.9414058 412.671875,24.0273438 C412.263019,24.1132817 411.769534,24.15625 411.191406,24.15625 L411.191406,24.15625 Z M410.839844,16.3671875 C410.15234,16.3671875 409.604169,16.5911436 409.195312,17.0390625 C408.786456,17.4869814 408.545573,18.1067669 408.472656,18.8984375 L412.949219,18.8984375 C412.949219,18.0807251 412.766929,17.4544293 412.402344,17.0195312 C412.037759,16.5846332 411.51693,16.3671875 410.839844,16.3671875 L410.839844,16.3671875 Z" id="Pipeline" fill="#FFFFFF"></path>
                <path d="M485.59375,19.9609375 C485.59375,20.9661509 485.22917,21.7499972 484.5,22.3125 C483.77083,22.8750028 482.781256,23.15625 481.53125,23.15625 C480.177077,23.15625 479.13542,22.9817726 478.40625,22.6328125 L478.40625,21.3515625 C478.875002,21.5494802 479.385414,21.7057286 479.9375,21.8203125 C480.489586,21.9348964 481.036456,21.9921875 481.578125,21.9921875 C482.463546,21.9921875 483.130206,21.8242204 483.578125,21.4882812 C484.026044,21.1523421 484.25,20.6848988 484.25,20.0859375 C484.25,19.6901022 484.170574,19.3658867 484.011719,19.1132812 C483.852864,18.8606758 483.587241,18.6276052 483.214844,18.4140625 C482.842446,18.2005198 482.276045,17.9583347 481.515625,17.6875 C480.45312,17.3072898 479.694013,16.8567734 479.238281,16.3359375 C478.78255,15.8151016 478.554688,15.1354209 478.554688,14.296875 C478.554688,13.4166623 478.885413,12.7161484 479.546875,12.1953125 C480.208337,11.6744766 481.083328,11.4140625 482.171875,11.4140625 C483.307297,11.4140625 484.351558,11.6223938 485.304688,12.0390625 L484.890625,13.1953125 C483.947912,12.7994772 483.031254,12.6015625 482.140625,12.6015625 C481.437496,12.6015625 480.888023,12.7526027 480.492188,13.0546875 C480.096352,13.3567723 479.898438,13.776039 479.898438,14.3125 C479.898438,14.7083353 479.971353,15.0325508 480.117188,15.2851562 C480.263022,15.5377617 480.509113,15.7695302 480.855469,15.9804688 C481.201825,16.1914073 481.731767,16.4244779 482.445312,16.6796875 C483.643235,17.106773 484.467446,17.5651017 484.917969,18.0546875 C485.368492,18.5442733 485.59375,19.1796836 485.59375,19.9609375 L485.59375,19.9609375 Z M490.5,22.0859375 C490.729168,22.0859375 490.95052,22.0690106 491.164062,22.0351562 C491.377605,22.0013019 491.546874,21.966146 491.671875,21.9296875 L491.671875,22.921875 C491.531249,22.9895837 491.32422,23.0455727 491.050781,23.0898438 C490.777342,23.1341148 490.531251,23.15625 490.3125,23.15625 C488.656242,23.15625 487.828125,22.2838629 487.828125,20.5390625 L487.828125,15.4453125 L486.601562,15.4453125 L486.601562,14.8203125 L487.828125,14.28125 L488.375,12.453125 L489.125,12.453125 L489.125,14.4375 L491.609375,14.4375 L491.609375,15.4453125 L489.125,15.4453125 L489.125,20.484375 C489.125,21.0000026 489.247395,21.395832 489.492188,21.671875 C489.73698,21.947918 490.072915,22.0859375 490.5,22.0859375 L490.5,22.0859375 Z M497,23.15625 C495.734369,23.15625 494.735681,22.7708372 494.003906,22 C493.272132,21.2291628 492.90625,20.158861 492.90625,18.7890625 C492.90625,17.4088473 493.24609,16.3125041 493.925781,15.5 C494.605472,14.6874959 495.518223,14.28125 496.664062,14.28125 C497.736985,14.28125 498.585934,14.6341111 499.210938,15.3398438 C499.835941,16.0455764 500.148438,16.9765567 500.148438,18.1328125 L500.148438,18.953125 L494.25,18.953125 C494.276042,19.9583384 494.529946,20.7213516 495.011719,21.2421875 C495.493492,21.7630234 496.171871,22.0234375 497.046875,22.0234375 C497.968755,22.0234375 498.880204,21.8307311 499.78125,21.4453125 L499.78125,22.6015625 C499.322914,22.7994802 498.889325,22.9414058 498.480469,23.0273438 C498.071613,23.1132817 497.578128,23.15625 497,23.15625 L497,23.15625 Z M496.648438,15.3671875 C495.960934,15.3671875 495.412762,15.5911436 495.003906,16.0390625 C494.59505,16.4869814 494.354167,17.1067669 494.28125,17.8984375 L498.757812,17.8984375 C498.757812,17.0807251 498.575523,16.4544293 498.210938,16.0195312 C497.846352,15.5846332 497.325524,15.3671875 496.648438,15.3671875 L496.648438,15.3671875 Z M506.34375,23.15625 C505.786456,23.15625 505.277346,23.0533864 504.816406,22.8476562 C504.355466,22.6419261 503.968752,22.325523 503.65625,21.8984375 L503.5625,21.8984375 C503.625,22.39844 503.65625,22.8723936 503.65625,23.3203125 L503.65625,26.84375 L502.359375,26.84375 L502.359375,14.4375 L503.414062,14.4375 L503.59375,15.609375 L503.65625,15.609375 C503.989585,15.1406227 504.377602,14.8020844 504.820312,14.59375 C505.263023,14.3854156 505.77083,14.28125 506.34375,14.28125 C507.479172,14.28125 508.355466,14.669267 508.972656,15.4453125 C509.589847,16.221358 509.898438,17.3098888 509.898438,18.7109375 C509.898438,20.1171945 509.584639,21.2096315 508.957031,21.9882812 C508.329424,22.766931 507.458339,23.15625 506.34375,23.15625 L506.34375,23.15625 Z M506.15625,15.3828125 C505.281246,15.3828125 504.648439,15.6249976 504.257812,16.109375 C503.867186,16.5937524 503.666667,17.364578 503.65625,18.421875 L503.65625,18.7109375 C503.65625,19.9140685 503.856769,20.774737 504.257812,21.2929688 C504.658856,21.8112005 505.302079,22.0703125 506.1875,22.0703125 C506.927087,22.0703125 507.506508,21.7708363 507.925781,21.171875 C508.345054,20.5729137 508.554688,19.7474011 508.554688,18.6953125 C508.554688,17.6275988 508.345054,16.8085966 507.925781,16.2382812 C507.506508,15.6679659 506.91667,15.3828125 506.15625,15.3828125 L506.15625,15.3828125 Z M517.6875,20.6640625 C517.6875,21.4609415 517.390628,22.0755187 516.796875,22.5078125 C516.203122,22.9401063 515.369797,23.15625 514.296875,23.15625 C513.161453,23.15625 512.276045,22.9765643 511.640625,22.6171875 L511.640625,21.4140625 C512.052085,21.6223969 512.493487,21.7864577 512.964844,21.90625 C513.4362,22.0260423 513.890623,22.0859375 514.328125,22.0859375 C515.005212,22.0859375 515.52604,21.9778657 515.890625,21.7617188 C516.25521,21.5455718 516.4375,21.216148 516.4375,20.7734375 C516.4375,20.4401025 516.29297,20.1549491 516.003906,19.9179688 C515.714842,19.6809884 515.151046,19.4010433 514.3125,19.078125 C513.515621,18.7812485 512.94922,18.5221365 512.613281,18.3007812 C512.277342,18.079426 512.027345,17.8281264 511.863281,17.546875 C511.699218,17.2656236 511.617188,16.9296895 511.617188,16.5390625 C511.617188,15.8411423 511.901039,15.2903666 512.46875,14.8867188 C513.036461,14.4830709 513.815099,14.28125 514.804688,14.28125 C515.726567,14.28125 516.6276,14.4687481 517.507812,14.84375 L517.046875,15.8984375 C516.187496,15.5442691 515.408858,15.3671875 514.710938,15.3671875 C514.096351,15.3671875 513.632814,15.4635407 513.320312,15.65625 C513.007811,15.8489593 512.851562,16.1145816 512.851562,16.453125 C512.851562,16.6822928 512.910156,16.8776034 513.027344,17.0390625 C513.144532,17.2005216 513.333332,17.3541659 513.59375,17.5 C513.854168,17.6458341 514.354163,17.8567695 515.09375,18.1328125 C516.10938,18.502606 516.795571,18.8749981 517.152344,19.25 C517.509116,19.6250019 517.6875,20.0963513 517.6875,20.6640625 L517.6875,20.6640625 Z" id="Steps" fill="#FFFFFF"></path>
                <path d="M254.625,23 L248.882812,23 L251.296875,11.578125 L257.039062,11.578125 L256.789062,12.7734375 L252.367188,12.7734375 L251.601562,16.4375 L255.71875,16.4375 L255.492188,17.625 L251.359375,17.625 L250.46875,21.8125 L254.882812,21.8125 L254.625,23 Z M260.039062,19.609375 L257.335938,23 L255.8125,23 L259.523438,18.5859375 L257.65625,14.4375 L258.984375,14.4375 L260.34375,17.65625 L262.921875,14.4375 L264.4375,14.4375 L260.882812,18.6484375 L262.851562,23 L261.539062,23 L260.039062,19.609375 Z M267.5625,14.4375 L266.390625,19.8671875 C266.296875,20.3307315 266.25,20.692707 266.25,20.953125 C266.25,21.6979204 266.632809,22.0703125 267.398438,22.0703125 C267.856773,22.0703125 268.307289,21.9140641 268.75,21.6015625 C269.192711,21.2890609 269.583332,20.8411488 269.921875,20.2578125 C270.260418,19.6744762 270.518228,18.9713583 270.695312,18.1484375 L271.476562,14.4375 L272.773438,14.4375 L270.96875,23 L269.882812,23 L270.054688,21.4140625 L269.960938,21.4140625 C269.450518,22.0651074 268.963544,22.5182279 268.5,22.7734375 C268.036456,23.0286471 267.557294,23.15625 267.0625,23.15625 C266.39583,23.15625 265.872398,22.9752622 265.492188,22.6132812 C265.111977,22.2513003 264.921875,21.7343784 264.921875,21.0625 C264.921875,20.7395817 264.979166,20.2916695 265.09375,19.71875 L266.234375,14.4375 L267.5625,14.4375 Z M277.226562,23.15625 C276.216141,23.15625 275.432294,22.877607 274.875,22.3203125 C274.317706,21.763018 274.039062,20.9765676 274.039062,19.9609375 C274.039062,18.9192656 274.231769,17.9583377 274.617188,17.078125 C275.002606,16.1979123 275.535153,15.5117212 276.214844,15.0195312 C276.894535,14.5273413 277.65885,14.28125 278.507812,14.28125 C279.221358,14.28125 279.919267,14.4140612 280.601562,14.6796875 L280.234375,15.78125 C279.609372,15.5156237 279.039065,15.3828125 278.523438,15.3828125 C277.940101,15.3828125 277.407554,15.5820293 276.925781,15.9804688 C276.444008,16.3789082 276.066408,16.9335902 275.792969,17.6445312 C275.51953,18.3554723 275.382812,19.1276 275.382812,19.9609375 C275.382812,20.6276075 275.555988,21.1458315 275.902344,21.515625 C276.2487,21.8854185 276.726559,22.0703125 277.335938,22.0703125 C277.710939,22.0703125 278.065103,22.0182297 278.398438,21.9140625 C278.731772,21.8098953 279.059894,21.6875007 279.382812,21.546875 L279.382812,22.6640625 C278.736976,22.9921891 278.018233,23.15625 277.226562,23.15625 L277.226562,23.15625 Z M284,14.4375 L282.828125,19.8671875 C282.734375,20.3307315 282.6875,20.692707 282.6875,20.953125 C282.6875,21.6979204 283.070309,22.0703125 283.835938,22.0703125 C284.294273,22.0703125 284.744789,21.9140641 285.1875,21.6015625 C285.630211,21.2890609 286.020832,20.8411488 286.359375,20.2578125 C286.697918,19.6744762 286.955728,18.9713583 287.132812,18.1484375 L287.914062,14.4375 L289.210938,14.4375 L287.40625,23 L286.320312,23 L286.492188,21.4140625 L286.398438,21.4140625 C285.888018,22.0651074 285.401044,22.5182279 284.9375,22.7734375 C284.473956,23.0286471 283.994794,23.15625 283.5,23.15625 C282.83333,23.15625 282.309898,22.9752622 281.929688,22.6132812 C281.549477,22.2513003 281.359375,21.7343784 281.359375,21.0625 C281.359375,20.7395817 281.416666,20.2916695 281.53125,19.71875 L282.671875,14.4375 L284,14.4375 Z M292.796875,22.0859375 C293.083335,22.0859375 293.458331,22.0182298 293.921875,21.8828125 L293.921875,22.890625 C293.744791,22.963542 293.526043,23.0260414 293.265625,23.078125 C293.005207,23.1302086 292.796876,23.15625 292.640625,23.15625 C291.98958,23.15625 291.490887,23.0013036 291.144531,22.6914062 C290.798175,22.3815089 290.625,21.9192739 290.625,21.3046875 C290.625,20.9609358 290.671875,20.5703147 290.765625,20.1328125 L291.757812,15.4296875 L290.414062,15.4296875 L290.523438,14.859375 L291.96875,14.25 L292.945312,12.46875 L293.710938,12.46875 L293.28125,14.4375 L295.421875,14.4375 L295.21875,15.4296875 L293.085938,15.4296875 L292.078125,20.1484375 C291.984375,20.6015648 291.9375,20.9453113 291.9375,21.1796875 C291.9375,21.4713556 292.01302,21.6953117 292.164062,21.8515625 C292.315105,22.0078133 292.52604,22.0859375 292.796875,22.0859375 L292.796875,22.0859375 Z M298.742188,23.15625 C297.783849,23.15625 297.031253,22.8723987 296.484375,22.3046875 C295.937497,21.7369763 295.664062,20.9505259 295.664062,19.9453125 C295.664062,18.9661409 295.858071,18.0273482 296.246094,17.1289062 C296.634117,16.2304643 297.148434,15.5312525 297.789062,15.03125 C298.429691,14.5312475 299.135413,14.28125 299.90625,14.28125 C300.703129,14.28125 301.302081,14.4544254 301.703125,14.8007812 C302.104169,15.1471371 302.304688,15.6302052 302.304688,16.25 C302.304688,17.1875047 301.8724,17.9231744 301.007812,18.4570312 C300.143225,18.9908881 298.906258,19.2578125 297.296875,19.2578125 L297.039062,19.2578125 L297.007812,19.8828125 C297.007812,20.5651076 297.167967,21.0976543 297.488281,21.4804688 C297.808595,21.8632832 298.304684,22.0546875 298.976562,22.0546875 C299.304689,22.0546875 299.641925,22.007813 299.988281,21.9140625 C300.334637,21.820312 300.765622,21.6484388 301.28125,21.3984375 L301.28125,22.5390625 C300.791664,22.7682303 300.359377,22.928385 299.984375,23.0195312 C299.609373,23.1106775 299.195315,23.15625 298.742188,23.15625 L298.742188,23.15625 Z M299.828125,15.3984375 C299.291664,15.3984375 298.787763,15.6432267 298.316406,16.1328125 C297.84505,16.6223983 297.484376,17.302079 297.234375,18.171875 L297.328125,18.171875 C298.515631,18.171875 299.425778,18.0169286 300.058594,17.7070312 C300.691409,17.3971339 301.007812,16.9479196 301.007812,16.359375 C301.007812,16.083332 300.912761,15.8541676 300.722656,15.671875 C300.532551,15.4895824 300.234377,15.3984375 299.828125,15.3984375 L299.828125,15.3984375 Z" id="Exucute" fill="#656565"></path>
            </g>
        </g>
    </g>
</svg>