<?xml version="1.0" encoding="UTF-8" standalone="no"?>
<svg width="857px" height="114px" viewBox="0 0 857 114" version="1.1" xmlns="http://www.w3.org/2000/svg" xmlns:xlink="http://www.w3.org/1999/xlink">
    <!-- Generator: Sketch 3.6.1 (26313) - http://www.bohemiancoding.com/sketch -->
    <title>1 export</title>
    <desc>Created with Sketch.</desc>
    <defs></defs>
    <g id="Page-1" stroke="none" stroke-width="1" fill="none" fill-rule="evenodd">
        <g id="1-export">
            <path d="M5.60236791,70.421875 C5.60236791,71.4843803 5.91226065,72.2786432 6.53205541,72.8046875 C7.15185018,73.3307318 8.20652713,73.6093748 9.69611791,73.640625 L9.69611791,75.0625 C7.66485776,75.0625 6.21955971,74.6718789 5.36018041,73.890625 C4.50080112,73.1093711 4.07111791,71.9062581 4.07111791,70.28125 L4.07111791,65.015625 C4.07111791,62.8801977 2.87321322,61.7916669 0.477367912,61.75 L0.477367912,60.5 C1.7482076,60.4791666 2.6648651,60.2135442 3.22736791,59.703125 C3.78987072,59.1927058 4.07111791,58.4218802 4.07111791,57.390625 L4.07111791,51.921875 C4.07111791,48.8072761 5.94609916,47.2187503 9.69611791,47.15625 L9.69611791,48.5625 C8.25861072,48.6145836 7.21695447,48.9166639 6.57111791,49.46875 C5.92528135,50.0208361 5.60236791,50.8385362 5.60236791,51.921875 L5.60236791,56.6875 C5.60236791,58.0416734 5.37320354,59.05208 4.91486791,59.71875 C4.45653229,60.38542 3.71695635,60.8281239 2.69611791,61.046875 L2.69611791,61.171875 C3.70653963,61.3802094 4.44351143,61.8151009 4.90705541,62.4765625 C5.3705994,63.1380241 5.60236791,64.1093686 5.60236791,65.390625 L5.60236791,70.421875 Z" id="{" fill="#AB3FE6"></path>
            <path d="M35.4606153,70.421875 C35.4606153,71.4843803 35.7705081,72.2786432 36.3903028,72.8046875 C37.0100976,73.3307318 38.0647746,73.6093748 39.5543653,73.640625 L39.5543653,75.0625 C37.5231052,75.0625 36.0778071,74.6718789 35.2184278,73.890625 C34.3590485,73.1093711 33.9293653,71.9062581 33.9293653,70.28125 L33.9293653,65.015625 C33.9293653,62.8801977 32.7314606,61.7916669 30.3356153,61.75 L30.3356153,60.5 C31.606455,60.4791666 32.5231125,60.2135442 33.0856153,59.703125 C33.6481181,59.1927058 33.9293653,58.4218802 33.9293653,57.390625 L33.9293653,51.921875 C33.9293653,48.8072761 35.8043466,47.2187503 39.5543653,47.15625 L39.5543653,48.5625 C38.1168581,48.6145836 37.0752019,48.9166639 36.4293653,49.46875 C35.7835288,50.0208361 35.4606153,50.8385362 35.4606153,51.921875 L35.4606153,56.6875 C35.4606153,58.0416734 35.231451,59.05208 34.7731153,59.71875 C34.3147797,60.38542 33.5752038,60.8281239 32.5543653,61.046875 L32.5543653,61.171875 C33.5647871,61.3802094 34.3017589,61.8151009 34.7653028,62.4765625 C35.2288468,63.1380241 35.4606153,64.1093686 35.4606153,65.390625 L35.4606153,70.421875 Z" id="{" fill="#AB3FE6" transform="translate(35.507490, 61.109375) scale(-1, 1) translate(-35.507490, -61.109375) "></path>
            <path d="M15.9810126,60.5791016 L19.658747,60.5791016 L19.658747,65.5966797 C19.0571815,65.7926442 18.4795506,65.9316402 17.9258369,66.0136719 C17.3721231,66.0957035 16.7739846,66.1367188 16.1314033,66.1367188 C14.6183749,66.1367188 13.4517199,65.6889693 12.6314033,64.793457 C11.8110867,63.8979447 11.4009345,62.6344483 11.4009345,61.0029297 C11.4009345,59.3941977 11.863495,58.1352585 12.7886298,57.2260742 C13.7137647,56.31689 14.9875149,55.8623047 16.6099189,55.8623047 C17.6535439,55.8623047 18.6424663,56.0628235 19.5767158,56.4638672 L19.002497,57.8242188 C18.191295,57.450519 17.3801052,57.2636719 16.5689033,57.2636719 C15.5024917,57.2636719 14.6594012,57.5986295 14.0396064,58.2685547 C13.4198116,58.9384799 13.1099189,59.8544864 13.1099189,61.0166016 C13.1099189,62.2379618 13.3890502,63.1665007 13.9473212,63.8022461 C14.5055923,64.4379915 15.3088069,64.7558594 16.3569892,64.7558594 C16.8856377,64.7558594 17.4507362,64.6897793 18.0523017,64.5576172 L18.0523017,61.9804688 L15.9810126,61.9804688 L15.9810126,60.5791016 Z M23.4937079,66 L21.8872626,66 L21.8872626,58.4394531 L23.4937079,58.4394531 L23.4937079,66 Z M21.7915595,56.4365234 C21.7915595,56.1494126 21.870172,55.9283862 22.0273994,55.7734375 C22.1846267,55.6184888 22.4090711,55.5410156 22.7007392,55.5410156 C22.9832927,55.5410156 23.2031798,55.6184888 23.3604072,55.7734375 C23.5176345,55.9283862 23.596247,56.1494126 23.596247,56.4365234 C23.596247,56.7099623 23.5176345,56.9252922 23.3604072,57.0825195 C23.2031798,57.2397469 22.9832927,57.3183594 22.7007392,57.3183594 C22.4090711,57.3183594 22.1846267,57.2397469 22.0273994,57.0825195 C21.870172,56.9252922 21.7915595,56.7099623 21.7915595,56.4365234 L21.7915595,56.4365234 Z M28.6069892,64.8378906 C28.9989182,64.8378906 29.3908414,64.7763678 29.7827704,64.6533203 L29.7827704,65.8632812 C29.6050352,65.9407556 29.3760336,66.0056964 29.0957587,66.0581055 C28.8154839,66.1105146 28.5249595,66.1367188 28.2241767,66.1367188 C26.7020337,66.1367188 25.9409736,65.3346434 25.9409736,63.7304688 L25.9409736,59.65625 L24.908747,59.65625 L24.908747,58.9453125 L26.0161689,58.3574219 L26.5630439,56.7578125 L27.5542548,56.7578125 L27.5542548,58.4394531 L29.7075751,58.4394531 L29.7075751,59.65625 L27.5542548,59.65625 L27.5542548,63.703125 C27.5542548,64.0904967 27.6510963,64.3764639 27.8447822,64.5610352 C28.038468,64.7456064 28.2925345,64.8378906 28.6069892,64.8378906 L28.6069892,64.8378906 Z" id="Git" fill="#AB3FE6"></path>
            <path d="M515.564716,72.0503794 L531.760465,62.6930731 L515.565487,53.3365385 L499.369739,62.6930731 L515.564716,72.0503794" id="Fill-5" fill="#EFF3FB"></path>
            <path d="M515.156286,90.5792192 L531.352806,81.2226846 L531.352035,62.5096154 L515.156286,71.8669217 L515.156286,90.5792192" id="Fill-3" fill="#D3DCE9"></path>
            <path d="M499.371281,81.2226846 L515.566259,90.5784475 L515.566259,71.86615 L499.369739,62.5096154 L499.371281,81.2226846" id="Fill-1" fill="#DFE6F2"></path>
            <path d="M495.704221,83.2619179 L511.89997,73.9046115 L495.704992,64.5480769 L479.509243,73.9046115 L495.704221,83.2619179" id="Fill-5" fill="#EFF3FB"></path>
            <path d="M495.295791,101.790758 L511.492311,92.4342231 L511.49154,73.7211538 L495.295791,83.0784602 L495.295791,101.790758" id="Fill-3" fill="#D3DCE9"></path>
            <path d="M479.510786,92.4342231 L495.705763,101.789986 L495.705763,83.0776885 L479.509243,73.7211538 L479.510786,92.4342231" id="Fill-1" fill="#DFE6F2"></path>
            <path d="M515.564716,49.1369179 L531.760465,39.7796115 L515.565487,30.4230769 L499.369739,39.7796115 L515.564716,49.1369179" id="Fill-5" fill="#EFF3FB"></path>
            <path d="M515.156286,67.6657577 L531.352806,58.3092231 L531.352035,39.5961538 L515.156286,48.9534602 L515.156286,67.6657577" id="Fill-3" fill="#D3DCE9"></path>
            <path d="M499.371281,58.3092231 L515.566259,67.6649859 L515.566259,48.9526885 L499.369739,39.5961538 L499.371281,58.3092231" id="Fill-1" fill="#DFE6F2"></path>
            <path d="M515.564716,26.2234563 L531.760465,16.86615 L515.565487,7.50961538 L499.369739,16.86615 L515.564716,26.2234563" id="Fill-5" fill="#EFF3FB"></path>
            <path d="M515.156286,44.7522961 L531.352806,35.3957615 L531.352035,16.6826923 L515.156286,26.0399987 L515.156286,44.7522961" id="Fill-3" fill="#D3DCE9"></path>
            <path d="M499.371281,35.3957615 L515.566259,44.7515244 L515.566259,26.0392269 L499.369739,16.6826923 L499.371281,35.3957615" id="Fill-1" fill="#DFE6F2"></path>
            <path d="M535.425211,83.790764 L551.62096,74.4334577 L535.425983,65.0769231 L519.230234,74.4334577 L535.425211,83.790764" id="Fill-5" fill="#EFF3FB"></path>
            <path d="M535.016781,102.319604 L551.213301,92.9630692 L551.21253,74.25 L535.016781,83.6073063 L535.016781,102.319604" id="Fill-3" fill="#D3DCE9"></path>
            <path d="M519.231776,92.9630692 L535.426754,102.318832 L535.426754,83.6065346 L519.230234,74.25 L519.231776,92.9630692" id="Fill-1" fill="#DFE6F2"></path>
            <path d="M515.564716,94.9630868 L531.760465,85.6057805 L515.565487,76.2492459 L499.369739,85.6057805 L515.564716,94.9630868" id="Fill-5" fill="#EFF3FB"></path>
            <path d="M515.156286,113.491927 L531.352806,104.135392 L531.352035,85.4223228 L515.156286,94.7796291 L515.156286,113.491927" id="Fill-3" fill="#D3DCE9"></path>
            <path d="M499.371281,104.135392 L515.566259,113.491155 L515.566259,94.7788574 L499.369739,85.4223228 L499.371281,104.135392" id="Fill-1" fill="#DFE6F2"></path>
            <path d="M535.425211,60.8773025 L551.62096,51.5199961 L535.425983,42.1634615 L519.230234,51.5199961 L535.425211,60.8773025" id="Fill-5" fill="#EFF3FB"></path>
            <path d="M535.016781,79.4061423 L551.213301,70.0496077 L551.21253,51.3365385 L535.016781,60.6938448 L535.016781,79.4061423" id="Fill-3" fill="#D3DCE9"></path>
            <path d="M519.231776,70.0496077 L535.426754,79.4053705 L535.426754,60.6930731 L519.230234,51.3365385 L519.231776,70.0496077" id="Fill-1" fill="#DFE6F2"></path>
            <path d="M535.425211,37.9638409 L551.62096,28.6065346 L535.425983,19.25 L519.230234,28.6065346 L535.425211,37.9638409" id="Fill-5" fill="#EFF3FB"></path>
            <path d="M535.016781,56.4926807 L551.213301,47.1361461 L551.21253,28.4230769 L535.016781,37.7803833 L535.016781,56.4926807" id="Fill-3" fill="#D3DCE9"></path>
            <path d="M519.231776,47.1361461 L535.426754,56.491909 L535.426754,37.7796115 L519.230234,28.4230769 L519.231776,47.1361461" id="Fill-1" fill="#DFE6F2"></path>
            <path d="M69.1890304,61 L218.408223,61" id="Line-Copy-6" stroke="#AB3FE6" stroke-width="2" stroke-linecap="square" transform="translate(144.189030, 61.000000) scale(-1, 1) translate(-144.189030, -61.000000) "></path>
            <circle id="Oval-26" stroke="#AB3FE6" stroke-width="2" fill="#FFFFFF" cx="66" cy="61" r="5"></circle>
            <circle id="Oval-26-Copy-3" stroke="#AB3FE6" stroke-width="2" fill="#FFFFFF" cx="116" cy="61" r="3"></circle>
            <circle id="Oval-26-Copy-5" stroke="#AB3FE6" stroke-width="2" fill="#FFFFFF" cx="164" cy="61" r="3"></circle>
            <path d="M210,51 L220,60.9989832 L210,70.9979665" id="Path-10-Copy-6" stroke="#AB3FE6" stroke-width="2" stroke-linecap="round"></path>
            <path d="M62.3193359,1.00585938 L65.2861328,1.00585938 C66.6624418,1.00585938 67.6570607,1.2063782 68.2700195,1.60742188 C68.8829783,2.00846555 69.1894531,2.64192275 69.1894531,3.5078125 C69.1894531,4.09114875 69.039064,4.57649546 68.7382812,4.96386719 C68.4374985,5.35123892 68.0045601,5.59505158 67.4394531,5.6953125 L67.4394531,5.76367188 C68.1412796,5.89583399 68.6573877,6.15673633 68.987793,6.54638672 C69.3181983,6.9360371 69.4833984,7.46353834 69.4833984,8.12890625 C69.4833984,9.0266972 69.1700878,9.72965241 68.543457,10.237793 C67.9168263,10.7459335 67.045253,11 65.9287109,11 L62.3193359,11 L62.3193359,1.00585938 Z M63.953125,5.13476562 L65.5253906,5.13476562 C66.2089878,5.13476562 66.7080062,5.02653103 67.0224609,4.81005859 C67.3369156,4.59358616 67.4941406,4.22558854 67.4941406,3.70605469 C67.4941406,3.2366513 67.3243832,2.89713646 66.9848633,2.6875 C66.6453434,2.47786354 66.106449,2.37304688 65.3681641,2.37304688 L63.953125,2.37304688 L63.953125,5.13476562 Z M63.953125,6.4609375 L63.953125,9.62597656 L65.6894531,9.62597656 C66.3730503,9.62597656 66.8891584,9.49495574 67.237793,9.23291016 C67.5864275,8.97086458 67.7607422,8.55729449 67.7607422,7.9921875 C67.7607422,7.47265365 67.5830096,7.08756636 67.2275391,6.83691406 C66.8720685,6.58626177 66.3320349,6.4609375 65.6074219,6.4609375 L63.953125,6.4609375 Z M76.7226562,11 L76.4970703,10.0087891 L76.4150391,10.0087891 C76.1917307,10.3597023 75.8738627,10.6354157 75.4614258,10.8359375 C75.0489888,11.0364593 74.5784532,11.1367188 74.0498047,11.1367188 C73.1337845,11.1367188 72.4501976,10.9088564 71.9990234,10.453125 C71.5478493,9.99739355 71.3222656,9.30697077 71.3222656,8.38183594 L71.3222656,3.43945312 L72.9423828,3.43945312 L72.9423828,8.1015625 C72.9423828,8.68034144 73.0608712,9.11441913 73.2978516,9.40380859 C73.5348319,9.69319806 73.9062475,9.83789062 74.4121094,9.83789062 C75.0865919,9.83789062 75.5821924,9.63623249 75.8989258,9.23291016 C76.2156591,8.82958783 76.3740234,8.15397609 76.3740234,7.20605469 L76.3740234,3.43945312 L77.9873047,3.43945312 L77.9873047,11 L76.7226562,11 Z M81.8837891,11 L80.2773438,11 L80.2773438,3.43945312 L81.8837891,3.43945312 L81.8837891,11 Z M80.1816406,1.43652344 C80.1816406,1.14941263 80.2602531,0.928386191 80.4174805,0.7734375 C80.5747078,0.618488809 80.7991522,0.541015625 81.0908203,0.541015625 C81.3733738,0.541015625 81.5932609,0.618488809 81.7504883,0.7734375 C81.9077156,0.928386191 81.9863281,1.14941263 81.9863281,1.43652344 C81.9863281,1.7099623 81.9077156,1.92529218 81.7504883,2.08251953 C81.5932609,2.23974688 81.3733738,2.31835938 81.0908203,2.31835938 C80.7991522,2.31835938 80.5747078,2.23974688 80.4174805,2.08251953 C80.2602531,1.92529218 80.1816406,1.7099623 80.1816406,1.43652344 L80.1816406,1.43652344 Z M85.7871094,11 L84.1806641,11 L84.1806641,0.36328125 L85.7871094,0.36328125 L85.7871094,11 Z M90.6337891,11.1367188 C89.690425,11.1367188 88.9544297,10.7949253 88.4257812,10.1113281 C87.8971328,9.42773096 87.6328125,8.46843065 87.6328125,7.23339844 C87.6328125,5.99380891 87.9005507,5.02881205 88.4360352,4.33837891 C88.9715196,3.64794577 89.7132114,3.30273438 90.6611328,3.30273438 C91.6546274,3.30273438 92.4111302,3.66959269 92.9306641,4.40332031 L93.0126953,4.40332031 C92.935221,3.86099989 92.8964844,3.43261876 92.8964844,3.11816406 L92.8964844,0.36328125 L94.5097656,0.36328125 L94.5097656,11 L93.2519531,11 L92.9716797,10.0087891 L92.8964844,10.0087891 C92.3815078,10.7607459 91.6272836,11.1367188 90.6337891,11.1367188 L90.6337891,11.1367188 Z M91.0644531,9.83789062 C91.7252637,9.83789062 92.2060532,9.65218285 92.5068359,9.28076172 C92.8076187,8.90934059 92.9625651,8.30664479 92.9716797,7.47265625 L92.9716797,7.24707031 C92.9716797,6.29459159 92.8167333,5.61784055 92.5068359,5.21679688 C92.1969386,4.8157532 91.7115918,4.61523438 91.0507812,4.61523438 C90.4856743,4.61523438 90.0504573,4.84423599 89.7451172,5.30224609 C89.4397771,5.7602562 89.2871094,6.4130817 89.2871094,7.26074219 C89.2871094,8.09928805 89.4352199,8.73844181 89.7314453,9.17822266 C90.0276708,9.6180035 90.4720022,9.83789062 91.0644531,9.83789062 L91.0644531,9.83789062 Z M98.4746094,9.53027344 C98.2558583,10.3779339 97.8548206,11.4693944 97.2714844,12.8046875 L96.0888672,12.8046875 C96.4033219,11.5742126 96.6380201,10.4303438 96.7929688,9.37304688 L98.3720703,9.37304688 L98.4746094,9.53027344 Z M106.999023,9.83789062 C107.390952,9.83789062 107.782876,9.7763678 108.174805,9.65332031 L108.174805,10.8632812 C107.997069,10.9407556 107.768068,11.0056964 107.487793,11.0581055 C107.207518,11.1105146 106.916994,11.1367188 106.616211,11.1367188 C105.094068,11.1367188 104.333008,10.3346434 104.333008,8.73046875 L104.333008,4.65625 L103.300781,4.65625 L103.300781,3.9453125 L104.408203,3.35742188 L104.955078,1.7578125 L105.946289,1.7578125 L105.946289,3.43945312 L108.099609,3.43945312 L108.099609,4.65625 L105.946289,4.65625 L105.946289,8.703125 C105.946289,9.09049673 106.043131,9.37646392 106.236816,9.56103516 C106.430502,9.74560639 106.684569,9.83789062 106.999023,9.83789062 L106.999023,9.83789062 Z M112.987305,11.1367188 C111.811518,11.1367188 110.892093,10.793786 110.229004,10.1079102 C109.565915,9.42203433 109.234375,8.47754508 109.234375,7.27441406 C109.234375,6.03938185 109.541989,5.06868843 110.157227,4.36230469 C110.772464,3.65592095 111.617833,3.30273438 112.693359,3.30273438 C113.691411,3.30273438 114.479815,3.60579124 115.058594,4.21191406 C115.637373,4.81803688 115.926758,5.65201292 115.926758,6.71386719 L115.926758,7.58203125 L110.888672,7.58203125 C110.911458,8.31575888 111.109699,8.87971808 111.483398,9.27392578 C111.857098,9.66813348 112.38346,9.86523438 113.0625,9.86523438 C113.509117,9.86523438 113.924966,9.82307985 114.310059,9.73876953 C114.695152,9.65445921 115.108722,9.5143239 115.550781,9.31835938 L115.550781,10.6240234 C115.158852,10.8108733 114.762372,10.9430335 114.361328,11.0205078 C113.960284,11.0979822 113.502281,11.1367188 112.987305,11.1367188 L112.987305,11.1367188 Z M112.693359,4.51953125 C112.18294,4.51953125 111.773927,4.68131349 111.466309,5.00488281 C111.15869,5.32845214 110.975261,5.80012711 110.916016,6.41992188 L114.347656,6.41992188 C114.338542,5.79556979 114.188153,5.32275551 113.896484,5.00146484 C113.604816,4.68017417 113.203779,4.51953125 112.693359,4.51953125 L112.693359,4.51953125 Z M122.831055,8.84667969 C122.831055,9.58496463 122.562177,10.1512025 122.024414,10.5454102 C121.486651,10.9396179 120.716476,11.1367188 119.713867,11.1367188 C118.706701,11.1367188 117.89779,10.984051 117.287109,10.6787109 L117.287109,9.29101562 C118.175786,9.70117393 119.002926,9.90625 119.768555,9.90625 C120.757492,9.90625 121.251953,9.60775038 121.251953,9.01074219 C121.251953,8.81933498 121.197266,8.65983137 121.087891,8.53222656 C120.978515,8.40462176 120.798504,8.27246162 120.547852,8.13574219 C120.297199,7.99902275 119.94857,7.84407639 119.501953,7.67089844 C118.631506,7.33365717 118.042482,6.99642096 117.734863,6.65917969 C117.427245,6.32193842 117.273438,5.88444279 117.273438,5.34667969 C117.273438,4.69954104 117.53434,4.19710465 118.056152,3.83935547 C118.577965,3.48160628 119.287756,3.30273438 120.185547,3.30273438 C121.074223,3.30273438 121.915035,3.4827456 122.708008,3.84277344 L122.188477,5.05273438 C121.372717,4.71549311 120.686852,4.546875 120.130859,4.546875 C119.283199,4.546875 118.859375,4.78840904 118.859375,5.27148438 C118.859375,5.50846473 118.969888,5.70898355 119.190918,5.87304688 C119.411948,6.0371102 119.893876,6.26269388 120.636719,6.54980469 C121.261071,6.79134235 121.714517,7.01236879 121.99707,7.21289062 C122.279624,7.41341246 122.489257,7.6446927 122.625977,7.90673828 C122.762696,8.16878386 122.831055,8.48209453 122.831055,8.84667969 L122.831055,8.84667969 Z M127.383789,9.83789062 C127.775718,9.83789062 128.167641,9.7763678 128.55957,9.65332031 L128.55957,10.8632812 C128.381835,10.9407556 128.152833,11.0056964 127.872559,11.0581055 C127.592284,11.1105146 127.301759,11.1367188 127.000977,11.1367188 C125.478834,11.1367188 124.717773,10.3346434 124.717773,8.73046875 L124.717773,4.65625 L123.685547,4.65625 L123.685547,3.9453125 L124.792969,3.35742188 L125.339844,1.7578125 L126.331055,1.7578125 L126.331055,3.43945312 L128.484375,3.43945312 L128.484375,4.65625 L126.331055,4.65625 L126.331055,8.703125 C126.331055,9.09049673 126.427896,9.37646392 126.621582,9.56103516 C126.815268,9.74560639 127.069334,9.83789062 127.383789,9.83789062 L127.383789,9.83789062 Z M138.4375,11 L138.116211,9.94726562 L138.061523,9.94726562 C137.696938,10.4075544 137.33008,10.7208651 136.960938,10.887207 C136.591795,11.053549 136.117841,11.1367188 135.539062,11.1367188 C134.79622,11.1367188 134.216311,10.9361999 133.799316,10.5351562 C133.382322,10.1341126 133.173828,9.56673544 133.173828,8.83300781 C133.173828,8.05370704 133.463213,7.46582229 134.041992,7.06933594 C134.620771,6.67284958 135.502598,6.45638039 136.6875,6.41992188 L137.993164,6.37890625 L137.993164,5.97558594 C137.993164,5.49251061 137.880372,5.13134885 137.654785,4.89208984 C137.429198,4.65283083 137.079429,4.53320312 136.605469,4.53320312 C136.218097,4.53320312 135.846681,4.5901687 135.491211,4.70410156 C135.13574,4.81803442 134.793947,4.95247318 134.46582,5.10742188 L133.946289,3.95898438 C134.356447,3.7447906 134.805336,3.58186905 135.292969,3.47021484 C135.780601,3.35856064 136.240883,3.30273438 136.673828,3.30273438 C137.635421,3.30273438 138.361163,3.5123677 138.851074,3.93164062 C139.340986,4.35091355 139.585938,5.00943562 139.585938,5.90722656 L139.585938,11 L138.4375,11 Z M136.044922,9.90625 C136.628258,9.90625 137.096515,9.74332845 137.449707,9.41748047 C137.802899,9.09163249 137.979492,8.63476856 137.979492,8.046875 L137.979492,7.390625 L137.008789,7.43164062 C136.252275,7.45898451 135.701987,7.58544809 135.35791,7.81103516 C135.013833,8.03662222 134.841797,8.38183361 134.841797,8.84667969 C134.841797,9.18392096 134.942056,9.4448233 135.142578,9.62939453 C135.3431,9.81396577 135.643878,9.90625 136.044922,9.90625 L136.044922,9.90625 Z M148.479492,11 L146.866211,11 L146.866211,6.3515625 C146.866211,5.76822625 146.748862,5.33300925 146.51416,5.04589844 C146.279458,4.75878763 145.906904,4.61523438 145.396484,4.61523438 C144.717445,4.61523438 144.220705,4.8157532 143.90625,5.21679688 C143.591795,5.61784055 143.43457,6.29003435 143.43457,7.23339844 L143.43457,11 L141.828125,11 L141.828125,3.43945312 L143.085938,3.43945312 L143.311523,4.43066406 L143.393555,4.43066406 C143.62142,4.07063622 143.944985,3.79264421 144.364258,3.59667969 C144.783531,3.40071517 145.24837,3.30273438 145.758789,3.30273438 C147.5726,3.30273438 148.479492,4.22557671 148.479492,6.07128906 L148.479492,11 Z M153.264648,11.1367188 C152.321284,11.1367188 151.585289,10.7949253 151.056641,10.1113281 C150.527992,9.42773096 150.263672,8.46843065 150.263672,7.23339844 C150.263672,5.99380891 150.53141,5.02881205 151.066895,4.33837891 C151.602379,3.64794577 152.344071,3.30273438 153.291992,3.30273438 C154.285487,3.30273438 155.04199,3.66959269 155.561523,4.40332031 L155.643555,4.40332031 C155.56608,3.86099989 155.527344,3.43261876 155.527344,3.11816406 L155.527344,0.36328125 L157.140625,0.36328125 L157.140625,11 L155.882812,11 L155.602539,10.0087891 L155.527344,10.0087891 C155.012367,10.7607459 154.258143,11.1367188 153.264648,11.1367188 L153.264648,11.1367188 Z M153.695312,9.83789062 C154.356123,9.83789062 154.836913,9.65218285 155.137695,9.28076172 C155.438478,8.90934059 155.593424,8.30664479 155.602539,7.47265625 L155.602539,7.24707031 C155.602539,6.29459159 155.447593,5.61784055 155.137695,5.21679688 C154.827798,4.8157532 154.342451,4.61523438 153.681641,4.61523438 C153.116534,4.61523438 152.681317,4.84423599 152.375977,5.30224609 C152.070636,5.7602562 151.917969,6.4130817 151.917969,7.26074219 C151.917969,8.09928805 152.066079,8.73844181 152.362305,9.17822266 C152.65853,9.6180035 153.102862,9.83789062 153.695312,9.83789062 L153.695312,9.83789062 Z M65.1972656,30.1367188 C64.0533797,30.1367188 63.184085,29.8029005 62.5893555,29.1352539 C61.9946259,28.4676073 61.6972656,27.5094463 61.6972656,26.2607422 C61.6972656,24.9892515 62.0082977,24.0117222 62.6303711,23.328125 C63.2524445,22.6445278 64.1513613,22.3027344 65.3271484,22.3027344 C66.1246785,22.3027344 66.8424447,22.4508449 67.4804688,22.7470703 L66.9951172,24.0390625 C66.3160773,23.7747383 65.7555361,23.6425781 65.3134766,23.6425781 C64.0055273,23.6425781 63.3515625,24.5107335 63.3515625,26.2470703 C63.3515625,27.0947308 63.514484,27.7316059 63.840332,28.1577148 C64.16618,28.5838237 64.6435515,28.796875 65.2724609,28.796875 C65.9879593,28.796875 66.6647104,28.6191424 67.3027344,28.2636719 L67.3027344,29.6650391 C67.0156236,29.8336597 66.7091488,29.9544267 66.3833008,30.0273438 C66.0574528,30.1002608 65.6621117,30.1367188 65.1972656,30.1367188 L65.1972656,30.1367188 Z M75.7861328,26.2060547 C75.7861328,27.4410869 75.4694042,28.4049445 74.8359375,29.0976562 C74.2024708,29.790368 73.3206437,30.1367188 72.1904297,30.1367188 C71.4840459,30.1367188 70.8597032,29.9772151 70.3173828,29.6582031 C69.7750624,29.3391911 69.3580744,28.8811879 69.0664062,28.2841797 C68.7747381,27.6871715 68.6289062,26.9944701 68.6289062,26.2060547 C68.6289062,24.9801371 68.9433562,24.0231154 69.5722656,23.3349609 C70.201175,22.6468065 71.0875594,22.3027344 72.2314453,22.3027344 C73.3252008,22.3027344 74.1910775,22.6547816 74.8291016,23.3588867 C75.4671256,24.0629918 75.7861328,25.0120383 75.7861328,26.2060547 L75.7861328,26.2060547 Z M70.2832031,26.2060547 C70.2832031,27.9515061 70.9280534,28.8242188 72.2177734,28.8242188 C73.4938215,28.8242188 74.1318359,27.9515061 74.1318359,26.2060547 C74.1318359,24.4788325 73.4892642,23.6152344 72.2041016,23.6152344 C71.529619,23.6152344 71.0408544,23.8385394 70.737793,24.2851562 C70.4347316,24.7317731 70.2832031,25.3720661 70.2832031,26.2060547 L70.2832031,26.2060547 Z M84.0029297,30 L82.3896484,30 L82.3896484,25.3378906 C82.3896484,24.7591117 82.2802745,24.3273126 82.0615234,24.0424805 C81.8427723,23.7576483 81.5009789,23.6152344 81.0361328,23.6152344 C80.416338,23.6152344 79.9617527,23.8168925 79.6723633,24.2202148 C79.3829738,24.6235372 79.2382812,25.2945917 79.2382812,26.2333984 L79.2382812,30 L77.6318359,30 L77.6318359,22.4394531 L78.8896484,22.4394531 L79.1152344,23.4306641 L79.1972656,23.4306641 C79.4069021,23.0706362 79.7110983,22.7926442 80.1098633,22.5966797 C80.5086283,22.4007152 80.9472632,22.3027344 81.4257812,22.3027344 C82.5878964,22.3027344 83.358071,22.6992148 83.7363281,23.4921875 L83.8457031,23.4921875 C84.0690115,23.1184877 84.3834615,22.826824 84.7890625,22.6171875 C85.1946635,22.407551 85.6595026,22.3027344 86.1835938,22.3027344 C87.085942,22.3027344 87.7433248,22.5305967 88.1557617,22.9863281 C88.5681987,23.4420596 88.7744141,24.1370396 88.7744141,25.0712891 L88.7744141,30 L87.1679688,30 L87.1679688,25.3378906 C87.1679688,24.7591117 87.0574555,24.3273126 86.8364258,24.0424805 C86.615396,23.7576483 86.2724633,23.6152344 85.8076172,23.6152344 C85.1832651,23.6152344 84.7264012,23.8100566 84.4370117,24.199707 C84.1476223,24.5893574 84.0029297,25.187496 84.0029297,25.9941406 L84.0029297,30 Z M94.8515625,30.1367188 C93.8945265,30.1367188 93.1516954,29.7926467 92.6230469,29.1044922 L92.5273438,29.1044922 C92.5911462,29.7425162 92.6230469,30.1298821 92.6230469,30.2666016 L92.6230469,33.3632812 L91.0166016,33.3632812 L91.0166016,22.4394531 L92.3154297,22.4394531 C92.3518882,22.5807299 92.4270828,22.9179661 92.5410156,23.4511719 L92.6230469,23.4511719 C93.1243515,22.685543 93.8762971,22.3027344 94.8789062,22.3027344 C95.8222703,22.3027344 96.5571263,22.6445278 97.0834961,23.328125 C97.6098659,24.0117222 97.8730469,24.9710225 97.8730469,26.2060547 C97.8730469,27.4410869 97.6053087,28.4049445 97.0698242,29.0976562 C96.5343398,29.790368 95.7949266,30.1367188 94.8515625,30.1367188 L94.8515625,30.1367188 Z M94.4619141,23.6152344 C93.82389,23.6152344 93.3579116,23.8020815 93.0639648,24.1757812 C92.7700181,24.549481 92.6230469,25.1464803 92.6230469,25.9667969 L92.6230469,26.2060547 C92.6230469,27.1266322 92.7688787,27.7931294 93.0605469,28.2055664 C93.352215,28.6180034 93.8284472,28.8242188 94.4892578,28.8242188 C95.0452502,28.8242188 95.4736313,28.5963564 95.7744141,28.140625 C96.0751968,27.6848936 96.2255859,27.035486 96.2255859,26.1923828 C96.2255859,25.3447223 96.0763361,24.7032899 95.777832,24.2680664 C95.4793279,23.8328429 95.040693,23.6152344 94.4619141,23.6152344 L94.4619141,23.6152344 Z M101.345703,30 L99.7392578,30 L99.7392578,22.4394531 L101.345703,22.4394531 L101.345703,30 Z M99.6435547,20.4365234 C99.6435547,20.1494126 99.7221672,19.9283862 99.8793945,19.7734375 C100.036622,19.6184888 100.261066,19.5410156 100.552734,19.5410156 C100.835288,19.5410156 101.055175,19.6184888 101.212402,19.7734375 C101.36963,19.9283862 101.448242,20.1494126 101.448242,20.4365234 C101.448242,20.7099623 101.36963,20.9252922 101.212402,21.0825195 C101.055175,21.2397469 100.835288,21.3183594 100.552734,21.3183594 C100.261066,21.3183594 100.036622,21.2397469 99.8793945,21.0825195 C99.7221672,20.9252922 99.6435547,20.7099623 99.6435547,20.4365234 L99.6435547,20.4365234 Z M105.249023,30 L103.642578,30 L103.642578,19.3632812 L105.249023,19.3632812 L105.249023,30 Z M110.847656,30.1367188 C109.671869,30.1367188 108.752445,29.793786 108.089355,29.1079102 C107.426266,28.4220343 107.094727,27.4775451 107.094727,26.2744141 C107.094727,25.0393818 107.402341,24.0686884 108.017578,23.3623047 C108.632816,22.6559209 109.478185,22.3027344 110.553711,22.3027344 C111.551763,22.3027344 112.340166,22.6057912 112.918945,23.2119141 C113.497724,23.8180369 113.787109,24.6520129 113.787109,25.7138672 L113.787109,26.5820312 L108.749023,26.5820312 C108.77181,27.3157589 108.97005,27.8797181 109.34375,28.2739258 C109.71745,28.6681335 110.243812,28.8652344 110.922852,28.8652344 C111.369468,28.8652344 111.785317,28.8230798 112.17041,28.7387695 C112.555503,28.6544592 112.969073,28.5143239 113.411133,28.3183594 L113.411133,29.6240234 C113.019204,29.8108733 112.622723,29.9430335 112.22168,30.0205078 C111.820636,30.0979822 111.362633,30.1367188 110.847656,30.1367188 L110.847656,30.1367188 Z M110.553711,23.5195312 C110.043292,23.5195312 109.634279,23.6813135 109.32666,24.0048828 C109.019041,24.3284521 108.835612,24.8001271 108.776367,25.4199219 L112.208008,25.4199219 C112.198893,24.7955698 112.048504,24.3227555 111.756836,24.0014648 C111.465168,23.6801742 111.06413,23.5195312 110.553711,23.5195312 L110.553711,23.5195312 Z" id="Build,-test-and-comp" fill="#626463"></path>
            <path d="M582.18903,61 L731.408223,61" id="Line-Copy-6" stroke="#AB3FE6" stroke-width="2" stroke-linecap="square" transform="translate(657.189030, 61.000000) scale(-1, 1) translate(-657.189030, -61.000000) "></path>
            <circle id="Oval-26" stroke="#AB3FE6" stroke-width="2" fill="#FFFFFF" cx="579" cy="61" r="5"></circle>
            <circle id="Oval-26-Copy-3" stroke="#AB3FE6" stroke-width="2" fill="#FFFFFF" cx="629" cy="61" r="3"></circle>
            <circle id="Oval-26-Copy-5" stroke="#AB3FE6" stroke-width="2" fill="#FFFFFF" cx="677" cy="61" r="3"></circle>
            <path d="M723,51 L733,60.9989832 L723,70.9979665" id="Path-10-Copy-6" stroke="#AB3FE6" stroke-width="2" stroke-linecap="round"></path>
            <path d="M583.645508,11 L581.642578,11 L576.727539,3.03613281 L576.672852,3.03613281 L576.707031,3.48046875 C576.770834,4.32812924 576.802734,5.10286107 576.802734,5.8046875 L576.802734,11 L575.319336,11 L575.319336,1.00585938 L577.301758,1.00585938 L582.203125,8.92871094 L582.244141,8.92871094 C582.235026,8.82389271 582.216797,8.44222334 582.189453,7.78369141 C582.162109,7.12515947 582.148438,6.61132997 582.148438,6.2421875 L582.148438,1.00585938 L583.645508,1.00585938 L583.645508,11 Z M592.819336,7.20605469 C592.819336,8.4410869 592.502607,9.40494445 591.869141,10.0976562 C591.235674,10.790368 590.353847,11.1367188 589.223633,11.1367188 C588.517249,11.1367188 587.892906,10.9772151 587.350586,10.6582031 C586.808266,10.3391911 586.391278,9.88118788 586.099609,9.28417969 C585.807941,8.68717149 585.662109,7.99447009 585.662109,7.20605469 C585.662109,5.9801371 585.976559,5.02311542 586.605469,4.33496094 C587.234378,3.64680646 588.120763,3.30273438 589.264648,3.30273438 C590.358404,3.30273438 591.224281,3.65478164 591.862305,4.35888672 C592.500329,5.0629918 592.819336,6.0120383 592.819336,7.20605469 L592.819336,7.20605469 Z M587.316406,7.20605469 C587.316406,8.95150612 587.961257,9.82421875 589.250977,9.82421875 C590.527025,9.82421875 591.165039,8.95150612 591.165039,7.20605469 C591.165039,5.47883251 590.522467,4.61523438 589.237305,4.61523438 C588.562822,4.61523438 588.074058,4.83853943 587.770996,5.28515625 C587.467935,5.73177307 587.316406,6.37206614 587.316406,7.20605469 L587.316406,7.20605469 Z M597.481445,9.83789062 C597.873374,9.83789062 598.265298,9.7763678 598.657227,9.65332031 L598.657227,10.8632812 C598.479491,10.9407556 598.25049,11.0056964 597.970215,11.0581055 C597.68994,11.1105146 597.399416,11.1367188 597.098633,11.1367188 C595.57649,11.1367188 594.81543,10.3346434 594.81543,8.73046875 L594.81543,4.65625 L593.783203,4.65625 L593.783203,3.9453125 L594.890625,3.35742188 L595.4375,1.7578125 L596.428711,1.7578125 L596.428711,3.43945312 L598.582031,3.43945312 L598.582031,4.65625 L596.428711,4.65625 L596.428711,8.703125 C596.428711,9.09049673 596.525552,9.37646392 596.719238,9.56103516 C596.912924,9.74560639 597.166991,9.83789062 597.481445,9.83789062 L597.481445,9.83789062 Z M601.774414,11 L600.167969,11 L600.167969,3.43945313 L601.774414,3.43945313 L601.774414,11 Z M600.072266,1.43652344 C600.072266,1.14941263 600.150878,0.928386191 600.308105,0.7734375 C600.465333,0.618488809 600.689777,0.541015625 600.981445,0.541015625 C601.263999,0.541015625 601.483886,0.618488809 601.641113,0.7734375 C601.798341,0.928386191 601.876953,1.14941263 601.876953,1.43652344 C601.876953,1.7099623 601.798341,1.92529218 601.641113,2.08251953 C601.483886,2.23974688 601.263999,2.31835938 600.981445,2.31835938 C600.689777,2.31835938 600.465333,2.23974688 600.308105,2.08251953 C600.150878,1.92529218 600.072266,1.7099623 600.072266,1.43652344 L600.072266,1.43652344 Z M607.865234,4.65625 L606.019531,4.65625 L606.019531,11 L604.40625,11 L604.40625,4.65625 L603.162109,4.65625 L603.162109,3.90429688 L604.40625,3.41210938 L604.40625,2.91992188 C604.40625,2.02668824 604.615883,1.36474825 605.035156,0.934082031 C605.454429,0.503415815 606.094722,0.288085938 606.956055,0.288085938 C607.521162,0.288085938 608.077146,0.381509482 608.624023,0.568359375 L608.200195,1.78515625 C607.803709,1.65755145 607.425458,1.59375 607.06543,1.59375 C606.700845,1.59375 606.435385,1.70654184 606.269043,1.93212891 C606.102701,2.15771597 606.019531,2.49609149 606.019531,2.94726562 L606.019531,3.43945312 L607.865234,3.43945312 L607.865234,4.65625 Z M608.001953,3.43945312 L609.751953,3.43945312 L611.290039,7.72558594 C611.522462,8.33626607 611.677408,8.91047908 611.754883,9.44824219 L611.80957,9.44824219 C611.850586,9.19758989 611.925781,8.89339372 612.035156,8.53564453 C612.144532,8.17789535 612.723302,6.47918187 613.771484,3.43945312 L615.507812,3.43945312 L612.274414,12.0048828 C611.68652,13.5771563 610.706713,14.3632812 609.334961,14.3632812 C608.97949,14.3632812 608.63314,14.3245447 608.295898,14.2470703 L608.295898,12.9755859 C608.537436,13.0302737 608.813149,13.0576172 609.123047,13.0576172 C609.89779,13.0576172 610.442381,12.6087284 610.756836,11.7109375 L611.037109,11 L608.001953,3.43945312 Z M580.227539,27.8466797 C580.227539,28.5849646 579.958662,29.1512025 579.420898,29.5454102 C578.883135,29.9396179 578.112961,30.1367188 577.110352,30.1367188 C576.103185,30.1367188 575.294274,29.984051 574.683594,29.6787109 L574.683594,28.2910156 C575.57227,28.7011739 576.39941,28.90625 577.165039,28.90625 C578.153976,28.90625 578.648438,28.6077504 578.648438,28.0107422 C578.648438,27.819335 578.593751,27.6598314 578.484375,27.5322266 C578.374999,27.4046218 578.194988,27.2724616 577.944336,27.1357422 C577.693684,26.9990228 577.345054,26.8440764 576.898438,26.6708984 C576.02799,26.3336572 575.438966,25.996421 575.131348,25.6591797 C574.823729,25.3219384 574.669922,24.8844428 574.669922,24.3466797 C574.669922,23.699541 574.930824,23.1971047 575.452637,22.8393555 C575.974449,22.4816063 576.68424,22.3027344 577.582031,22.3027344 C578.470708,22.3027344 579.311519,22.4827456 580.104492,22.8427734 L579.584961,24.0527344 C578.769202,23.7154931 578.083336,23.546875 577.527344,23.546875 C576.679683,23.546875 576.255859,23.788409 576.255859,24.2714844 C576.255859,24.5084647 576.366373,24.7089836 576.587402,24.8730469 C576.808432,25.0371102 577.290361,25.2626939 578.033203,25.5498047 C578.657555,25.7913424 579.111001,26.0123688 579.393555,26.2128906 C579.676108,26.4134125 579.885742,26.6446927 580.022461,26.9067383 C580.15918,27.1687839 580.227539,27.4820945 580.227539,27.8466797 L580.227539,27.8466797 Z M585.012695,30.1367188 C583.868809,30.1367188 582.999515,29.8029005 582.404785,29.1352539 C581.810056,28.4676073 581.512695,27.5094463 581.512695,26.2607422 C581.512695,24.9892515 581.823727,24.0117222 582.445801,23.328125 C583.067874,22.6445278 583.966791,22.3027344 585.142578,22.3027344 C585.940108,22.3027344 586.657874,22.4508449 587.295898,22.7470703 L586.810547,24.0390625 C586.131507,23.7747383 585.570966,23.6425781 585.128906,23.6425781 C583.820957,23.6425781 583.166992,24.5107335 583.166992,26.2470703 C583.166992,27.0947308 583.329914,27.7316059 583.655762,28.1577148 C583.98161,28.5838237 584.458981,28.796875 585.087891,28.796875 C585.803389,28.796875 586.48014,28.6191424 587.118164,28.2636719 L587.118164,29.6650391 C586.831053,29.8336597 586.524578,29.9544267 586.19873,30.0273438 C585.872882,30.1002608 585.477541,30.1367188 585.012695,30.1367188 L585.012695,30.1367188 Z M595.546875,30 L593.933594,30 L593.933594,25.3515625 C593.933594,24.7682263 593.816245,24.3330092 593.581543,24.0458984 C593.346841,23.7587876 592.974286,23.6152344 592.463867,23.6152344 C591.789385,23.6152344 591.293784,23.8168925 590.977051,24.2202148 C590.660317,24.6235372 590.501953,25.2991489 590.501953,26.2470703 L590.501953,30 L588.895508,30 L588.895508,19.3632812 L590.501953,19.3632812 L590.501953,22.0634766 C590.501953,22.4964214 590.47461,22.9589819 590.419922,23.4511719 L590.522461,23.4511719 C590.741212,23.0865867 591.045408,22.8040375 591.435059,22.6035156 C591.824709,22.4029938 592.279294,22.3027344 592.798828,22.3027344 C594.630869,22.3027344 595.546875,23.2255767 595.546875,25.0712891 L595.546875,30 Z M601.083984,30.1367188 C599.908197,30.1367188 598.988773,29.793786 598.325684,29.1079102 C597.662594,28.4220343 597.331055,27.4775451 597.331055,26.2744141 C597.331055,25.0393818 597.638669,24.0686884 598.253906,23.3623047 C598.869144,22.6559209 599.714513,22.3027344 600.790039,22.3027344 C601.788091,22.3027344 602.576495,22.6057912 603.155273,23.2119141 C603.734052,23.8180369 604.023438,24.6520129 604.023438,25.7138672 L604.023438,26.5820312 L598.985352,26.5820312 C599.008138,27.3157589 599.206378,27.8797181 599.580078,28.2739258 C599.953778,28.6681335 600.48014,28.8652344 601.15918,28.8652344 C601.605797,28.8652344 602.021645,28.8230798 602.406738,28.7387695 C602.791831,28.6544592 603.205401,28.5143239 603.647461,28.3183594 L603.647461,29.6240234 C603.255532,29.8108733 602.859051,29.9430335 602.458008,30.0205078 C602.056964,30.0979822 601.598961,30.1367188 601.083984,30.1367188 L601.083984,30.1367188 Z M600.790039,23.5195312 C600.27962,23.5195312 599.870607,23.6813135 599.562988,24.0048828 C599.25537,24.3284521 599.07194,24.8001271 599.012695,25.4199219 L602.444336,25.4199219 C602.435221,24.7955698 602.284832,24.3227555 601.993164,24.0014648 C601.701496,23.6801742 601.300458,23.5195312 600.790039,23.5195312 L600.790039,23.5195312 Z M608.398438,30.1367188 C607.455073,30.1367188 606.719078,29.7949253 606.19043,29.1113281 C605.661781,28.427731 605.397461,27.4684307 605.397461,26.2333984 C605.397461,24.9938089 605.665199,24.028812 606.200684,23.3383789 C606.736168,22.6479458 607.47786,22.3027344 608.425781,22.3027344 C609.419276,22.3027344 610.175779,22.6695927 610.695312,23.4033203 L610.777344,23.4033203 C610.699869,22.8609999 610.661133,22.4326188 610.661133,22.1181641 L610.661133,19.3632812 L612.274414,19.3632812 L612.274414,30 L611.016602,30 L610.736328,29.0087891 L610.661133,29.0087891 C610.146156,29.7607459 609.391932,30.1367188 608.398438,30.1367188 L608.398438,30.1367188 Z M608.829102,28.8378906 C609.489912,28.8378906 609.970702,28.6521828 610.271484,28.2807617 C610.572267,27.9093406 610.727213,27.3066448 610.736328,26.4726562 L610.736328,26.2470703 C610.736328,25.2945916 610.581382,24.6178405 610.271484,24.2167969 C609.961587,23.8157532 609.47624,23.6152344 608.81543,23.6152344 C608.250323,23.6152344 607.815106,23.844236 607.509766,24.3022461 C607.204426,24.7602562 607.051758,25.4130817 607.051758,26.2607422 C607.051758,27.099288 607.199868,27.7384418 607.496094,28.1782227 C607.792319,28.6180035 608.236651,28.8378906 608.829102,28.8378906 L608.829102,28.8378906 Z M619.90332,30 L619.677734,29.0087891 L619.595703,29.0087891 C619.372395,29.3597023 619.054527,29.6354157 618.64209,29.8359375 C618.229653,30.0364593 617.759117,30.1367188 617.230469,30.1367188 C616.314449,30.1367188 615.630862,29.9088564 615.179688,29.453125 C614.728513,28.9973936 614.50293,28.3069708 614.50293,27.3818359 L614.50293,22.4394531 L616.123047,22.4394531 L616.123047,27.1015625 C616.123047,27.6803414 616.241535,28.1144191 616.478516,28.4038086 C616.715496,28.6931981 617.086912,28.8378906 617.592773,28.8378906 C618.267256,28.8378906 618.762856,28.6362325 619.07959,28.2329102 C619.396323,27.8295878 619.554688,27.1539761 619.554688,26.2060547 L619.554688,22.4394531 L621.167969,22.4394531 L621.167969,30 L619.90332,30 Z M625.064453,30 L623.458008,30 L623.458008,19.3632812 L625.064453,19.3632812 L625.064453,30 Z M630.663086,30.1367188 C629.487299,30.1367188 628.567874,29.793786 627.904785,29.1079102 C627.241696,28.4220343 626.910156,27.4775451 626.910156,26.2744141 C626.910156,25.0393818 627.21777,24.0686884 627.833008,23.3623047 C628.448245,22.6559209 629.293614,22.3027344 630.369141,22.3027344 C631.367192,22.3027344 632.155596,22.6057912 632.734375,23.2119141 C633.313154,23.8180369 633.602539,24.6520129 633.602539,25.7138672 L633.602539,26.5820312 L628.564453,26.5820312 C628.58724,27.3157589 628.78548,27.8797181 629.15918,28.2739258 C629.532879,28.6681335 630.059241,28.8652344 630.738281,28.8652344 C631.184898,28.8652344 631.600747,28.8230798 631.98584,28.7387695 C632.370933,28.6544592 632.784503,28.5143239 633.226562,28.3183594 L633.226562,29.6240234 C632.834633,29.8108733 632.438153,29.9430335 632.037109,30.0205078 C631.636066,30.0979822 631.178062,30.1367188 630.663086,30.1367188 L630.663086,30.1367188 Z M630.369141,23.5195312 C629.858721,23.5195312 629.449709,23.6813135 629.14209,24.0048828 C628.834471,24.3284521 628.651042,24.8001271 628.591797,25.4199219 L632.023438,25.4199219 C632.014323,24.7955698 631.863934,24.3227555 631.572266,24.0014648 C631.280597,23.6801742 630.87956,23.5195312 630.369141,23.5195312 L630.369141,23.5195312 Z M639.262695,22.3027344 C639.586265,22.3027344 639.852864,22.3255206 640.0625,22.3710938 L639.905273,23.8681641 C639.677408,23.8134763 639.440431,23.7861328 639.194336,23.7861328 C638.551755,23.7861328 638.031089,23.9957661 637.632324,24.4150391 C637.233559,24.834312 637.03418,25.3789029 637.03418,26.0488281 L637.03418,30 L635.427734,30 L635.427734,22.4394531 L636.685547,22.4394531 L636.897461,23.7724609 L636.979492,23.7724609 C637.230144,23.3212868 637.557127,22.963543 637.960449,22.6992188 C638.363772,22.4348945 638.797849,22.3027344 639.262695,22.3027344 L639.262695,22.3027344 Z" id="Notify-scheduler" fill="#626463"></path>
            <path d="M306.18903,61 L455.408223,61" id="Line-Copy-6" stroke="#AB3FE6" stroke-width="2" stroke-linecap="square" transform="translate(381.189030, 61.000000) scale(-1, 1) translate(-381.189030, -61.000000) "></path>
            <circle id="Oval-26" stroke="#AB3FE6" stroke-width="2" fill="#FFFFFF" cx="303" cy="61" r="5"></circle>
            <circle id="Oval-26-Copy-3" stroke="#AB3FE6" stroke-width="2" fill="#FFFFFF" cx="353" cy="61" r="3"></circle>
            <circle id="Oval-26-Copy-5" stroke="#AB3FE6" stroke-width="2" fill="#FFFFFF" cx="401" cy="61" r="3"></circle>
            <path d="M447,51 L457,60.9989832 L447,70.9979665" id="Path-10-Copy-6" stroke="#AB3FE6" stroke-width="2" stroke-linecap="round"></path>
            <path d="M305.936523,4.02734375 C305.936523,5.07096876 305.59473,5.87076545 304.911133,6.42675781 C304.227536,6.98275018 303.254564,7.26074219 301.992188,7.26074219 L300.953125,7.26074219 L300.953125,11 L299.319336,11 L299.319336,1.00585938 L302.197266,1.00585938 C303.44597,1.00585938 304.381345,1.26106516 305.003418,1.77148438 C305.625491,2.28190359 305.936523,3.0338492 305.936523,4.02734375 L305.936523,4.02734375 Z M300.953125,5.88671875 L301.821289,5.88671875 C302.659835,5.88671875 303.275063,5.74088688 303.666992,5.44921875 C304.058921,5.15755062 304.254883,4.70182602 304.254883,4.08203125 C304.254883,3.50780963 304.079429,3.0794285 303.728516,2.796875 C303.377602,2.5143215 302.830733,2.37304688 302.087891,2.37304688 L300.953125,2.37304688 L300.953125,5.88671875 Z M313.09375,11 L312.868164,10.0087891 L312.786133,10.0087891 C312.562824,10.3597023 312.244956,10.6354157 311.83252,10.8359375 C311.420083,11.0364593 310.949547,11.1367188 310.420898,11.1367188 C309.504878,11.1367188 308.821291,10.9088564 308.370117,10.453125 C307.918943,9.99739355 307.693359,9.30697077 307.693359,8.38183594 L307.693359,3.43945312 L309.313477,3.43945312 L309.313477,8.1015625 C309.313477,8.68034144 309.431965,9.11441913 309.668945,9.40380859 C309.905926,9.69319806 310.277341,9.83789062 310.783203,9.83789062 C311.457686,9.83789062 311.953286,9.63623249 312.27002,9.23291016 C312.586753,8.82958783 312.745117,8.15397609 312.745117,7.20605469 L312.745117,3.43945312 L314.358398,3.43945312 L314.358398,11 L313.09375,11 Z M321.727539,8.84667969 C321.727539,9.58496463 321.458662,10.1512025 320.920898,10.5454102 C320.383135,10.9396179 319.612961,11.1367188 318.610352,11.1367188 C317.603185,11.1367188 316.794274,10.984051 316.183594,10.6787109 L316.183594,9.29101562 C317.07227,9.70117393 317.89941,9.90625 318.665039,9.90625 C319.653976,9.90625 320.148438,9.60775038 320.148438,9.01074219 C320.148438,8.81933498 320.093751,8.65983137 319.984375,8.53222656 C319.874999,8.40462176 319.694988,8.27246162 319.444336,8.13574219 C319.193684,7.99902275 318.845054,7.84407639 318.398438,7.67089844 C317.52799,7.33365717 316.938966,6.99642096 316.631348,6.65917969 C316.323729,6.32193842 316.169922,5.88444279 316.169922,5.34667969 C316.169922,4.69954104 316.430824,4.19710465 316.952637,3.83935547 C317.474449,3.48160628 318.18424,3.30273438 319.082031,3.30273438 C319.970708,3.30273438 320.811519,3.4827456 321.604492,3.84277344 L321.084961,5.05273438 C320.269202,4.71549311 319.583336,4.546875 319.027344,4.546875 C318.179683,4.546875 317.755859,4.78840904 317.755859,5.27148438 C317.755859,5.50846473 317.866373,5.70898355 318.087402,5.87304688 C318.308432,6.0371102 318.790361,6.26269388 319.533203,6.54980469 C320.157555,6.79134235 320.611001,7.01236879 320.893555,7.21289062 C321.176108,7.41341246 321.385742,7.6446927 321.522461,7.90673828 C321.65918,8.16878386 321.727539,8.48209453 321.727539,8.84667969 L321.727539,8.84667969 Z M330.115234,11 L328.501953,11 L328.501953,6.3515625 C328.501953,5.76822625 328.384604,5.33300925 328.149902,5.04589844 C327.915201,4.75878763 327.542646,4.61523438 327.032227,4.61523438 C326.357744,4.61523438 325.862144,4.81689251 325.54541,5.22021484 C325.228677,5.62353717 325.070312,6.29914891 325.070312,7.24707031 L325.070312,11 L323.463867,11 L323.463867,0.36328125 L325.070312,0.36328125 L325.070312,3.06347656 C325.070312,3.49642144 325.042969,3.95898191 324.988281,4.45117188 L325.09082,4.45117188 C325.309571,4.08658672 325.613768,3.80403746 326.003418,3.60351562 C326.393068,3.40299379 326.847654,3.30273438 327.367188,3.30273438 C329.199228,3.30273438 330.115234,4.22557671 330.115234,6.07128906 L330.115234,11 Z M339.036133,11.1367188 C337.892247,11.1367188 337.022952,10.8029005 336.428223,10.1352539 C335.833493,9.46760734 335.536133,8.50944635 335.536133,7.26074219 C335.536133,5.98925146 335.847165,5.01172217 336.469238,4.328125 C337.091312,3.64452783 337.990228,3.30273438 339.166016,3.30273438 C339.963546,3.30273438 340.681312,3.45084487 341.319336,3.74707031 L340.833984,5.0390625 C340.154945,4.77473826 339.594403,4.64257812 339.152344,4.64257812 C337.844395,4.64257812 337.19043,5.51073351 337.19043,7.24707031 C337.19043,8.0947308 337.353351,8.73160594 337.679199,9.15771484 C338.005047,9.58382375 338.482419,9.796875 339.111328,9.796875 C339.826826,9.796875 340.503578,9.6191424 341.141602,9.26367188 L341.141602,10.6650391 C340.854491,10.8336597 340.548016,10.9544267 340.222168,11.0273438 C339.89632,11.1002608 339.500979,11.1367188 339.036133,11.1367188 L339.036133,11.1367188 Z M349.625,7.20605469 C349.625,8.4410869 349.308271,9.40494445 348.674805,10.0976562 C348.041338,10.790368 347.159511,11.1367188 346.029297,11.1367188 C345.322913,11.1367188 344.69857,10.9772151 344.15625,10.6582031 C343.61393,10.3391911 343.196942,9.88118788 342.905273,9.28417969 C342.613605,8.68717149 342.467773,7.99447009 342.467773,7.20605469 C342.467773,5.9801371 342.782223,5.02311542 343.411133,4.33496094 C344.040042,3.64680646 344.926427,3.30273438 346.070312,3.30273438 C347.164068,3.30273438 348.029945,3.65478164 348.667969,4.35888672 C349.305993,5.0629918 349.625,6.0120383 349.625,7.20605469 L349.625,7.20605469 Z M344.12207,7.20605469 C344.12207,8.95150612 344.766921,9.82421875 346.056641,9.82421875 C347.332689,9.82421875 347.970703,8.95150612 347.970703,7.20605469 C347.970703,5.47883251 347.328131,4.61523438 346.042969,4.61523438 C345.368486,4.61523438 344.879722,4.83853943 344.57666,5.28515625 C344.273599,5.73177307 344.12207,6.37206614 344.12207,7.20605469 L344.12207,7.20605469 Z M358.12207,11 L356.508789,11 L356.508789,6.3515625 C356.508789,5.76822625 356.39144,5.33300925 356.156738,5.04589844 C355.922037,4.75878763 355.549482,4.61523438 355.039062,4.61523438 C354.360023,4.61523438 353.863283,4.8157532 353.548828,5.21679688 C353.234373,5.61784055 353.077148,6.29003435 353.077148,7.23339844 L353.077148,11 L351.470703,11 L351.470703,3.43945312 L352.728516,3.43945312 L352.954102,4.43066406 L353.036133,4.43066406 C353.263999,4.07063622 353.587563,3.79264421 354.006836,3.59667969 C354.426109,3.40071517 354.890948,3.30273438 355.401367,3.30273438 C357.215178,3.30273438 358.12207,4.22557671 358.12207,6.07128906 L358.12207,11 Z M363.173828,9.83789062 C363.565757,9.83789062 363.95768,9.7763678 364.349609,9.65332031 L364.349609,10.8632812 C364.171874,10.9407556 363.942872,11.0056964 363.662598,11.0581055 C363.382323,11.1105146 363.091798,11.1367188 362.791016,11.1367188 C361.268873,11.1367188 360.507812,10.3346434 360.507812,8.73046875 L360.507812,4.65625 L359.475586,4.65625 L359.475586,3.9453125 L360.583008,3.35742188 L361.129883,1.7578125 L362.121094,1.7578125 L362.121094,3.43945312 L364.274414,3.43945312 L364.274414,4.65625 L362.121094,4.65625 L362.121094,8.703125 C362.121094,9.09049673 362.217935,9.37646392 362.411621,9.56103516 C362.605307,9.74560639 362.859373,9.83789062 363.173828,9.83789062 L363.173828,9.83789062 Z M370.59082,11 L370.269531,9.94726562 L370.214844,9.94726562 C369.850259,10.4075544 369.4834,10.7208651 369.114258,10.887207 C368.745115,11.053549 368.271162,11.1367188 367.692383,11.1367188 C366.949541,11.1367188 366.369631,10.9361999 365.952637,10.5351562 C365.535642,10.1341126 365.327148,9.56673544 365.327148,8.83300781 C365.327148,8.05370704 365.616534,7.46582229 366.195312,7.06933594 C366.774091,6.67284958 367.655919,6.45638039 368.84082,6.41992188 L370.146484,6.37890625 L370.146484,5.97558594 C370.146484,5.49251061 370.033693,5.13134885 369.808105,4.89208984 C369.582518,4.65283083 369.23275,4.53320312 368.758789,4.53320312 C368.371417,4.53320312 368.000002,4.5901687 367.644531,4.70410156 C367.289061,4.81803442 366.947267,4.95247318 366.619141,5.10742188 L366.099609,3.95898438 C366.509768,3.7447906 366.958656,3.58186905 367.446289,3.47021484 C367.933922,3.35856064 368.394204,3.30273438 368.827148,3.30273438 C369.788742,3.30273438 370.514483,3.5123677 371.004395,3.93164062 C371.494306,4.35091355 371.739258,5.00943562 371.739258,5.90722656 L371.739258,11 L370.59082,11 Z M368.198242,9.90625 C368.781578,9.90625 369.249835,9.74332845 369.603027,9.41748047 C369.956219,9.09163249 370.132812,8.63476856 370.132812,8.046875 L370.132812,7.390625 L369.162109,7.43164062 C368.405595,7.45898451 367.855308,7.58544809 367.51123,7.81103516 C367.167153,8.03662222 366.995117,8.38183361 366.995117,8.84667969 C366.995117,9.18392096 367.095377,9.4448233 367.295898,9.62939453 C367.49642,9.81396577 367.797199,9.90625 368.198242,9.90625 L368.198242,9.90625 Z M375.587891,11 L373.981445,11 L373.981445,3.43945312 L375.587891,3.43945312 L375.587891,11 Z M373.885742,1.43652344 C373.885742,1.14941263 373.964355,0.928386191 374.121582,0.7734375 C374.278809,0.618488809 374.503254,0.541015625 374.794922,0.541015625 C375.077475,0.541015625 375.297362,0.618488809 375.45459,0.7734375 C375.611817,0.928386191 375.69043,1.14941263 375.69043,1.43652344 C375.69043,1.7099623 375.611817,1.92529218 375.45459,2.08251953 C375.297362,2.23974688 375.077475,2.31835938 374.794922,2.31835938 C374.503254,2.31835938 374.278809,2.23974688 374.121582,2.08251953 C373.964355,1.92529218 373.885742,1.7099623 373.885742,1.43652344 L373.885742,1.43652344 Z M384.536133,11 L382.922852,11 L382.922852,6.3515625 C382.922852,5.76822625 382.805502,5.33300925 382.570801,5.04589844 C382.336099,4.75878763 381.963544,4.61523438 381.453125,4.61523438 C380.774085,4.61523438 380.277345,4.8157532 379.962891,5.21679688 C379.648436,5.61784055 379.491211,6.29003435 379.491211,7.23339844 L379.491211,11 L377.884766,11 L377.884766,3.43945312 L379.142578,3.43945312 L379.368164,4.43066406 L379.450195,4.43066406 C379.678061,4.07063622 380.001626,3.79264421 380.420898,3.59667969 C380.840171,3.40071517 381.30501,3.30273438 381.81543,3.30273438 C383.629241,3.30273438 384.536133,4.22557671 384.536133,6.07128906 L384.536133,11 Z M390.073242,11.1367188 C388.897455,11.1367188 387.978031,10.793786 387.314941,10.1079102 C386.651852,9.42203433 386.320312,8.47754508 386.320312,7.27441406 C386.320312,6.03938185 386.627927,5.06868843 387.243164,4.36230469 C387.858402,3.65592095 388.703771,3.30273438 389.779297,3.30273438 C390.777349,3.30273438 391.565752,3.60579124 392.144531,4.21191406 C392.72331,4.81803688 393.012695,5.65201292 393.012695,6.71386719 L393.012695,7.58203125 L387.974609,7.58203125 C387.997396,8.31575888 388.195636,8.87971808 388.569336,9.27392578 C388.943036,9.66813348 389.469398,9.86523438 390.148438,9.86523438 C390.595054,9.86523438 391.010903,9.82307985 391.395996,9.73876953 C391.781089,9.65445921 392.194659,9.5143239 392.636719,9.31835938 L392.636719,10.6240234 C392.24479,10.8108733 391.848309,10.9430335 391.447266,11.0205078 C391.046222,11.0979822 390.588219,11.1367188 390.073242,11.1367188 L390.073242,11.1367188 Z M389.779297,4.51953125 C389.268878,4.51953125 388.859865,4.68131349 388.552246,5.00488281 C388.244627,5.32845214 388.061198,5.80012711 388.001953,6.41992188 L391.433594,6.41992188 C391.424479,5.79556979 391.27409,5.32275551 390.982422,5.00146484 C390.690754,4.68017417 390.289716,4.51953125 389.779297,4.51953125 L389.779297,4.51953125 Z M398.672852,3.30273438 C398.996421,3.30273438 399.26302,3.32552061 399.472656,3.37109375 L399.31543,4.86816406 C399.087564,4.81347629 398.850587,4.78613281 398.604492,4.78613281 C397.961911,4.78613281 397.441245,4.99576613 397.04248,5.41503906 C396.643715,5.83431199 396.444336,6.3789029 396.444336,7.04882812 L396.444336,11 L394.837891,11 L394.837891,3.43945312 L396.095703,3.43945312 L396.307617,4.77246094 L396.389648,4.77246094 C396.640301,4.32128681 396.967283,3.96354299 397.370605,3.69921875 C397.773928,3.43489451 398.208005,3.30273438 398.672852,3.30273438 L398.672852,3.30273438 Z M301.964844,28.8378906 C302.356773,28.8378906 302.748696,28.7763678 303.140625,28.6533203 L303.140625,29.8632812 C302.96289,29.9407556 302.733888,30.0056964 302.453613,30.0581055 C302.173338,30.1105146 301.882814,30.1367188 301.582031,30.1367188 C300.059888,30.1367188 299.298828,29.3346434 299.298828,27.7304688 L299.298828,23.65625 L298.266602,23.65625 L298.266602,22.9453125 L299.374023,22.3574219 L299.920898,20.7578125 L300.912109,20.7578125 L300.912109,22.4394531 L303.06543,22.4394531 L303.06543,23.65625 L300.912109,23.65625 L300.912109,27.703125 C300.912109,28.0904967 301.008951,28.3764639 301.202637,28.5610352 C301.396323,28.7456064 301.650389,28.8378906 301.964844,28.8378906 L301.964844,28.8378906 Z M311.357422,26.2060547 C311.357422,27.4410869 311.040693,28.4049445 310.407227,29.0976562 C309.77376,29.790368 308.891933,30.1367188 307.761719,30.1367188 C307.055335,30.1367188 306.430992,29.9772151 305.888672,29.6582031 C305.346351,29.3391911 304.929363,28.8811879 304.637695,28.2841797 C304.346027,27.6871715 304.200195,26.9944701 304.200195,26.2060547 C304.200195,24.9801371 304.514645,24.0231154 305.143555,23.3349609 C305.772464,22.6468065 306.658848,22.3027344 307.802734,22.3027344 C308.89649,22.3027344 309.762367,22.6547816 310.400391,23.3588867 C311.038415,24.0629918 311.357422,25.0120383 311.357422,26.2060547 L311.357422,26.2060547 Z M305.854492,26.2060547 C305.854492,27.9515061 306.499343,28.8242188 307.789062,28.8242188 C309.065111,28.8242188 309.703125,27.9515061 309.703125,26.2060547 C309.703125,24.4788325 309.060553,23.6152344 307.775391,23.6152344 C307.100908,23.6152344 306.612143,23.8385394 306.309082,24.2851562 C306.006021,24.7317731 305.854492,25.3720661 305.854492,26.2060547 L305.854492,26.2060547 Z M320.674805,22.3027344 C320.998374,22.3027344 321.264973,22.3255206 321.474609,22.3710938 L321.317383,23.8681641 C321.089517,23.8134763 320.85254,23.7861328 320.606445,23.7861328 C319.963864,23.7861328 319.443199,23.9957661 319.044434,24.4150391 C318.645669,24.834312 318.446289,25.3789029 318.446289,26.0488281 L318.446289,30 L316.839844,30 L316.839844,22.4394531 L318.097656,22.4394531 L318.30957,23.7724609 L318.391602,23.7724609 C318.642254,23.3212868 318.969236,22.963543 319.372559,22.6992188 C319.775881,22.4348945 320.209959,22.3027344 320.674805,22.3027344 L320.674805,22.3027344 Z M326.177734,30.1367188 C325.001947,30.1367188 324.082523,29.793786 323.419434,29.1079102 C322.756344,28.4220343 322.424805,27.4775451 322.424805,26.2744141 C322.424805,25.0393818 322.732419,24.0686884 323.347656,23.3623047 C323.962894,22.6559209 324.808263,22.3027344 325.883789,22.3027344 C326.881841,22.3027344 327.670245,22.6057912 328.249023,23.2119141 C328.827802,23.8180369 329.117188,24.6520129 329.117188,25.7138672 L329.117188,26.5820312 L324.079102,26.5820312 C324.101888,27.3157589 324.300128,27.8797181 324.673828,28.2739258 C325.047528,28.6681335 325.57389,28.8652344 326.25293,28.8652344 C326.699547,28.8652344 327.115395,28.8230798 327.500488,28.7387695 C327.885581,28.6544592 328.299151,28.5143239 328.741211,28.3183594 L328.741211,29.6240234 C328.349282,29.8108733 327.952801,29.9430335 327.551758,30.0205078 C327.150714,30.0979822 326.692711,30.1367188 326.177734,30.1367188 L326.177734,30.1367188 Z M325.883789,23.5195312 C325.37337,23.5195312 324.964357,23.6813135 324.656738,24.0048828 C324.34912,24.3284521 324.16569,24.8001271 324.106445,25.4199219 L327.538086,25.4199219 C327.528971,24.7955698 327.378582,24.3227555 327.086914,24.0014648 C326.795246,23.6801742 326.394208,23.5195312 325.883789,23.5195312 L325.883789,23.5195312 Z M337.327148,22.4394531 L337.327148,23.3212891 L336.035156,23.5605469 C336.153646,23.7200529 336.251627,23.9160145 336.329102,24.1484375 C336.406576,24.3808605 336.445312,24.6269518 336.445312,24.8867188 C336.445312,25.6660195 336.176435,26.2789691 335.638672,26.7255859 C335.100909,27.1722028 334.360356,27.3955078 333.416992,27.3955078 C333.175455,27.3955078 332.956707,27.3772788 332.760742,27.3408203 C332.414386,27.5550141 332.241211,27.8056626 332.241211,28.0927734 C332.241211,28.2659514 332.322102,28.3958329 332.483887,28.4824219 C332.645671,28.5690108 332.943032,28.6123047 333.375977,28.6123047 L334.695312,28.6123047 C335.529301,28.6123047 336.162758,28.7900373 336.595703,29.1455078 C337.028648,29.5009783 337.245117,30.0136685 337.245117,30.6835938 C337.245117,31.5403689 336.891931,32.2011696 336.185547,32.6660156 C335.479163,33.1308617 334.45834,33.3632812 333.123047,33.3632812 C332.093094,33.3632812 331.306969,33.1809914 330.764648,32.8164062 C330.222328,32.4518211 329.951172,31.932295 329.951172,31.2578125 C329.951172,30.7929664 330.098143,30.4021826 330.39209,30.0854492 C330.686037,29.7687159 331.097328,29.5488287 331.625977,29.4257812 C331.411783,29.334635 331.235189,29.1876638 331.096191,28.9848633 C330.957193,28.7820628 330.887695,28.5690115 330.887695,28.3457031 C330.887695,28.0631496 330.967447,27.8238942 331.126953,27.6279297 C331.286459,27.4319652 331.523436,27.2382822 331.837891,27.046875 C331.445962,26.8782544 331.128094,26.6036803 330.884277,26.2231445 C330.640461,25.8426088 330.518555,25.397138 330.518555,24.8867188 C330.518555,24.0664021 330.777178,23.4306663 331.294434,22.9794922 C331.811689,22.5283181 332.548823,22.3027344 333.505859,22.3027344 C333.720053,22.3027344 333.944498,22.3175454 334.179199,22.347168 C334.413901,22.3767905 334.590494,22.4075519 334.708984,22.4394531 L337.327148,22.4394531 Z M331.386719,31.1757812 C331.386719,31.5221371 331.542804,31.788736 331.85498,31.9755859 C332.167157,32.1624358 332.605791,32.2558594 333.170898,32.2558594 C334.045903,32.2558594 334.697589,32.1305351 335.125977,31.8798828 C335.554364,31.6292305 335.768555,31.2965516 335.768555,30.8818359 C335.768555,30.5537093 335.651206,30.3201504 335.416504,30.1811523 C335.181802,30.0421543 334.745446,29.9726562 334.107422,29.9726562 L332.890625,29.9726562 C332.430336,29.9726562 332.064617,30.0808908 331.793457,30.2973633 C331.522297,30.5138357 331.386719,30.8066388 331.386719,31.1757812 L331.386719,31.1757812 Z M332.077148,24.8867188 C332.077148,25.3606795 332.199055,25.7252591 332.442871,25.9804688 C332.686687,26.2356784 333.036456,26.3632812 333.492188,26.3632812 C334.42188,26.3632812 334.886719,25.8665414 334.886719,24.8730469 C334.886719,24.3808569 334.771648,24.0014662 334.541504,23.7348633 C334.31136,23.4682604 333.961591,23.3349609 333.492188,23.3349609 C333.027341,23.3349609 332.675294,23.4671211 332.436035,23.7314453 C332.196776,23.9957696 332.077148,24.3808568 332.077148,24.8867188 L332.077148,24.8867188 Z M340.334961,30 L338.728516,30 L338.728516,22.4394531 L340.334961,22.4394531 L340.334961,30 Z M338.632812,20.4365234 C338.632812,20.1494126 338.711425,19.9283862 338.868652,19.7734375 C339.02588,19.6184888 339.250324,19.5410156 339.541992,19.5410156 C339.824546,19.5410156 340.044433,19.6184888 340.20166,19.7734375 C340.358888,19.9283862 340.4375,20.1494126 340.4375,20.4365234 C340.4375,20.7099623 340.358888,20.9252922 340.20166,21.0825195 C340.044433,21.2397469 339.824546,21.3183594 339.541992,21.3183594 C339.250324,21.3183594 339.02588,21.2397469 338.868652,21.0825195 C338.711425,20.9252922 338.632812,20.7099623 338.632812,20.4365234 L338.632812,20.4365234 Z M347.710938,27.8466797 C347.710938,28.5849646 347.44206,29.1512025 346.904297,29.5454102 C346.366534,29.9396179 345.596359,30.1367188 344.59375,30.1367188 C343.586584,30.1367188 342.777672,29.984051 342.166992,29.6787109 L342.166992,28.2910156 C343.055669,28.7011739 343.882809,28.90625 344.648438,28.90625 C345.637375,28.90625 346.131836,28.6077504 346.131836,28.0107422 C346.131836,27.819335 346.077149,27.6598314 345.967773,27.5322266 C345.858398,27.4046218 345.678387,27.2724616 345.427734,27.1357422 C345.177082,26.9990228 344.828453,26.8440764 344.381836,26.6708984 C343.511389,26.3336572 342.922365,25.996421 342.614746,25.6591797 C342.307127,25.3219384 342.15332,24.8844428 342.15332,24.3466797 C342.15332,23.699541 342.414223,23.1971047 342.936035,22.8393555 C343.457848,22.4816063 344.167639,22.3027344 345.06543,22.3027344 C345.954106,22.3027344 346.794918,22.4827456 347.587891,22.8427734 L347.068359,24.0527344 C346.2526,23.7154931 345.566735,23.546875 345.010742,23.546875 C344.163082,23.546875 343.739258,23.788409 343.739258,24.2714844 C343.739258,24.5084647 343.849771,24.7089836 344.070801,24.8730469 C344.291831,25.0371102 344.773759,25.2626939 345.516602,25.5498047 C346.140954,25.7913424 346.5944,26.0123688 346.876953,26.2128906 C347.159507,26.4134125 347.36914,26.6446927 347.505859,26.9067383 C347.642579,27.1687839 347.710938,27.4820945 347.710938,27.8466797 L347.710938,27.8466797 Z M352.263672,28.8378906 C352.655601,28.8378906 353.047524,28.7763678 353.439453,28.6533203 L353.439453,29.8632812 C353.261718,29.9407556 353.032716,30.0056964 352.752441,30.0581055 C352.472167,30.1105146 352.181642,30.1367188 351.880859,30.1367188 C350.358716,30.1367188 349.597656,29.3346434 349.597656,27.7304688 L349.597656,23.65625 L348.56543,23.65625 L348.56543,22.9453125 L349.672852,22.3574219 L350.219727,20.7578125 L351.210938,20.7578125 L351.210938,22.4394531 L353.364258,22.4394531 L353.364258,23.65625 L351.210938,23.65625 L351.210938,27.703125 C351.210938,28.0904967 351.307779,28.3764639 351.501465,28.5610352 C351.695151,28.7456064 351.949217,28.8378906 352.263672,28.8378906 L352.263672,28.8378906 Z M358.785156,22.3027344 C359.108726,22.3027344 359.375324,22.3255206 359.584961,22.3710938 L359.427734,23.8681641 C359.199869,23.8134763 358.962892,23.7861328 358.716797,23.7861328 C358.074216,23.7861328 357.55355,23.9957661 357.154785,24.4150391 C356.75602,24.834312 356.556641,25.3789029 356.556641,26.0488281 L356.556641,30 L354.950195,30 L354.950195,22.4394531 L356.208008,22.4394531 L356.419922,23.7724609 L356.501953,23.7724609 C356.752605,23.3212868 357.079588,22.963543 357.48291,22.6992188 C357.886232,22.4348945 358.32031,22.3027344 358.785156,22.3027344 L358.785156,22.3027344 Z M359.837891,22.4394531 L361.587891,22.4394531 L363.125977,26.7255859 C363.3584,27.3362661 363.513346,27.9104791 363.59082,28.4482422 L363.645508,28.4482422 C363.686524,28.1975899 363.761718,27.8933937 363.871094,27.5356445 C363.980469,27.1778953 364.55924,25.4791819 365.607422,22.4394531 L367.34375,22.4394531 L364.110352,31.0048828 C363.522458,32.5771563 362.54265,33.3632812 361.170898,33.3632812 C360.815428,33.3632812 360.469077,33.3245447 360.131836,33.2470703 L360.131836,31.9755859 C360.373374,32.0302737 360.649087,32.0576172 360.958984,32.0576172 C361.733728,32.0576172 362.278319,31.6087284 362.592773,30.7109375 L362.873047,30 L359.837891,22.4394531 Z" id="Push-container" fill="#626463"></path>
            <path d="M257.990722,59.5433008 L274.48223,49.9712679 L257.991507,40.4000244 L241.5,49.9712679 L257.990722,59.5433008" id="Fill-5" fill="#D69FF4"></path>
            <path d="M258,78.7137304 L274.492293,69.1424869 L274.491507,50 L258,59.5720329 L258,78.7137304" id="Fill-3" fill="#AB3FE6"></path>
            <path d="M241.520114,69.0473726 L258.010836,78.6178266 L258.010836,59.4761291 L241.518543,49.9048857 L241.520114,69.0473726" id="Fill-1" fill="#BF7EE3"></path>
            <path d="M495.990722,59.5433008 L512.48223,49.9712679 L495.991507,40.4000244 L479.5,49.9712679 L495.990722,59.5433008" id="Fill-5" fill="#D69FF4"></path>
            <path d="M496,78.7137304 L512.492293,69.1424869 L512.491507,50 L496,59.5720329 L496,78.7137304" id="Fill-3" fill="#AB3FE6"></path>
            <path d="M479.520114,69.0473726 L496.010836,78.6178266 L496.010836,59.4761291 L479.518543,49.9048857 L479.520114,69.0473726" id="Fill-1" fill="#BF7EE3"></path>
            <path d="M804.894123,59.3963114 L821.273993,49.8385585 L804.894903,40.281594 L788.515033,49.8385585 L804.894123,59.3963114" id="Fill-5" fill="#EFF3FB"></path>
            <path d="M804.48105,78.3220646 L820.8617,68.7651 L820.86092,49.6511709 L804.48105,59.2089238 L804.48105,78.3220646" id="Fill-3" fill="#D3DCE9"></path>
            <path d="M788.516593,68.7651 L804.895683,78.3212763 L804.895683,59.2081355 L788.515033,49.6511709 L788.516593,68.7651" id="Fill-1" fill="#DFE6F2"></path>
            <path d="M804.515972,59.3963114 L820.895842,49.8385585 L804.516752,40.281594 L788.136882,49.8385585 L804.515972,59.3963114" id="Fill-5" fill="#EFF3FB"></path>
            <path d="M804.102899,78.3220646 L820.483549,68.7651 L820.482769,49.6511709 L804.102899,59.2089238 L804.102899,78.3220646" id="Fill-3" fill="#D3DCE9"></path>
            <path d="M788.138442,68.7651 L804.517532,78.3212763 L804.517532,59.2081355 L788.136882,49.6511709 L788.138442,68.7651" id="Fill-1" fill="#DFE6F2"></path>
            <path d="M840.137821,59.3963114 L856.517691,49.8385585 L840.138601,40.281594 L823.75873,49.8385585 L840.137821,59.3963114" id="Fill-5" fill="#EFF3FB"></path>
            <path d="M839.724747,78.3220646 L856.105398,68.7651 L856.104618,49.6511709 L839.724747,59.2089238 L839.724747,78.3220646" id="Fill-3" fill="#D3DCE9"></path>
            <path d="M823.76029,68.7651 L840.139381,78.3212763 L840.139381,59.2081355 L823.75873,49.6511709 L823.76029,68.7651" id="Fill-1" fill="#DFE6F2"></path>
            <path d="M822.843703,28.6352494 L839.223573,19.0774966 L822.844483,9.52053205 L806.464613,19.0774966 L822.843703,28.6352494" id="Fill-5" fill="#EFF3FB"></path>
            <path d="M822.43063,47.5610026 L838.81128,38.0040381 L838.8105,18.890109 L822.43063,28.4478618 L822.43063,47.5610026" id="Fill-3" fill="#D3DCE9"></path>
            <path d="M806.466173,38.0040381 L822.845263,47.5602144 L822.845263,28.4470735 L806.464613,18.890109 L806.466173,38.0040381" id="Fill-1" fill="#DFE6F2"></path>
            <path d="M821.810089,90.1573733 L838.18996,80.5996205 L821.810869,71.0426559 L805.430999,80.5996205 L821.810089,90.1573733" id="Fill-5" fill="#EFF3FB"></path>
            <path d="M821.397016,109.083127 L837.777667,99.526162 L837.776886,80.4122329 L821.397016,89.9699857 L821.397016,109.083127" id="Fill-3" fill="#D3DCE9"></path>
            <path d="M805.432559,99.526162 L821.811649,109.082338 L821.811649,89.9691974 L805.430999,80.4122329 L805.432559,99.526162" id="Fill-1" fill="#DFE6F2"></path>
            <path d="M787.188241,28.6352494 L803.568111,19.0774966 L787.189021,9.52053205 L770.80915,19.0774966 L787.188241,28.6352494" id="Fill-5" fill="#EFF3FB"></path>
            <path d="M786.775167,47.5610026 L803.155818,38.0040381 L803.155038,18.890109 L786.775167,28.4478618 L786.775167,47.5610026" id="Fill-3" fill="#D3DCE9"></path>
            <path d="M770.810711,38.0040381 L787.189801,47.5602144 L787.189801,28.4470735 L770.80915,18.890109 L770.810711,38.0040381" id="Fill-1" fill="#DFE6F2"></path>
            <path d="M787.221854,90.1573733 L803.601724,80.5996205 L787.222634,71.0426559 L770.842764,80.5996205 L787.221854,90.1573733" id="Fill-5" fill="#EFF3FB"></path>
            <path d="M786.808781,109.083127 L803.189431,99.526162 L803.188651,80.4122329 L786.808781,89.9699857 L786.808781,109.083127" id="Fill-3" fill="#D3DCE9"></path>
            <path d="M770.844324,99.526162 L787.223414,109.082338 L787.223414,89.9691974 L770.842764,80.4122329 L770.844324,99.526162" id="Fill-1" fill="#DFE6F2"></path>
            <path d="M768.990722,59.5433008 L785.48223,49.9712679 L768.991507,40.4000244 L752.5,49.9712679 L768.990722,59.5433008" id="Fill-5" fill="#D69FF4"></path>
            <path d="M769,78.7137304 L785.492293,69.1424869 L785.491507,50 L769,59.5720329 L769,78.7137304" id="Fill-3" fill="#AB3FE6"></path>
            <path d="M752.520114,69.0473726 L769.010836,78.6178266 L769.010836,59.4761291 L752.518543,49.9048857 L752.520114,69.0473726" id="Fill-1" fill="#BF7EE3"></path>
            <path d="M768.990722,59.5433008 L785.48223,49.9712679 L768.991507,40.4000244 L752.5,49.9712679 L768.990722,59.5433008" id="Fill-5" fill="#D69FF4"></path>
            <path d="M769,78.7137304 L785.492293,69.1424869 L785.491507,50 L769,59.5720329 L769,78.7137304" id="Fill-3" fill="#AB3FE6"></path>
            <path d="M752.520114,69.0473726 L769.010836,78.6178266 L769.010836,59.4761291 L752.518543,49.9048857 L752.520114,69.0473726" id="Fill-1" fill="#BF7EE3"></path>
        </g>
    </g>
</svg>