<?xml version="1.0" encoding="UTF-8" standalone="no"?>
<svg width="858px" height="151px" viewBox="0 0 858 151" version="1.1" xmlns="http://www.w3.org/2000/svg" xmlns:xlink="http://www.w3.org/1999/xlink">
    <!-- Generator: Sketch 3.6.1 (26313) - http://www.bohemiancoding.com/sketch -->
    <title>3 export</title>
    <desc>Created with Sketch.</desc>
    <defs></defs>
    <g id="Page-1" stroke="none" stroke-width="1" fill="none" fill-rule="evenodd">
        <g id="3-export" transform="translate(0.000000, -8.000000)">
            <path d="M5.60236791,54.1726291 C5.60236791,55.2351345 5.91226065,56.0293974 6.53205541,56.5554416 C7.15185018,57.0814859 8.20652713,57.360129 9.69611791,57.3913791 L9.69611791,58.8132541 C7.66485776,58.8132541 6.21955971,58.4226331 5.36018041,57.6413791 C4.50080112,56.8601252 4.07111791,55.6570123 4.07111791,54.0320041 L4.07111791,48.7663791 C4.07111791,46.6309518 2.87321322,45.542421 0.477367912,45.5007541 L0.477367912,44.2507541 C1.7482076,44.2299207 2.6648651,43.9642984 3.22736791,43.4538791 C3.78987072,42.9434599 4.07111791,42.1726343 4.07111791,41.1413791 L4.07111791,35.6726291 C4.07111791,32.5580302 5.94609916,30.9695045 9.69611791,30.9070041 L9.69611791,32.3132541 C8.25861072,32.3653377 7.21695447,32.6674181 6.57111791,33.2195041 C5.92528135,33.7715902 5.60236791,34.5892904 5.60236791,35.6726291 L5.60236791,40.4382541 C5.60236791,41.7924276 5.37320354,42.8028341 4.91486791,43.4695041 C4.45653229,44.1361741 3.71695635,44.5788781 2.69611791,44.7976291 L2.69611791,44.9226291 C3.70653963,45.1309635 4.44351143,45.565855 4.90705541,46.2273166 C5.3705994,46.8887783 5.60236791,47.8601227 5.60236791,49.1413791 L5.60236791,54.1726291 Z" id="{" fill="#24B2E8"></path>
            <path d="M35.4606153,54.1726291 C35.4606153,55.2351345 35.7705081,56.0293974 36.3903028,56.5554416 C37.0100976,57.0814859 38.0647746,57.360129 39.5543653,57.3913791 L39.5543653,58.8132541 C37.5231052,58.8132541 36.0778071,58.4226331 35.2184278,57.6413791 C34.3590485,56.8601252 33.9293653,55.6570123 33.9293653,54.0320041 L33.9293653,48.7663791 C33.9293653,46.6309518 32.7314606,45.542421 30.3356153,45.5007541 L30.3356153,44.2507541 C31.606455,44.2299207 32.5231125,43.9642984 33.0856153,43.4538791 C33.6481181,42.9434599 33.9293653,42.1726343 33.9293653,41.1413791 L33.9293653,35.6726291 C33.9293653,32.5580302 35.8043466,30.9695045 39.5543653,30.9070041 L39.5543653,32.3132541 C38.1168581,32.3653377 37.0752019,32.6674181 36.4293653,33.2195041 C35.7835288,33.7715902 35.4606153,34.5892904 35.4606153,35.6726291 L35.4606153,40.4382541 C35.4606153,41.7924276 35.231451,42.8028341 34.7731153,43.4695041 C34.3147797,44.1361741 33.5752038,44.5788781 32.5543653,44.7976291 L32.5543653,44.9226291 C33.5647871,45.1309635 34.3017589,45.565855 34.7653028,46.2273166 C35.2288468,46.8887783 35.4606153,47.8601227 35.4606153,49.1413791 L35.4606153,54.1726291 Z" id="{" fill="#24B2E8" transform="translate(35.507490, 44.860129) scale(-1, 1) translate(-35.507490, -44.860129) "></path>
            <path d="M15.9810126,44.3298557 L19.658747,44.3298557 L19.658747,49.3474338 C19.0571815,49.5433984 18.4795506,49.6823944 17.9258369,49.764426 C17.3721231,49.8464577 16.7739846,49.8874729 16.1314033,49.8874729 C14.6183749,49.8874729 13.4517199,49.4397235 12.6314033,48.5442112 C11.8110867,47.6486989 11.4009345,46.3852024 11.4009345,44.7536838 C11.4009345,43.1449518 11.863495,41.8860126 12.7886298,40.9768284 C13.7137647,40.0676441 14.9875149,39.6130588 16.6099189,39.6130588 C17.6535439,39.6130588 18.6424663,39.8135777 19.5767158,40.2146213 L19.002497,41.5749729 C18.191295,41.2012731 17.3801052,41.014426 16.5689033,41.014426 C15.5024917,41.014426 14.6594012,41.3493836 14.0396064,42.0193088 C13.4198116,42.6892341 13.1099189,43.6052405 13.1099189,44.7673557 C13.1099189,45.988716 13.3890502,46.9172549 13.9473212,47.5530002 C14.5055923,48.1887456 15.3088069,48.5066135 16.3569892,48.5066135 C16.8856377,48.5066135 17.4507362,48.4405335 18.0523017,48.3083713 L18.0523017,45.7312229 L15.9810126,45.7312229 L15.9810126,44.3298557 Z M23.4937079,49.7507541 L21.8872626,49.7507541 L21.8872626,42.1902073 L23.4937079,42.1902073 L23.4937079,49.7507541 Z M21.7915595,40.1872776 C21.7915595,39.9001668 21.870172,39.6791403 22.0273994,39.5241916 C22.1846267,39.369243 22.4090711,39.2917698 22.7007392,39.2917698 C22.9832927,39.2917698 23.2031798,39.369243 23.3604072,39.5241916 C23.5176345,39.6791403 23.596247,39.9001668 23.596247,40.1872776 C23.596247,40.4607165 23.5176345,40.6760463 23.3604072,40.8332737 C23.2031798,40.990501 22.9832927,41.0691135 22.7007392,41.0691135 C22.4090711,41.0691135 22.1846267,40.990501 22.0273994,40.8332737 C21.870172,40.6760463 21.7915595,40.4607165 21.7915595,40.1872776 L21.7915595,40.1872776 Z M28.6069892,48.5886448 C28.9989182,48.5886448 29.3908414,48.527122 29.7827704,48.4040745 L29.7827704,49.6140354 C29.6050352,49.6915097 29.3760336,49.7564505 29.0957587,49.8088596 C28.8154839,49.8612687 28.5249595,49.8874729 28.2241767,49.8874729 C26.7020337,49.8874729 25.9409736,49.0853976 25.9409736,47.4812229 L25.9409736,43.4070041 L24.908747,43.4070041 L24.908747,42.6960666 L26.0161689,42.108176 L26.5630439,40.5085666 L27.5542548,40.5085666 L27.5542548,42.1902073 L29.7075751,42.1902073 L29.7075751,43.4070041 L27.5542548,43.4070041 L27.5542548,47.4538791 C27.5542548,47.8412509 27.6510963,48.1272181 27.8447822,48.3117893 C28.038468,48.4963605 28.2925345,48.5886448 28.6069892,48.5886448 L28.6069892,48.5886448 Z" id="Git" fill="#24B2E8"></path>
            <path d="M70.5410156,24 L68.7636719,24 L67.0683594,18.0390625 C66.9954423,17.7792956 66.9042974,17.4044621 66.7949219,16.9145508 C66.6855463,16.4246395 66.6194663,16.0839853 66.5966797,15.8925781 C66.5511065,16.1842463 66.4770513,16.5624977 66.3745117,17.0273438 C66.2719721,17.4921898 66.1865238,17.8385405 66.1181641,18.0664062 L64.4638672,24 L62.6865234,24 L61.3945312,18.9960938 L60.0820312,14.0058594 L61.75,14.0058594 L63.1787109,19.8300781 C63.4020193,20.7643276 63.561523,21.5891891 63.6572266,22.3046875 C63.707357,21.9173158 63.7825516,21.4843774 63.8828125,21.0058594 C63.9830734,20.5273414 64.0742183,20.1399754 64.15625,19.84375 L65.7832031,14.0058594 L67.4033203,14.0058594 L69.0712891,19.8710938 C69.2307951,20.4134142 69.3994132,21.224604 69.5771484,22.3046875 C69.6455082,21.6529915 69.809569,20.8235727 70.0693359,19.8164062 L71.4912109,14.0058594 L73.1455078,14.0058594 L70.5410156,24 Z M81.0957031,20.2060547 C81.0957031,21.4410869 80.7789745,22.4049445 80.1455078,23.0976562 C79.5120411,23.790368 78.630214,24.1367188 77.5,24.1367188 C76.7936163,24.1367188 76.1692735,23.9772151 75.6269531,23.6582031 C75.0846327,23.3391911 74.6676447,22.8811879 74.3759766,22.2841797 C74.0843084,21.6871715 73.9384766,20.9944701 73.9384766,20.2060547 C73.9384766,18.9801371 74.2529265,18.0231154 74.8818359,17.3349609 C75.5107453,16.6468065 76.3971297,16.3027344 77.5410156,16.3027344 C78.6347711,16.3027344 79.5006479,16.6547816 80.1386719,17.3588867 C80.7766959,18.0629918 81.0957031,19.0120383 81.0957031,20.2060547 L81.0957031,20.2060547 Z M75.5927734,20.2060547 C75.5927734,21.9515061 76.2376238,22.8242188 77.5273438,22.8242188 C78.8033918,22.8242188 79.4414062,21.9515061 79.4414062,20.2060547 C79.4414062,18.4788325 78.7988346,17.6152344 77.5136719,17.6152344 C76.8391893,17.6152344 76.3504247,17.8385394 76.0473633,18.2851562 C75.7443019,18.7317731 75.5927734,19.3720661 75.5927734,20.2060547 L75.5927734,20.2060547 Z M86.7763672,16.3027344 C87.0999365,16.3027344 87.3665354,16.3255206 87.5761719,16.3710938 L87.4189453,17.8681641 C87.1910796,17.8134763 86.9541028,17.7861328 86.7080078,17.7861328 C86.0654265,17.7861328 85.5447611,17.9957661 85.1459961,18.4150391 C84.7472311,18.834312 84.5478516,19.3789029 84.5478516,20.0488281 L84.5478516,24 L82.9414062,24 L82.9414062,16.4394531 L84.1992188,16.4394531 L84.4111328,17.7724609 L84.4931641,17.7724609 C84.7438164,17.3212868 85.0707988,16.963543 85.4741211,16.6992188 C85.8774434,16.4348945 86.3115211,16.3027344 86.7763672,16.3027344 L86.7763672,16.3027344 Z M90.5292969,20.0078125 L91.4384766,18.8730469 L93.7216797,16.4394531 L95.5742188,16.4394531 L92.5322266,19.6865234 L95.765625,24 L93.8789062,24 L91.4521484,20.6845703 L90.5703125,21.4091797 L90.5703125,24 L88.9775391,24 L88.9775391,13.3632812 L90.5703125,13.3632812 L90.5703125,18.5517578 L90.4882812,20.0078125 L90.5292969,20.0078125 Z M100.776367,17.65625 L98.9306641,17.65625 L98.9306641,24 L97.3173828,24 L97.3173828,17.65625 L96.0732422,17.65625 L96.0732422,16.9042969 L97.3173828,16.4121094 L97.3173828,15.9199219 C97.3173828,15.0266882 97.5270161,14.3647482 97.9462891,13.934082 C98.365562,13.5034158 99.0058551,13.2880859 99.8671875,13.2880859 C100.432294,13.2880859 100.988279,13.3815095 101.535156,13.5683594 L101.111328,14.7851562 C100.714842,14.6575514 100.33659,14.59375 99.9765625,14.59375 C99.6119773,14.59375 99.3465178,14.7065418 99.1801758,14.9321289 C99.0138338,15.157716 98.9306641,15.4960915 98.9306641,15.9472656 L98.9306641,16.4394531 L100.776367,16.4394531 L100.776367,17.65625 Z M103.667969,24 L102.061523,24 L102.061523,13.3632812 L103.667969,13.3632812 L103.667969,24 Z M112.677734,20.2060547 C112.677734,21.4410869 112.361006,22.4049445 111.727539,23.0976562 C111.094072,23.790368 110.212245,24.1367188 109.082031,24.1367188 C108.375648,24.1367188 107.751305,23.9772151 107.208984,23.6582031 C106.666664,23.3391911 106.249676,22.8811879 105.958008,22.2841797 C105.66634,21.6871715 105.520508,20.9944701 105.520508,20.2060547 C105.520508,18.9801371 105.834958,18.0231154 106.463867,17.3349609 C107.092777,16.6468065 107.979161,16.3027344 109.123047,16.3027344 C110.216802,16.3027344 111.082679,16.6547816 111.720703,17.3588867 C112.358727,18.0629918 112.677734,19.0120383 112.677734,20.2060547 L112.677734,20.2060547 Z M107.174805,20.2060547 C107.174805,21.9515061 107.819655,22.8242188 109.109375,22.8242188 C110.385423,22.8242188 111.023438,21.9515061 111.023438,20.2060547 C111.023438,18.4788325 110.380866,17.6152344 109.095703,17.6152344 C108.421221,17.6152344 107.932456,17.8385394 107.629395,18.2851562 C107.326333,18.7317731 107.174805,19.3720661 107.174805,20.2060547 L107.174805,20.2060547 Z M120.723633,24 L119.746094,20.4726562 C119.627604,20.0989565 119.413413,19.2308011 119.103516,17.8681641 L119.041992,17.8681641 C118.777668,19.098639 118.568035,19.9713516 118.413086,20.4863281 L117.408203,24 L115.630859,24 L113.511719,16.4394531 L115.152344,16.4394531 L116.116211,20.1650391 C116.334962,21.0856166 116.489908,21.8740202 116.581055,22.5302734 L116.62207,22.5302734 C116.667643,22.1975895 116.737141,21.8159201 116.830566,21.3852539 C116.923991,20.9545877 117.004882,20.6321625 117.073242,20.4179688 L118.22168,16.4394531 L119.985352,16.4394531 L121.099609,20.4179688 C121.167969,20.6412772 121.253417,20.9830706 121.355957,21.4433594 C121.458497,21.9036481 121.51888,22.261392 121.537109,22.5166016 L121.591797,22.5166016 C121.660157,21.9560519 121.81966,21.1722056 122.070312,20.1650391 L123.047852,16.4394531 L124.661133,16.4394531 L122.52832,24 L120.723633,24 Z M137.129883,24 L135.25,24 L132.748047,19.9121094 L130.225586,24 L128.475586,24 L131.791016,18.8183594 L128.6875,14.0058594 L130.505859,14.0058594 L132.816406,17.7861328 L135.126953,14.0058594 L136.890625,14.0058594 L133.766602,18.8457031 L137.129883,24 Z" id="Workflow-X" fill="#626463"></path>
            <path d="M250.98119,97 L456.029026,97 L456.029026,46.0712254" id="Line-Copy-6" stroke="#AB3FE6" stroke-width="2" stroke-linecap="square" transform="translate(353.505108, 71.535613) scale(-1, 1) translate(-353.505108, -71.535613) "></path>
            <path d="M456.32723,97 L667.43513,97" id="Line-Copy-6" stroke="#D69FF4" stroke-width="2" stroke-linecap="square" transform="translate(561.698619, 97.000000) scale(-1, 1) translate(-561.698619, -97.000000) "></path>
            <circle id="Oval-26" stroke="#AB3FE6" stroke-width="2" fill="#FFFFFF" cx="251.5" cy="45.5" r="12.5"></circle>
            <circle id="Oval-26-Copy-7" stroke="#AB3FE6" stroke-width="2" fill="#FFFFFF" cx="251" cy="97" r="3"></circle>
            <circle id="Oval-26-Copy-9" stroke="#AB3FE6" stroke-width="2" fill="#FFFFFF" cx="349" cy="97" r="3"></circle>
            <circle id="Oval-26-Copy-10" stroke="#D69FF4" stroke-width="2" fill="#FFFFFF" cx="564" cy="97" r="3"></circle>
            <path d="M659,87 L669,96.9989832 L659,106.997966" id="Path-10-Copy-6" stroke="#D69FF4" stroke-width="2" stroke-linecap="round"></path>
            <circle id="Oval-26-Copy-8" stroke="#AB3FE6" stroke-width="2" fill="#FFFFFF" cx="456.5" cy="96.5" r="12.5"></circle>
            <path d="M451.652344,90.7910156 C451.574869,90.7910156 451.489096,90.7965494 451.39502,90.8076172 C451.300944,90.818685 451.209636,90.8352863 451.121094,90.8574219 C451.032552,90.8795574 450.946778,90.9016926 450.86377,90.9238281 C450.780761,90.9459637 450.706055,90.9708657 450.639648,90.9985352 C450.573242,91.0262046 450.51237,91.0483398 450.457031,91.0649414 C450.401692,91.0815431 450.362956,91.0953775 450.34082,91.1064453 L450.291016,91.1396484 L454.640625,96.6845703 L450.390625,102.461914 C450.401693,102.495117 450.426595,102.531087 450.465332,102.569824 C450.504069,102.608561 450.625813,102.658366 450.830566,102.719238 C451.03532,102.780111 451.287108,102.810547 451.585938,102.810547 C451.774089,102.810547 451.951171,102.799479 452.117188,102.777344 C452.283204,102.755208 452.413248,102.727539 452.507324,102.694336 C452.6014,102.661133 452.68164,102.62793 452.748047,102.594727 C452.814453,102.561523 452.858724,102.533854 452.880859,102.511719 L452.930664,102.461914 L456.267578,98.328125 L459.670898,102.461914 C460.047202,102.694337 460.583981,102.810547 461.28125,102.810547 C461.591147,102.810547 461.823567,102.782878 461.978516,102.727539 C462.133464,102.6722 462.210938,102.616862 462.210938,102.561523 L462.210938,102.461914 L457.927734,96.6347656 L462.310547,91.1396484 C461.889972,90.9072254 461.474937,90.7910156 461.06543,90.7910156 C460.987955,90.7910156 460.902181,90.7965494 460.808105,90.8076172 C460.714029,90.818685 460.625489,90.8352863 460.54248,90.8574219 C460.459472,90.8795574 460.379232,90.9016926 460.301758,90.9238281 C460.224283,90.9459637 460.155111,90.9708657 460.094238,90.9985352 C460.033366,91.0262046 459.978028,91.0483398 459.928223,91.0649414 C459.878418,91.0815431 459.842448,91.0953775 459.820312,91.1064453 L459.770508,91.1396484 L456.367188,94.9580078 L452.831055,91.1396484 C452.454751,90.9072254 452.061851,90.7910156 451.652344,90.7910156 L451.652344,90.7910156 Z" id="" fill="#AB3FE6"></path>
            <path d="M215.380005,45 L65,45" id="Line-Copy-6" stroke="#24B2E8" stroke-width="2" stroke-linecap="square"></path>
            <circle id="Oval-26" stroke="#24B2E8" stroke-width="2" fill="#FFFFFF" cx="65" cy="45" r="5"></circle>
            <circle id="Oval-26-Copy-3" stroke="#24B2E8" stroke-width="2" fill="#FFFFFF" cx="115" cy="45" r="3"></circle>
            <circle id="Oval-26-Copy-5" stroke="#24B2E8" stroke-width="2" fill="#FFFFFF" cx="163" cy="45" r="3"></circle>
            <path d="M207,35 L217,44.9989832 L207,54.9979665" id="Path-10-Copy-6" stroke="#24B2E8" stroke-width="2" stroke-linecap="round"></path>
            <path d="M732.541016,129 L730.763672,129 L729.068359,123.039062 C728.995442,122.779296 728.904297,122.404462 728.794922,121.914551 C728.685546,121.424639 728.619466,121.083985 728.59668,120.892578 C728.551107,121.184246 728.477051,121.562498 728.374512,122.027344 C728.271972,122.49219 728.186524,122.838541 728.118164,123.066406 L726.463867,129 L724.686523,129 L723.394531,123.996094 L722.082031,119.005859 L723.75,119.005859 L725.178711,124.830078 C725.402019,125.764328 725.561523,126.589189 725.657227,127.304688 C725.707357,126.917316 725.782552,126.484377 725.882812,126.005859 C725.983073,125.527341 726.074218,125.139975 726.15625,124.84375 L727.783203,119.005859 L729.40332,119.005859 L731.071289,124.871094 C731.230795,125.413414 731.399413,126.224604 731.577148,127.304688 C731.645508,126.652992 731.809569,125.823573 732.069336,124.816406 L733.491211,119.005859 L735.145508,119.005859 L732.541016,129 Z M743.095703,125.206055 C743.095703,126.441087 742.778975,127.404944 742.145508,128.097656 C741.512041,128.790368 740.630214,129.136719 739.5,129.136719 C738.793616,129.136719 738.169274,128.977215 737.626953,128.658203 C737.084633,128.339191 736.667645,127.881188 736.375977,127.28418 C736.084308,126.687171 735.938477,125.99447 735.938477,125.206055 C735.938477,123.980137 736.252927,123.023115 736.881836,122.334961 C737.510745,121.646806 738.39713,121.302734 739.541016,121.302734 C740.634771,121.302734 741.500648,121.654782 742.138672,122.358887 C742.776696,123.062992 743.095703,124.012038 743.095703,125.206055 L743.095703,125.206055 Z M737.592773,125.206055 C737.592773,126.951506 738.237624,127.824219 739.527344,127.824219 C740.803392,127.824219 741.441406,126.951506 741.441406,125.206055 C741.441406,123.478833 740.798835,122.615234 739.513672,122.615234 C738.839189,122.615234 738.350425,122.838539 738.047363,123.285156 C737.744302,123.731773 737.592773,124.372066 737.592773,125.206055 L737.592773,125.206055 Z M748.776367,121.302734 C749.099937,121.302734 749.366535,121.325521 749.576172,121.371094 L749.418945,122.868164 C749.19108,122.813476 748.954103,122.786133 748.708008,122.786133 C748.065426,122.786133 747.544761,122.995766 747.145996,123.415039 C746.747231,123.834312 746.547852,124.378903 746.547852,125.048828 L746.547852,129 L744.941406,129 L744.941406,121.439453 L746.199219,121.439453 L746.411133,122.772461 L746.493164,122.772461 C746.743816,122.321287 747.070799,121.963543 747.474121,121.699219 C747.877443,121.434895 748.311521,121.302734 748.776367,121.302734 L748.776367,121.302734 Z M752.529297,125.007812 L753.438477,123.873047 L755.72168,121.439453 L757.574219,121.439453 L754.532227,124.686523 L757.765625,129 L755.878906,129 L753.452148,125.68457 L752.570312,126.40918 L752.570312,129 L750.977539,129 L750.977539,118.363281 L752.570312,118.363281 L752.570312,123.551758 L752.488281,125.007812 L752.529297,125.007812 Z M762.776367,122.65625 L760.930664,122.65625 L760.930664,129 L759.317383,129 L759.317383,122.65625 L758.073242,122.65625 L758.073242,121.904297 L759.317383,121.412109 L759.317383,120.919922 C759.317383,120.026688 759.527016,119.364748 759.946289,118.934082 C760.365562,118.503416 761.005855,118.288086 761.867188,118.288086 C762.432294,118.288086 762.988279,118.381509 763.535156,118.568359 L763.111328,119.785156 C762.714842,119.657551 762.33659,119.59375 761.976562,119.59375 C761.611977,119.59375 761.346518,119.706542 761.180176,119.932129 C761.013834,120.157716 760.930664,120.496091 760.930664,120.947266 L760.930664,121.439453 L762.776367,121.439453 L762.776367,122.65625 Z M765.667969,129 L764.061523,129 L764.061523,118.363281 L765.667969,118.363281 L765.667969,129 Z M774.677734,125.206055 C774.677734,126.441087 774.361006,127.404944 773.727539,128.097656 C773.094072,128.790368 772.212245,129.136719 771.082031,129.136719 C770.375648,129.136719 769.751305,128.977215 769.208984,128.658203 C768.666664,128.339191 768.249676,127.881188 767.958008,127.28418 C767.66634,126.687171 767.520508,125.99447 767.520508,125.206055 C767.520508,123.980137 767.834958,123.023115 768.463867,122.334961 C769.092777,121.646806 769.979161,121.302734 771.123047,121.302734 C772.216802,121.302734 773.082679,121.654782 773.720703,122.358887 C774.358727,123.062992 774.677734,124.012038 774.677734,125.206055 L774.677734,125.206055 Z M769.174805,125.206055 C769.174805,126.951506 769.819655,127.824219 771.109375,127.824219 C772.385423,127.824219 773.023438,126.951506 773.023438,125.206055 C773.023438,123.478833 772.380866,122.615234 771.095703,122.615234 C770.421221,122.615234 769.932456,122.838539 769.629395,123.285156 C769.326333,123.731773 769.174805,124.372066 769.174805,125.206055 L769.174805,125.206055 Z M782.723633,129 L781.746094,125.472656 C781.627604,125.098956 781.413413,124.230801 781.103516,122.868164 L781.041992,122.868164 C780.777668,124.098639 780.568035,124.971352 780.413086,125.486328 L779.408203,129 L777.630859,129 L775.511719,121.439453 L777.152344,121.439453 L778.116211,125.165039 C778.334962,126.085617 778.489908,126.87402 778.581055,127.530273 L778.62207,127.530273 C778.667643,127.197589 778.737141,126.81592 778.830566,126.385254 C778.923991,125.954588 779.004882,125.632163 779.073242,125.417969 L780.22168,121.439453 L781.985352,121.439453 L783.099609,125.417969 C783.167969,125.641277 783.253417,125.983071 783.355957,126.443359 C783.458497,126.903648 783.51888,127.261392 783.537109,127.516602 L783.591797,127.516602 C783.660157,126.956052 783.81966,126.172206 784.070312,125.165039 L785.047852,121.439453 L786.661133,121.439453 L784.52832,129 L782.723633,129 Z M798.049805,129 L790.899414,129 L790.899414,127.865234 L795.9375,120.407227 L791.036133,120.407227 L791.036133,119.005859 L797.913086,119.005859 L797.913086,120.154297 L792.854492,127.598633 L798.049805,127.598633 L798.049805,129 Z" id="Workflow-Z" fill="#626463"></path>
            <path d="M854.380005,148 L704,148 L704,102.055136" id="Line-Copy-6" stroke="#FFB980" stroke-width="2" stroke-linecap="square"></path>
            <circle id="Oval-26" stroke="#FFB980" stroke-width="2" fill="#FFFFFF" cx="704" cy="148" r="3"></circle>
            <circle id="Oval-26-Copy-6" stroke="#FFB980" stroke-width="2" fill="#FFFFFF" cx="704.5" cy="96.5" r="12.5"></circle>
            <circle id="Oval-26-Copy-3" stroke="#FFB980" stroke-width="2" fill="#FFFFFF" cx="754" cy="148" r="3"></circle>
            <circle id="Oval-26-Copy-5" stroke="#FFB980" stroke-width="2" fill="#FFFFFF" cx="802" cy="148" r="3"></circle>
            <path d="M846,138 L856,147.998983 L846,157.997966" id="Path-10-Copy-6" stroke="#FFB980" stroke-width="2" stroke-linecap="round"></path>
            <path d="M282.541016,76 L280.763672,76 L279.068359,70.0390625 C278.995442,69.7792956 278.904297,69.4044621 278.794922,68.9145508 C278.685546,68.4246395 278.619466,68.0839853 278.59668,67.8925781 C278.551107,68.1842463 278.477051,68.5624977 278.374512,69.0273438 C278.271972,69.4921898 278.186524,69.8385405 278.118164,70.0664062 L276.463867,76 L274.686523,76 L273.394531,70.9960938 L272.082031,66.0058594 L273.75,66.0058594 L275.178711,71.8300781 C275.402019,72.7643276 275.561523,73.5891891 275.657227,74.3046875 C275.707357,73.9173158 275.782552,73.4843774 275.882812,73.0058594 C275.983073,72.5273414 276.074218,72.1399754 276.15625,71.84375 L277.783203,66.0058594 L279.40332,66.0058594 L281.071289,71.8710938 C281.230795,72.4134142 281.399413,73.224604 281.577148,74.3046875 C281.645508,73.6529915 281.809569,72.8235727 282.069336,71.8164062 L283.491211,66.0058594 L285.145508,66.0058594 L282.541016,76 Z M293.095703,72.2060547 C293.095703,73.4410869 292.778975,74.4049445 292.145508,75.0976562 C291.512041,75.790368 290.630214,76.1367188 289.5,76.1367188 C288.793616,76.1367188 288.169274,75.9772151 287.626953,75.6582031 C287.084633,75.3391911 286.667645,74.8811879 286.375977,74.2841797 C286.084308,73.6871715 285.938477,72.9944701 285.938477,72.2060547 C285.938477,70.9801371 286.252927,70.0231154 286.881836,69.3349609 C287.510745,68.6468065 288.39713,68.3027344 289.541016,68.3027344 C290.634771,68.3027344 291.500648,68.6547816 292.138672,69.3588867 C292.776696,70.0629918 293.095703,71.0120383 293.095703,72.2060547 L293.095703,72.2060547 Z M287.592773,72.2060547 C287.592773,73.9515061 288.237624,74.8242188 289.527344,74.8242188 C290.803392,74.8242188 291.441406,73.9515061 291.441406,72.2060547 C291.441406,70.4788325 290.798835,69.6152344 289.513672,69.6152344 C288.839189,69.6152344 288.350425,69.8385394 288.047363,70.2851562 C287.744302,70.7317731 287.592773,71.3720661 287.592773,72.2060547 L287.592773,72.2060547 Z M298.776367,68.3027344 C299.099937,68.3027344 299.366535,68.3255206 299.576172,68.3710938 L299.418945,69.8681641 C299.19108,69.8134763 298.954103,69.7861328 298.708008,69.7861328 C298.065426,69.7861328 297.544761,69.9957661 297.145996,70.4150391 C296.747231,70.834312 296.547852,71.3789029 296.547852,72.0488281 L296.547852,76 L294.941406,76 L294.941406,68.4394531 L296.199219,68.4394531 L296.411133,69.7724609 L296.493164,69.7724609 C296.743816,69.3212868 297.070799,68.963543 297.474121,68.6992188 C297.877443,68.4348945 298.311521,68.3027344 298.776367,68.3027344 L298.776367,68.3027344 Z M302.529297,72.0078125 L303.438477,70.8730469 L305.72168,68.4394531 L307.574219,68.4394531 L304.532227,71.6865234 L307.765625,76 L305.878906,76 L303.452148,72.6845703 L302.570312,73.4091797 L302.570312,76 L300.977539,76 L300.977539,65.3632812 L302.570312,65.3632812 L302.570312,70.5517578 L302.488281,72.0078125 L302.529297,72.0078125 Z M312.776367,69.65625 L310.930664,69.65625 L310.930664,76 L309.317383,76 L309.317383,69.65625 L308.073242,69.65625 L308.073242,68.9042969 L309.317383,68.4121094 L309.317383,67.9199219 C309.317383,67.0266882 309.527016,66.3647482 309.946289,65.934082 C310.365562,65.5034158 311.005855,65.2880859 311.867188,65.2880859 C312.432294,65.2880859 312.988279,65.3815095 313.535156,65.5683594 L313.111328,66.7851562 C312.714842,66.6575514 312.33659,66.59375 311.976562,66.59375 C311.611977,66.59375 311.346518,66.7065418 311.180176,66.9321289 C311.013834,67.157716 310.930664,67.4960915 310.930664,67.9472656 L310.930664,68.4394531 L312.776367,68.4394531 L312.776367,69.65625 Z M315.667969,76 L314.061523,76 L314.061523,65.3632812 L315.667969,65.3632812 L315.667969,76 Z M324.677734,72.2060547 C324.677734,73.4410869 324.361006,74.4049445 323.727539,75.0976562 C323.094072,75.790368 322.212245,76.1367188 321.082031,76.1367188 C320.375648,76.1367188 319.751305,75.9772151 319.208984,75.6582031 C318.666664,75.3391911 318.249676,74.8811879 317.958008,74.2841797 C317.66634,73.6871715 317.520508,72.9944701 317.520508,72.2060547 C317.520508,70.9801371 317.834958,70.0231154 318.463867,69.3349609 C319.092777,68.6468065 319.979161,68.3027344 321.123047,68.3027344 C322.216802,68.3027344 323.082679,68.6547816 323.720703,69.3588867 C324.358727,70.0629918 324.677734,71.0120383 324.677734,72.2060547 L324.677734,72.2060547 Z M319.174805,72.2060547 C319.174805,73.9515061 319.819655,74.8242188 321.109375,74.8242188 C322.385423,74.8242188 323.023438,73.9515061 323.023438,72.2060547 C323.023438,70.4788325 322.380866,69.6152344 321.095703,69.6152344 C320.421221,69.6152344 319.932456,69.8385394 319.629395,70.2851562 C319.326333,70.7317731 319.174805,71.3720661 319.174805,72.2060547 L319.174805,72.2060547 Z M332.723633,76 L331.746094,72.4726562 C331.627604,72.0989565 331.413413,71.2308011 331.103516,69.8681641 L331.041992,69.8681641 C330.777668,71.098639 330.568035,71.9713516 330.413086,72.4863281 L329.408203,76 L327.630859,76 L325.511719,68.4394531 L327.152344,68.4394531 L328.116211,72.1650391 C328.334962,73.0856166 328.489908,73.8740202 328.581055,74.5302734 L328.62207,74.5302734 C328.667643,74.1975895 328.737141,73.8159201 328.830566,73.3852539 C328.923991,72.9545877 329.004882,72.6321625 329.073242,72.4179688 L330.22168,68.4394531 L331.985352,68.4394531 L333.099609,72.4179688 C333.167969,72.6412772 333.253417,72.9830706 333.355957,73.4433594 C333.458497,73.9036481 333.51888,74.261392 333.537109,74.5166016 L333.591797,74.5166016 C333.660157,73.9560519 333.81966,73.1722056 334.070312,72.1650391 L335.047852,68.4394531 L336.661133,68.4394531 L334.52832,76 L332.723633,76 Z M344.59082,70.5654297 L346.956055,66.0058594 L348.733398,66.0058594 L345.404297,72.1240234 L345.404297,76 L343.763672,76 L343.763672,72.1787109 L340.448242,66.0058594 L342.225586,66.0058594 L344.59082,70.5654297 Z" id="Workflow-Y" fill="#626463"></path>
            <path d="M465.630225,23.3229814 C465.630225,23.3229814 436.704119,61.7617864 384.318622,61.7617864 C359.156219,61.7617864 329.004058,48.5703459 320.854558,39.7232813" id="Path-633" stroke="#AB3FE6" stroke-width="2" transform="translate(393.242392, 42.542384) scale(1, -1) rotate(-19.000000) translate(-393.242392, -42.542384) "></path>
            <path d="M322.287051,10.8280644 L332.39707,20.9370553 L322.287051,31.0460462" id="Path-10-Copy-6" stroke="#AB3FE6" stroke-width="2" stroke-linecap="round" transform="translate(327.342061, 20.937055) scale(1, -1) rotate(-162.000000) translate(-327.342061, -20.937055) "></path>
            <path d="M256.326172,38.5214844 L248.873047,48.2773438 L245.234375,43.8125 L243.265625,45.2890625 L248.908203,52.0566406 L258.3125,39.9804688 L256.326172,38.5214844 Z" id="" fill="#AB3FE6"></path>
        </g>
    </g>
</svg>