<?xml version="1.0" encoding="UTF-8" standalone="no"?>
<svg width="857px" height="178px" viewBox="0 0 857 178" version="1.1" xmlns="http://www.w3.org/2000/svg" xmlns:xlink="http://www.w3.org/1999/xlink">
    <!-- Generator: Sketch 3.6.1 (26313) - http://www.bohemiancoding.com/sketch -->
    <title>2 export</title>
    <desc>Created with Sketch.</desc>
    <defs></defs>
    <g id="Page-1" stroke="none" stroke-width="1" fill="none" fill-rule="evenodd">
        <g id="2-export">
            <path d="M5.60236791,61.421875 C5.60236791,62.4843803 5.91226065,63.2786432 6.53205541,63.8046875 C7.15185018,64.3307318 8.20652713,64.6093748 9.69611791,64.640625 L9.69611791,66.0625 C7.66485776,66.0625 6.21955971,65.6718789 5.36018041,64.890625 C4.50080112,64.1093711 4.07111791,62.9062581 4.07111791,61.28125 L4.07111791,56.015625 C4.07111791,53.8801977 2.87321322,52.7916669 0.477367912,52.75 L0.477367912,51.5 C1.7482076,51.4791666 2.6648651,51.2135442 3.22736791,50.703125 C3.78987072,50.1927058 4.07111791,49.4218802 4.07111791,48.390625 L4.07111791,42.921875 C4.07111791,39.8072761 5.94609916,38.2187503 9.69611791,38.15625 L9.69611791,39.5625 C8.25861072,39.6145836 7.21695447,39.9166639 6.57111791,40.46875 C5.92528135,41.0208361 5.60236791,41.8385362 5.60236791,42.921875 L5.60236791,47.6875 C5.60236791,49.0416734 5.37320354,50.05208 4.91486791,50.71875 C4.45653229,51.38542 3.71695635,51.8281239 2.69611791,52.046875 L2.69611791,52.171875 C3.70653963,52.3802094 4.44351143,52.8151009 4.90705541,53.4765625 C5.3705994,54.1380241 5.60236791,55.1093686 5.60236791,56.390625 L5.60236791,61.421875 Z" id="{" fill="#AB3FE6"></path>
            <path d="M35.4606153,61.421875 C35.4606153,62.4843803 35.7705081,63.2786432 36.3903028,63.8046875 C37.0100976,64.3307318 38.0647746,64.6093748 39.5543653,64.640625 L39.5543653,66.0625 C37.5231052,66.0625 36.0778071,65.6718789 35.2184278,64.890625 C34.3590485,64.1093711 33.9293653,62.9062581 33.9293653,61.28125 L33.9293653,56.015625 C33.9293653,53.8801977 32.7314606,52.7916669 30.3356153,52.75 L30.3356153,51.5 C31.606455,51.4791666 32.5231125,51.2135442 33.0856153,50.703125 C33.6481181,50.1927058 33.9293653,49.4218802 33.9293653,48.390625 L33.9293653,42.921875 C33.9293653,39.8072761 35.8043466,38.2187503 39.5543653,38.15625 L39.5543653,39.5625 C38.1168581,39.6145836 37.0752019,39.9166639 36.4293653,40.46875 C35.7835288,41.0208361 35.4606153,41.8385362 35.4606153,42.921875 L35.4606153,47.6875 C35.4606153,49.0416734 35.231451,50.05208 34.7731153,50.71875 C34.3147797,51.38542 33.5752038,51.8281239 32.5543653,52.046875 L32.5543653,52.171875 C33.5647871,52.3802094 34.3017589,52.8151009 34.7653028,53.4765625 C35.2288468,54.1380241 35.4606153,55.1093686 35.4606153,56.390625 L35.4606153,61.421875 Z" id="{" fill="#AB3FE6" transform="translate(35.507490, 52.109375) scale(-1, 1) translate(-35.507490, -52.109375) "></path>
            <path d="M15.9810126,51.5791016 L19.658747,51.5791016 L19.658747,56.5966797 C19.0571815,56.7926442 18.4795506,56.9316402 17.9258369,57.0136719 C17.3721231,57.0957035 16.7739846,57.1367188 16.1314033,57.1367188 C14.6183749,57.1367188 13.4517199,56.6889693 12.6314033,55.793457 C11.8110867,54.8979447 11.4009345,53.6344483 11.4009345,52.0029297 C11.4009345,50.3941977 11.863495,49.1352585 12.7886298,48.2260742 C13.7137647,47.31689 14.9875149,46.8623047 16.6099189,46.8623047 C17.6535439,46.8623047 18.6424663,47.0628235 19.5767158,47.4638672 L19.002497,48.8242188 C18.191295,48.450519 17.3801052,48.2636719 16.5689033,48.2636719 C15.5024917,48.2636719 14.6594012,48.5986295 14.0396064,49.2685547 C13.4198116,49.9384799 13.1099189,50.8544864 13.1099189,52.0166016 C13.1099189,53.2379618 13.3890502,54.1665007 13.9473212,54.8022461 C14.5055923,55.4379915 15.3088069,55.7558594 16.3569892,55.7558594 C16.8856377,55.7558594 17.4507362,55.6897793 18.0523017,55.5576172 L18.0523017,52.9804688 L15.9810126,52.9804688 L15.9810126,51.5791016 Z M23.4937079,57 L21.8872626,57 L21.8872626,49.4394531 L23.4937079,49.4394531 L23.4937079,57 Z M21.7915595,47.4365234 C21.7915595,47.1494126 21.870172,46.9283862 22.0273994,46.7734375 C22.1846267,46.6184888 22.4090711,46.5410156 22.7007392,46.5410156 C22.9832927,46.5410156 23.2031798,46.6184888 23.3604072,46.7734375 C23.5176345,46.9283862 23.596247,47.1494126 23.596247,47.4365234 C23.596247,47.7099623 23.5176345,47.9252922 23.3604072,48.0825195 C23.2031798,48.2397469 22.9832927,48.3183594 22.7007392,48.3183594 C22.4090711,48.3183594 22.1846267,48.2397469 22.0273994,48.0825195 C21.870172,47.9252922 21.7915595,47.7099623 21.7915595,47.4365234 L21.7915595,47.4365234 Z M28.6069892,55.8378906 C28.9989182,55.8378906 29.3908414,55.7763678 29.7827704,55.6533203 L29.7827704,56.8632812 C29.6050352,56.9407556 29.3760336,57.0056964 29.0957587,57.0581055 C28.8154839,57.1105146 28.5249595,57.1367188 28.2241767,57.1367188 C26.7020337,57.1367188 25.9409736,56.3346434 25.9409736,54.7304688 L25.9409736,50.65625 L24.908747,50.65625 L24.908747,49.9453125 L26.0161689,49.3574219 L26.5630439,47.7578125 L27.5542548,47.7578125 L27.5542548,49.4394531 L29.7075751,49.4394531 L29.7075751,50.65625 L27.5542548,50.65625 L27.5542548,54.703125 C27.5542548,55.0904967 27.6510963,55.3764639 27.8447822,55.5610352 C28.038468,55.7456064 28.2925345,55.8378906 28.6069892,55.8378906 L28.6069892,55.8378906 Z" id="Git" fill="#AB3FE6"></path>
            <path d="M716.194977,127.713841 L732.390726,118.356535 L716.195749,109 L700,118.356535 L716.194977,127.713841" id="Fill-5" fill="#B8EBFF"></path>
            <path d="M715.786547,146.242681 L731.983067,136.886146 L731.982296,118.173077 L715.786547,127.530383 L715.786547,146.242681" id="Fill-3" fill="#24B2E8"></path>
            <path d="M700.001543,136.886146 L716.19652,146.241909 L716.19652,127.529612 L700,118.173077 L700.001543,136.886146" id="Fill-1" fill="#92D9F4"></path>
            <path d="M69.1890304,52 L218.408223,52" id="Line-Copy-6" stroke="#AB3FE6" stroke-width="2" stroke-linecap="square" transform="translate(144.189030, 52.000000) scale(-1, 1) translate(-144.189030, -52.000000) "></path>
            <circle id="Oval-26" stroke="#AB3FE6" stroke-width="2" fill="#FFFFFF" cx="66" cy="52" r="5"></circle>
            <circle id="Oval-26-Copy-3" stroke="#AB3FE6" stroke-width="2" fill="#FFFFFF" cx="116" cy="52" r="3"></circle>
            <circle id="Oval-26-Copy-5" stroke="#AB3FE6" stroke-width="2" fill="#FFFFFF" cx="164" cy="52" r="3"></circle>
            <path d="M210,42 L220,51.9989832 L210,61.9979665" id="Path-10-Copy-6" stroke="#AB3FE6" stroke-width="2" stroke-linecap="round"></path>
            <path d="M62.3193359,20.0058594 L65.2861328,20.0058594 C66.6624418,20.0058594 67.6570607,20.2063782 68.2700195,20.6074219 C68.8829783,21.0084655 69.1894531,21.6419228 69.1894531,22.5078125 C69.1894531,23.0911488 69.039064,23.5764955 68.7382812,23.9638672 C68.4374985,24.3512389 68.0045601,24.5950516 67.4394531,24.6953125 L67.4394531,24.7636719 C68.1412796,24.895834 68.6573877,25.1567363 68.987793,25.5463867 C69.3181983,25.9360371 69.4833984,26.4635383 69.4833984,27.1289062 C69.4833984,28.0266972 69.1700878,28.7296524 68.543457,29.237793 C67.9168263,29.7459335 67.045253,30 65.9287109,30 L62.3193359,30 L62.3193359,20.0058594 Z M63.953125,24.1347656 L65.5253906,24.1347656 C66.2089878,24.1347656 66.7080062,24.026531 67.0224609,23.8100586 C67.3369156,23.5935862 67.4941406,23.2255885 67.4941406,22.7060547 C67.4941406,22.2366513 67.3243832,21.8971365 66.9848633,21.6875 C66.6453434,21.4778635 66.106449,21.3730469 65.3681641,21.3730469 L63.953125,21.3730469 L63.953125,24.1347656 Z M63.953125,25.4609375 L63.953125,28.6259766 L65.6894531,28.6259766 C66.3730503,28.6259766 66.8891584,28.4949557 67.237793,28.2329102 C67.5864275,27.9708646 67.7607422,27.5572945 67.7607422,26.9921875 C67.7607422,26.4726537 67.5830096,26.0875664 67.2275391,25.8369141 C66.8720685,25.5862618 66.3320349,25.4609375 65.6074219,25.4609375 L63.953125,25.4609375 Z M76.7226562,30 L76.4970703,29.0087891 L76.4150391,29.0087891 C76.1917307,29.3597023 75.8738627,29.6354157 75.4614258,29.8359375 C75.0489888,30.0364593 74.5784532,30.1367188 74.0498047,30.1367188 C73.1337845,30.1367188 72.4501976,29.9088564 71.9990234,29.453125 C71.5478493,28.9973936 71.3222656,28.3069708 71.3222656,27.3818359 L71.3222656,22.4394531 L72.9423828,22.4394531 L72.9423828,27.1015625 C72.9423828,27.6803414 73.0608712,28.1144191 73.2978516,28.4038086 C73.5348319,28.6931981 73.9062475,28.8378906 74.4121094,28.8378906 C75.0865919,28.8378906 75.5821924,28.6362325 75.8989258,28.2329102 C76.2156591,27.8295878 76.3740234,27.1539761 76.3740234,26.2060547 L76.3740234,22.4394531 L77.9873047,22.4394531 L77.9873047,30 L76.7226562,30 Z M81.8837891,30 L80.2773438,30 L80.2773438,22.4394531 L81.8837891,22.4394531 L81.8837891,30 Z M80.1816406,20.4365234 C80.1816406,20.1494126 80.2602531,19.9283862 80.4174805,19.7734375 C80.5747078,19.6184888 80.7991522,19.5410156 81.0908203,19.5410156 C81.3733738,19.5410156 81.5932609,19.6184888 81.7504883,19.7734375 C81.9077156,19.9283862 81.9863281,20.1494126 81.9863281,20.4365234 C81.9863281,20.7099623 81.9077156,20.9252922 81.7504883,21.0825195 C81.5932609,21.2397469 81.3733738,21.3183594 81.0908203,21.3183594 C80.7991522,21.3183594 80.5747078,21.2397469 80.4174805,21.0825195 C80.2602531,20.9252922 80.1816406,20.7099623 80.1816406,20.4365234 L80.1816406,20.4365234 Z M85.7871094,30 L84.1806641,30 L84.1806641,19.3632812 L85.7871094,19.3632812 L85.7871094,30 Z M90.6337891,30.1367188 C89.690425,30.1367188 88.9544297,29.7949253 88.4257812,29.1113281 C87.8971328,28.427731 87.6328125,27.4684307 87.6328125,26.2333984 C87.6328125,24.9938089 87.9005507,24.028812 88.4360352,23.3383789 C88.9715196,22.6479458 89.7132114,22.3027344 90.6611328,22.3027344 C91.6546274,22.3027344 92.4111302,22.6695927 92.9306641,23.4033203 L93.0126953,23.4033203 C92.935221,22.8609999 92.8964844,22.4326188 92.8964844,22.1181641 L92.8964844,19.3632812 L94.5097656,19.3632812 L94.5097656,30 L93.2519531,30 L92.9716797,29.0087891 L92.8964844,29.0087891 C92.3815078,29.7607459 91.6272836,30.1367188 90.6337891,30.1367188 L90.6337891,30.1367188 Z M91.0644531,28.8378906 C91.7252637,28.8378906 92.2060532,28.6521828 92.5068359,28.2807617 C92.8076187,27.9093406 92.9625651,27.3066448 92.9716797,26.4726562 L92.9716797,26.2470703 C92.9716797,25.2945916 92.8167333,24.6178405 92.5068359,24.2167969 C92.1969386,23.8157532 91.7115918,23.6152344 91.0507812,23.6152344 C90.4856743,23.6152344 90.0504573,23.844236 89.7451172,24.3022461 C89.4397771,24.7602562 89.2871094,25.4130817 89.2871094,26.2607422 C89.2871094,27.099288 89.4352199,27.7384418 89.7314453,28.1782227 C90.0276708,28.6180035 90.4720022,28.8378906 91.0644531,28.8378906 L91.0644531,28.8378906 Z" id="Build" fill="#626463"></path>
            <path d="M582.18903,52 L731.408223,52" id="Line-Copy-6" stroke="#AB3FE6" stroke-width="2" stroke-linecap="square" transform="translate(657.189030, 52.000000) scale(-1, 1) translate(-657.189030, -52.000000) "></path>
            <circle id="Oval-26" stroke="#AB3FE6" stroke-width="2" fill="#FFFFFF" cx="579" cy="52" r="5"></circle>
            <circle id="Oval-26-Copy-3" stroke="#AB3FE6" stroke-width="2" fill="#FFFFFF" cx="629" cy="52" r="3"></circle>
            <circle id="Oval-26-Copy-5" stroke="#AB3FE6" stroke-width="2" fill="#FFFFFF" cx="677" cy="52" r="3"></circle>
            <path d="M723,42 L733,51.9989832 L723,61.9979665" id="Path-10-Copy-6" stroke="#AB3FE6" stroke-width="2" stroke-linecap="round"></path>
            <path d="M581.645508,30 L579.642578,30 L574.727539,22.0361328 L574.672852,22.0361328 L574.707031,22.4804688 C574.770834,23.3281292 574.802734,24.1028611 574.802734,24.8046875 L574.802734,30 L573.319336,30 L573.319336,20.0058594 L575.301758,20.0058594 L580.203125,27.9287109 L580.244141,27.9287109 C580.235026,27.8238927 580.216797,27.4422233 580.189453,26.7836914 C580.162109,26.1251595 580.148438,25.61133 580.148438,25.2421875 L580.148438,20.0058594 L581.645508,20.0058594 L581.645508,30 Z M590.819336,26.2060547 C590.819336,27.4410869 590.502607,28.4049445 589.869141,29.0976562 C589.235674,29.790368 588.353847,30.1367188 587.223633,30.1367188 C586.517249,30.1367188 585.892906,29.9772151 585.350586,29.6582031 C584.808266,29.3391911 584.391278,28.8811879 584.099609,28.2841797 C583.807941,27.6871715 583.662109,26.9944701 583.662109,26.2060547 C583.662109,24.9801371 583.976559,24.0231154 584.605469,23.3349609 C585.234378,22.6468065 586.120763,22.3027344 587.264648,22.3027344 C588.358404,22.3027344 589.224281,22.6547816 589.862305,23.3588867 C590.500329,24.0629918 590.819336,25.0120383 590.819336,26.2060547 L590.819336,26.2060547 Z M585.316406,26.2060547 C585.316406,27.9515061 585.961257,28.8242188 587.250977,28.8242188 C588.527025,28.8242188 589.165039,27.9515061 589.165039,26.2060547 C589.165039,24.4788325 588.522467,23.6152344 587.237305,23.6152344 C586.562822,23.6152344 586.074058,23.8385394 585.770996,24.2851562 C585.467935,24.7317731 585.316406,25.3720661 585.316406,26.2060547 L585.316406,26.2060547 Z M595.481445,28.8378906 C595.873374,28.8378906 596.265298,28.7763678 596.657227,28.6533203 L596.657227,29.8632812 C596.479491,29.9407556 596.25049,30.0056964 595.970215,30.0581055 C595.68994,30.1105146 595.399416,30.1367188 595.098633,30.1367188 C593.57649,30.1367188 592.81543,29.3346434 592.81543,27.7304688 L592.81543,23.65625 L591.783203,23.65625 L591.783203,22.9453125 L592.890625,22.3574219 L593.4375,20.7578125 L594.428711,20.7578125 L594.428711,22.4394531 L596.582031,22.4394531 L596.582031,23.65625 L594.428711,23.65625 L594.428711,27.703125 C594.428711,28.0904967 594.525552,28.3764639 594.719238,28.5610352 C594.912924,28.7456064 595.166991,28.8378906 595.481445,28.8378906 L595.481445,28.8378906 Z M599.774414,30 L598.167969,30 L598.167969,22.4394531 L599.774414,22.4394531 L599.774414,30 Z M598.072266,20.4365234 C598.072266,20.1494126 598.150878,19.9283862 598.308105,19.7734375 C598.465333,19.6184888 598.689777,19.5410156 598.981445,19.5410156 C599.263999,19.5410156 599.483886,19.6184888 599.641113,19.7734375 C599.798341,19.9283862 599.876953,20.1494126 599.876953,20.4365234 C599.876953,20.7099623 599.798341,20.9252922 599.641113,21.0825195 C599.483886,21.2397469 599.263999,21.3183594 598.981445,21.3183594 C598.689777,21.3183594 598.465333,21.2397469 598.308105,21.0825195 C598.150878,20.9252922 598.072266,20.7099623 598.072266,20.4365234 L598.072266,20.4365234 Z M605.865234,23.65625 L604.019531,23.65625 L604.019531,30 L602.40625,30 L602.40625,23.65625 L601.162109,23.65625 L601.162109,22.9042969 L602.40625,22.4121094 L602.40625,21.9199219 C602.40625,21.0266882 602.615883,20.3647482 603.035156,19.934082 C603.454429,19.5034158 604.094722,19.2880859 604.956055,19.2880859 C605.521162,19.2880859 606.077146,19.3815095 606.624023,19.5683594 L606.200195,20.7851562 C605.803709,20.6575514 605.425458,20.59375 605.06543,20.59375 C604.700845,20.59375 604.435385,20.7065418 604.269043,20.9321289 C604.102701,21.157716 604.019531,21.4960915 604.019531,21.9472656 L604.019531,22.4394531 L605.865234,22.4394531 L605.865234,23.65625 Z M606.001953,22.4394531 L607.751953,22.4394531 L609.290039,26.7255859 C609.522462,27.3362661 609.677408,27.9104791 609.754883,28.4482422 L609.80957,28.4482422 C609.850586,28.1975899 609.925781,27.8933937 610.035156,27.5356445 C610.144532,27.1778953 610.723302,25.4791819 611.771484,22.4394531 L613.507812,22.4394531 L610.274414,31.0048828 C609.68652,32.5771563 608.706713,33.3632812 607.334961,33.3632812 C606.97949,33.3632812 606.63314,33.3245447 606.295898,33.2470703 L606.295898,31.9755859 C606.537436,32.0302737 606.813149,32.0576172 607.123047,32.0576172 C607.89779,32.0576172 608.442381,31.6087284 608.756836,30.7109375 L609.037109,30 L606.001953,22.4394531 Z M623.37207,27.8466797 C623.37207,28.5849646 623.103193,29.1512025 622.56543,29.5454102 C622.027667,29.9396179 621.257492,30.1367188 620.254883,30.1367188 C619.247716,30.1367188 618.438805,29.984051 617.828125,29.6787109 L617.828125,28.2910156 C618.716801,28.7011739 619.543941,28.90625 620.30957,28.90625 C621.298508,28.90625 621.792969,28.6077504 621.792969,28.0107422 C621.792969,27.819335 621.738282,27.6598314 621.628906,27.5322266 C621.519531,27.4046218 621.339519,27.2724616 621.088867,27.1357422 C620.838215,26.9990228 620.489586,26.8440764 620.042969,26.6708984 C619.172522,26.3336572 618.583498,25.996421 618.275879,25.6591797 C617.96826,25.3219384 617.814453,24.8844428 617.814453,24.3466797 C617.814453,23.699541 618.075355,23.1971047 618.597168,22.8393555 C619.11898,22.4816063 619.828772,22.3027344 620.726562,22.3027344 C621.615239,22.3027344 622.456051,22.4827456 623.249023,22.8427734 L622.729492,24.0527344 C621.913733,23.7154931 621.227867,23.546875 620.671875,23.546875 C619.824215,23.546875 619.400391,23.788409 619.400391,24.2714844 C619.400391,24.5084647 619.510904,24.7089836 619.731934,24.8730469 C619.952963,25.0371102 620.434892,25.2626939 621.177734,25.5498047 C621.802086,25.7913424 622.255532,26.0123688 622.538086,26.2128906 C622.820639,26.4134125 623.030273,26.6446927 623.166992,26.9067383 C623.303712,27.1687839 623.37207,27.4820945 623.37207,27.8466797 L623.37207,27.8466797 Z M628.157227,30.1367188 C627.013341,30.1367188 626.144046,29.8029005 625.549316,29.1352539 C624.954587,28.4676073 624.657227,27.5094463 624.657227,26.2607422 C624.657227,24.9892515 624.968259,24.0117222 625.590332,23.328125 C626.212405,22.6445278 627.111322,22.3027344 628.287109,22.3027344 C629.084639,22.3027344 629.802406,22.4508449 630.44043,22.7470703 L629.955078,24.0390625 C629.276038,23.7747383 628.715497,23.6425781 628.273438,23.6425781 C626.965488,23.6425781 626.311523,24.5107335 626.311523,26.2470703 C626.311523,27.0947308 626.474445,27.7316059 626.800293,28.1577148 C627.126141,28.5838237 627.603512,28.796875 628.232422,28.796875 C628.94792,28.796875 629.624671,28.6191424 630.262695,28.2636719 L630.262695,29.6650391 C629.975585,29.8336597 629.66911,29.9544267 629.343262,30.0273438 C629.017414,30.1002608 628.622073,30.1367188 628.157227,30.1367188 L628.157227,30.1367188 Z M638.691406,30 L637.078125,30 L637.078125,25.3515625 C637.078125,24.7682263 636.960776,24.3330092 636.726074,24.0458984 C636.491373,23.7587876 636.118818,23.6152344 635.608398,23.6152344 C634.933916,23.6152344 634.438315,23.8168925 634.121582,24.2202148 C633.804849,24.6235372 633.646484,25.2991489 633.646484,26.2470703 L633.646484,30 L632.040039,30 L632.040039,19.3632812 L633.646484,19.3632812 L633.646484,22.0634766 C633.646484,22.4964214 633.619141,22.9589819 633.564453,23.4511719 L633.666992,23.4511719 C633.885743,23.0865867 634.189939,22.8040375 634.57959,22.6035156 C634.96924,22.4029938 635.423826,22.3027344 635.943359,22.3027344 C637.7754,22.3027344 638.691406,23.2255767 638.691406,25.0712891 L638.691406,30 Z M644.228516,30.1367188 C643.052728,30.1367188 642.133304,29.793786 641.470215,29.1079102 C640.807126,28.4220343 640.475586,27.4775451 640.475586,26.2744141 C640.475586,25.0393818 640.7832,24.0686884 641.398438,23.3623047 C642.013675,22.6559209 642.859044,22.3027344 643.93457,22.3027344 C644.932622,22.3027344 645.721026,22.6057912 646.299805,23.2119141 C646.878584,23.8180369 647.167969,24.6520129 647.167969,25.7138672 L647.167969,26.5820312 L642.129883,26.5820312 C642.152669,27.3157589 642.35091,27.8797181 642.724609,28.2739258 C643.098309,28.6681335 643.624671,28.8652344 644.303711,28.8652344 C644.750328,28.8652344 645.166176,28.8230798 645.55127,28.7387695 C645.936363,28.6544592 646.349933,28.5143239 646.791992,28.3183594 L646.791992,29.6240234 C646.400063,29.8108733 646.003583,29.9430335 645.602539,30.0205078 C645.201495,30.0979822 644.743492,30.1367188 644.228516,30.1367188 L644.228516,30.1367188 Z M643.93457,23.5195312 C643.424151,23.5195312 643.015138,23.6813135 642.70752,24.0048828 C642.399901,24.3284521 642.216472,24.8001271 642.157227,25.4199219 L645.588867,25.4199219 C645.579753,24.7955698 645.429363,24.3227555 645.137695,24.0014648 C644.846027,23.6801742 644.44499,23.5195312 643.93457,23.5195312 L643.93457,23.5195312 Z M651.542969,30.1367188 C650.599605,30.1367188 649.863609,29.7949253 649.334961,29.1113281 C648.806312,28.427731 648.541992,27.4684307 648.541992,26.2333984 C648.541992,24.9938089 648.80973,24.028812 649.345215,23.3383789 C649.880699,22.6479458 650.622391,22.3027344 651.570312,22.3027344 C652.563807,22.3027344 653.32031,22.6695927 653.839844,23.4033203 L653.921875,23.4033203 C653.844401,22.8609999 653.805664,22.4326188 653.805664,22.1181641 L653.805664,19.3632812 L655.418945,19.3632812 L655.418945,30 L654.161133,30 L653.880859,29.0087891 L653.805664,29.0087891 C653.290688,29.7607459 652.536463,30.1367188 651.542969,30.1367188 L651.542969,30.1367188 Z M651.973633,28.8378906 C652.634443,28.8378906 653.115233,28.6521828 653.416016,28.2807617 C653.716798,27.9093406 653.871745,27.3066448 653.880859,26.4726562 L653.880859,26.2470703 C653.880859,25.2945916 653.725913,24.6178405 653.416016,24.2167969 C653.106118,23.8157532 652.620772,23.6152344 651.959961,23.6152344 C651.394854,23.6152344 650.959637,23.844236 650.654297,24.3022461 C650.348957,24.7602562 650.196289,25.4130817 650.196289,26.2607422 C650.196289,27.099288 650.3444,27.7384418 650.640625,28.1782227 C650.93685,28.6180035 651.381182,28.8378906 651.973633,28.8378906 L651.973633,28.8378906 Z M663.047852,30 L662.822266,29.0087891 L662.740234,29.0087891 C662.516926,29.3597023 662.199058,29.6354157 661.786621,29.8359375 C661.374184,30.0364593 660.903648,30.1367188 660.375,30.1367188 C659.45898,30.1367188 658.775393,29.9088564 658.324219,29.453125 C657.873045,28.9973936 657.647461,28.3069708 657.647461,27.3818359 L657.647461,22.4394531 L659.267578,22.4394531 L659.267578,27.1015625 C659.267578,27.6803414 659.386067,28.1144191 659.623047,28.4038086 C659.860027,28.6931981 660.231443,28.8378906 660.737305,28.8378906 C661.411787,28.8378906 661.907388,28.6362325 662.224121,28.2329102 C662.540854,27.8295878 662.699219,27.1539761 662.699219,26.2060547 L662.699219,22.4394531 L664.3125,22.4394531 L664.3125,30 L663.047852,30 Z M668.208984,30 L666.602539,30 L666.602539,19.3632812 L668.208984,19.3632812 L668.208984,30 Z M673.807617,30.1367188 C672.63183,30.1367188 671.712406,29.793786 671.049316,29.1079102 C670.386227,28.4220343 670.054688,27.4775451 670.054688,26.2744141 C670.054688,25.0393818 670.362302,24.0686884 670.977539,23.3623047 C671.592777,22.6559209 672.438146,22.3027344 673.513672,22.3027344 C674.511724,22.3027344 675.300127,22.6057912 675.878906,23.2119141 C676.457685,23.8180369 676.74707,24.6520129 676.74707,25.7138672 L676.74707,26.5820312 L671.708984,26.5820312 C671.731771,27.3157589 671.930011,27.8797181 672.303711,28.2739258 C672.677411,28.6681335 673.203773,28.8652344 673.882812,28.8652344 C674.329429,28.8652344 674.745278,28.8230798 675.130371,28.7387695 C675.515464,28.6544592 675.929034,28.5143239 676.371094,28.3183594 L676.371094,29.6240234 C675.979165,29.8108733 675.582684,29.9430335 675.181641,30.0205078 C674.780597,30.0979822 674.322594,30.1367188 673.807617,30.1367188 L673.807617,30.1367188 Z M673.513672,23.5195312 C673.003253,23.5195312 672.59424,23.6813135 672.286621,24.0048828 C671.979002,24.3284521 671.795573,24.8001271 671.736328,25.4199219 L675.167969,25.4199219 C675.158854,24.7955698 675.008465,24.3227555 674.716797,24.0014648 C674.425129,23.6801742 674.024091,23.5195312 673.513672,23.5195312 L673.513672,23.5195312 Z M682.407227,22.3027344 C682.730796,22.3027344 682.997395,22.3255206 683.207031,22.3710938 L683.049805,23.8681641 C682.821939,23.8134763 682.584962,23.7861328 682.338867,23.7861328 C681.696286,23.7861328 681.17562,23.9957661 680.776855,24.4150391 C680.37809,24.834312 680.178711,25.3789029 680.178711,26.0488281 L680.178711,30 L678.572266,30 L678.572266,22.4394531 L679.830078,22.4394531 L680.041992,23.7724609 L680.124023,23.7724609 C680.374676,23.3212868 680.701658,22.963543 681.10498,22.6992188 C681.508303,22.4348945 681.94238,22.3027344 682.407227,22.3027344 L682.407227,22.3027344 Z" id="Notify-scheduler" fill="#626463"></path>
            <path d="M578.373012,143 L677.408223,143" id="Line-Copy-6" stroke="#24B2E8" stroke-width="2" stroke-linecap="square" transform="translate(628.189030, 143.000000) scale(-1, 1) translate(-628.189030, -143.000000) "></path>
            <circle id="Oval-26" stroke="#24B2E8" stroke-width="2" fill="#FFFFFF" cx="579" cy="143" r="5"></circle>
            <circle id="Oval-26-Copy-3" stroke="#24B2E8" stroke-width="2" fill="#FFFFFF" cx="629" cy="143" r="3"></circle>
            <path d="M669,133 L679,142.998983 L669,152.997966" id="Path-10-Copy-6" stroke="#24B2E8" stroke-width="2" stroke-linecap="round"></path>
            <path d="M344.373012,143 L443.408223,143" id="Line-Copy-6" stroke="#24B2E8" stroke-width="2" stroke-linecap="square" transform="translate(394.189030, 143.000000) scale(-1, 1) translate(-394.189030, -143.000000) "></path>
            <circle id="Oval-26" stroke="#24B2E8" stroke-width="2" fill="#FFFFFF" cx="345" cy="143" r="5"></circle>
            <circle id="Oval-26-Copy-3" stroke="#24B2E8" stroke-width="2" fill="#FFFFFF" cx="395" cy="143" r="3"></circle>
            <path d="M435,133 L445,142.998983 L435,152.997966" id="Path-10-Copy-6" stroke="#24B2E8" stroke-width="2" stroke-linecap="round"></path>
            <path d="M214.969838,143 L314.005049,143 L314.005049,87.092853" id="Line-Copy-6" stroke="#24B2E8" stroke-width="2" stroke-linecap="square" transform="translate(264.487443, 115.046426) scale(-1, 1) translate(-264.487443, -115.046426) "></path>
            <circle id="Oval-26" stroke="#24B2E8" stroke-width="2" fill="#FFFFFF" cx="215" cy="82" r="5"></circle>
            <circle id="Oval-26-Copy-3" stroke="#24B2E8" stroke-width="2" fill="#FFFFFF" cx="265" cy="143" r="3"></circle>
            <circle id="Oval-26-Copy-4" stroke="#24B2E8" stroke-width="2" fill="#FFFFFF" cx="215" cy="143" r="3"></circle>
            <path d="M305,133 L315,142.998983 L305,152.997966" id="Path-10-Copy-6" stroke="#24B2E8" stroke-width="2" stroke-linecap="round"></path>
            <path d="M581.645508,123 L579.642578,123 L574.727539,115.036133 L574.672852,115.036133 L574.707031,115.480469 C574.770834,116.328129 574.802734,117.102861 574.802734,117.804688 L574.802734,123 L573.319336,123 L573.319336,113.005859 L575.301758,113.005859 L580.203125,120.928711 L580.244141,120.928711 C580.235026,120.823893 580.216797,120.442223 580.189453,119.783691 C580.162109,119.125159 580.148438,118.61133 580.148438,118.242188 L580.148438,113.005859 L581.645508,113.005859 L581.645508,123 Z M590.819336,119.206055 C590.819336,120.441087 590.502607,121.404944 589.869141,122.097656 C589.235674,122.790368 588.353847,123.136719 587.223633,123.136719 C586.517249,123.136719 585.892906,122.977215 585.350586,122.658203 C584.808266,122.339191 584.391278,121.881188 584.099609,121.28418 C583.807941,120.687171 583.662109,119.99447 583.662109,119.206055 C583.662109,117.980137 583.976559,117.023115 584.605469,116.334961 C585.234378,115.646806 586.120763,115.302734 587.264648,115.302734 C588.358404,115.302734 589.224281,115.654782 589.862305,116.358887 C590.500329,117.062992 590.819336,118.012038 590.819336,119.206055 L590.819336,119.206055 Z M585.316406,119.206055 C585.316406,120.951506 585.961257,121.824219 587.250977,121.824219 C588.527025,121.824219 589.165039,120.951506 589.165039,119.206055 C589.165039,117.478833 588.522467,116.615234 587.237305,116.615234 C586.562822,116.615234 586.074058,116.838539 585.770996,117.285156 C585.467935,117.731773 585.316406,118.372066 585.316406,119.206055 L585.316406,119.206055 Z M595.481445,121.837891 C595.873374,121.837891 596.265298,121.776368 596.657227,121.65332 L596.657227,122.863281 C596.479491,122.940756 596.25049,123.005696 595.970215,123.058105 C595.68994,123.110515 595.399416,123.136719 595.098633,123.136719 C593.57649,123.136719 592.81543,122.334643 592.81543,120.730469 L592.81543,116.65625 L591.783203,116.65625 L591.783203,115.945312 L592.890625,115.357422 L593.4375,113.757812 L594.428711,113.757812 L594.428711,115.439453 L596.582031,115.439453 L596.582031,116.65625 L594.428711,116.65625 L594.428711,120.703125 C594.428711,121.090497 594.525552,121.376464 594.719238,121.561035 C594.912924,121.745606 595.166991,121.837891 595.481445,121.837891 L595.481445,121.837891 Z M599.774414,123 L598.167969,123 L598.167969,115.439453 L599.774414,115.439453 L599.774414,123 Z M598.072266,113.436523 C598.072266,113.149413 598.150878,112.928386 598.308105,112.773438 C598.465333,112.618489 598.689777,112.541016 598.981445,112.541016 C599.263999,112.541016 599.483886,112.618489 599.641113,112.773438 C599.798341,112.928386 599.876953,113.149413 599.876953,113.436523 C599.876953,113.709962 599.798341,113.925292 599.641113,114.08252 C599.483886,114.239747 599.263999,114.318359 598.981445,114.318359 C598.689777,114.318359 598.465333,114.239747 598.308105,114.08252 C598.150878,113.925292 598.072266,113.709962 598.072266,113.436523 L598.072266,113.436523 Z M605.865234,116.65625 L604.019531,116.65625 L604.019531,123 L602.40625,123 L602.40625,116.65625 L601.162109,116.65625 L601.162109,115.904297 L602.40625,115.412109 L602.40625,114.919922 C602.40625,114.026688 602.615883,113.364748 603.035156,112.934082 C603.454429,112.503416 604.094722,112.288086 604.956055,112.288086 C605.521162,112.288086 606.077146,112.381509 606.624023,112.568359 L606.200195,113.785156 C605.803709,113.657551 605.425458,113.59375 605.06543,113.59375 C604.700845,113.59375 604.435385,113.706542 604.269043,113.932129 C604.102701,114.157716 604.019531,114.496091 604.019531,114.947266 L604.019531,115.439453 L605.865234,115.439453 L605.865234,116.65625 Z M606.001953,115.439453 L607.751953,115.439453 L609.290039,119.725586 C609.522462,120.336266 609.677408,120.910479 609.754883,121.448242 L609.80957,121.448242 C609.850586,121.19759 609.925781,120.893394 610.035156,120.535645 C610.144532,120.177895 610.723302,118.479182 611.771484,115.439453 L613.507812,115.439453 L610.274414,124.004883 C609.68652,125.577156 608.706713,126.363281 607.334961,126.363281 C606.97949,126.363281 606.63314,126.324545 606.295898,126.24707 L606.295898,124.975586 C606.537436,125.030274 606.813149,125.057617 607.123047,125.057617 C607.89779,125.057617 608.442381,124.608728 608.756836,123.710938 L609.037109,123 L606.001953,115.439453 Z M623.37207,120.84668 C623.37207,121.584965 623.103193,122.151202 622.56543,122.54541 C622.027667,122.939618 621.257492,123.136719 620.254883,123.136719 C619.247716,123.136719 618.438805,122.984051 617.828125,122.678711 L617.828125,121.291016 C618.716801,121.701174 619.543941,121.90625 620.30957,121.90625 C621.298508,121.90625 621.792969,121.60775 621.792969,121.010742 C621.792969,120.819335 621.738282,120.659831 621.628906,120.532227 C621.519531,120.404622 621.339519,120.272462 621.088867,120.135742 C620.838215,119.999023 620.489586,119.844076 620.042969,119.670898 C619.172522,119.333657 618.583498,118.996421 618.275879,118.65918 C617.96826,118.321938 617.814453,117.884443 617.814453,117.34668 C617.814453,116.699541 618.075355,116.197105 618.597168,115.839355 C619.11898,115.481606 619.828772,115.302734 620.726562,115.302734 C621.615239,115.302734 622.456051,115.482746 623.249023,115.842773 L622.729492,117.052734 C621.913733,116.715493 621.227867,116.546875 620.671875,116.546875 C619.824215,116.546875 619.400391,116.788409 619.400391,117.271484 C619.400391,117.508465 619.510904,117.708984 619.731934,117.873047 C619.952963,118.03711 620.434892,118.262694 621.177734,118.549805 C621.802086,118.791342 622.255532,119.012369 622.538086,119.212891 C622.820639,119.413412 623.030273,119.644693 623.166992,119.906738 C623.303712,120.168784 623.37207,120.482095 623.37207,120.84668 L623.37207,120.84668 Z M628.157227,123.136719 C627.013341,123.136719 626.144046,122.8029 625.549316,122.135254 C624.954587,121.467607 624.657227,120.509446 624.657227,119.260742 C624.657227,117.989251 624.968259,117.011722 625.590332,116.328125 C626.212405,115.644528 627.111322,115.302734 628.287109,115.302734 C629.084639,115.302734 629.802406,115.450845 630.44043,115.74707 L629.955078,117.039062 C629.276038,116.774738 628.715497,116.642578 628.273438,116.642578 C626.965488,116.642578 626.311523,117.510734 626.311523,119.24707 C626.311523,120.094731 626.474445,120.731606 626.800293,121.157715 C627.126141,121.583824 627.603512,121.796875 628.232422,121.796875 C628.94792,121.796875 629.624671,121.619142 630.262695,121.263672 L630.262695,122.665039 C629.975585,122.83366 629.66911,122.954427 629.343262,123.027344 C629.017414,123.100261 628.622073,123.136719 628.157227,123.136719 L628.157227,123.136719 Z M638.691406,123 L637.078125,123 L637.078125,118.351562 C637.078125,117.768226 636.960776,117.333009 636.726074,117.045898 C636.491373,116.758788 636.118818,116.615234 635.608398,116.615234 C634.933916,116.615234 634.438315,116.816893 634.121582,117.220215 C633.804849,117.623537 633.646484,118.299149 633.646484,119.24707 L633.646484,123 L632.040039,123 L632.040039,112.363281 L633.646484,112.363281 L633.646484,115.063477 C633.646484,115.496421 633.619141,115.958982 633.564453,116.451172 L633.666992,116.451172 C633.885743,116.086587 634.189939,115.804037 634.57959,115.603516 C634.96924,115.402994 635.423826,115.302734 635.943359,115.302734 C637.7754,115.302734 638.691406,116.225577 638.691406,118.071289 L638.691406,123 Z M644.228516,123.136719 C643.052728,123.136719 642.133304,122.793786 641.470215,122.10791 C640.807126,121.422034 640.475586,120.477545 640.475586,119.274414 C640.475586,118.039382 640.7832,117.068688 641.398438,116.362305 C642.013675,115.655921 642.859044,115.302734 643.93457,115.302734 C644.932622,115.302734 645.721026,115.605791 646.299805,116.211914 C646.878584,116.818037 647.167969,117.652013 647.167969,118.713867 L647.167969,119.582031 L642.129883,119.582031 C642.152669,120.315759 642.35091,120.879718 642.724609,121.273926 C643.098309,121.668133 643.624671,121.865234 644.303711,121.865234 C644.750328,121.865234 645.166176,121.82308 645.55127,121.73877 C645.936363,121.654459 646.349933,121.514324 646.791992,121.318359 L646.791992,122.624023 C646.400063,122.810873 646.003583,122.943033 645.602539,123.020508 C645.201495,123.097982 644.743492,123.136719 644.228516,123.136719 L644.228516,123.136719 Z M643.93457,116.519531 C643.424151,116.519531 643.015138,116.681313 642.70752,117.004883 C642.399901,117.328452 642.216472,117.800127 642.157227,118.419922 L645.588867,118.419922 C645.579753,117.79557 645.429363,117.322756 645.137695,117.001465 C644.846027,116.680174 644.44499,116.519531 643.93457,116.519531 L643.93457,116.519531 Z M651.542969,123.136719 C650.599605,123.136719 649.863609,122.794925 649.334961,122.111328 C648.806312,121.427731 648.541992,120.468431 648.541992,119.233398 C648.541992,117.993809 648.80973,117.028812 649.345215,116.338379 C649.880699,115.647946 650.622391,115.302734 651.570312,115.302734 C652.563807,115.302734 653.32031,115.669593 653.839844,116.40332 L653.921875,116.40332 C653.844401,115.861 653.805664,115.432619 653.805664,115.118164 L653.805664,112.363281 L655.418945,112.363281 L655.418945,123 L654.161133,123 L653.880859,122.008789 L653.805664,122.008789 C653.290688,122.760746 652.536463,123.136719 651.542969,123.136719 L651.542969,123.136719 Z M651.973633,121.837891 C652.634443,121.837891 653.115233,121.652183 653.416016,121.280762 C653.716798,120.909341 653.871745,120.306645 653.880859,119.472656 L653.880859,119.24707 C653.880859,118.294592 653.725913,117.617841 653.416016,117.216797 C653.106118,116.815753 652.620772,116.615234 651.959961,116.615234 C651.394854,116.615234 650.959637,116.844236 650.654297,117.302246 C650.348957,117.760256 650.196289,118.413082 650.196289,119.260742 C650.196289,120.099288 650.3444,120.738442 650.640625,121.178223 C650.93685,121.618004 651.381182,121.837891 651.973633,121.837891 L651.973633,121.837891 Z M663.047852,123 L662.822266,122.008789 L662.740234,122.008789 C662.516926,122.359702 662.199058,122.635416 661.786621,122.835938 C661.374184,123.036459 660.903648,123.136719 660.375,123.136719 C659.45898,123.136719 658.775393,122.908856 658.324219,122.453125 C657.873045,121.997394 657.647461,121.306971 657.647461,120.381836 L657.647461,115.439453 L659.267578,115.439453 L659.267578,120.101562 C659.267578,120.680341 659.386067,121.114419 659.623047,121.403809 C659.860027,121.693198 660.231443,121.837891 660.737305,121.837891 C661.411787,121.837891 661.907388,121.636232 662.224121,121.23291 C662.540854,120.829588 662.699219,120.153976 662.699219,119.206055 L662.699219,115.439453 L664.3125,115.439453 L664.3125,123 L663.047852,123 Z M668.208984,123 L666.602539,123 L666.602539,112.363281 L668.208984,112.363281 L668.208984,123 Z M673.807617,123.136719 C672.63183,123.136719 671.712406,122.793786 671.049316,122.10791 C670.386227,121.422034 670.054688,120.477545 670.054688,119.274414 C670.054688,118.039382 670.362302,117.068688 670.977539,116.362305 C671.592777,115.655921 672.438146,115.302734 673.513672,115.302734 C674.511724,115.302734 675.300127,115.605791 675.878906,116.211914 C676.457685,116.818037 676.74707,117.652013 676.74707,118.713867 L676.74707,119.582031 L671.708984,119.582031 C671.731771,120.315759 671.930011,120.879718 672.303711,121.273926 C672.677411,121.668133 673.203773,121.865234 673.882812,121.865234 C674.329429,121.865234 674.745278,121.82308 675.130371,121.73877 C675.515464,121.654459 675.929034,121.514324 676.371094,121.318359 L676.371094,122.624023 C675.979165,122.810873 675.582684,122.943033 675.181641,123.020508 C674.780597,123.097982 674.322594,123.136719 673.807617,123.136719 L673.807617,123.136719 Z M673.513672,116.519531 C673.003253,116.519531 672.59424,116.681313 672.286621,117.004883 C671.979002,117.328452 671.795573,117.800127 671.736328,118.419922 L675.167969,118.419922 C675.158854,117.79557 675.008465,117.322756 674.716797,117.001465 C674.425129,116.680174 674.024091,116.519531 673.513672,116.519531 L673.513672,116.519531 Z M682.407227,115.302734 C682.730796,115.302734 682.997395,115.325521 683.207031,115.371094 L683.049805,116.868164 C682.821939,116.813476 682.584962,116.786133 682.338867,116.786133 C681.696286,116.786133 681.17562,116.995766 680.776855,117.415039 C680.37809,117.834312 680.178711,118.378903 680.178711,119.048828 L680.178711,123 L678.572266,123 L678.572266,115.439453 L679.830078,115.439453 L680.041992,116.772461 L680.124023,116.772461 C680.374676,116.321287 680.701658,115.963543 681.10498,115.699219 C681.508303,115.434895 681.94238,115.302734 682.407227,115.302734 L682.407227,115.302734 Z" id="Notify-scheduler" fill="#626463"></path>
            <path d="M306.18903,52 L455.408223,52" id="Line-Copy-6" stroke="#AB3FE6" stroke-width="2" stroke-linecap="square" transform="translate(381.189030, 52.000000) scale(-1, 1) translate(-381.189030, -52.000000) "></path>
            <circle id="Oval-26" stroke="#AB3FE6" stroke-width="2" fill="#FFFFFF" cx="303" cy="52" r="5"></circle>
            <circle id="Oval-26-Copy-3" stroke="#AB3FE6" stroke-width="2" fill="#FFFFFF" cx="353" cy="52" r="3"></circle>
            <circle id="Oval-26-Copy-5" stroke="#AB3FE6" stroke-width="2" fill="#FFFFFF" cx="401" cy="52" r="3"></circle>
            <path d="M447,42 L457,51.9989832 L447,61.9979665" id="Path-10-Copy-6" stroke="#AB3FE6" stroke-width="2" stroke-linecap="round"></path>
            <path d="M305.936523,23.0273438 C305.936523,24.0709688 305.59473,24.8707654 304.911133,25.4267578 C304.227536,25.9827502 303.254564,26.2607422 301.992188,26.2607422 L300.953125,26.2607422 L300.953125,30 L299.319336,30 L299.319336,20.0058594 L302.197266,20.0058594 C303.44597,20.0058594 304.381345,20.2610652 305.003418,20.7714844 C305.625491,21.2819036 305.936523,22.0338492 305.936523,23.0273438 L305.936523,23.0273438 Z M300.953125,24.8867188 L301.821289,24.8867188 C302.659835,24.8867188 303.275063,24.7408869 303.666992,24.4492188 C304.058921,24.1575506 304.254883,23.701826 304.254883,23.0820312 C304.254883,22.5078096 304.079429,22.0794285 303.728516,21.796875 C303.377602,21.5143215 302.830733,21.3730469 302.087891,21.3730469 L300.953125,21.3730469 L300.953125,24.8867188 Z M313.09375,30 L312.868164,29.0087891 L312.786133,29.0087891 C312.562824,29.3597023 312.244956,29.6354157 311.83252,29.8359375 C311.420083,30.0364593 310.949547,30.1367188 310.420898,30.1367188 C309.504878,30.1367188 308.821291,29.9088564 308.370117,29.453125 C307.918943,28.9973936 307.693359,28.3069708 307.693359,27.3818359 L307.693359,22.4394531 L309.313477,22.4394531 L309.313477,27.1015625 C309.313477,27.6803414 309.431965,28.1144191 309.668945,28.4038086 C309.905926,28.6931981 310.277341,28.8378906 310.783203,28.8378906 C311.457686,28.8378906 311.953286,28.6362325 312.27002,28.2329102 C312.586753,27.8295878 312.745117,27.1539761 312.745117,26.2060547 L312.745117,22.4394531 L314.358398,22.4394531 L314.358398,30 L313.09375,30 Z M321.727539,27.8466797 C321.727539,28.5849646 321.458662,29.1512025 320.920898,29.5454102 C320.383135,29.9396179 319.612961,30.1367188 318.610352,30.1367188 C317.603185,30.1367188 316.794274,29.984051 316.183594,29.6787109 L316.183594,28.2910156 C317.07227,28.7011739 317.89941,28.90625 318.665039,28.90625 C319.653976,28.90625 320.148438,28.6077504 320.148438,28.0107422 C320.148438,27.819335 320.093751,27.6598314 319.984375,27.5322266 C319.874999,27.4046218 319.694988,27.2724616 319.444336,27.1357422 C319.193684,26.9990228 318.845054,26.8440764 318.398438,26.6708984 C317.52799,26.3336572 316.938966,25.996421 316.631348,25.6591797 C316.323729,25.3219384 316.169922,24.8844428 316.169922,24.3466797 C316.169922,23.699541 316.430824,23.1971047 316.952637,22.8393555 C317.474449,22.4816063 318.18424,22.3027344 319.082031,22.3027344 C319.970708,22.3027344 320.811519,22.4827456 321.604492,22.8427734 L321.084961,24.0527344 C320.269202,23.7154931 319.583336,23.546875 319.027344,23.546875 C318.179683,23.546875 317.755859,23.788409 317.755859,24.2714844 C317.755859,24.5084647 317.866373,24.7089836 318.087402,24.8730469 C318.308432,25.0371102 318.790361,25.2626939 319.533203,25.5498047 C320.157555,25.7913424 320.611001,26.0123688 320.893555,26.2128906 C321.176108,26.4134125 321.385742,26.6446927 321.522461,26.9067383 C321.65918,27.1687839 321.727539,27.4820945 321.727539,27.8466797 L321.727539,27.8466797 Z M330.115234,30 L328.501953,30 L328.501953,25.3515625 C328.501953,24.7682263 328.384604,24.3330092 328.149902,24.0458984 C327.915201,23.7587876 327.542646,23.6152344 327.032227,23.6152344 C326.357744,23.6152344 325.862144,23.8168925 325.54541,24.2202148 C325.228677,24.6235372 325.070312,25.2991489 325.070312,26.2470703 L325.070312,30 L323.463867,30 L323.463867,19.3632812 L325.070312,19.3632812 L325.070312,22.0634766 C325.070312,22.4964214 325.042969,22.9589819 324.988281,23.4511719 L325.09082,23.4511719 C325.309571,23.0865867 325.613768,22.8040375 326.003418,22.6035156 C326.393068,22.4029938 326.847654,22.3027344 327.367188,22.3027344 C329.199228,22.3027344 330.115234,23.2255767 330.115234,25.0712891 L330.115234,30 Z" id="Push" fill="#626463"></path>
            <path d="M229.319336,113.005859 L232.286133,113.005859 C233.662442,113.005859 234.657061,113.206378 235.27002,113.607422 C235.882978,114.008466 236.189453,114.641923 236.189453,115.507812 C236.189453,116.091149 236.039064,116.576495 235.738281,116.963867 C235.437498,117.351239 235.00456,117.595052 234.439453,117.695312 L234.439453,117.763672 C235.14128,117.895834 235.657388,118.156736 235.987793,118.546387 C236.318198,118.936037 236.483398,119.463538 236.483398,120.128906 C236.483398,121.026697 236.170088,121.729652 235.543457,122.237793 C234.916826,122.745934 234.045253,123 232.928711,123 L229.319336,123 L229.319336,113.005859 Z M230.953125,117.134766 L232.525391,117.134766 C233.208988,117.134766 233.708006,117.026531 234.022461,116.810059 C234.336916,116.593586 234.494141,116.225589 234.494141,115.706055 C234.494141,115.236651 234.324383,114.897136 233.984863,114.6875 C233.645343,114.477864 233.106449,114.373047 232.368164,114.373047 L230.953125,114.373047 L230.953125,117.134766 Z M230.953125,118.460938 L230.953125,121.625977 L232.689453,121.625977 C233.37305,121.625977 233.889158,121.494956 234.237793,121.23291 C234.586428,120.970865 234.760742,120.557294 234.760742,119.992188 C234.760742,119.472654 234.58301,119.087566 234.227539,118.836914 C233.872069,118.586262 233.332035,118.460938 232.607422,118.460938 L230.953125,118.460938 Z M243.722656,123 L243.49707,122.008789 L243.415039,122.008789 C243.191731,122.359702 242.873863,122.635416 242.461426,122.835938 C242.048989,123.036459 241.578453,123.136719 241.049805,123.136719 C240.133784,123.136719 239.450198,122.908856 238.999023,122.453125 C238.547849,121.997394 238.322266,121.306971 238.322266,120.381836 L238.322266,115.439453 L239.942383,115.439453 L239.942383,120.101562 C239.942383,120.680341 240.060871,121.114419 240.297852,121.403809 C240.534832,121.693198 240.906247,121.837891 241.412109,121.837891 C242.086592,121.837891 242.582192,121.636232 242.898926,121.23291 C243.215659,120.829588 243.374023,120.153976 243.374023,119.206055 L243.374023,115.439453 L244.987305,115.439453 L244.987305,123 L243.722656,123 Z M248.883789,123 L247.277344,123 L247.277344,115.439453 L248.883789,115.439453 L248.883789,123 Z M247.181641,113.436523 C247.181641,113.149413 247.260253,112.928386 247.41748,112.773438 C247.574708,112.618489 247.799152,112.541016 248.09082,112.541016 C248.373374,112.541016 248.593261,112.618489 248.750488,112.773438 C248.907716,112.928386 248.986328,113.149413 248.986328,113.436523 C248.986328,113.709962 248.907716,113.925292 248.750488,114.08252 C248.593261,114.239747 248.373374,114.318359 248.09082,114.318359 C247.799152,114.318359 247.574708,114.239747 247.41748,114.08252 C247.260253,113.925292 247.181641,113.709962 247.181641,113.436523 L247.181641,113.436523 Z M252.787109,123 L251.180664,123 L251.180664,112.363281 L252.787109,112.363281 L252.787109,123 Z M257.633789,123.136719 C256.690425,123.136719 255.95443,122.794925 255.425781,122.111328 C254.897133,121.427731 254.632812,120.468431 254.632812,119.233398 C254.632812,117.993809 254.900551,117.028812 255.436035,116.338379 C255.97152,115.647946 256.713211,115.302734 257.661133,115.302734 C258.654627,115.302734 259.41113,115.669593 259.930664,116.40332 L260.012695,116.40332 C259.935221,115.861 259.896484,115.432619 259.896484,115.118164 L259.896484,112.363281 L261.509766,112.363281 L261.509766,123 L260.251953,123 L259.97168,122.008789 L259.896484,122.008789 C259.381508,122.760746 258.627284,123.136719 257.633789,123.136719 L257.633789,123.136719 Z M258.064453,121.837891 C258.725264,121.837891 259.206053,121.652183 259.506836,121.280762 C259.807619,120.909341 259.962565,120.306645 259.97168,119.472656 L259.97168,119.24707 C259.97168,118.294592 259.816733,117.617841 259.506836,117.216797 C259.196939,116.815753 258.711592,116.615234 258.050781,116.615234 C257.485674,116.615234 257.050457,116.844236 256.745117,117.302246 C256.439777,117.760256 256.287109,118.413082 256.287109,119.260742 C256.287109,120.099288 256.43522,120.738442 256.731445,121.178223 C257.027671,121.618004 257.472002,121.837891 258.064453,121.837891 L258.064453,121.837891 Z" id="Build" fill="#626463"></path>
            <path d="M346.936523,116.027344 C346.936523,117.070969 346.59473,117.870765 345.911133,118.426758 C345.227536,118.98275 344.254564,119.260742 342.992188,119.260742 L341.953125,119.260742 L341.953125,123 L340.319336,123 L340.319336,113.005859 L343.197266,113.005859 C344.44597,113.005859 345.381345,113.261065 346.003418,113.771484 C346.625491,114.281904 346.936523,115.033849 346.936523,116.027344 L346.936523,116.027344 Z M341.953125,117.886719 L342.821289,117.886719 C343.659835,117.886719 344.275063,117.740887 344.666992,117.449219 C345.058921,117.157551 345.254883,116.701826 345.254883,116.082031 C345.254883,115.50781 345.079429,115.079428 344.728516,114.796875 C344.377602,114.514322 343.830733,114.373047 343.087891,114.373047 L341.953125,114.373047 L341.953125,117.886719 Z M354.09375,123 L353.868164,122.008789 L353.786133,122.008789 C353.562824,122.359702 353.244956,122.635416 352.83252,122.835938 C352.420083,123.036459 351.949547,123.136719 351.420898,123.136719 C350.504878,123.136719 349.821291,122.908856 349.370117,122.453125 C348.918943,121.997394 348.693359,121.306971 348.693359,120.381836 L348.693359,115.439453 L350.313477,115.439453 L350.313477,120.101562 C350.313477,120.680341 350.431965,121.114419 350.668945,121.403809 C350.905926,121.693198 351.277341,121.837891 351.783203,121.837891 C352.457686,121.837891 352.953286,121.636232 353.27002,121.23291 C353.586753,120.829588 353.745117,120.153976 353.745117,119.206055 L353.745117,115.439453 L355.358398,115.439453 L355.358398,123 L354.09375,123 Z M362.727539,120.84668 C362.727539,121.584965 362.458662,122.151202 361.920898,122.54541 C361.383135,122.939618 360.612961,123.136719 359.610352,123.136719 C358.603185,123.136719 357.794274,122.984051 357.183594,122.678711 L357.183594,121.291016 C358.07227,121.701174 358.89941,121.90625 359.665039,121.90625 C360.653976,121.90625 361.148438,121.60775 361.148438,121.010742 C361.148438,120.819335 361.093751,120.659831 360.984375,120.532227 C360.874999,120.404622 360.694988,120.272462 360.444336,120.135742 C360.193684,119.999023 359.845054,119.844076 359.398438,119.670898 C358.52799,119.333657 357.938966,118.996421 357.631348,118.65918 C357.323729,118.321938 357.169922,117.884443 357.169922,117.34668 C357.169922,116.699541 357.430824,116.197105 357.952637,115.839355 C358.474449,115.481606 359.18424,115.302734 360.082031,115.302734 C360.970708,115.302734 361.811519,115.482746 362.604492,115.842773 L362.084961,117.052734 C361.269202,116.715493 360.583336,116.546875 360.027344,116.546875 C359.179683,116.546875 358.755859,116.788409 358.755859,117.271484 C358.755859,117.508465 358.866373,117.708984 359.087402,117.873047 C359.308432,118.03711 359.790361,118.262694 360.533203,118.549805 C361.157555,118.791342 361.611001,119.012369 361.893555,119.212891 C362.176108,119.413412 362.385742,119.644693 362.522461,119.906738 C362.65918,120.168784 362.727539,120.482095 362.727539,120.84668 L362.727539,120.84668 Z M371.115234,123 L369.501953,123 L369.501953,118.351562 C369.501953,117.768226 369.384604,117.333009 369.149902,117.045898 C368.915201,116.758788 368.542646,116.615234 368.032227,116.615234 C367.357744,116.615234 366.862144,116.816893 366.54541,117.220215 C366.228677,117.623537 366.070312,118.299149 366.070312,119.24707 L366.070312,123 L364.463867,123 L364.463867,112.363281 L366.070312,112.363281 L366.070312,115.063477 C366.070312,115.496421 366.042969,115.958982 365.988281,116.451172 L366.09082,116.451172 C366.309571,116.086587 366.613768,115.804037 367.003418,115.603516 C367.393068,115.402994 367.847654,115.302734 368.367188,115.302734 C370.199228,115.302734 371.115234,116.225577 371.115234,118.071289 L371.115234,123 Z" id="Push" fill="#626463"></path>
            <path d="M750.894123,127.635249 L767.273993,118.077497 L750.894903,108.520532 L734.515033,118.077497 L750.894123,127.635249" id="Fill-5" fill="#EFF3FB"></path>
            <path d="M750.48105,146.561003 L766.8617,137.004038 L766.86092,117.890109 L750.48105,127.447862 L750.48105,146.561003" id="Fill-3" fill="#D3DCE9"></path>
            <path d="M734.516593,137.004038 L750.895683,146.560214 L750.895683,127.447074 L734.515033,117.890109 L734.516593,137.004038" id="Fill-1" fill="#DFE6F2"></path>
            <path d="M732.894123,158.635249 L749.273993,149.077497 L732.894903,139.520532 L716.515033,149.077497 L732.894123,158.635249" id="Fill-5" fill="#EFF3FB"></path>
            <path d="M732.48105,177.561003 L748.8617,168.004038 L748.86092,148.890109 L732.48105,158.447862 L732.48105,177.561003" id="Fill-3" fill="#D3DCE9"></path>
            <path d="M716.516593,168.004038 L732.895683,177.560214 L732.895683,158.447074 L716.515033,148.890109 L716.516593,168.004038" id="Fill-1" fill="#DFE6F2"></path>
            <path d="M257.990722,50.5433008 L274.48223,40.9712679 L257.991507,31.4000244 L241.5,40.9712679 L257.990722,50.5433008" id="Fill-5" fill="#D69FF4"></path>
            <path d="M258,69.7137304 L274.492293,60.1424869 L274.491507,41 L258,50.5720329 L258,69.7137304" id="Fill-3" fill="#AB3FE6"></path>
            <path d="M241.520114,60.0473726 L258.010836,69.6178266 L258.010836,50.4761291 L241.518543,40.9048857 L241.520114,60.0473726" id="Fill-1" fill="#BF7EE3"></path>
            <path d="M534.194977,95.7138409 L550.390726,86.3565346 L534.195749,77 L518,86.3565346 L534.194977,95.7138409" id="Fill-5" fill="#EFF3FB"></path>
            <path d="M533.786547,114.242681 L549.983067,104.886146 L549.982296,86.1730769 L533.786547,95.5303833 L533.786547,114.242681" id="Fill-3" fill="#D3DCE9"></path>
            <path d="M518.001543,104.886146 L534.19652,114.241909 L534.19652,95.5296115 L518,86.1730769 L518.001543,104.886146" id="Fill-1" fill="#DFE6F2"></path>
            <path d="M514.194977,106.713841 L530.390726,97.3565346 L514.195749,88 L498,97.3565346 L514.194977,106.713841" id="Fill-5" fill="#EFF3FB"></path>
            <path d="M513.786547,125.242681 L529.983067,115.886146 L529.982296,97.1730769 L513.786547,106.530383 L513.786547,125.242681" id="Fill-3" fill="#D3DCE9"></path>
            <path d="M498.001543,115.886146 L514.19652,125.241909 L514.19652,106.529612 L498,97.1730769 L498.001543,115.886146" id="Fill-1" fill="#DFE6F2"></path>
            <path d="M493.194977,118.713841 L509.390726,109.356535 L493.195749,100 L477,109.356535 L493.194977,118.713841" id="Fill-5" fill="#EFF3FB"></path>
            <path d="M492.786547,137.242681 L508.983067,127.886146 L508.982296,109.173077 L492.786547,118.530383 L492.786547,137.242681" id="Fill-3" fill="#D3DCE9"></path>
            <path d="M477.001543,127.886146 L493.19652,137.241909 L493.19652,118.529612 L477,109.173077 L477.001543,127.886146" id="Fill-1" fill="#DFE6F2"></path>
            <path d="M514.194977,83.7138409 L530.390726,74.3565346 L514.195749,65 L498,74.3565346 L514.194977,83.7138409" id="Fill-5" fill="#EFF3FB"></path>
            <path d="M513.786547,102.242681 L529.983067,92.8861461 L529.982296,74.1730769 L513.786547,83.5303833 L513.786547,102.242681" id="Fill-3" fill="#D3DCE9"></path>
            <path d="M498.001543,92.8861461 L514.19652,102.241909 L514.19652,83.5296115 L498,74.1730769 L498.001543,92.8861461" id="Fill-1" fill="#DFE6F2"></path>
            <path d="M534.194977,118.713841 L550.390726,109.356535 L534.195749,100 L518,109.356535 L534.194977,118.713841" id="Fill-5" fill="#EFF3FB"></path>
            <path d="M533.786547,137.242681 L549.983067,127.886146 L549.982296,109.173077 L533.786547,118.530383 L533.786547,137.242681" id="Fill-3" fill="#D3DCE9"></path>
            <path d="M518.001543,127.886146 L534.19652,137.241909 L534.19652,118.529612 L518,109.173077 L518.001543,127.886146" id="Fill-1" fill="#DFE6F2"></path>
            <path d="M513.194977,130.713841 L529.390726,121.356535 L513.195749,112 L497,121.356535 L513.194977,130.713841" id="Fill-5" fill="#EFF3FB"></path>
            <path d="M512.786547,149.242681 L528.983067,139.886146 L528.982296,121.173077 L512.786547,130.530383 L512.786547,149.242681" id="Fill-3" fill="#D3DCE9"></path>
            <path d="M497.001543,139.886146 L513.19652,149.241909 L513.19652,130.529612 L497,121.173077 L497.001543,139.886146" id="Fill-1" fill="#DFE6F2"></path>
            <path d="M483.194977,142.713841 L499.390726,133.356535 L483.195749,124 L467,133.356535 L483.194977,142.713841" id="Fill-5" fill="#B8EBFF"></path>
            <path d="M482.786547,161.242681 L498.983067,151.886146 L498.982296,133.173077 L482.786547,142.530383 L482.786547,161.242681" id="Fill-3" fill="#24B2E8"></path>
            <path d="M467.001543,151.886146 L483.19652,161.241909 L483.19652,142.529612 L467,133.173077 L467.001543,151.886146" id="Fill-1" fill="#92D9F4"></path>
            <path d="M534.194977,95.7138409 L550.390726,86.3565346 L534.195749,77 L518,86.3565346 L534.194977,95.7138409" id="Fill-5" fill="#EFF3FB"></path>
            <path d="M533.786547,114.242681 L549.983067,104.886146 L549.982296,86.1730769 L533.786547,95.5303833 L533.786547,114.242681" id="Fill-3" fill="#D3DCE9"></path>
            <path d="M518.001543,104.886146 L534.19652,114.241909 L534.19652,95.5296115 L518,86.1730769 L518.001543,104.886146" id="Fill-1" fill="#DFE6F2"></path>
            <path d="M534.194977,72.7138409 L550.390726,63.3565346 L534.195749,54 L518,63.3565346 L534.194977,72.7138409" id="Fill-5" fill="#EFF3FB"></path>
            <path d="M533.786547,91.2426807 L549.983067,81.8861461 L549.982296,63.1730769 L533.786547,72.5303833 L533.786547,91.2426807" id="Fill-3" fill="#D3DCE9"></path>
            <path d="M518.001543,81.8861461 L534.19652,91.241909 L534.19652,72.5296115 L518,63.1730769 L518.001543,81.8861461" id="Fill-1" fill="#DFE6F2"></path>
            <path d="M496.990722,50.5433008 L513.48223,40.9712679 L496.991507,31.4000244 L480.5,40.9712679 L496.990722,50.5433008" id="Fill-5" fill="#D69FF4"></path>
            <path d="M497,69.7137304 L513.492293,60.1424869 L513.491507,41 L497,50.5720329 L497,69.7137304" id="Fill-3" fill="#AB3FE6"></path>
            <path d="M480.520114,60.0473726 L497.010836,69.6178266 L497.010836,50.4761291 L480.518543,40.9048857 L480.520114,60.0473726" id="Fill-1" fill="#BF7EE3"></path>
            <path d="M804.894123,50.6352494 L821.273993,41.0774966 L804.894903,31.5205321 L788.515033,41.0774966 L804.894123,50.6352494" id="Fill-5" fill="#EFF3FB"></path>
            <path d="M804.48105,69.5610026 L820.8617,60.0040381 L820.86092,40.890109 L804.48105,50.4478618 L804.48105,69.5610026" id="Fill-3" fill="#D3DCE9"></path>
            <path d="M788.516593,60.0040381 L804.895683,69.5602144 L804.895683,50.4470735 L788.515033,40.890109 L788.516593,60.0040381" id="Fill-1" fill="#DFE6F2"></path>
            <path d="M839.894123,50.6352494 L856.273993,41.0774966 L839.894903,31.5205321 L823.515033,41.0774966 L839.894123,50.6352494" id="Fill-5" fill="#EFF3FB"></path>
            <path d="M839.48105,69.5610026 L855.8617,60.0040381 L855.86092,40.890109 L839.48105,50.4478618 L839.48105,69.5610026" id="Fill-3" fill="#D3DCE9"></path>
            <path d="M823.516593,60.0040381 L839.895683,69.5602144 L839.895683,50.4470735 L823.515033,40.890109 L823.516593,60.0040381" id="Fill-1" fill="#DFE6F2"></path>
            <path d="M822.894123,19.6352494 L839.273993,10.0774966 L822.894903,0.520532053 L806.515033,10.0774966 L822.894123,19.6352494" id="Fill-5" fill="#EFF3FB"></path>
            <path d="M822.48105,38.5610026 L838.8617,29.0040381 L838.86092,9.890109 L822.48105,19.4478618 L822.48105,38.5610026" id="Fill-3" fill="#D3DCE9"></path>
            <path d="M806.516593,29.0040381 L822.895683,38.5602144 L822.895683,19.4470735 L806.515033,9.890109 L806.516593,29.0040381" id="Fill-1" fill="#DFE6F2"></path>
            <path d="M821.894123,80.6352494 L838.273993,71.0774966 L821.894903,61.5205321 L805.515033,71.0774966 L821.894123,80.6352494" id="Fill-5" fill="#EFF3FB"></path>
            <path d="M821.48105,99.5610026 L837.8617,90.0040381 L837.86092,70.890109 L821.48105,80.4478618 L821.48105,99.5610026" id="Fill-3" fill="#D3DCE9"></path>
            <path d="M805.516593,90.0040381 L821.895683,99.5602144 L821.895683,80.4470735 L805.515033,70.890109 L805.516593,90.0040381" id="Fill-1" fill="#DFE6F2"></path>
            <path d="M786.894123,19.6352494 L803.273993,10.0774966 L786.894903,0.520532053 L770.515033,10.0774966 L786.894123,19.6352494" id="Fill-5" fill="#EFF3FB"></path>
            <path d="M786.48105,38.5610026 L802.8617,29.0040381 L802.86092,9.890109 L786.48105,19.4478618 L786.48105,38.5610026" id="Fill-3" fill="#D3DCE9"></path>
            <path d="M770.516593,29.0040381 L786.895683,38.5602144 L786.895683,19.4470735 L770.515033,9.890109 L770.516593,29.0040381" id="Fill-1" fill="#DFE6F2"></path>
            <path d="M786.894123,80.6352494 L803.273993,71.0774966 L786.894903,61.5205321 L770.515033,71.0774966 L786.894123,80.6352494" id="Fill-5" fill="#EFF3FB"></path>
            <path d="M786.48105,99.5610026 L802.8617,90.0040381 L802.86092,70.890109 L786.48105,80.4478618 L786.48105,99.5610026" id="Fill-3" fill="#D3DCE9"></path>
            <path d="M770.516593,90.0040381 L786.895683,99.5602144 L786.895683,80.4470735 L770.515033,70.890109 L770.516593,90.0040381" id="Fill-1" fill="#DFE6F2"></path>
            <path d="M768.990722,50.5433008 L785.48223,40.9712679 L768.991507,31.4000244 L752.5,40.9712679 L768.990722,50.5433008" id="Fill-5" fill="#D69FF4"></path>
            <path d="M769,69.7137304 L785.492293,60.1424869 L785.491507,41 L769,50.5720329 L769,69.7137304" id="Fill-3" fill="#AB3FE6"></path>
            <path d="M752.520114,60.0473726 L769.010836,69.6178266 L769.010836,50.4761291 L752.518543,40.9048857 L752.520114,60.0473726" id="Fill-1" fill="#BF7EE3"></path>
        </g>
    </g>
</svg>