<?xml version="1.0" encoding="UTF-8" standalone="no"?>
<svg width="780px" height="262px" viewBox="0 0 780 262" version="1.1" xmlns="http://www.w3.org/2000/svg" xmlns:xlink="http://www.w3.org/1999/xlink">
    <!-- Generator: Sketch 3.6.1 (26313) - http://www.bohemiancoding.com/sketch -->
    <title>Group 27</title>
    <desc>Created with Sketch.</desc>
    <defs></defs>
    <g id="Page-1" stroke="none" stroke-width="1" fill="none" fill-rule="evenodd">
        <g id="Group-27">
            <rect id="Rectangle-26" fill="#FFFFFF" x="0" y="0" width="780" height="262"></rect>
            <g id="Group-26" transform="translate(499.000000, 61.000000)">
                <path d="M75.2796875,6.2421875 C75.2796875,7.8523518 74.752349,9.08632384 73.6976562,9.94414063 C72.6429635,10.8019574 71.1418066,11.2308594 69.1941406,11.2308594 L67.5910156,11.2308594 L67.5910156,17 L65.0703125,17 L65.0703125,1.58046875 L69.5105469,1.58046875 C71.437119,1.58046875 72.8802686,1.97421481 73.8400391,2.76171875 C74.7998095,3.54922269 75.2796875,4.70936734 75.2796875,6.2421875 L75.2796875,6.2421875 Z M67.5910156,9.1109375 L68.9304687,9.1109375 C70.2242252,9.1109375 71.1734345,8.88593975 71.778125,8.4359375 C72.3828155,7.98593525 72.6851562,7.28281728 72.6851562,6.3265625 C72.6851562,5.44062057 72.4144558,4.77968968 71.8730469,4.34375 C71.3316379,3.90781032 70.4878964,3.68984375 69.3417969,3.68984375 L67.5910156,3.68984375 L67.5910156,9.1109375 Z M80.5742187,17 L78.0957031,17 L78.0957031,5.33515625 L80.5742187,5.33515625 L80.5742187,17 Z M77.9480469,2.24492187 C77.9480469,1.80195091 78.0693347,1.4609387 78.3119141,1.221875 C78.5544934,0.982811305 78.900779,0.86328125 79.3507812,0.86328125 C79.7867209,0.86328125 80.1259753,0.982811305 80.3685547,1.221875 C80.611134,1.4609387 80.7324219,1.80195091 80.7324219,2.24492187 C80.7324219,2.66679898 80.611134,2.99902222 80.3685547,3.24160156 C80.1259753,3.4841809 79.7867209,3.60546875 79.3507812,3.60546875 C78.900779,3.60546875 78.5544934,3.4841809 78.3119141,3.24160156 C78.0693347,2.99902222 77.9480469,2.66679898 77.9480469,2.24492187 L77.9480469,2.24492187 Z M90.0347656,17.2109375 C88.5581957,17.2109375 87.4121135,16.6800834 86.5964844,15.6183594 L86.4488281,15.6183594 C86.5472661,16.6027393 86.5964844,17.2003896 86.5964844,17.4113281 L86.5964844,22.1890625 L84.1179687,22.1890625 L84.1179687,5.33515625 L86.121875,5.33515625 C86.1781253,5.55312609 86.2941397,6.07343339 86.4699219,6.89609375 L86.5964844,6.89609375 C87.3699257,5.71483784 88.5300704,5.12421875 90.0769531,5.12421875 C91.5324292,5.12421875 92.6662069,5.65155723 93.4783203,6.70625 C94.2904337,7.76094277 94.6964844,9.2410061 94.6964844,11.1464844 C94.6964844,13.0519627 94.2834026,14.5390572 93.4572266,15.6078125 C92.6310506,16.6765678 91.4902417,17.2109375 90.0347656,17.2109375 L90.0347656,17.2109375 Z M89.4335937,7.14921875 C88.4492138,7.14921875 87.7302757,7.43749712 87.2767578,8.0140625 C86.8232399,8.59062788 86.5964844,9.51171242 86.5964844,10.7773438 L86.5964844,11.1464844 C86.5964844,12.566804 86.8214821,13.595114 87.2714844,14.2314453 C87.7214866,14.8677766 88.4562449,15.1859375 89.4757812,15.1859375 C90.333598,15.1859375 90.9945289,14.8343785 91.4585937,14.13125 C91.9226586,13.4281215 92.1546875,12.4261784 92.1546875,11.1253906 C92.1546875,9.81757159 91.9244164,8.82793304 91.4638672,8.15644531 C91.003318,7.48495758 90.326567,7.14921875 89.4335937,7.14921875 L89.4335937,7.14921875 Z M102.669922,17.2109375 C100.85585,17.2109375 99.4373098,16.6818412 98.4142578,15.6236328 C97.3912058,14.5654244 96.8796875,13.1082124 96.8796875,11.2519531 C96.8796875,9.34647485 97.3542921,7.84883357 98.3035156,6.75898437 C99.2527391,5.66913518 100.557023,5.12421875 102.216406,5.12421875 C103.756258,5.12421875 104.972652,5.5917922 105.865625,6.52695312 C106.758598,7.46211405 107.205078,8.74881993 107.205078,10.3871094 L107.205078,11.7265625 L99.4320312,11.7265625 C99.4671877,12.8585994 99.773044,13.7287079 100.349609,14.3369141 C100.926175,14.9451202 101.738276,15.2492188 102.785937,15.2492188 C103.475003,15.2492188 104.116599,15.1841803 104.710742,15.0541016 C105.304886,14.9240228 105.942965,14.707814 106.625,14.4054688 L106.625,16.4199219 C106.020309,16.7082046 105.408597,16.9121088 104.789844,17.0316406 C104.171091,17.1511725 103.464457,17.2109375 102.669922,17.2109375 L102.669922,17.2109375 Z M102.216406,7.0015625 C101.428902,7.0015625 100.797854,7.25116938 100.323242,7.75039062 C99.8486304,8.24961187 99.5656255,8.97733897 99.4742187,9.93359375 L104.76875,9.93359375 C104.754687,8.97030768 104.522659,8.24082279 104.072656,7.74511719 C103.622654,7.24941158 103.00391,7.0015625 102.216406,7.0015625 L102.216406,7.0015625 Z M112.499609,17 L110.021094,17 L110.021094,0.5890625 L112.499609,0.5890625 L112.499609,17 Z M118.521875,17 L116.043359,17 L116.043359,5.33515625 L118.521875,5.33515625 L118.521875,17 Z M115.895703,2.24492187 C115.895703,1.80195091 116.016991,1.4609387 116.25957,1.221875 C116.50215,0.982811305 116.848435,0.86328125 117.298438,0.86328125 C117.734377,0.86328125 118.073632,0.982811305 118.316211,1.221875 C118.55879,1.4609387 118.680078,1.80195091 118.680078,2.24492187 C118.680078,2.66679898 118.55879,2.99902222 118.316211,3.24160156 C118.073632,3.4841809 117.734377,3.60546875 117.298438,3.60546875 C116.848435,3.60546875 116.50215,3.4841809 116.25957,3.24160156 C116.016991,2.99902222 115.895703,2.66679898 115.895703,2.24492187 L115.895703,2.24492187 Z M132.327734,17 L129.838672,17 L129.838672,9.828125 C129.838672,8.9281205 129.657619,8.25664284 129.295508,7.81367187 C128.933397,7.37070091 128.358598,7.14921875 127.571094,7.14921875 C126.523432,7.14921875 125.757034,7.45859066 125.271875,8.07734375 C124.786716,8.69609684 124.544141,9.73319585 124.544141,11.1886719 L124.544141,17 L122.065625,17 L122.065625,5.33515625 L124.00625,5.33515625 L124.354297,6.86445312 L124.480859,6.86445312 C124.832424,6.3089816 125.331637,5.88007964 125.978516,5.57773437 C126.625394,5.27538911 127.342574,5.12421875 128.130078,5.12421875 C130.92853,5.12421875 132.327734,6.54803264 132.327734,9.39570313 L132.327734,17 Z M140.870703,17.2109375 C139.056632,17.2109375 137.638091,16.6818412 136.615039,15.6236328 C135.591987,14.5654244 135.080469,13.1082124 135.080469,11.2519531 C135.080469,9.34647485 135.555073,7.84883357 136.504297,6.75898437 C137.45352,5.66913518 138.757804,5.12421875 140.417188,5.12421875 C141.957039,5.12421875 143.173433,5.5917922 144.066406,6.52695312 C144.959379,7.46211405 145.405859,8.74881993 145.405859,10.3871094 L145.405859,11.7265625 L137.632813,11.7265625 C137.667969,12.8585994 137.973825,13.7287079 138.550391,14.3369141 C139.126956,14.9451202 139.939057,15.2492188 140.986719,15.2492188 C141.675785,15.2492188 142.31738,15.1841803 142.911523,15.0541016 C143.505667,14.9240228 144.143747,14.707814 144.825781,14.4054688 L144.825781,16.4199219 C144.221091,16.7082046 143.609378,16.9121088 142.990625,17.0316406 C142.371872,17.1511725 141.665238,17.2109375 140.870703,17.2109375 L140.870703,17.2109375 Z M140.417188,7.0015625 C139.629684,7.0015625 138.998635,7.25116938 138.524023,7.75039062 C138.049412,8.24961187 137.766407,8.97733897 137.675,9.93359375 L142.969531,9.93359375 C142.955469,8.97030768 142.72344,8.24082279 142.273438,7.74511719 C141.823435,7.24941158 141.204691,7.0015625 140.417188,7.0015625 L140.417188,7.0015625 Z M156.058203,13.6777344 C156.058203,14.8168026 155.643364,15.6904266 154.813672,16.2986328 C153.98398,16.906839 152.795711,17.2109375 151.248828,17.2109375 C149.694914,17.2109375 148.44688,16.975393 147.504688,16.5042969 L147.504688,14.3632813 C148.875788,14.9960969 150.151947,15.3125 151.333203,15.3125 C152.858992,15.3125 153.621875,14.8519577 153.621875,13.9308594 C153.621875,13.6355454 153.537501,13.3894541 153.36875,13.1925781 C153.199999,12.9957021 152.922268,12.7917979 152.535547,12.5808594 C152.148826,12.3699208 151.610941,12.1308607 150.921875,11.8636719 C149.5789,11.3433568 148.67012,10.8230495 148.195508,10.3027344 C147.720896,9.78241927 147.483594,9.10742602 147.483594,8.27773437 C147.483594,7.27929188 147.886129,6.50410432 148.691211,5.95214844 C149.496293,5.40019255 150.591399,5.12421875 151.976563,5.12421875 C153.347663,5.12421875 154.644916,5.40195035 155.868359,5.95742187 L155.066797,7.82421875 C153.808197,7.30390365 152.750004,7.04375 151.892188,7.04375 C150.584368,7.04375 149.930469,7.41640252 149.930469,8.16171875 C149.930469,8.52734558 150.100975,8.83671748 150.441992,9.08984375 C150.78301,9.34297002 151.526557,9.69101341 152.672656,10.1339844 C153.635942,10.5066425 154.335545,10.8476547 154.771484,11.1570313 C155.207424,11.4664078 155.530858,11.8232402 155.741797,12.2275391 C155.952735,12.631838 156.058203,13.1152316 156.058203,13.6777344 L156.058203,13.6777344 Z" id="Pipelines" fill="#23B0E8"></path>
                <g id="Group-21" transform="translate(0.000000, 45.000000)">
                    <g id="Group-9-Copy-2" transform="translate(68.000000, 21.000000)" stroke="#B0B8C6" stroke-width="3" stroke-linecap="square">
                        <path d="M0.0288322447,1.5 L6.97439375,1.5" id="Line-Copy-2"></path>
                    </g>
                    <g id="Group-9-Copy-3" transform="translate(145.000000, 21.000000)" stroke="#B0B8C6" stroke-width="3" stroke-linecap="square">
                        <path d="M0.0288322447,1.5 L6.97439375,1.5" id="Line-Copy-2"></path>
                    </g>
                    <g id="Group-18">
                        <path d="M2,21.5 L2,21.5 C2,32.2713849 10.7262137,41 21.4922821,41 L46.5077179,41 C57.2651179,41 66,32.2653703 66,21.5 C66,10.7286151 57.2737863,2 46.5077179,2 L21.4922821,2 C10.7348821,2 2,10.7346297 2,21.5 L2,21.5 Z M0,21.5 C0,9.62587788 9.63449504,0 21.4922821,0 L46.5077179,0 C58.3775775,0 68,9.62326709 68,21.5 C68,33.3741221 58.365505,43 46.5077179,43 L21.4922821,43 C9.62242246,43 0,33.3767329 0,21.5 L0,21.5 Z" id="Rectangle-157-Copy-2" fill="#B0B8C6"></path>
                        <path d="M25.4806641,22.8089844 C25.4806641,23.8644584 25.0978554,24.687497 24.3322266,25.278125 C23.5665977,25.868753 22.5275456,26.1640625 21.2150391,26.1640625 C19.793157,26.1640625 18.6994179,25.9808612 17.9337891,25.6144531 L17.9337891,24.2691406 C18.425979,24.4769542 18.9619112,24.641015 19.5416016,24.7613281 C20.121292,24.8816412 20.695505,24.9417969 21.2642578,24.9417969 C22.19395,24.9417969 22.893943,24.7654315 23.3642578,24.4126953 C23.8345727,24.0599592 24.0697266,23.5691438 24.0697266,22.9402344 C24.0697266,22.5246073 23.986329,22.184181 23.8195312,21.9189453 C23.6527335,21.6537096 23.3738301,21.4089855 22.9828125,21.1847656 C22.5917949,20.9605458 21.9970743,20.7062514 21.1986328,20.421875 C20.0830022,20.0226543 19.2859399,19.5496121 18.8074219,19.0027344 C18.3289039,18.4558566 18.0896484,17.7421919 18.0896484,16.8617187 C18.0896484,15.9374954 18.4369106,15.2019559 19.1314453,14.6550781 C19.82598,14.1082004 20.7447208,13.8347656 21.8876953,13.8347656 C23.0798888,13.8347656 24.1763622,14.0535134 25.1771484,14.4910156 L24.7423828,15.7050781 C23.7525341,15.289451 22.7900437,15.0816406 21.8548828,15.0816406 C21.1165979,15.0816406 20.5396505,15.2402328 20.1240234,15.5574219 C19.7083964,15.874611 19.5005859,16.3148409 19.5005859,16.878125 C19.5005859,17.2937521 19.5771477,17.6341784 19.7302734,17.8994141 C19.8833992,18.1646498 20.1417951,18.4080067 20.5054687,18.6294922 C20.8691424,18.8509777 21.4255822,19.0957018 22.1748047,19.3636719 C23.4326235,19.8121116 24.2980445,20.2933568 24.7710937,20.8074219 C25.244143,21.3214869 25.4806641,21.9886678 25.4806641,22.8089844 L25.4806641,22.8089844 Z M30.6322266,25.0402344 C30.8728528,25.0402344 31.1052723,25.0224611 31.3294922,24.9869141 C31.5537121,24.951367 31.7314447,24.9144533 31.8626953,24.8761719 L31.8626953,25.9179687 C31.7150383,25.9890629 31.4976577,26.0478513 31.2105469,26.0943359 C30.9234361,26.1408205 30.6650402,26.1640625 30.4353516,26.1640625 C28.6962804,26.1640625 27.8267578,25.248056 27.8267578,23.4160156 L27.8267578,18.0675781 L26.5388672,18.0675781 L26.5388672,17.4113281 L27.8267578,16.8453125 L28.4009766,14.9257812 L29.1884766,14.9257812 L29.1884766,17.009375 L31.7970703,17.009375 L31.7970703,18.0675781 L29.1884766,18.0675781 L29.1884766,23.3585937 C29.1884766,23.9000027 29.3169909,24.3156236 29.5740234,24.6054687 C29.831056,24.8953139 30.1837868,25.0402344 30.6322266,25.0402344 L30.6322266,25.0402344 Z M37.4572266,26.1640625 C36.1283137,26.1640625 35.0796913,25.759379 34.3113281,24.95 C33.5429649,24.140621 33.1587891,23.0168041 33.1587891,21.5785156 C33.1587891,20.1292896 33.5156214,18.9781293 34.2292969,18.125 C34.9429723,17.2718707 35.9013612,16.8453125 37.1044922,16.8453125 C38.2310603,16.8453125 39.1224577,17.2158166 39.7787109,17.9568359 C40.4349642,18.6978553 40.7630859,19.6753846 40.7630859,20.8894531 L40.7630859,21.7507812 L34.5697266,21.7507812 C34.5970704,22.8062553 34.8636693,23.6074191 35.3695312,24.1542969 C35.8753932,24.7011746 36.5876907,24.9746094 37.5064453,24.9746094 C38.4744189,24.9746094 39.4314406,24.7722676 40.3775391,24.3675781 L40.3775391,25.5816406 C39.8962867,25.7894542 39.4410178,25.9384761 39.0117188,26.0287109 C38.5824197,26.1189458 38.0642608,26.1640625 37.4572266,26.1640625 L37.4572266,26.1640625 Z M37.0880859,17.9855469 C36.3662073,17.9855469 35.7906271,18.2207008 35.3613281,18.6910156 C34.9320291,19.1613305 34.6791019,19.8121052 34.6025391,20.6433594 L39.3029297,20.6433594 C39.3029297,19.7847613 39.1115254,19.1271507 38.7287109,18.6705078 C38.3458965,18.2138649 37.799027,17.9855469 37.0880859,17.9855469 L37.0880859,17.9855469 Z M47.2681641,26.1640625 C46.6830049,26.1640625 46.1484399,26.0560558 45.6644531,25.8400391 C45.1804663,25.6240224 44.7744157,25.2917991 44.4462891,24.8433594 L44.3478516,24.8433594 C44.4134769,25.368362 44.4462891,25.8660133 44.4462891,26.3363281 L44.4462891,30.0359375 L43.0845703,30.0359375 L43.0845703,17.009375 L44.1919922,17.009375 L44.3806641,18.2398437 L44.4462891,18.2398437 C44.7962908,17.7476538 45.2037086,17.3921886 45.6685547,17.1734375 C46.1334008,16.9546864 46.6665986,16.8453125 47.2681641,16.8453125 C48.4603575,16.8453125 49.3804655,17.2527303 50.0285156,18.0675781 C50.6765657,18.8824259 51.0005859,20.0253833 51.0005859,21.4964844 C51.0005859,22.9730543 50.671097,24.1201131 50.0121094,24.9376953 C49.3531217,25.7552775 48.4384824,26.1640625 47.2681641,26.1640625 L47.2681641,26.1640625 Z M47.0712891,18.0019531 C46.1525345,18.0019531 45.488088,18.2562475 45.0779297,18.7648437 C44.6677714,19.27344 44.4572266,20.0828069 44.4462891,21.1929687 L44.4462891,21.4964844 C44.4462891,22.7597719 44.6568338,23.6634738 45.0779297,24.2076172 C45.4990255,24.7517605 46.1744094,25.0238281 47.1041016,25.0238281 C47.8806679,25.0238281 48.4890603,24.7093781 48.9292969,24.0804687 C49.3695335,23.4515594 49.5896484,22.5847711 49.5896484,21.4800781 C49.5896484,20.3589788 49.3695335,19.4990264 48.9292969,18.9001953 C48.4890603,18.3013642 47.8697306,18.0019531 47.0712891,18.0019531 L47.0712891,18.0019531 Z" id="Step" fill="#23B0E8"></path>
                    </g>
                    <g id="Group-19" transform="translate(76.000000, 0.000000)">
                        <path d="M2,21.5 L2,21.5 C2,32.2713849 10.7262137,41 21.4922821,41 L46.5077179,41 C57.2651179,41 66,32.2653703 66,21.5 C66,10.7286151 57.2737863,2 46.5077179,2 L21.4922821,2 C10.7348821,2 2,10.7346297 2,21.5 L2,21.5 Z M0,21.5 C0,9.62587788 9.63449504,0 21.4922821,0 L46.5077179,0 C58.3775775,0 68,9.62326709 68,21.5 C68,33.3741221 58.365505,43 46.5077179,43 L21.4922821,43 C9.62242246,43 0,33.3767329 0,21.5 L0,21.5 Z" id="Rectangle-157-Copy-5" fill="#B0B8C6"></path>
                        <path d="M25.4806641,22.8089844 C25.4806641,23.8644584 25.0978554,24.687497 24.3322266,25.278125 C23.5665977,25.868753 22.5275456,26.1640625 21.2150391,26.1640625 C19.793157,26.1640625 18.6994179,25.9808612 17.9337891,25.6144531 L17.9337891,24.2691406 C18.425979,24.4769542 18.9619112,24.641015 19.5416016,24.7613281 C20.121292,24.8816412 20.695505,24.9417969 21.2642578,24.9417969 C22.19395,24.9417969 22.893943,24.7654315 23.3642578,24.4126953 C23.8345727,24.0599592 24.0697266,23.5691438 24.0697266,22.9402344 C24.0697266,22.5246073 23.986329,22.184181 23.8195312,21.9189453 C23.6527335,21.6537096 23.3738301,21.4089855 22.9828125,21.1847656 C22.5917949,20.9605458 21.9970743,20.7062514 21.1986328,20.421875 C20.0830022,20.0226543 19.2859399,19.5496121 18.8074219,19.0027344 C18.3289039,18.4558566 18.0896484,17.7421919 18.0896484,16.8617187 C18.0896484,15.9374954 18.4369106,15.2019559 19.1314453,14.6550781 C19.82598,14.1082004 20.7447208,13.8347656 21.8876953,13.8347656 C23.0798888,13.8347656 24.1763622,14.0535134 25.1771484,14.4910156 L24.7423828,15.7050781 C23.7525341,15.289451 22.7900437,15.0816406 21.8548828,15.0816406 C21.1165979,15.0816406 20.5396505,15.2402328 20.1240234,15.5574219 C19.7083964,15.874611 19.5005859,16.3148409 19.5005859,16.878125 C19.5005859,17.2937521 19.5771477,17.6341784 19.7302734,17.8994141 C19.8833992,18.1646498 20.1417951,18.4080067 20.5054687,18.6294922 C20.8691424,18.8509777 21.4255822,19.0957018 22.1748047,19.3636719 C23.4326235,19.8121116 24.2980445,20.2933568 24.7710937,20.8074219 C25.244143,21.3214869 25.4806641,21.9886678 25.4806641,22.8089844 L25.4806641,22.8089844 Z M30.6322266,25.0402344 C30.8728528,25.0402344 31.1052723,25.0224611 31.3294922,24.9869141 C31.5537121,24.951367 31.7314447,24.9144533 31.8626953,24.8761719 L31.8626953,25.9179687 C31.7150383,25.9890629 31.4976577,26.0478513 31.2105469,26.0943359 C30.9234361,26.1408205 30.6650402,26.1640625 30.4353516,26.1640625 C28.6962804,26.1640625 27.8267578,25.248056 27.8267578,23.4160156 L27.8267578,18.0675781 L26.5388672,18.0675781 L26.5388672,17.4113281 L27.8267578,16.8453125 L28.4009766,14.9257812 L29.1884766,14.9257812 L29.1884766,17.009375 L31.7970703,17.009375 L31.7970703,18.0675781 L29.1884766,18.0675781 L29.1884766,23.3585937 C29.1884766,23.9000027 29.3169909,24.3156236 29.5740234,24.6054687 C29.831056,24.8953139 30.1837868,25.0402344 30.6322266,25.0402344 L30.6322266,25.0402344 Z M37.4572266,26.1640625 C36.1283137,26.1640625 35.0796913,25.759379 34.3113281,24.95 C33.5429649,24.140621 33.1587891,23.0168041 33.1587891,21.5785156 C33.1587891,20.1292896 33.5156214,18.9781293 34.2292969,18.125 C34.9429723,17.2718707 35.9013612,16.8453125 37.1044922,16.8453125 C38.2310603,16.8453125 39.1224577,17.2158166 39.7787109,17.9568359 C40.4349642,18.6978553 40.7630859,19.6753846 40.7630859,20.8894531 L40.7630859,21.7507812 L34.5697266,21.7507812 C34.5970704,22.8062553 34.8636693,23.6074191 35.3695312,24.1542969 C35.8753932,24.7011746 36.5876907,24.9746094 37.5064453,24.9746094 C38.4744189,24.9746094 39.4314406,24.7722676 40.3775391,24.3675781 L40.3775391,25.5816406 C39.8962867,25.7894542 39.4410178,25.9384761 39.0117188,26.0287109 C38.5824197,26.1189458 38.0642608,26.1640625 37.4572266,26.1640625 L37.4572266,26.1640625 Z M37.0880859,17.9855469 C36.3662073,17.9855469 35.7906271,18.2207008 35.3613281,18.6910156 C34.9320291,19.1613305 34.6791019,19.8121052 34.6025391,20.6433594 L39.3029297,20.6433594 C39.3029297,19.7847613 39.1115254,19.1271507 38.7287109,18.6705078 C38.3458965,18.2138649 37.799027,17.9855469 37.0880859,17.9855469 L37.0880859,17.9855469 Z M47.2681641,26.1640625 C46.6830049,26.1640625 46.1484399,26.0560558 45.6644531,25.8400391 C45.1804663,25.6240224 44.7744157,25.2917991 44.4462891,24.8433594 L44.3478516,24.8433594 C44.4134769,25.368362 44.4462891,25.8660133 44.4462891,26.3363281 L44.4462891,30.0359375 L43.0845703,30.0359375 L43.0845703,17.009375 L44.1919922,17.009375 L44.3806641,18.2398437 L44.4462891,18.2398437 C44.7962908,17.7476538 45.2037086,17.3921886 45.6685547,17.1734375 C46.1334008,16.9546864 46.6665986,16.8453125 47.2681641,16.8453125 C48.4603575,16.8453125 49.3804655,17.2527303 50.0285156,18.0675781 C50.6765657,18.8824259 51.0005859,20.0253833 51.0005859,21.4964844 C51.0005859,22.9730543 50.671097,24.1201131 50.0121094,24.9376953 C49.3531217,25.7552775 48.4384824,26.1640625 47.2681641,26.1640625 L47.2681641,26.1640625 Z M47.0712891,18.0019531 C46.1525345,18.0019531 45.488088,18.2562475 45.0779297,18.7648437 C44.6677714,19.27344 44.4572266,20.0828069 44.4462891,21.1929687 L44.4462891,21.4964844 C44.4462891,22.7597719 44.6568338,23.6634738 45.0779297,24.2076172 C45.4990255,24.7517605 46.1744094,25.0238281 47.1041016,25.0238281 C47.8806679,25.0238281 48.4890603,24.7093781 48.9292969,24.0804687 C49.3695335,23.4515594 49.5896484,22.5847711 49.5896484,21.4800781 C49.5896484,20.3589788 49.3695335,19.4990264 48.9292969,18.9001953 C48.4890603,18.3013642 47.8697306,18.0019531 47.0712891,18.0019531 L47.0712891,18.0019531 Z" id="Step-Copy" fill="#23B0E8"></path>
                    </g>
                    <g id="Group-20" transform="translate(152.000000, 0.000000)">
                        <path d="M2,21.5 L2,21.5 C2,32.2713849 10.7262137,41 21.4922821,41 L46.5077179,41 C57.2651179,41 66,32.2653703 66,21.5 C66,10.7286151 57.2737863,2 46.5077179,2 L21.4922821,2 C10.7348821,2 2,10.7346297 2,21.5 L2,21.5 Z M0,21.5 C0,9.62587788 9.63449504,0 21.4922821,0 L46.5077179,0 C58.3775775,0 68,9.62326709 68,21.5 C68,33.3741221 58.365505,43 46.5077179,43 L21.4922821,43 C9.62242246,43 0,33.3767329 0,21.5 L0,21.5 Z" id="Rectangle-157-Copy-6" fill="#B0B8C6"></path>
                        <path d="M25.4806641,22.8089844 C25.4806641,23.8644584 25.0978554,24.687497 24.3322266,25.278125 C23.5665977,25.868753 22.5275456,26.1640625 21.2150391,26.1640625 C19.793157,26.1640625 18.6994179,25.9808612 17.9337891,25.6144531 L17.9337891,24.2691406 C18.425979,24.4769542 18.9619112,24.641015 19.5416016,24.7613281 C20.121292,24.8816412 20.695505,24.9417969 21.2642578,24.9417969 C22.19395,24.9417969 22.893943,24.7654315 23.3642578,24.4126953 C23.8345727,24.0599592 24.0697266,23.5691438 24.0697266,22.9402344 C24.0697266,22.5246073 23.986329,22.184181 23.8195312,21.9189453 C23.6527335,21.6537096 23.3738301,21.4089855 22.9828125,21.1847656 C22.5917949,20.9605458 21.9970743,20.7062514 21.1986328,20.421875 C20.0830022,20.0226543 19.2859399,19.5496121 18.8074219,19.0027344 C18.3289039,18.4558566 18.0896484,17.7421919 18.0896484,16.8617187 C18.0896484,15.9374954 18.4369106,15.2019559 19.1314453,14.6550781 C19.82598,14.1082004 20.7447208,13.8347656 21.8876953,13.8347656 C23.0798888,13.8347656 24.1763622,14.0535134 25.1771484,14.4910156 L24.7423828,15.7050781 C23.7525341,15.289451 22.7900437,15.0816406 21.8548828,15.0816406 C21.1165979,15.0816406 20.5396505,15.2402328 20.1240234,15.5574219 C19.7083964,15.874611 19.5005859,16.3148409 19.5005859,16.878125 C19.5005859,17.2937521 19.5771477,17.6341784 19.7302734,17.8994141 C19.8833992,18.1646498 20.1417951,18.4080067 20.5054687,18.6294922 C20.8691424,18.8509777 21.4255822,19.0957018 22.1748047,19.3636719 C23.4326235,19.8121116 24.2980445,20.2933568 24.7710937,20.8074219 C25.244143,21.3214869 25.4806641,21.9886678 25.4806641,22.8089844 L25.4806641,22.8089844 Z M30.6322266,25.0402344 C30.8728528,25.0402344 31.1052723,25.0224611 31.3294922,24.9869141 C31.5537121,24.951367 31.7314447,24.9144533 31.8626953,24.8761719 L31.8626953,25.9179687 C31.7150383,25.9890629 31.4976577,26.0478513 31.2105469,26.0943359 C30.9234361,26.1408205 30.6650402,26.1640625 30.4353516,26.1640625 C28.6962804,26.1640625 27.8267578,25.248056 27.8267578,23.4160156 L27.8267578,18.0675781 L26.5388672,18.0675781 L26.5388672,17.4113281 L27.8267578,16.8453125 L28.4009766,14.9257812 L29.1884766,14.9257812 L29.1884766,17.009375 L31.7970703,17.009375 L31.7970703,18.0675781 L29.1884766,18.0675781 L29.1884766,23.3585937 C29.1884766,23.9000027 29.3169909,24.3156236 29.5740234,24.6054687 C29.831056,24.8953139 30.1837868,25.0402344 30.6322266,25.0402344 L30.6322266,25.0402344 Z M37.4572266,26.1640625 C36.1283137,26.1640625 35.0796913,25.759379 34.3113281,24.95 C33.5429649,24.140621 33.1587891,23.0168041 33.1587891,21.5785156 C33.1587891,20.1292896 33.5156214,18.9781293 34.2292969,18.125 C34.9429723,17.2718707 35.9013612,16.8453125 37.1044922,16.8453125 C38.2310603,16.8453125 39.1224577,17.2158166 39.7787109,17.9568359 C40.4349642,18.6978553 40.7630859,19.6753846 40.7630859,20.8894531 L40.7630859,21.7507812 L34.5697266,21.7507812 C34.5970704,22.8062553 34.8636693,23.6074191 35.3695312,24.1542969 C35.8753932,24.7011746 36.5876907,24.9746094 37.5064453,24.9746094 C38.4744189,24.9746094 39.4314406,24.7722676 40.3775391,24.3675781 L40.3775391,25.5816406 C39.8962867,25.7894542 39.4410178,25.9384761 39.0117188,26.0287109 C38.5824197,26.1189458 38.0642608,26.1640625 37.4572266,26.1640625 L37.4572266,26.1640625 Z M37.0880859,17.9855469 C36.3662073,17.9855469 35.7906271,18.2207008 35.3613281,18.6910156 C34.9320291,19.1613305 34.6791019,19.8121052 34.6025391,20.6433594 L39.3029297,20.6433594 C39.3029297,19.7847613 39.1115254,19.1271507 38.7287109,18.6705078 C38.3458965,18.2138649 37.799027,17.9855469 37.0880859,17.9855469 L37.0880859,17.9855469 Z M47.2681641,26.1640625 C46.6830049,26.1640625 46.1484399,26.0560558 45.6644531,25.8400391 C45.1804663,25.6240224 44.7744157,25.2917991 44.4462891,24.8433594 L44.3478516,24.8433594 C44.4134769,25.368362 44.4462891,25.8660133 44.4462891,26.3363281 L44.4462891,30.0359375 L43.0845703,30.0359375 L43.0845703,17.009375 L44.1919922,17.009375 L44.3806641,18.2398437 L44.4462891,18.2398437 C44.7962908,17.7476538 45.2037086,17.3921886 45.6685547,17.1734375 C46.1334008,16.9546864 46.6665986,16.8453125 47.2681641,16.8453125 C48.4603575,16.8453125 49.3804655,17.2527303 50.0285156,18.0675781 C50.6765657,18.8824259 51.0005859,20.0253833 51.0005859,21.4964844 C51.0005859,22.9730543 50.671097,24.1201131 50.0121094,24.9376953 C49.3531217,25.7552775 48.4384824,26.1640625 47.2681641,26.1640625 L47.2681641,26.1640625 Z M47.0712891,18.0019531 C46.1525345,18.0019531 45.488088,18.2562475 45.0779297,18.7648437 C44.6677714,19.27344 44.4572266,20.0828069 44.4462891,21.1929687 L44.4462891,21.4964844 C44.4462891,22.7597719 44.6568338,23.6634738 45.0779297,24.2076172 C45.4990255,24.7517605 46.1744094,25.0238281 47.1041016,25.0238281 C47.8806679,25.0238281 48.4890603,24.7093781 48.9292969,24.0804687 C49.3695335,23.4515594 49.5896484,22.5847711 49.5896484,21.4800781 C49.5896484,20.3589788 49.3695335,19.4990264 48.9292969,18.9001953 C48.4890603,18.3013642 47.8697306,18.0019531 47.0712891,18.0019531 L47.0712891,18.0019531 Z" id="Step-Copy-2" fill="#23B0E8"></path>
                    </g>
                </g>
                <g id="Group-16" transform="translate(56.000000, 114.000000)">
                    <g id="Group-7" transform="translate(0.000000, 3.000000)">
                        <rect id="Rectangle-path" fill="#B0B8C6" x="6.72463768" y="8" width="16.1391304" height="1.33333333"></rect>
                        <rect id="Rectangle-path" fill="#B0B8C6" x="6.72463768" y="12" width="6.72463768" height="1.33333333"></rect>
                        <rect id="Rectangle-path" fill="#B0B8C6" x="14.7942029" y="12" width="5.37971014" height="1.33333333"></rect>
                        <rect id="Rectangle-path" fill="#B0B8C6" x="9.41449275" y="16" width="10.7594203" height="1.33333333"></rect>
                        <rect id="Rectangle-path" fill="#B0B8C6" x="9.41449275" y="24" width="8.06956522" height="1.33333333"></rect>
                        <rect id="Rectangle-path" fill="#B0B8C6" x="6.72463768" y="20" width="4.03478261" height="1.33333333"></rect>
                        <path d="M9.41423839,31.6666667 L7.48080704,31.6666667 L6.92989285,31.6666667 L4.70695172,31.6666667 C2.10723358,31.6666667 -0.000141253704,29.5889283 0,26.9941409 L0.00121512589,4.67252572 C0.00135560492,2.09196103 2.11257529,0 4.69998836,0 L9.41596224,0" id="Shape" stroke="#B0B8C6" stroke-width="1.5"></path>
                        <path d="M29.5881515,31.6666667 L24.8725072,31.6666667 L24.8725072,31.6666667 C22.2774049,31.6666667 20.1737718,29.5889283 20.173913,26.9941409 L20.1751282,4.67252572 C20.1752686,2.09196103 22.2852274,7.83047101e-15 24.8838678,3.09351941e-15 C24.8838678,3.09351941e-15 26.4458926,-6.38038379e-15 24.8739014,7.83047101e-15 C23.3019101,3.62521803e-14 28.017884,7.83047101e-15 29.5898753,7.83047101e-15" id="Shape" stroke="#B0B8C6" stroke-width="1.5" transform="translate(24.881894, 15.833333) scale(-1, 1) translate(-24.881894, -15.833333) "></path>
                    </g>
                    <text id="Defined-in" font-family="OpenSans-Italic, Open Sans" font-size="13" font-style="italic" font-weight="normal" fill="#9B9B9B">
                        <tspan x="40" y="14">Defined in</tspan>
                        <tspan x="40" y="32">wercker.yml</tspan>
                    </text>
                </g>
            </g>
            <g id="Group-25" transform="translate(20.000000, 61.000000)">
                <path d="M105.458594,17 L102.927344,17 L102.927344,10.0496094 L95.81875,10.0496094 L95.81875,17 L93.2980469,17 L93.2980469,1.58046875 L95.81875,1.58046875 L95.81875,7.8875 L102.927344,7.8875 L102.927344,1.58046875 L105.458594,1.58046875 L105.458594,17 Z M119.601953,11.1464844 C119.601953,13.0519627 119.113286,14.5390572 118.135937,15.6078125 C117.158589,16.6765678 115.798056,17.2109375 114.054297,17.2109375 C112.964448,17.2109375 112.001176,16.9648462 111.164453,16.4726563 C110.32773,15.9804663 109.684377,15.2738327 109.234375,14.3527344 C108.784373,13.431636 108.559375,12.3628967 108.559375,11.1464844 C108.559375,9.25506867 109.044526,7.77852093 110.014844,6.71679687 C110.985161,5.65507282 112.352726,5.12421875 114.117578,5.12421875 C115.805087,5.12421875 117.141011,5.66737738 118.125391,6.75371094 C119.109771,7.84004449 119.601953,9.30428766 119.601953,11.1464844 L119.601953,11.1464844 Z M111.111719,11.1464844 C111.111719,13.8394666 112.106631,15.1859375 114.096484,15.1859375 C116.065244,15.1859375 117.049609,13.8394666 117.049609,11.1464844 C117.049609,8.4816273 116.058213,7.14921875 114.075391,7.14921875 C113.03476,7.14921875 112.280666,7.49374655 111.813086,8.1828125 C111.345505,8.87187845 111.111719,9.85975919 111.111719,11.1464844 L111.111719,11.1464844 Z M132.796094,11.1464844 C132.796094,13.0519627 132.307427,14.5390572 131.330078,15.6078125 C130.352729,16.6765678 128.992196,17.2109375 127.248437,17.2109375 C126.158588,17.2109375 125.195317,16.9648462 124.358594,16.4726563 C123.521871,15.9804663 122.878518,15.2738327 122.428516,14.3527344 C121.978513,13.431636 121.753516,12.3628967 121.753516,11.1464844 C121.753516,9.25506867 122.238667,7.77852093 123.208984,6.71679687 C124.179302,5.65507282 125.546866,5.12421875 127.311719,5.12421875 C128.999227,5.12421875 130.335151,5.66737738 131.319531,6.75371094 C132.303911,7.84004449 132.796094,9.30428766 132.796094,11.1464844 L132.796094,11.1464844 Z M124.305859,11.1464844 C124.305859,13.8394666 125.300771,15.1859375 127.290625,15.1859375 C129.259385,15.1859375 130.24375,13.8394666 130.24375,11.1464844 C130.24375,8.4816273 129.252354,7.14921875 127.269531,7.14921875 C126.228901,7.14921875 125.474807,7.49374655 125.007227,8.1828125 C124.539646,8.87187845 124.305859,9.85975919 124.305859,11.1464844 L124.305859,11.1464844 Z M138.037891,10.840625 L139.440625,9.08984375 L142.963281,5.33515625 L145.821484,5.33515625 L141.128125,10.3449219 L146.116797,17 L143.205859,17 L139.461719,11.8847656 L138.101172,13.0027344 L138.101172,17 L135.64375,17 L135.64375,0.5890625 L138.101172,0.5890625 L138.101172,8.59414063 L137.974609,10.840625 L138.037891,10.840625 Z M155.830469,13.6777344 C155.830469,14.8168026 155.415629,15.6904266 154.585938,16.2986328 C153.756246,16.906839 152.567976,17.2109375 151.021094,17.2109375 C149.46718,17.2109375 148.219145,16.975393 147.276953,16.5042969 L147.276953,14.3632813 C148.648054,14.9960969 149.924213,15.3125 151.105469,15.3125 C152.631258,15.3125 153.394141,14.8519577 153.394141,13.9308594 C153.394141,13.6355454 153.309766,13.3894541 153.141016,13.1925781 C152.972265,12.9957021 152.694533,12.7917979 152.307813,12.5808594 C151.921092,12.3699208 151.383207,12.1308607 150.694141,11.8636719 C149.351165,11.3433568 148.442385,10.8230495 147.967773,10.3027344 C147.493162,9.78241927 147.255859,9.10742602 147.255859,8.27773437 C147.255859,7.27929188 147.658394,6.50410432 148.463477,5.95214844 C149.268559,5.40019255 150.363665,5.12421875 151.748828,5.12421875 C153.119929,5.12421875 154.417181,5.40195035 155.640625,5.95742187 L154.839063,7.82421875 C153.580462,7.30390365 152.52227,7.04375 151.664453,7.04375 C150.356634,7.04375 149.702734,7.41640252 149.702734,8.16171875 C149.702734,8.52734558 149.87324,8.83671748 150.214258,9.08984375 C150.555275,9.34297002 151.298822,9.69101341 152.444922,10.1339844 C153.408208,10.5066425 154.10781,10.8476547 154.54375,11.1570313 C154.97969,11.4664078 155.303124,11.8232402 155.514063,12.2275391 C155.725001,12.631838 155.830469,13.1152316 155.830469,13.6777344 L155.830469,13.6777344 Z" id="Hooks" fill="#23B0E8"></path>
                <path d="M51.6673732,32.4864686 C53.3244217,32.8351337 54.579438,33.1004126 54.6650477,33.1222042 L46.9339336,37.524323 L43,30.6685405 C43,30.6685405 43.7948363,30.8349792 44.9691349,31.0809126 C60.8989923,5.02197932 85.0171419,8.1137134 85.0171419,8.1137134 C57.6780653,9.59576227 52.5793947,27.2641642 51.6673732,32.4864686 Z" id="Fill-1-Copy-3" fill="#B0B8C6"></path>
                <path d="M168.667373,31.4864686 C170.324422,31.8351337 171.579438,32.1004126 171.665048,32.1222042 L163.933934,36.524323 L160,29.6685405 C160,29.6685405 160.794836,29.8349792 161.969135,30.0809126 C177.898992,4.02197932 202.017142,7.1137134 202.017142,7.1137134 C174.678065,8.59576227 169.579395,26.2641642 168.667373,31.4864686 Z" id="Fill-1-Copy-4" fill="#B0B8C6" transform="translate(181.008571, 21.762161) scale(-1, 1) translate(-181.008571, -21.762161) "></path>
                <g id="Group-24" transform="translate(0.000000, 41.000000)">
                    <g id="Group-22" transform="translate(0.000000, 2.000000)">
                        <path d="M2,21.5 L2,21.5 C2,32.2713867 10.726177,41 21.492196,41 L85.507804,41 C96.2711363,41 105,32.2687328 105,21.5 C105,10.7286133 96.273823,2 85.507804,2 L21.492196,2 C10.7288637,2 2,10.7312672 2,21.5 L2,21.5 Z M0,21.5 C0,9.62587788 9.62511369,0 21.492196,0 L85.507804,0 C97.3776161,0 107,9.62326709 107,21.5 C107,33.3741221 97.3748863,43 85.507804,43 L21.492196,43 C9.62238391,43 0,33.3767329 0,21.5 L0,21.5 Z" id="Rectangle-157-Copy-3" fill="#B0B8C6"></path>
                        <g id="Group-33" transform="translate(30.000000, 12.000000)">
                            <path d="M31.2179687,8.71640625 L35.2949219,8.71640625 L35.2949219,14.5488281 C34.6605437,14.7511729 34.0152377,14.9042964 33.3589844,15.0082031 C32.7027311,15.1121099 31.9425824,15.1640625 31.0785156,15.1640625 C29.2628815,15.1640625 27.8492238,14.6240288 26.8375,13.5439453 C25.8257762,12.4638618 25.3199219,10.9504004 25.3199219,9.00351562 C25.3199219,7.75663439 25.5701147,6.6642625 26.0705078,5.72636719 C26.5709009,4.78847187 27.2914015,4.07207279 28.2320312,3.57714844 C29.172661,3.08222409 30.2746031,2.83476562 31.5378906,2.83476562 C32.8175845,2.83476562 34.0097601,3.06991952 35.1144531,3.54023437 L34.5730469,4.77070312 C33.490229,4.31132583 32.4484425,4.08164062 31.4476562,4.08164062 C29.9874927,4.08164062 28.8472697,4.5164019 28.0269531,5.3859375 C27.2066365,6.2554731 26.7964844,7.46132041 26.7964844,9.00351562 C26.7964844,10.6222737 27.1915976,11.8499958 27.9818359,12.6867187 C28.7720743,13.5234417 29.9328048,13.9417969 31.4640625,13.9417969 C32.2953167,13.9417969 33.1074179,13.8460947 33.9003906,13.6546875 L33.9003906,9.96328125 L31.2179687,9.96328125 L31.2179687,8.71640625 Z M39.3308594,15 L37.9691406,15 L37.9691406,6.009375 L39.3308594,6.009375 L39.3308594,15 Z M37.8542969,3.57304687 C37.8542969,3.26132657 37.9308586,3.03300854 38.0839844,2.88808594 C38.2371101,2.74316334 38.4285145,2.67070312 38.6582031,2.67070312 C38.8769542,2.67070312 39.0656242,2.74453051 39.2242188,2.8921875 C39.3828133,3.03984449 39.4621094,3.26679534 39.4621094,3.57304687 C39.4621094,3.87929841 39.3828133,4.10761644 39.2242188,4.25800781 C39.0656242,4.40839919 38.8769542,4.48359375 38.6582031,4.48359375 C38.4285145,4.48359375 38.2371101,4.40839919 38.0839844,4.25800781 C37.9308586,4.10761644 37.8542969,3.87929841 37.8542969,3.57304687 L37.8542969,3.57304687 Z M45.1222656,14.0402344 C45.3628918,14.0402344 45.5953114,14.0224611 45.8195313,13.9869141 C46.0437511,13.951367 46.2214837,13.9144533 46.3527344,13.8761719 L46.3527344,14.9179687 C46.2050774,14.9890629 45.9876967,15.0478513 45.7005859,15.0943359 C45.4134751,15.1408205 45.1550793,15.1640625 44.9253906,15.1640625 C43.1863194,15.1640625 42.3167969,14.248056 42.3167969,12.4160156 L42.3167969,7.06757812 L41.0289063,7.06757812 L41.0289063,6.41132812 L42.3167969,5.8453125 L42.8910156,3.92578125 L43.6785156,3.92578125 L43.6785156,6.009375 L46.2871094,6.009375 L46.2871094,7.06757812 L43.6785156,7.06757812 L43.6785156,12.3585937 C43.6785156,12.9000027 43.80703,13.3156236 44.0640625,13.6054687 C44.321095,13.8953139 44.6738259,14.0402344 45.1222656,14.0402344 L45.1222656,14.0402344 Z" id="Git" fill="#23B0E8"></path>
                            <g id="git" fill="#B0B8C6">
                                <path d="M19.6226996,10.8907672 L10.8905504,19.6227407 C10.3878965,20.1257531 9.57227539,20.1257531 9.06894688,19.6227407 L7.25585313,17.8092844 L9.55586407,15.5091421 C10.0904918,15.6896469 10.7034969,15.5684969 11.1294492,15.14245 C11.5579695,14.7137469 11.6780066,14.0954625 11.4929121,13.5589735 L13.7098656,11.3422375 C14.2463433,11.5271609 14.8648769,11.4076219 15.2933976,10.9785047 C15.8919512,10.3801141 15.8919512,9.41006875 15.2933976,8.81117812 C14.6944093,8.21226407 13.7245793,8.21226407 13.1253297,8.81117812 C12.6751523,9.2618 12.5637781,9.92335469 12.7920555,10.4780609 L10.7243266,12.5456578 L10.7243266,7.10483281 C10.870134,7.03256875 11.0078668,6.93632031 11.1294492,6.81508437 C11.728002,6.21658437 11.728002,5.24664844 11.1294492,4.64723437 C10.5308961,4.04892969 9.56036953,4.04892969 8.96225196,4.64723437 C8.36369883,5.24664844 8.36369883,6.21658437 8.96225196,6.81508437 C9.11019219,6.96285312 9.28150937,7.07464375 9.46429648,7.149475 L9.46429648,12.6406219 C9.28150937,12.7154531 9.11060587,12.8263078 8.96225196,12.9751 C8.50891875,13.4282907 8.39982969,14.093764 8.63237305,14.6505812 L6.36483633,16.9184907 L0.377177371,10.9312297 C-0.12572579,10.4278047 -0.12572579,9.61216719 0.377177371,9.10917656 L9.10975703,0.377184375 C9.61249805,-0.125728125 10.4278578,-0.125728125 10.9313605,0.377184375 L19.6226996,9.06871407 C20.1257668,9.57179063 20.1257668,10.3878422 19.6226996,10.8907672" id="Shape"></path>
                            </g>
                        </g>
                    </g>
                    <g id="Group-23" transform="translate(122.000000, 0.000000)">
                        <path d="M2,23 L2,23 C2,34.59976 11.4012491,44 23.0005397,44 L116.99946,44 C128.599774,44 138,34.5991025 138,23 C138,11.40024 128.598751,2 116.99946,2 L23.0005397,2 C11.4002265,2 2,11.4008975 2,23 L2,23 Z M0,23 C0,10.2974508 10.2945343,0 23.0005397,0 L116.99946,0 C129.702308,0 140,10.2946578 140,23 C140,35.7025492 129.705466,46 116.99946,46 L23.0005397,46 C10.2976924,46 0,35.7053422 0,23 L0,23 Z" id="Rectangle-157-Copy-4" fill="#B0B8C6"></path>
                        <g id="Group-32" transform="translate(20.000000, 14.000000)">
                            <path d="M37.4437628,15 L36.0656378,15 L33.645716,6.96914062 C33.5308716,6.6136701 33.4023573,6.16523708 33.2601691,5.62382812 C33.1179809,5.08241917 33.0441535,4.7570318 33.0386847,4.64765625 C32.9183716,5.36953486 32.7269673,6.15976133 32.464466,7.01835937 L30.1183722,15 L28.7402472,15 L25.5492316,3.00703125 L27.0257941,3.00703125 L28.920716,10.4144531 C29.1832173,11.4535208 29.3746216,12.3941364 29.4949347,13.2363281 C29.6425917,12.2355419 29.8613395,11.2566454 30.1511847,10.2996094 L32.3004035,3.00703125 L33.776966,3.00703125 L36.0328253,10.3652344 C36.2953266,11.2128949 36.5168088,12.1699165 36.6972785,13.2363281 C36.8011852,12.4597617 36.9980583,11.5136775 37.2879035,10.3980469 L39.1746222,3.00703125 L40.6511847,3.00703125 L37.4437628,15 Z M49.7484503,10.4964844 C49.7484503,11.9621167 49.3793134,13.1064412 48.6410285,13.9294922 C47.9027435,14.7525432 46.8828318,15.1640625 45.5812628,15.1640625 C44.7773526,15.1640625 44.0636878,14.9753925 43.4402472,14.5980469 C42.8168066,14.2207012 42.3355614,13.6793004 41.9964972,12.9738281 C41.657433,12.2683558 41.4879035,11.4425829 41.4879035,10.4964844 C41.4879035,9.03085205 41.854306,7.8892619 42.5871222,7.07167969 C43.3199384,6.25409747 44.3371157,5.8453125 45.6386847,5.8453125 C46.8965035,5.8453125 47.8959076,6.26366769 48.6369269,7.10039062 C49.3779462,7.93711356 49.7484503,9.06913349 49.7484503,10.4964844 L49.7484503,10.4964844 Z M42.898841,10.4964844 C42.898841,11.6449276 43.1285262,12.5199189 43.5879035,13.1214844 C44.0472808,13.7230499 44.7226646,14.0238281 45.6140753,14.0238281 C46.505486,14.0238281 47.1822371,13.7244171 47.6443488,13.1255859 C48.1064605,12.5267548 48.3375128,11.6503964 48.3375128,10.4964844 C48.3375128,9.35350991 48.1064605,8.48535453 47.6443488,7.89199219 C47.1822371,7.29862985 46.5000173,7.00195312 45.5976691,7.00195312 C44.7062584,7.00195312 44.0336089,7.29452832 43.5797003,7.8796875 C43.1257918,8.46484668 42.898841,9.33710358 42.898841,10.4964844 L42.898841,10.4964844 Z M56.2371222,5.8453125 C56.636343,5.8453125 56.9945425,5.87812467 57.3117316,5.94375 L57.1230597,7.20703125 C56.7511829,7.12499959 56.4230611,7.08398437 56.1386847,7.08398437 C55.4113373,7.08398437 54.7892732,7.37929392 54.2724738,7.96992187 C53.7556743,8.56054983 53.4972785,9.29608935 53.4972785,10.1765625 L53.4972785,15 L52.1355597,15 L52.1355597,6.009375 L53.2593878,6.009375 L53.4152472,7.67460937 L53.4808722,7.67460937 C53.8144676,7.0894502 54.2164167,6.63828284 54.6867316,6.32109375 C55.1570464,6.00390466 55.6738381,5.8453125 56.2371222,5.8453125 L56.2371222,5.8453125 Z M60.3386847,10.3980469 C60.5738421,10.0644515 60.9320417,9.62695583 61.4132941,9.08554687 L64.3172003,6.009375 L65.933216,6.009375 L62.2910285,9.84023437 L66.1875128,15 L64.5386847,15 L61.3640753,10.7507812 L60.3386847,11.6367187 L60.3386847,15 L58.9933722,15 L58.9933722,2.2359375 L60.3386847,2.2359375 L60.3386847,9.00351562 C60.3386847,9.30429838 60.3168099,9.76913748 60.2730597,10.3980469 L60.3386847,10.3980469 Z M71.8640753,7.06757812 L69.5754035,7.06757812 L69.5754035,15 L68.2136847,15 L68.2136847,7.06757812 L66.6058722,7.06757812 L66.6058722,6.45234375 L68.2136847,5.96015625 L68.2136847,5.45976562 C68.2136847,3.25037958 69.1789094,2.14570312 71.1093878,2.14570312 C71.5851715,2.14570312 72.1429784,2.24140529 72.7828253,2.4328125 L72.430091,3.52382812 C71.9050883,3.35429603 71.4566553,3.26953125 71.0847785,3.26953125 C70.5707134,3.26953125 70.1906391,3.44042798 69.9445441,3.78222656 C69.6984491,4.12402515 69.5754035,4.67226185 69.5754035,5.42695312 L69.5754035,6.009375 L71.8640753,6.009375 L71.8640753,7.06757812 Z M74.8664191,15 L73.5047003,15 L73.5047003,2.2359375 L74.8664191,2.2359375 L74.8664191,15 Z M85.5140753,10.4964844 C85.5140753,11.9621167 85.1449384,13.1064412 84.4066535,13.9294922 C83.6683685,14.7525432 82.6484568,15.1640625 81.3468878,15.1640625 C80.5429776,15.1640625 79.8293128,14.9753925 79.2058722,14.5980469 C78.5824316,14.2207012 78.1011864,13.6793004 77.7621222,12.9738281 C77.423058,12.2683558 77.2535285,11.4425829 77.2535285,10.4964844 C77.2535285,9.03085205 77.619931,7.8892619 78.3527472,7.07167969 C79.0855634,6.25409747 80.1027407,5.8453125 81.4043097,5.8453125 C82.6621285,5.8453125 83.6615326,6.26366769 84.4025519,7.10039062 C85.1435712,7.93711356 85.5140753,9.06913349 85.5140753,10.4964844 L85.5140753,10.4964844 Z M78.664466,10.4964844 C78.664466,11.6449276 78.8941512,12.5199189 79.3535285,13.1214844 C79.8129058,13.7230499 80.4882896,14.0238281 81.3797003,14.0238281 C82.271111,14.0238281 82.9478621,13.7244171 83.4099738,13.1255859 C83.8720855,12.5267548 84.1031378,11.6503964 84.1031378,10.4964844 C84.1031378,9.35350991 83.8720855,8.48535453 83.4099738,7.89199219 C82.9478621,7.29862985 82.2656423,7.00195312 81.3632941,7.00195312 C80.4718834,7.00195312 79.7992339,7.29452832 79.3453253,7.8796875 C78.8914168,8.46484668 78.664466,9.33710358 78.664466,10.4964844 L78.664466,10.4964844 Z M94.9066535,15 L93.2578253,9.72539062 C93.1539186,9.40273276 92.9597799,8.66992759 92.6754035,7.52695312 L92.6097785,7.52695312 C92.3910274,8.48398916 92.199623,9.22226303 92.0355597,9.74179687 L90.3375128,15 L88.7625128,15 L86.3097785,6.009375 L87.7371222,6.009375 C88.3168126,8.26798004 88.7584098,9.98788472 89.0619269,11.1691406 C89.365444,12.3503965 89.5390751,13.1460917 89.5828253,13.55625 L89.6484503,13.55625 C89.7086069,13.2445297 89.8056762,12.8412134 89.9396613,12.3462891 C90.0736463,11.8513647 90.1898561,11.4589858 90.2882941,11.1691406 L91.9371222,6.009375 L93.4136847,6.009375 L95.0214972,11.1691406 C95.3277487,12.1097703 95.5355592,12.8999968 95.6449347,13.5398437 L95.7105597,13.5398437 C95.7324348,13.3429678 95.7912233,13.0394552 95.8869269,12.6292969 C95.9826305,12.2191386 96.552742,10.01252 97.5972785,6.009375 L99.008216,6.009375 L96.5226691,15 L94.9066535,15 Z" id="Workflow" fill="#23B0E8"></path>
                            <g id="Group-31" fill="#B0B8C6">
                                <path d="M0.78982231,11.1151353 C1.74144021,12.1262995 3.28631229,12.1244254 4.23908718,11.1120318 C5.19207526,10.0994116 5.19371326,8.45819055 4.24200789,7.44693332 C3.29008971,6.43545006 1.74581887,6.43732341 0.792743014,7.45003684 C-0.160119678,8.46252373 -0.162008403,10.1037449 0.78982231,11.1151353 L0.78982231,11.1151353 L0.78982231,11.1151353 Z M1.68077685,10.1684303 C1.22149518,9.68040964 1.22240836,8.88689559 1.68369756,8.39674176 C2.14516763,7.90639573 2.89165174,7.9054902 3.35105334,8.39363831 C3.81027459,8.88159478 3.80948264,9.67510845 3.34813264,10.1653269 C2.88696354,10.655353 2.13987817,10.6562593 1.68077685,10.1684303 L1.68077685,10.1684303 L1.68077685,10.1684303 Z" id="Shape"></path>
                                <path d="M16.8023138,11.1941009 C17.7539317,12.2052652 19.2988038,12.2033911 20.2515787,11.1909975 C21.2045667,10.1783773 21.2062047,8.53715623 20.2544994,7.52589906 C19.3025812,6.51441574 17.7583104,6.51628909 16.8052345,7.52900252 C15.8523718,8.54148941 15.8504831,10.1827106 16.8023138,11.1941009 L16.8023138,11.1941009 L16.8023138,11.1941009 Z M17.6932684,10.247396 C17.2339867,9.75937532 17.2348999,8.96586126 17.696189,8.47570744 C18.1576591,7.98536147 18.9041432,7.98445588 19.3635449,8.47260399 C19.8227661,8.96056046 19.8219741,9.75407413 19.3606241,10.2442926 C18.899455,10.7343188 18.1523697,10.735225 17.6932684,10.247396 L17.6932684,10.247396 L17.6932684,10.247396 Z" id="Shape"></path>
                                <path d="M8.66605672,10.7719406 C8.48755777,10.3017721 8.57684798,9.75112174 8.93637088,9.3769245 C9.42244034,8.87101547 10.2183933,8.87921582 10.7141817,9.39524046 C11.2099701,9.91126511 11.2178489,10.739706 10.7317795,11.245615 C10.3869574,11.6045115 9.88618297,11.7046766 9.44725431,11.5483543 C8.8997803,12.1181743 8.03822262,13.0148976 8.03822262,13.0148976 C7.65022946,13.4187271 7.64481122,14.0701261 8.02609309,14.4669705 L9.96889987,16.4890756 C10.3501817,16.88592 10.9760357,16.8802805 11.3640288,16.4764509 L16.8568259,10.7594583 L17.7218531,11.4486209 L12.1276107,17.2711994 C11.3112246,18.1209073 9.99430221,18.1327738 9.19198128,17.2977051 L7.24917455,15.2756001 C6.44685362,14.4405314 6.45825476,13.069857 7.27464076,12.2201491 C7.27464076,12.2201491 8.14624057,11.3129738 8.66605647,10.7719409 L8.66605672,10.7719406 Z" id="Shape"></path>
                                <path d="M11.9179132,1.08962291 L11.917913,9.1578298 C11.917913,9.7289311 11.4791987,10.1935274 10.9399847,10.1935274 L8.19244107,10.1935274 C7.65322709,10.1935274 7.21451276,9.7289311 7.21451276,9.1578298 L7.21451276,6.9443842 L6.21635749,7.37995952 L6.13464496,9.1578298 C6.13464496,10.3594982 7.05778797,11.3371023 8.19244107,11.3371023 L10.9399847,11.3371023 C12.0746378,11.3371023 12.9977808,10.3594982 12.9977808,9.1578298 L12.997781,1.14580474 L11.9179132,1.08962291 L11.9179132,1.08962291 Z" id="Shape" transform="translate(9.566213, 6.213363) rotate(225.000000) translate(-9.566213, -6.213363) "></path>
                                <path d="M12.5240332,11.6341775 C13.6028288,10.4878776 13.6020494,8.62887401 12.5226451,7.48192731 C11.4434949,6.33525066 9.69359988,6.33427136 8.61491622,7.48045234 L9.40687582,8.32196784 C10.0479854,7.64074157 11.0887359,7.64132406 11.7306855,8.32344281 C12.3728605,9.00580114 12.373324,10.1112862 11.7320736,10.792662 L12.5240332,11.6341775 L12.5240332,11.6341775 L12.5240332,11.6341775 Z" id="Shape"></path>
                            </g>
                        </g>
                    </g>
                </g>
                <g id="Group-17" transform="translate(62.000000, 112.000000)">
                    <path d="M51.2519531,6.43310547 C51.2519531,7.53760318 51.0297874,8.5130166 50.5854492,9.359375 C50.1411111,10.2057334 49.5063518,10.8574196 48.6811523,11.3144531 C47.8559529,11.7714867 46.8890029,12 45.7802734,12 L43.5458984,12 L45.5073242,2.71972656 L47.6782227,2.71972656 C48.8461972,2.71972656 49.7338023,3.03604827 50.3410645,3.66870117 C50.9483266,4.30135407 51.2519531,5.22281296 51.2519531,6.43310547 L51.2519531,6.43310547 Z M45.8500977,11.0668945 C46.7049196,11.0668945 47.4560515,10.873293 48.1035156,10.486084 C48.7509798,10.098875 49.24715,9.55192411 49.592041,8.84521484 C49.9369321,8.13850558 50.109375,7.33024543 50.109375,6.42041016 C50.109375,5.51057488 49.891441,4.82186106 49.4555664,4.35424805 C49.0196918,3.88663503 48.3807008,3.65283203 47.5385742,3.65283203 L46.4086914,3.65283203 L44.8217773,11.0668945 L45.8500977,11.0668945 Z M54.78125,12.1269531 C54.0026003,12.1269531 53.3911155,11.8963239 52.9467773,11.4350586 C52.5024392,10.9737933 52.2802734,10.3348023 52.2802734,9.51806641 C52.2802734,8.72248951 52.4379053,7.95972045 52.7531738,7.22973633 C53.0684423,6.49975221 53.4863255,5.93164266 54.0068359,5.52539062 C54.5273464,5.11913859 55.1007456,4.91601562 55.7270508,4.91601562 C56.374515,4.91601562 56.8611637,5.0567206 57.1870117,5.33813477 C57.5128597,5.61954893 57.6757812,6.01204175 57.6757812,6.515625 C57.6757812,7.27734756 57.3245478,7.87507921 56.6220703,8.30883789 C55.9195928,8.74259657 54.9145573,8.95947266 53.6069336,8.95947266 L53.3974609,8.95947266 L53.3720703,9.46728516 C53.3720703,10.0216499 53.502196,10.4543441 53.7624512,10.7653809 C54.0227064,11.0764176 54.4257785,11.2319336 54.9716797,11.2319336 C55.2382826,11.2319336 55.512287,11.193848 55.7937012,11.1176758 C56.0751153,11.0415035 56.4252909,10.9018565 56.8442383,10.6987305 L56.8442383,11.6254883 C56.4464498,11.8116871 56.0952164,11.9418128 55.7905273,12.0158691 C55.4858383,12.0899255 55.1494159,12.1269531 54.78125,12.1269531 L54.78125,12.1269531 Z M55.6635742,5.82373047 C55.2276996,5.82373047 54.8182799,6.02262171 54.4353027,6.42041016 C54.0523256,6.8181986 53.7592784,7.37043917 53.5561523,8.07714844 L53.6323242,8.07714844 C54.5971728,8.07714844 55.3366674,7.95125451 55.8508301,7.69946289 C56.3649928,7.44767127 56.6220703,7.08268468 56.6220703,6.60449219 C56.6220703,6.38020721 56.5448413,6.19401116 56.3903809,6.04589844 C56.2359205,5.89778572 55.993654,5.82373047 55.6635742,5.82373047 L55.6635742,5.82373047 Z M57.4091797,15.1230469 C57.117186,15.1230469 56.852703,15.0786137 56.6157227,14.9897461 L56.6157227,14.0947266 C56.8865573,14.187826 57.1235341,14.234375 57.3266602,14.234375 C57.6482763,14.234375 57.8958325,14.1031914 58.0693359,13.8408203 C58.2428394,13.5784492 58.3824865,13.2039412 58.4882812,12.7172852 L59.9291992,5.84912109 L58.7041016,5.84912109 L58.7866211,5.42382812 L60.0942383,5.00488281 L60.2402344,4.37011719 C60.4348968,3.52375879 60.7046695,2.92602714 61.0495605,2.5769043 C61.3944516,2.22778146 61.9054328,2.05322266 62.5825195,2.05322266 C62.7517912,2.05322266 62.9591459,2.0775551 63.2045898,2.1262207 C63.4500338,2.17488631 63.6404616,2.22884085 63.7758789,2.28808594 L63.5029297,3.10693359 C63.1813135,2.98421163 62.8914401,2.92285156 62.6333008,2.92285156 C62.2651349,2.92285156 61.982667,3.02547098 61.7858887,3.23071289 C61.5891103,3.4359548 61.4293626,3.81152071 61.3066406,4.35742188 L61.1479492,5.04296875 L62.6586914,5.04296875 L62.5,5.84912109 L60.9956055,5.84912109 L59.5229492,12.8188477 C59.3579093,13.6186563 59.1040056,14.2026349 58.7612305,14.5708008 C58.4184553,14.9389667 57.9677762,15.1230469 57.4091797,15.1230469 L57.4091797,15.1230469 Z M63.5917969,12 L62.5253906,12 L64.0107422,5.04296875 L65.0771484,5.04296875 L63.5917969,12 Z M64.309082,3.265625 C64.309082,3.02864465 64.3767897,2.83504307 64.512207,2.68481445 C64.6476244,2.53458584 64.8232411,2.45947266 65.0390625,2.45947266 C65.4114602,2.45947266 65.5976562,2.64990044 65.5976562,3.03076172 C65.5976562,3.26351028 65.5267748,3.46028565 65.3850098,3.62109375 C65.2432447,3.78190185 65.0792653,3.86230469 64.8930664,3.86230469 C64.7237947,3.86230469 64.5841477,3.81046601 64.4741211,3.70678711 C64.3640945,3.60310821 64.309082,3.45605564 64.309082,3.265625 L64.309082,3.265625 Z M70.0917969,12 L71.03125,7.60742188 C71.1158858,7.16731551 71.1582031,6.86263105 71.1582031,6.69335938 C71.1582031,6.42675648 71.0830899,6.21305419 70.9328613,6.05224609 C70.7826327,5.891438 70.5424821,5.81103516 70.2124023,5.81103516 C69.8357729,5.81103516 69.4686704,5.93798701 69.111084,6.19189453 C68.7534976,6.44580205 68.4382338,6.80761484 68.1652832,7.27734375 C67.8923326,7.74707266 67.6860359,8.31624015 67.5463867,8.98486328 L66.9052734,12 L65.8388672,12 L67.3242188,5.04296875 L68.206543,5.04296875 L68.0668945,6.33154297 L68.1303711,6.33154297 C68.5366231,5.81526435 68.9291159,5.45027776 69.3078613,5.23657227 C69.6866067,5.02286677 70.0790995,4.91601562 70.4853516,4.91601562 C71.0227891,4.91601562 71.4470199,5.06306819 71.7580566,5.35717773 C72.0690934,5.65128728 72.2246094,6.06282288 72.2246094,6.59179688 C72.2246094,6.92610844 72.1759445,7.30696401 72.0786133,7.734375 L71.1708984,12 L70.0917969,12 Z M76.090332,12.1269531 C75.3116823,12.1269531 74.7001975,11.8963239 74.2558594,11.4350586 C73.8115212,10.9737933 73.5893555,10.3348023 73.5893555,9.51806641 C73.5893555,8.72248951 73.7469874,7.95972045 74.0622559,7.22973633 C74.3775244,6.49975221 74.7954076,5.93164266 75.315918,5.52539062 C75.8364284,5.11913859 76.4098276,4.91601562 77.0361328,4.91601562 C77.683597,4.91601562 78.1702458,5.0567206 78.4960938,5.33813477 C78.8219417,5.61954893 78.9848633,6.01204175 78.9848633,6.515625 C78.9848633,7.27734756 78.6336298,7.87507921 77.9311523,8.30883789 C77.2286749,8.74259657 76.2236394,8.95947266 74.9160156,8.95947266 L74.706543,8.95947266 L74.6811523,9.46728516 C74.6811523,10.0216499 74.811278,10.4543441 75.0715332,10.7653809 C75.3317884,11.0764176 75.7348606,11.2319336 76.2807617,11.2319336 C76.5473646,11.2319336 76.821369,11.193848 77.1027832,11.1176758 C77.3841974,11.0415035 77.7343729,10.9018565 78.1533203,10.6987305 L78.1533203,11.6254883 C77.7555319,11.8116871 77.4042984,11.9418128 77.0996094,12.0158691 C76.7949204,12.0899255 76.4584979,12.1269531 76.090332,12.1269531 L76.090332,12.1269531 Z M76.9726562,5.82373047 C76.5367817,5.82373047 76.1273619,6.02262171 75.7443848,6.42041016 C75.3614076,6.8181986 75.0683604,7.37043917 74.8652344,8.07714844 L74.9414062,8.07714844 C75.9062548,8.07714844 76.6457494,7.95125451 77.1599121,7.69946289 C77.6740748,7.44767127 77.9311523,7.08268468 77.9311523,6.60449219 C77.9311523,6.38020721 77.8539233,6.19401116 77.6994629,6.04589844 C77.5450025,5.89778572 77.302736,5.82373047 76.9726562,5.82373047 L76.9726562,5.82373047 Z M83.4345703,4.92871094 C84.255538,4.92871094 84.8500958,5.33072515 85.2182617,6.13476562 L85.2817383,6.13476562 C85.3536787,5.47883787 85.4488926,4.89909106 85.5673828,4.39550781 L86.0625,2.12304688 L87.1162109,2.12304688 L85.0214844,12 L84.1391602,12 L84.2788086,10.6733398 L84.2280273,10.6733398 C83.8006164,11.2023138 83.400718,11.5768218 83.0283203,11.796875 C82.6559226,12.0169282 82.2708353,12.1269531 81.8730469,12.1269531 C81.2848278,12.1269531 80.8256852,11.9195984 80.4956055,11.5048828 C80.1655257,11.0901672 80.0004883,10.5146521 80.0004883,9.77832031 C80.0004883,8.87271683 80.1528305,8.04329804 80.4575195,7.29003906 C80.7622086,6.53678009 81.1737442,5.95491742 81.6921387,5.54443359 C82.2105332,5.13394977 82.7913379,4.92871094 83.4345703,4.92871094 L83.4345703,4.92871094 Z M82.2285156,11.2446289 C82.6263041,11.2446289 83.0367817,11.0467956 83.4599609,10.651123 C83.8831401,10.2554505 84.2185046,9.74975894 84.4660645,9.1340332 C84.7136243,8.51830747 84.8374023,7.89095372 84.8374023,7.25195312 C84.8374023,6.78222421 84.7231457,6.42464315 84.4946289,6.17919922 C84.2661121,5.93375528 83.9339215,5.81103516 83.4980469,5.81103516 C83.0706359,5.81103516 82.6739113,5.98559396 82.3078613,6.3347168 C81.9418113,6.68383964 81.6477062,7.17472014 81.4255371,7.80737305 C81.203368,8.44002595 81.0922852,9.10546526 81.0922852,9.80371094 C81.0922852,10.7643277 81.4710249,11.2446289 82.2285156,11.2446289 L82.2285156,11.2446289 Z M91.6992188,12 L90.6328125,12 L92.1181641,5.04296875 L93.1845703,5.04296875 L91.6992188,12 Z M92.4165039,3.265625 C92.4165039,3.02864465 92.4842116,2.83504307 92.6196289,2.68481445 C92.7550462,2.53458584 92.930663,2.45947266 93.1464844,2.45947266 C93.5188821,2.45947266 93.7050781,2.64990044 93.7050781,3.03076172 C93.7050781,3.26351028 93.6341967,3.46028565 93.4924316,3.62109375 C93.3506666,3.78190185 93.1866871,3.86230469 93.0004883,3.86230469 C92.8312166,3.86230469 92.6915696,3.81046601 92.581543,3.70678711 C92.4715164,3.60310821 92.4165039,3.45605564 92.4165039,3.265625 L92.4165039,3.265625 Z M98.1865234,12 L99.1259766,7.60742188 C99.2106124,7.16731551 99.2529297,6.86263105 99.2529297,6.69335938 C99.2529297,6.42675648 99.1778165,6.21305419 99.0275879,6.05224609 C98.8773593,5.891438 98.6372087,5.81103516 98.3071289,5.81103516 C97.9304994,5.81103516 97.563397,5.93798701 97.2058105,6.19189453 C96.8482241,6.44580205 96.5329603,6.80761484 96.2600098,7.27734375 C95.9870592,7.74707266 95.7807624,8.31624015 95.6411133,8.98486328 L95,12 L93.9335938,12 L95.4189453,5.04296875 L96.3012695,5.04296875 L96.1616211,6.33154297 L96.2250977,6.33154297 C96.6313497,5.81526435 97.0238425,5.45027776 97.4025879,5.23657227 C97.7813333,5.02286677 98.1738261,4.91601562 98.5800781,4.91601562 C99.1175157,4.91601562 99.5417465,5.06306819 99.8527832,5.35717773 C100.16382,5.65128728 100.319336,6.06282288 100.319336,6.59179688 C100.319336,6.92610844 100.270671,7.30696401 100.17334,7.734375 L99.265625,12 L98.1865234,12 Z M51.9311523,20.7197266 L50.6298828,26.8515625 C50.3971343,27.9645238 49.9792511,28.7886529 49.3762207,29.3239746 C48.7731903,29.8592963 47.9511771,30.1269531 46.9101562,30.1269531 C45.9368441,30.1269531 45.2153344,29.9069032 44.7456055,29.4667969 C44.2758766,29.0266905 44.0410156,28.3940471 44.0410156,27.5688477 C44.0410156,27.2260725 44.0917964,26.8007838 44.1933594,26.2929688 L45.3930664,20.7197266 L46.472168,20.7197266 L45.2597656,26.3754883 C45.1666662,26.8240582 45.1201172,27.2218407 45.1201172,27.5688477 C45.1201172,28.0639673 45.2745753,28.4543443 45.5834961,28.7399902 C45.8924169,29.0256362 46.3536753,29.168457 46.9672852,29.168457 C47.6951534,29.168457 48.2611471,28.9833189 48.6652832,28.6130371 C49.0694193,28.2427553 49.3645824,27.6302126 49.5507812,26.7753906 L50.8520508,20.7197266 L51.9311523,20.7197266 Z M56.4506836,28.0258789 C56.4506836,28.6860385 56.2168806,29.2012514 55.7492676,29.5715332 C55.2816546,29.941815 54.6225628,30.1269531 53.7719727,30.1269531 C53.0567998,30.1269531 52.4114612,29.9809585 51.8359375,29.6889648 L51.8359375,28.6860352 C52.1321629,28.8637704 52.4516584,29.0013016 52.7944336,29.0986328 C53.1372087,29.195964 53.4545884,29.2446289 53.746582,29.2446289 C54.2797878,29.2446289 54.681802,29.1388357 54.9526367,28.9272461 C55.2234714,28.7156565 55.3588867,28.4448259 55.3588867,28.1147461 C55.3588867,27.873534 55.2848315,27.670411 55.1367188,27.5053711 C54.988606,27.3403312 54.6691105,27.1139337 54.1782227,26.8261719 C53.6280897,26.5172511 53.2387707,26.2146825 53.0102539,25.918457 C52.7817371,25.6222316 52.6674805,25.2709981 52.6674805,24.8647461 C52.6674805,24.2807588 52.8811828,23.809979 53.3085938,23.4523926 C53.7360047,23.0948062 54.2988246,22.9160156 54.9970703,22.9160156 C55.7207067,22.9160156 56.4189419,23.0725896 57.0917969,23.3857422 L56.7490234,24.2553711 L56.3935547,24.0966797 C55.9661437,23.9147126 55.5006536,23.8237305 54.9970703,23.8237305 C54.6035137,23.8237305 54.2945975,23.9157706 54.0703125,24.0998535 C53.8460275,24.2839365 53.7338867,24.5219712 53.7338867,24.8139648 C53.7338867,25.0509452 53.8089999,25.2540682 53.9592285,25.4233398 C54.1094571,25.5926115 54.4194312,25.8105455 54.8891602,26.0771484 C55.3419619,26.331056 55.6667471,26.54899 55.8635254,26.730957 C56.0603037,26.9129241 56.2073563,27.1086415 56.3046875,27.3181152 C56.4020187,27.5275889 56.4506836,27.7635078 56.4506836,28.0258789 L56.4506836,28.0258789 Z M60.4750977,30.1269531 C59.6964479,30.1269531 59.0849632,29.8963239 58.640625,29.4350586 C58.1962868,28.9737933 57.9741211,28.3348023 57.9741211,27.5180664 C57.9741211,26.7224895 58.131753,25.9597204 58.4470215,25.2297363 C58.76229,24.4997522 59.1801732,23.9316427 59.7006836,23.5253906 C60.221194,23.1191386 60.7945932,22.9160156 61.4208984,22.9160156 C62.0683626,22.9160156 62.5550114,23.0567206 62.8808594,23.3381348 C63.2067074,23.6195489 63.3696289,24.0120418 63.3696289,24.515625 C63.3696289,25.2773476 63.0183954,25.8750792 62.315918,26.3088379 C61.6134405,26.7425966 60.608405,26.9594727 59.3007812,26.9594727 L59.0913086,26.9594727 L59.065918,27.4672852 C59.065918,28.0216499 59.1960436,28.4543441 59.4562988,28.7653809 C59.716554,29.0764176 60.1196262,29.2319336 60.6655273,29.2319336 C60.9321302,29.2319336 61.2061347,29.193848 61.4875488,29.1176758 C61.768963,29.0415035 62.1191385,28.9018565 62.5380859,28.6987305 L62.5380859,29.6254883 C62.1402975,29.8116871 61.789064,29.9418128 61.484375,30.0158691 C61.179686,30.0899255 60.8432636,30.1269531 60.4750977,30.1269531 L60.4750977,30.1269531 Z M61.3574219,23.8237305 C60.9215473,23.8237305 60.5121276,24.0226217 60.1291504,24.4204102 C59.7461732,24.8181986 59.453126,25.3704392 59.25,26.0771484 L59.3261719,26.0771484 C60.2910204,26.0771484 61.030515,25.9512545 61.5446777,25.6994629 C62.0588405,25.4476713 62.315918,25.0826847 62.315918,24.6044922 C62.315918,24.3802072 62.2386889,24.1940112 62.0842285,24.0458984 C61.9297681,23.8977857 61.6875017,23.8237305 61.3574219,23.8237305 L61.3574219,23.8237305 Z M68.5366211,22.9160156 C68.8286147,22.9160156 69.0825185,22.9456377 69.2983398,23.0048828 L69.0698242,23.9570312 C68.8455392,23.902018 68.6233735,23.8745117 68.4033203,23.8745117 C68.0182272,23.8745117 67.6574724,24.0014636 67.3210449,24.2553711 C66.9846175,24.5092786 66.6905123,24.86157 66.4387207,25.3122559 C66.1869291,25.7629417 66.001791,26.2633436 65.8833008,26.8134766 L65.2041016,30 L64.1376953,30 L65.6230469,23.0429688 L66.5053711,23.0429688 L66.3657227,24.331543 L66.4291992,24.331543 C66.7338882,23.9295227 66.9856761,23.6407073 67.1845703,23.4650879 C67.3834645,23.2894685 67.5918772,23.1540532 67.8098145,23.0588379 C68.0277517,22.9636226 68.2700182,22.9160156 68.5366211,22.9160156 L68.5366211,22.9160156 Z M72.8339844,30 L74.8081055,20.7197266 L75.8745117,20.7197266 L73.9003906,30 L72.8339844,30 Z M80.4638672,30 L81.4033203,25.6074219 C81.4879562,25.1673155 81.5302734,24.8626311 81.5302734,24.6933594 C81.5302734,24.4267565 81.4551603,24.2130542 81.3049316,24.0522461 C81.154703,23.891438 80.9145524,23.8110352 80.5844727,23.8110352 C80.2078432,23.8110352 79.8407407,23.937987 79.4831543,24.1918945 C79.1255679,24.4458021 78.8103041,24.8076148 78.5373535,25.2773438 C78.2644029,25.7470727 78.0581062,26.3162401 77.918457,26.9848633 L77.2773438,30 L76.2109375,30 L77.6962891,23.0429688 L78.5786133,23.0429688 L78.4389648,24.331543 L78.5024414,24.331543 C78.9086934,23.8152643 79.3011863,23.4502778 79.6799316,23.2365723 C80.058677,23.0228668 80.4511698,22.9160156 80.8574219,22.9160156 C81.3948595,22.9160156 81.8190902,23.0630682 82.130127,23.3571777 C82.4411637,23.6512873 82.5966797,24.0628229 82.5966797,24.5917969 C82.5966797,24.9261084 82.5480148,25.306964 82.4506836,25.734375 L81.5429688,30 L80.4638672,30 Z M85.8466797,29.2573242 C86.0794282,29.2573242 86.3841127,29.2023117 86.7607422,29.0922852 L86.7607422,29.9111328 C86.6168613,29.9703779 86.4391287,30.0211586 86.2275391,30.0634766 C86.0159495,30.1057945 85.8466803,30.1269531 85.7197266,30.1269531 C85.1907526,30.1269531 84.7855646,30.0010592 84.5041504,29.7492676 C84.2227362,29.497476 84.0820312,29.12191 84.0820312,28.6225586 C84.0820312,28.3432603 84.1201168,28.0258807 84.1962891,27.6704102 L85.0024414,23.8491211 L83.9106445,23.8491211 L83.9995117,23.3857422 L85.1738281,22.890625 L85.9672852,21.4433594 L86.5893555,21.4433594 L86.2402344,23.0429688 L87.9794922,23.0429688 L87.8144531,23.8491211 L86.081543,23.8491211 L85.2626953,27.6831055 C85.1865231,28.0512714 85.1484375,28.3305655 85.1484375,28.5209961 C85.1484375,28.7579764 85.2097976,28.9399408 85.3325195,29.0668945 C85.4552415,29.1938483 85.6266265,29.2573242 85.8466797,29.2573242 L85.8466797,29.2573242 Z M90.6772461,30.1269531 C89.8985964,30.1269531 89.2871116,29.8963239 88.8427734,29.4350586 C88.3984353,28.9737933 88.1762695,28.3348023 88.1762695,27.5180664 C88.1762695,26.7224895 88.3339014,25.9597204 88.6491699,25.2297363 C88.9644384,24.4997522 89.3823216,23.9316427 89.902832,23.5253906 C90.4233424,23.1191386 90.9967417,22.9160156 91.6230469,22.9160156 C92.270511,22.9160156 92.7571598,23.0567206 93.0830078,23.3381348 C93.4088558,23.6195489 93.5717773,24.0120418 93.5717773,24.515625 C93.5717773,25.2773476 93.2205439,25.8750792 92.5180664,26.3088379 C91.8155889,26.7425966 90.8105534,26.9594727 89.5029297,26.9594727 L89.293457,26.9594727 L89.2680664,27.4672852 C89.2680664,28.0216499 89.3981921,28.4543441 89.6584473,28.7653809 C89.9187025,29.0764176 90.3217746,29.2319336 90.8676758,29.2319336 C91.1342787,29.2319336 91.4082831,29.193848 91.6896973,29.1176758 C91.9711114,29.0415035 92.321287,28.9018565 92.7402344,28.6987305 L92.7402344,29.6254883 C92.3424459,29.8116871 91.9912125,29.9418128 91.6865234,30.0158691 C91.3818344,30.0899255 91.045412,30.1269531 90.6772461,30.1269531 L90.6772461,30.1269531 Z M91.5595703,23.8237305 C91.1236957,23.8237305 90.714276,24.0226217 90.3312988,24.4204102 C89.9483217,24.8181986 89.6552745,25.3704392 89.4521484,26.0771484 L89.5283203,26.0771484 C90.4931689,26.0771484 91.2326634,25.9512545 91.7468262,25.6994629 C92.2609889,25.4476713 92.5180664,25.0826847 92.5180664,24.6044922 C92.5180664,24.3802072 92.4408374,24.1940112 92.286377,24.0458984 C92.1319165,23.8977857 91.8896501,23.8237305 91.5595703,23.8237305 L91.5595703,23.8237305 Z M98.7387695,22.9160156 C99.0307632,22.9160156 99.2846669,22.9456377 99.5004883,23.0048828 L99.2719727,23.9570312 C99.0476877,23.902018 98.8255219,23.8745117 98.6054688,23.8745117 C98.2203757,23.8745117 97.8596208,24.0014636 97.5231934,24.2553711 C97.1867659,24.5092786 96.8926608,24.86157 96.6408691,25.3122559 C96.3890775,25.7629417 96.2039394,26.2633436 96.0854492,26.8134766 L95.40625,30 L94.3398438,30 L95.8251953,23.0429688 L96.7075195,23.0429688 L96.5678711,24.331543 L96.6313477,24.331543 C96.9360367,23.9295227 97.1878245,23.6407073 97.3867188,23.4650879 C97.585613,23.2894685 97.7940256,23.1540532 98.0119629,23.0588379 C98.2299002,22.9636226 98.4721666,22.9160156 98.7387695,22.9160156 L98.7387695,22.9160156 Z M98.453125,33.1230469 C98.1611314,33.1230469 97.8966483,33.0786137 97.659668,32.9897461 L97.659668,32.0947266 C97.9305027,32.187826 98.1674795,32.234375 98.3706055,32.234375 C98.6922217,32.234375 98.9397778,32.1031914 99.1132812,31.8408203 C99.2867847,31.5784492 99.4264318,31.2039412 99.5322266,30.7172852 L100.973145,23.8491211 L99.7480469,23.8491211 L99.8305664,23.4238281 L101.138184,23.0048828 L101.28418,22.3701172 C101.478842,21.5237588 101.748615,20.9260271 102.093506,20.5769043 C102.438397,20.2277815 102.949378,20.0532227 103.626465,20.0532227 C103.795737,20.0532227 104.003091,20.0775551 104.248535,20.1262207 C104.493979,20.1748863 104.684407,20.2288408 104.819824,20.2880859 L104.546875,21.1069336 C104.225259,20.9842116 103.935385,20.9228516 103.677246,20.9228516 C103.30908,20.9228516 103.026612,21.025471 102.829834,21.2307129 C102.633056,21.4359548 102.473308,21.8115207 102.350586,22.3574219 L102.191895,23.0429688 L103.702637,23.0429688 L103.543945,23.8491211 L102.039551,23.8491211 L100.566895,30.8188477 C100.401855,31.6186563 100.147951,32.2026349 99.8051758,32.5708008 C99.4624006,32.9389667 99.0117215,33.1230469 98.453125,33.1230469 L98.453125,33.1230469 Z M107.238281,22.9160156 C107.627606,22.9160156 107.974608,23.0207509 108.279297,23.2302246 C108.583986,23.4396983 108.820963,23.741209 108.990234,24.1347656 L109.060059,24.1347656 L109.485352,23.0429688 L110.291504,23.0429688 L108.8125,30 L107.968262,30 L108.133301,28.6733398 L108.08252,28.6733398 C107.325029,29.6424202 106.527348,30.1269531 105.689453,30.1269531 C105.101234,30.1269531 104.639976,29.9174826 104.305664,29.4985352 C103.971352,29.0795877 103.804199,28.5061885 103.804199,27.7783203 C103.804199,26.8981076 103.954426,26.081384 104.254883,25.328125 C104.55534,24.574866 104.970049,23.9845399 105.499023,23.5571289 C106.027997,23.1297179 106.607744,22.9160156 107.238281,22.9160156 L107.238281,22.9160156 Z M106.032227,29.2446289 C106.44271,29.2446289 106.851072,29.0489115 107.257324,28.6574707 C107.663576,28.2660299 107.993651,27.7561067 108.247559,27.1276855 C108.501466,26.4992644 108.628418,25.8697948 108.628418,25.2392578 C108.628418,24.8033832 108.50993,24.4563815 108.272949,24.1982422 C108.035969,23.9401029 107.724937,23.8110352 107.339844,23.8110352 C106.899737,23.8110352 106.490318,23.9929995 106.111572,24.3569336 C105.732827,24.7208677 105.435548,25.2138641 105.219727,25.8359375 C105.003905,26.4580109 104.895996,27.1139288 104.895996,27.8037109 C104.895996,28.2861352 104.995442,28.6468901 105.194336,28.8859863 C105.39323,29.1250826 105.672524,29.2446289 106.032227,29.2446289 L106.032227,29.2446289 Z M113.738281,30.1269531 C112.917314,30.1269531 112.280438,29.9005556 111.827637,29.4477539 C111.374835,28.9949522 111.148438,28.3559612 111.148438,27.5307617 C111.148438,26.6844033 111.305011,25.9036494 111.618164,25.1884766 C111.931317,24.4733037 112.364011,23.9157735 112.91626,23.5158691 C113.468509,23.1159648 114.089515,22.9160156 114.779297,22.9160156 C115.359052,22.9160156 115.926104,23.0239247 116.480469,23.2397461 L116.182129,24.1347656 C115.674314,23.9189442 115.21094,23.8110352 114.791992,23.8110352 C114.318031,23.8110352 113.885337,23.9728988 113.493896,24.2966309 C113.102456,24.6203629 112.795655,25.071042 112.573486,25.6486816 C112.351317,26.2263212 112.240234,26.853675 112.240234,27.5307617 C112.240234,28.0724311 112.380939,28.4934881 112.662354,28.7939453 C112.943768,29.0944025 113.332029,29.2446289 113.827148,29.2446289 C114.131837,29.2446289 114.419595,29.2023116 114.69043,29.1176758 C114.961264,29.0330399 115.227863,28.9335943 115.490234,28.8193359 L115.490234,29.7270508 C114.965492,29.9936537 114.381514,30.1269531 113.738281,30.1269531 L113.738281,30.1269531 Z M119.501953,30.1269531 C118.723303,30.1269531 118.111819,29.8963239 117.66748,29.4350586 C117.223142,28.9737933 117.000977,28.3348023 117.000977,27.5180664 C117.000977,26.7224895 117.158608,25.9597204 117.473877,25.2297363 C117.789145,24.4997522 118.207029,23.9316427 118.727539,23.5253906 C119.248049,23.1191386 119.821449,22.9160156 120.447754,22.9160156 C121.095218,22.9160156 121.581867,23.0567206 121.907715,23.3381348 C122.233563,23.6195489 122.396484,24.0120418 122.396484,24.515625 C122.396484,25.2773476 122.045251,25.8750792 121.342773,26.3088379 C120.640296,26.7425966 119.63526,26.9594727 118.327637,26.9594727 L118.118164,26.9594727 L118.092773,27.4672852 C118.092773,28.0216499 118.222899,28.4543441 118.483154,28.7653809 C118.74341,29.0764176 119.146482,29.2319336 119.692383,29.2319336 C119.958986,29.2319336 120.23299,29.193848 120.514404,29.1176758 C120.795818,29.0415035 121.145994,28.9018565 121.564941,28.6987305 L121.564941,29.6254883 C121.167153,29.8116871 120.815919,29.9418128 120.51123,30.0158691 C120.206541,30.0899255 119.870119,30.1269531 119.501953,30.1269531 L119.501953,30.1269531 Z M120.384277,23.8237305 C119.948403,23.8237305 119.538983,24.0226217 119.156006,24.4204102 C118.773029,24.8181986 118.479981,25.3704392 118.276855,26.0771484 L118.353027,26.0771484 C119.317876,26.0771484 120.05737,25.9512545 120.571533,25.6994629 C121.085696,25.4476713 121.342773,25.0826847 121.342773,24.6044922 C121.342773,24.3802072 121.265544,24.1940112 121.111084,24.0458984 C120.956624,23.8977857 120.714357,23.8237305 120.384277,23.8237305 L120.384277,23.8237305 Z" id="Defined-in" fill="#9B9B9B"></path>
                    <g id="Group-14">
                        <path d="M1.83333333,10.6944444 L31.1911117,10.6944444" id="Line" stroke="#B0B8C6" stroke-width="1.5" stroke-linecap="square"></path>
                        <rect id="Rectangle-165" stroke="#B0B8C6" stroke-width="1.5" x="0" y="0" width="33" height="33" rx="4"></rect>
                        <circle id="Oval-27" fill="#B0B8C6" cx="4.88888889" cy="6.11111111" r="1.22222222"></circle>
                        <circle id="Oval-27-Copy" fill="#B0B8C6" cx="8.55555556" cy="6.11111111" r="1.22222222"></circle>
                        <ellipse id="Oval-27-Copy-2" fill="#B0B8C6" cx="12.2222222" cy="6.11111111" rx="1.22222222" ry="1.22222222"></ellipse>
                    </g>
                </g>
            </g>
            <g id="Group-12" transform="translate(320.000000, 61.000000)">
                <path d="M19.8709655,72 L16.5701843,72 L13.4217468,60.9296875 C13.2863294,60.4472632 13.1170603,59.7511439 12.9139343,58.8413086 C12.7108083,57.9314733 12.5880881,57.2988299 12.5457702,56.9433594 C12.4611344,57.4850287 12.3236032,58.1874957 12.1331726,59.0507812 C11.9427419,59.9140668 11.7840521,60.5572896 11.6570984,60.9804688 L8.58483273,72 L5.28405148,72 L2.88463742,62.7070312 L0.447137415,53.4394531 L3.54479367,53.4394531 L6.19811398,64.2558594 C6.61282959,65.9908941 6.90905059,67.5227798 7.08678585,68.8515625 C7.17988528,68.1321579 7.31953232,67.3281294 7.50573117,66.4394531 C7.69193001,65.5507768 7.86119915,64.831383 8.01354367,64.28125 L11.035028,53.4394531 L14.0438171,53.4394531 L17.1414734,64.3320312 C17.4376988,65.3391977 17.7508467,66.8456931 18.0809265,68.8515625 C18.2078802,67.64127 18.5125647,66.1009208 18.994989,64.2304688 L21.635614,53.4394531 L24.7078796,53.4394531 L19.8709655,72 Z M39.9995409,64.9541016 C39.9995409,67.2477328 39.4113306,69.037754 38.2348924,70.3242188 C37.0584543,71.6106835 35.4207753,72.2539062 33.3218065,72.2539062 C32.009951,72.2539062 30.8504574,71.9576853 29.8432909,71.3652344 C28.8361244,70.7727835 28.0617181,69.9222061 27.5200487,68.8134766 C26.9783793,67.7047471 26.7075487,66.4183016 26.7075487,64.9541016 C26.7075487,62.6773975 27.2915272,60.9000715 28.4595018,59.6220703 C29.6274764,58.3440691 31.2736188,57.7050781 33.3979784,57.7050781 C35.4292385,57.7050781 37.0372954,58.3588802 38.2221971,59.6665039 C39.4070989,60.9741276 39.9995409,62.7366426 39.9995409,64.9541016 L39.9995409,64.9541016 Z M29.7798143,64.9541016 C29.7798143,68.1956542 30.9773935,69.8164062 33.3725877,69.8164062 C35.7423913,69.8164062 36.9272752,68.1956542 36.9272752,64.9541016 C36.9272752,61.7464032 35.7339278,60.1425781 33.3471971,60.1425781 C32.0945867,60.1425781 31.1868809,60.5572875 30.6240526,61.3867188 C30.0612242,62.21615 29.7798143,63.4052657 29.7798143,64.9541016 L29.7798143,64.9541016 Z M51.5968662,57.7050781 C52.1977807,57.7050781 52.6928929,57.7473954 53.0822178,57.8320312 L52.7902256,60.6123047 C52.3670464,60.5107417 51.9269466,60.4599609 51.4699131,60.4599609 C50.2765477,60.4599609 49.3095978,60.84928 48.5690342,61.6279297 C47.8284706,62.4065794 47.4581943,63.4179625 47.4581943,64.6621094 L47.4581943,72 L44.4747959,72 L44.4747959,57.9589844 L46.8107334,57.9589844 L47.2042881,60.4345703 L47.3566318,60.4345703 C47.8221289,59.5966755 48.429382,58.9322941 49.1784092,58.4414062 C49.9274363,57.9505184 50.7335806,57.7050781 51.5968662,57.7050781 L51.5968662,57.7050781 Z M59.6141134,64.5859375 L61.30259,62.4785156 L65.5428243,57.9589844 L68.983254,57.9589844 L63.33384,63.9892578 L69.3387228,72 L65.8348165,72 L61.3279806,65.8427734 L59.6902853,67.1884766 L59.6902853,72 L56.7322775,72 L56.7322775,52.2460938 L59.6902853,52.2460938 L59.6902853,61.8818359 L59.5379415,64.5859375 L59.6141134,64.5859375 Z M79.6919075,60.21875 L76.2641731,60.21875 L76.2641731,72 L73.2680793,72 L73.2680793,60.21875 L70.9575325,60.21875 L70.9575325,58.8222656 L73.2680793,57.9082031 L73.2680793,56.9941406 C73.2680793,55.3352782 73.6573984,54.105961 74.4360481,53.3061523 C75.2146978,52.5063437 76.4038135,52.1064453 78.0034309,52.1064453 C79.0529153,52.1064453 80.0854571,52.2799462 81.1010872,52.6269531 L80.3139778,54.8867188 C79.577646,54.6497384 78.875179,54.53125 78.2065559,54.53125 C77.5294692,54.53125 77.0364728,54.7407206 76.727552,55.159668 C76.4186312,55.5786154 76.2641731,56.2070271 76.2641731,57.0449219 L76.2641731,57.9589844 L79.6919075,57.9589844 L79.6919075,60.21875 Z M85.0620247,72 L82.0786262,72 L82.0786262,52.2460938 L85.0620247,52.2460938 L85.0620247,72 Z M102.841967,64.9541016 C102.841967,67.2477328 102.253757,69.037754 101.077319,70.3242188 C99.9008806,71.6106835 98.2632016,72.2539062 96.1642328,72.2539062 C94.8523773,72.2539062 93.6928837,71.9576853 92.6857172,71.3652344 C91.6785507,70.7727835 90.9041444,69.9222061 90.362475,68.8134766 C89.8208056,67.7047471 89.549975,66.4183016 89.549975,64.9541016 C89.549975,62.6773975 90.1339535,60.9000715 91.3019281,59.6220703 C92.4699027,58.3440691 94.1160451,57.7050781 96.2404047,57.7050781 C98.2716648,57.7050781 99.8797217,58.3588802 101.064623,59.6665039 C102.249525,60.9741276 102.841967,62.7366426 102.841967,64.9541016 L102.841967,64.9541016 Z M92.6222406,64.9541016 C92.6222406,68.1956542 93.8198198,69.8164062 96.215014,69.8164062 C98.5848176,69.8164062 99.7697015,68.1956542 99.7697015,64.9541016 C99.7697015,61.7464032 98.5763541,60.1425781 96.1896234,60.1425781 C94.937013,60.1425781 94.0293072,60.5572875 93.4664789,61.3867188 C92.9036505,62.21615 92.6222406,63.4052657 92.6222406,64.9541016 L92.6222406,64.9541016 Z M118.311363,72 L116.495933,65.4492188 C116.27588,64.7552049 115.878097,63.1429163 115.302574,60.6123047 L115.188316,60.6123047 C114.697428,62.8974724 114.308109,64.5182244 114.020347,65.4746094 L112.154136,72 L108.853355,72 L104.917808,57.9589844 L107.964683,57.9589844 L109.754722,64.8779297 C110.160974,66.5875737 110.448732,68.0517517 110.618003,69.2705078 L110.694175,69.2705078 C110.778811,68.6526662 110.907879,67.9438517 111.081382,67.144043 C111.254886,66.3442343 111.405112,65.7454447 111.532066,65.3476562 L113.664878,57.9589844 L116.940269,57.9589844 L119.009605,65.3476562 C119.136559,65.7623719 119.295249,66.3971311 119.485679,67.2519531 C119.67611,68.1067751 119.788251,68.7711565 119.822105,69.2451172 L119.923667,69.2451172 C120.050621,68.2040964 120.346842,66.7483817 120.812339,64.8779297 L122.627769,57.9589844 L125.623863,57.9589844 L121.662925,72 L118.311363,72 Z M138.51611,68.0009766 C138.51611,69.3720772 138.016766,70.4236617 137.018063,71.1557617 C136.01936,71.8878617 134.589036,72.2539062 132.727048,72.2539062 C130.856595,72.2539062 129.354332,71.9703804 128.220212,71.4033203 L128.220212,68.8261719 C129.87061,69.5878944 131.406728,69.96875 132.82861,69.96875 C134.665208,69.96875 135.583493,69.4143936 135.583493,68.3056641 C135.583493,67.9501935 135.481931,67.6539725 135.278805,67.4169922 C135.075679,67.1800118 134.741373,66.9345716 134.275876,66.6806641 C133.810379,66.4267565 133.162924,66.138999 132.333493,65.8173828 C130.716948,65.1910776 129.623046,64.5647818 129.051755,63.9384766 C128.480463,63.3121713 128.194821,62.4996795 128.194821,61.5009766 C128.194821,60.2991476 128.679354,59.3660515 129.648434,58.7016602 C130.617515,58.0372688 131.935698,57.7050781 133.603024,57.7050781 C135.253423,57.7050781 136.814931,58.0393847 138.287594,58.7080078 L137.322751,60.9550781 C135.807769,60.3287729 134.534019,60.015625 133.501462,60.015625 C131.927235,60.015625 131.140133,60.4641882 131.140133,61.3613281 C131.140133,61.8014345 131.345372,62.1738266 131.755856,62.4785156 C132.16634,62.7832046 133.061351,63.2021458 134.440915,63.7353516 C135.600426,64.1839215 136.44254,64.5943992 136.967282,64.9667969 C137.492024,65.3391946 137.881343,65.768715 138.135251,66.2553711 C138.389158,66.7420272 138.51611,67.3238898 138.51611,68.0009766 L138.51611,68.0009766 Z" id="Workflows" fill="#3CA1D4"></path>
                <g id="Group" transform="translate(47.000000, 0.000000)" fill="#48A6D6">
                    <path d="M1.80530814,24.7003006 C3.98043476,26.9473321 7.51157095,26.9431676 9.68934213,24.693404 C11.8676006,22.443137 11.8713446,18.795979 9.69601803,16.5487407 C7.52020505,14.3010001 3.99044312,14.3051631 1.81198403,16.5556374 C-0.365987836,18.8056083 -0.370304921,22.4527664 1.80530814,24.7003006 L1.80530814,24.7003006 L1.80530814,24.7003006 Z M3.84177566,22.5965119 C2.79198898,21.5120214 2.79407626,19.7486569 3.84845156,18.6594261 C4.90324029,17.5697683 6.6094897,17.567756 7.65955049,18.6525296 C8.70919906,19.7368773 8.70738888,21.500241 7.65287461,22.5896153 C6.5987738,23.6785623 4.89115009,23.6805763 3.84177566,22.5965119 L3.84177566,22.5965119 L3.84177566,22.5965119 Z" id="Shape"></path>
                    <path d="M38.4052888,24.8757799 C40.5804152,27.1228116 44.1115515,27.1186469 46.2893226,24.8688833 C48.4675811,22.6186163 48.4713251,18.9714583 46.2959986,16.7242201 C44.1201856,14.4764794 40.5904237,14.4806424 38.4119646,16.7311167 C36.2339927,18.9810876 36.2296756,22.6282457 38.4052888,24.8757799 L38.4052888,24.8757799 L38.4052888,24.8757799 Z M40.4417562,22.7719911 C39.3919696,21.6875007 39.3940568,19.9241361 40.448432,18.8349054 C41.5032209,17.7452477 43.2094703,17.7432353 44.2595311,18.8280089 C45.3091796,19.9123566 45.3073694,21.6757203 44.2528552,22.7650946 C43.1987544,23.8540417 41.4911307,23.8560556 40.4417562,22.7719911 L40.4417562,22.7719911 L40.4417562,22.7719911 Z" id="Shape"></path>
                    <path d="M19.8081296,23.9376459 C19.400132,22.8928269 19.604224,21.6691594 20.4259906,20.83761 C21.5370065,19.7133677 23.3563276,19.7315907 24.4895582,20.8783121 C25.6227888,22.0250336 25.6407974,23.8660134 24.5297816,24.9902556 C23.7416168,25.7878033 22.5969896,26.0103924 21.5937241,25.6630096 C20.342355,26.9292761 18.3730803,28.9219946 18.3730803,28.9219946 C17.4862388,29.8193936 17.4738542,31.266947 18.3453556,32.1488234 L22.7860568,36.6423901 C23.6575583,37.5242666 25.0880816,37.5117344 25.974923,36.6143354 L38.5298877,23.9099074 L40.5070927,25.4413797 L27.720253,38.3804431 C25.8542277,40.2686829 22.8441193,40.2950529 21.0102429,38.4393446 L16.5695418,33.945778 C14.7356654,32.0900697 14.7617252,29.0441266 16.6277503,27.1558869 C16.6277503,27.1558869 18.6199784,25.1399417 19.8081291,23.9376464 L19.8081296,23.9376459 Z" id="Shape"></path>
                    <path d="M27.2409445,2.42138424 L27.240944,20.3507329 C27.240944,21.6198469 26.2381686,22.6522832 25.0056793,22.6522832 L18.7255796,22.6522832 C17.4930905,22.6522832 16.4903149,21.6198469 16.4903149,20.3507329 L16.4903149,15.4319649 L14.2088171,16.39991 L14.0220456,20.3507329 C14.0220456,23.0211072 16.1320868,25.1935606 18.7255796,25.1935606 L25.0056793,25.1935606 C27.5991721,25.1935606 29.7092133,23.0211072 29.7092133,20.3507329 L29.7092137,2.54623277 L27.2409445,2.42138424 L27.2409445,2.42138424 Z" id="Shape" transform="translate(21.865630, 13.807472) rotate(225.000000) translate(-21.865630, -13.807472) "></path>
                    <path d="M28.6263617,25.8537279 C31.0921801,23.3063947 31.0903986,19.1752756 28.6231888,16.6265051 C26.1565598,14.0783348 22.1567997,14.0761586 19.6912371,16.6232274 L21.5014304,18.4932619 C22.9668239,16.9794257 25.3456821,16.9807201 26.8129954,18.4965396 C28.280824,20.0128914 28.2818833,22.4695249 26.8161683,23.9836934 L28.6263617,25.8537279 L28.6263617,25.8537279 L28.6263617,25.8537279 Z" id="Shape"></path>
                </g>
            </g>
        </g>
    </g>
</svg>