<?xml version="1.0" encoding="UTF-8" standalone="no"?>
<svg width="780px" height="262px" viewBox="0 0 780 262" version="1.1" xmlns="http://www.w3.org/2000/svg" xmlns:xlink="http://www.w3.org/1999/xlink">
    <!-- Generator: Sketch 3.7.2 (28276) - http://www.bohemiancoding.com/sketch -->
    <title>Group 35 Copy 3</title>
    <desc>Created with Sketch.</desc>
    <defs>
        <rect id="path-1" x="0" y="0" width="780" height="262"></rect>
        <mask id="mask-2" maskContentUnits="userSpaceOnUse" maskUnits="objectBoundingBox" x="0" y="0" width="780" height="262" fill="white">
            <use xlink:href="#path-1"></use>
        </mask>
        <rect id="path-3" x="0" y="0" width="33" height="33" rx="4"></rect>
        <mask id="mask-4" maskContentUnits="userSpaceOnUse" maskUnits="objectBoundingBox" x="0" y="0" width="33" height="33" fill="white">
            <use xlink:href="#path-3"></use>
        </mask>
    </defs>
    <g id="Page-1" stroke="none" stroke-width="1" fill="none" fill-rule="evenodd">
        <g id="Group-35-Copy-3">
            <rect id="Rectangle-26" fill="#F7F7F7" x="394" y="0" width="386" height="262"></rect>
            <use id="Rectangle-26" stroke="#DCDFE0" mask="url(#mask-2)" stroke-width="2" xlink:href="#path-1"></use>
            <g id="Group-26" transform="translate(477.000000, 65.000000)">
                <path d="M82.9477539,5.03515625 C82.9477539,6.37695983 82.5083052,7.40526986 81.6293945,8.12011719 C80.7504839,8.83496451 79.4995198,9.19238281 77.8764648,9.19238281 L76.5405273,9.19238281 L76.5405273,14 L74.4399414,14 L74.4399414,1.15039062 L78.1401367,1.15039062 C79.7456135,1.15039062 80.9482382,1.47851234 81.7480469,2.13476562 C82.5478556,2.79101891 82.9477539,3.75780611 82.9477539,5.03515625 L82.9477539,5.03515625 Z M76.5405273,7.42578125 L77.6567383,7.42578125 C78.7348687,7.42578125 79.5258764,7.23828312 80.0297852,6.86328125 C80.5336939,6.48827938 80.7856445,5.90234773 80.7856445,5.10546875 C80.7856445,4.36718381 80.5600608,3.81640807 80.1088867,3.453125 C79.6577126,3.08984193 78.9545946,2.90820312 77.9995117,2.90820312 L76.5405273,2.90820312 L76.5405273,7.42578125 Z M87.3598633,14 L85.2944336,14 L85.2944336,4.27929688 L87.3598633,4.27929688 L87.3598633,14 Z M85.1713867,1.70410156 C85.1713867,1.33495909 85.2724599,1.05078225 85.4746094,0.8515625 C85.6767588,0.652342754 85.9653302,0.552734375 86.340332,0.552734375 C86.7036151,0.552734375 86.9863271,0.652342754 87.1884766,0.8515625 C87.390626,1.05078225 87.4916992,1.33495909 87.4916992,1.70410156 C87.4916992,2.05566582 87.390626,2.33251852 87.1884766,2.53466797 C86.9863271,2.73681742 86.7036151,2.83789062 86.340332,2.83789062 C85.9653302,2.83789062 85.6767588,2.73681742 85.4746094,2.53466797 C85.2724599,2.33251852 85.1713867,2.05566582 85.1713867,1.70410156 L85.1713867,1.70410156 Z M95.2436523,14.1757812 C94.0131774,14.1757812 93.0581089,13.7334029 92.378418,12.8486328 L92.2553711,12.8486328 C92.3374028,13.6689494 92.378418,14.1669913 92.378418,14.3427734 L92.378418,18.3242188 L90.3129883,18.3242188 L90.3129883,4.27929688 L91.9829102,4.27929688 C92.0297854,4.46093841 92.1264641,4.89452782 92.2729492,5.58007812 L92.378418,5.58007812 C93.0229524,4.5956982 93.9897396,4.10351562 95.2788086,4.10351562 C96.4917053,4.10351562 97.4365201,4.54296436 98.1132812,5.421875 C98.7900424,6.30078564 99.128418,7.53417175 99.128418,9.12207031 C99.128418,10.7099689 98.7841831,11.9492143 98.0957031,12.8398438 C97.4072231,13.7304732 96.456549,14.1757812 95.2436523,14.1757812 L95.2436523,14.1757812 Z M94.7426758,5.79101562 C93.9223592,5.79101562 93.3232441,6.0312476 92.9453125,6.51171875 C92.5673809,6.9921899 92.378418,7.75976035 92.378418,8.81445312 L92.378418,9.12207031 C92.378418,10.30567 92.5659161,11.162595 92.940918,11.6928711 C93.3159198,12.2231472 93.9282184,12.4882812 94.777832,12.4882812 C95.4926794,12.4882812 96.0434551,12.1953154 96.4301758,11.609375 C96.8168965,11.0234346 97.0102539,10.188482 97.0102539,9.10449219 C97.0102539,8.01464299 96.8183613,7.1899442 96.4345703,6.63037109 C96.0507793,6.07079798 95.4868201,5.79101562 94.7426758,5.79101562 L94.7426758,5.79101562 Z M105.772949,14.1757812 C104.261223,14.1757812 103.079106,13.7348677 102.226562,12.8530273 C101.374019,11.971187 100.947754,10.7568437 100.947754,9.20996094 C100.947754,7.62206237 101.343258,6.37402798 102.134277,5.46582031 C102.925297,4.55761265 104.0122,4.10351562 105.39502,4.10351562 C106.678229,4.10351562 107.691891,4.49316017 108.436035,5.27246094 C109.18018,6.05176171 109.552246,7.12401661 109.552246,8.48925781 L109.552246,9.60546875 L103.074707,9.60546875 C103.104004,10.5488328 103.358884,11.2739232 103.839355,11.7807617 C104.319827,12.2876002 104.996578,12.5410156 105.869629,12.5410156 C106.443851,12.5410156 106.978513,12.4868169 107.473633,12.378418 C107.968752,12.270019 108.500485,12.089845 109.068848,11.8378906 L109.068848,13.5166016 C108.564939,13.7568371 108.055178,13.9267573 107.539551,14.0263672 C107.023923,14.1259771 106.435062,14.1757812 105.772949,14.1757812 L105.772949,14.1757812 Z M105.39502,5.66796875 C104.738766,5.66796875 104.212893,5.87597448 103.817383,6.29199219 C103.421873,6.70800989 103.186036,7.31444914 103.109863,8.11132812 L107.521973,8.11132812 C107.510254,7.30858974 107.316896,6.70068566 106.941895,6.28759766 C106.566893,5.87450965 106.051273,5.66796875 105.39502,5.66796875 L105.39502,5.66796875 Z M113.964355,14 L111.898926,14 L111.898926,0.32421875 L113.964355,0.32421875 L113.964355,14 Z M118.98291,14 L116.91748,14 L116.91748,4.27929688 L118.98291,4.27929688 L118.98291,14 Z M116.794434,1.70410156 C116.794434,1.33495909 116.895507,1.05078225 117.097656,0.8515625 C117.299806,0.652342754 117.588377,0.552734375 117.963379,0.552734375 C118.326662,0.552734375 118.609374,0.652342754 118.811523,0.8515625 C119.013673,1.05078225 119.114746,1.33495909 119.114746,1.70410156 C119.114746,2.05566582 119.013673,2.33251852 118.811523,2.53466797 C118.609374,2.73681742 118.326662,2.83789062 117.963379,2.83789062 C117.588377,2.83789062 117.299806,2.73681742 117.097656,2.53466797 C116.895507,2.33251852 116.794434,2.05566582 116.794434,1.70410156 L116.794434,1.70410156 Z M130.487793,14 L128.413574,14 L128.413574,8.0234375 C128.413574,7.27343375 128.262697,6.71386903 127.960938,6.34472656 C127.659178,5.97558409 127.180179,5.79101562 126.523926,5.79101562 C125.650875,5.79101562 125.012209,6.04882555 124.60791,6.56445312 C124.203611,7.0800807 124.001465,7.94432987 124.001465,9.15722656 L124.001465,14 L121.936035,14 L121.936035,4.27929688 L123.553223,4.27929688 L123.843262,5.55371094 L123.94873,5.55371094 C124.241701,5.090818 124.657712,4.7333997 125.196777,4.48144531 C125.735843,4.22949093 126.333493,4.10351562 126.989746,4.10351562 C129.321789,4.10351562 130.487793,5.2900272 130.487793,7.66308594 L130.487793,14 Z M137.606934,14.1757812 C136.095207,14.1757812 134.91309,13.7348677 134.060547,12.8530273 C133.208004,11.971187 132.781738,10.7568437 132.781738,9.20996094 C132.781738,7.62206237 133.177242,6.37402798 133.968262,5.46582031 C134.759281,4.55761265 135.846184,4.10351562 137.229004,4.10351562 C138.512213,4.10351562 139.525875,4.49316017 140.27002,5.27246094 C141.014164,6.05176171 141.38623,7.12401661 141.38623,8.48925781 L141.38623,9.60546875 L134.908691,9.60546875 C134.937988,10.5488328 135.192869,11.2739232 135.67334,11.7807617 C136.153811,12.2876002 136.830562,12.5410156 137.703613,12.5410156 C138.277835,12.5410156 138.812498,12.4868169 139.307617,12.378418 C139.802737,12.270019 140.33447,12.089845 140.902832,11.8378906 L140.902832,13.5166016 C140.398923,13.7568371 139.889163,13.9267573 139.373535,14.0263672 C138.857908,14.1259771 138.269046,14.1757812 137.606934,14.1757812 L137.606934,14.1757812 Z M137.229004,5.66796875 C136.572751,5.66796875 136.046877,5.87597448 135.651367,6.29199219 C135.255857,6.70800989 135.02002,7.31444914 134.943848,8.11132812 L139.355957,8.11132812 C139.344238,7.30858974 139.150881,6.70068566 138.775879,6.28759766 C138.400877,5.87450965 137.885257,5.66796875 137.229004,5.66796875 L137.229004,5.66796875 Z" id="Pipeline" fill="#23B0E8"></path>
                <g id="Group-21" transform="translate(0.000000, 42.000000)">
                    <g id="Group-9-Copy-2" transform="translate(68.000000, 21.000000)" stroke="#B0B8C6" stroke-width="3" stroke-linecap="square">
                        <path d="M0.479183733,1.5 L7.77931118,1.5" id="Line-Copy-2"></path>
                    </g>
                    <g id="Group-9-Copy-2" transform="translate(144.000000, 21.000000)" stroke="#B0B8C6" stroke-width="3" stroke-linecap="square">
                        <path d="M0.479183733,1.5 L7.77931118,1.5" id="Line-Copy-2"></path>
                    </g>
                    <g id="Group-18">
                        <path d="M1,21.5 L1,21.5 C1,32.8236081 10.1738674,42 21.4922821,42 L46.5077179,42 C57.8173962,42 67,32.8176615 67,21.5 C67,10.1763919 57.8261326,1 46.5077179,1 L21.4922821,1 C10.1826038,1 1,10.1823385 1,21.5 L1,21.5 Z M0,21.5 C0,9.62587788 9.63449504,0 21.4922821,0 L46.5077179,0 C58.3775775,0 68,9.62326709 68,21.5 C68,33.3741221 58.365505,43 46.5077179,43 L21.4922821,43 C9.62242246,43 0,33.3767329 0,21.5 L0,21.5 Z" id="Rectangle-157-Copy-2" fill="#B0B8C6"></path>
                        <path d="M25.9101562,22.9609375 C25.9101562,23.9661509 25.5455766,24.7499972 24.8164062,25.3125 C24.0872359,25.8750028 23.0976625,26.15625 21.8476562,26.15625 C20.4934828,26.15625 19.4518266,25.9817726 18.7226562,25.6328125 L18.7226562,24.3515625 C19.1914086,24.5494802 19.7018202,24.7057286 20.2539062,24.8203125 C20.8059923,24.9348964 21.3528619,24.9921875 21.8945312,24.9921875 C22.7799523,24.9921875 23.4466123,24.8242204 23.8945312,24.4882812 C24.3424502,24.1523421 24.5664062,23.6848988 24.5664062,23.0859375 C24.5664062,22.6901022 24.48698,22.3658867 24.328125,22.1132812 C24.16927,21.8606758 23.9036477,21.6276052 23.53125,21.4140625 C23.1588523,21.2005198 22.5924517,20.9583347 21.8320312,20.6875 C20.7695259,20.3072898 20.0104189,19.8567734 19.5546875,19.3359375 C19.0989561,18.8151016 18.8710938,18.1354209 18.8710938,17.296875 C18.8710938,16.4166623 19.2018196,15.7161484 19.8632812,15.1953125 C20.5247429,14.6744766 21.3997341,14.4140625 22.4882812,14.4140625 C23.6237036,14.4140625 24.667964,14.6223938 25.6210938,15.0390625 L25.2070312,16.1953125 C24.2643182,15.7994772 23.3476607,15.6015625 22.4570312,15.6015625 C21.7539027,15.6015625 21.2044291,15.7526027 20.8085938,16.0546875 C20.4127584,16.3567723 20.2148438,16.776039 20.2148438,17.3125 C20.2148438,17.7083353 20.2877597,18.0325508 20.4335938,18.2851562 C20.5794278,18.5377617 20.8255191,18.7695302 21.171875,18.9804688 C21.5182309,19.1914073 22.0481735,19.4244779 22.7617188,19.6796875 C23.9596414,20.106773 24.7838519,20.5651017 25.234375,21.0546875 C25.6848981,21.5442733 25.9101562,22.1796836 25.9101562,22.9609375 L25.9101562,22.9609375 Z M30.8164062,25.0859375 C31.0455741,25.0859375 31.266926,25.0690106 31.4804688,25.0351562 C31.6940115,25.0013019 31.8632806,24.966146 31.9882812,24.9296875 L31.9882812,25.921875 C31.8476555,25.9895837 31.6406264,26.0455727 31.3671875,26.0898438 C31.0937486,26.1341148 30.8476573,26.15625 30.6289062,26.15625 C28.972648,26.15625 28.1445312,25.2838629 28.1445312,23.5390625 L28.1445312,18.4453125 L26.9179688,18.4453125 L26.9179688,17.8203125 L28.1445312,17.28125 L28.6914062,15.453125 L29.4414062,15.453125 L29.4414062,17.4375 L31.9257812,17.4375 L31.9257812,18.4453125 L29.4414062,18.4453125 L29.4414062,23.484375 C29.4414062,24.0000026 29.5638009,24.395832 29.8085938,24.671875 C30.0533866,24.947918 30.3893208,25.0859375 30.8164062,25.0859375 L30.8164062,25.0859375 Z M37.3164062,26.15625 C36.0507749,26.15625 35.052087,25.7708372 34.3203125,25 C33.588538,24.2291628 33.2226562,23.158861 33.2226562,21.7890625 C33.2226562,20.4088473 33.5624966,19.3125041 34.2421875,18.5 C34.9218784,17.6874959 35.8346297,17.28125 36.9804688,17.28125 C38.0533908,17.28125 38.9023406,17.6341111 39.5273438,18.3398438 C40.1523469,19.0455764 40.4648438,19.9765567 40.4648438,21.1328125 L40.4648438,21.953125 L34.5664062,21.953125 C34.592448,22.9583384 34.8463518,23.7213516 35.328125,24.2421875 C35.8098982,24.7630234 36.4882769,25.0234375 37.3632812,25.0234375 C38.2851609,25.0234375 39.1966101,24.8307311 40.0976562,24.4453125 L40.0976562,25.6015625 C39.6393206,25.7994802 39.2057312,25.9414058 38.796875,26.0273438 C38.3880188,26.1132817 37.8945341,26.15625 37.3164062,26.15625 L37.3164062,26.15625 Z M36.9648438,18.3671875 C36.2773403,18.3671875 35.7291687,18.5911436 35.3203125,19.0390625 C34.9114563,19.4869814 34.6705733,20.1067669 34.5976562,20.8984375 L39.0742188,20.8984375 C39.0742188,20.0807251 38.8919289,19.4544293 38.5273438,19.0195312 C38.1627586,18.5846332 37.6419305,18.3671875 36.9648438,18.3671875 L36.9648438,18.3671875 Z M46.6601562,26.15625 C46.1028618,26.15625 45.5937523,26.0533864 45.1328125,25.8476562 C44.6718727,25.6419261 44.2851578,25.325523 43.9726562,24.8984375 L43.8789062,24.8984375 C43.9414066,25.39844 43.9726562,25.8723936 43.9726562,26.3203125 L43.9726562,29.84375 L42.6757812,29.84375 L42.6757812,17.4375 L43.7304688,17.4375 L43.9101562,18.609375 L43.9726562,18.609375 C44.3059912,18.1406227 44.6940082,17.8020844 45.1367188,17.59375 C45.5794293,17.3854156 46.0872367,17.28125 46.6601562,17.28125 C47.7955786,17.28125 48.6718719,17.669267 49.2890625,18.4453125 C49.9062531,19.221358 50.2148438,20.3098888 50.2148438,21.7109375 C50.2148438,23.1171945 49.9010448,24.2096315 49.2734375,24.9882812 C48.6458302,25.766931 47.7747452,26.15625 46.6601562,26.15625 L46.6601562,26.15625 Z M46.4726562,18.3828125 C45.5976519,18.3828125 44.9648457,18.6249976 44.5742188,19.109375 C44.1835918,19.5937524 43.983073,20.364578 43.9726562,21.421875 L43.9726562,21.7109375 C43.9726562,22.9140685 44.1731751,23.774737 44.5742188,24.2929688 C44.9752624,24.8112005 45.6184852,25.0703125 46.5039062,25.0703125 C47.2434933,25.0703125 47.8229146,24.7708363 48.2421875,24.171875 C48.6614604,23.5729137 48.8710938,22.7474011 48.8710938,21.6953125 C48.8710938,20.6275988 48.6614604,19.8085966 48.2421875,19.2382812 C47.8229146,18.6679659 47.2330767,18.3828125 46.4726562,18.3828125 L46.4726562,18.3828125 Z" id="Step" fill="#23B0E8"></path>
                    </g>
                    <g id="Group-19" transform="translate(76.000000, 0.000000)">
                        <path d="M1,21.5 L1,21.5 C1,32.8236081 10.1738674,42 21.4922821,42 L46.5077179,42 C57.8173962,42 67,32.8176615 67,21.5 C67,10.1763919 57.8261326,1 46.5077179,1 L21.4922821,1 C10.1826038,1 1,10.1823385 1,21.5 L1,21.5 Z M0,21.5 C0,9.62587788 9.63449504,0 21.4922821,0 L46.5077179,0 C58.3775775,0 68,9.62326709 68,21.5 C68,33.3741221 58.365505,43 46.5077179,43 L21.4922821,43 C9.62242246,43 0,33.3767329 0,21.5 L0,21.5 Z" id="Rectangle-157-Copy-5" fill="#B0B8C6"></path>
                        <path d="M25.9101562,22.9609375 C25.9101562,23.9661509 25.5455766,24.7499972 24.8164062,25.3125 C24.0872359,25.8750028 23.0976625,26.15625 21.8476562,26.15625 C20.4934828,26.15625 19.4518266,25.9817726 18.7226562,25.6328125 L18.7226562,24.3515625 C19.1914086,24.5494802 19.7018202,24.7057286 20.2539062,24.8203125 C20.8059923,24.9348964 21.3528619,24.9921875 21.8945312,24.9921875 C22.7799523,24.9921875 23.4466123,24.8242204 23.8945312,24.4882812 C24.3424502,24.1523421 24.5664062,23.6848988 24.5664062,23.0859375 C24.5664062,22.6901022 24.48698,22.3658867 24.328125,22.1132812 C24.16927,21.8606758 23.9036477,21.6276052 23.53125,21.4140625 C23.1588523,21.2005198 22.5924517,20.9583347 21.8320312,20.6875 C20.7695259,20.3072898 20.0104189,19.8567734 19.5546875,19.3359375 C19.0989561,18.8151016 18.8710938,18.1354209 18.8710938,17.296875 C18.8710938,16.4166623 19.2018196,15.7161484 19.8632812,15.1953125 C20.5247429,14.6744766 21.3997341,14.4140625 22.4882812,14.4140625 C23.6237036,14.4140625 24.667964,14.6223938 25.6210938,15.0390625 L25.2070312,16.1953125 C24.2643182,15.7994772 23.3476607,15.6015625 22.4570312,15.6015625 C21.7539027,15.6015625 21.2044291,15.7526027 20.8085938,16.0546875 C20.4127584,16.3567723 20.2148438,16.776039 20.2148438,17.3125 C20.2148438,17.7083353 20.2877597,18.0325508 20.4335938,18.2851562 C20.5794278,18.5377617 20.8255191,18.7695302 21.171875,18.9804688 C21.5182309,19.1914073 22.0481735,19.4244779 22.7617188,19.6796875 C23.9596414,20.106773 24.7838519,20.5651017 25.234375,21.0546875 C25.6848981,21.5442733 25.9101562,22.1796836 25.9101562,22.9609375 L25.9101562,22.9609375 Z M30.8164062,25.0859375 C31.0455741,25.0859375 31.266926,25.0690106 31.4804688,25.0351562 C31.6940115,25.0013019 31.8632806,24.966146 31.9882812,24.9296875 L31.9882812,25.921875 C31.8476555,25.9895837 31.6406264,26.0455727 31.3671875,26.0898438 C31.0937486,26.1341148 30.8476573,26.15625 30.6289062,26.15625 C28.972648,26.15625 28.1445312,25.2838629 28.1445312,23.5390625 L28.1445312,18.4453125 L26.9179688,18.4453125 L26.9179688,17.8203125 L28.1445312,17.28125 L28.6914062,15.453125 L29.4414062,15.453125 L29.4414062,17.4375 L31.9257812,17.4375 L31.9257812,18.4453125 L29.4414062,18.4453125 L29.4414062,23.484375 C29.4414062,24.0000026 29.5638009,24.395832 29.8085938,24.671875 C30.0533866,24.947918 30.3893208,25.0859375 30.8164062,25.0859375 L30.8164062,25.0859375 Z M37.3164062,26.15625 C36.0507749,26.15625 35.052087,25.7708372 34.3203125,25 C33.588538,24.2291628 33.2226562,23.158861 33.2226562,21.7890625 C33.2226562,20.4088473 33.5624966,19.3125041 34.2421875,18.5 C34.9218784,17.6874959 35.8346297,17.28125 36.9804688,17.28125 C38.0533908,17.28125 38.9023406,17.6341111 39.5273438,18.3398438 C40.1523469,19.0455764 40.4648438,19.9765567 40.4648438,21.1328125 L40.4648438,21.953125 L34.5664062,21.953125 C34.592448,22.9583384 34.8463518,23.7213516 35.328125,24.2421875 C35.8098982,24.7630234 36.4882769,25.0234375 37.3632812,25.0234375 C38.2851609,25.0234375 39.1966101,24.8307311 40.0976562,24.4453125 L40.0976562,25.6015625 C39.6393206,25.7994802 39.2057312,25.9414058 38.796875,26.0273438 C38.3880188,26.1132817 37.8945341,26.15625 37.3164062,26.15625 L37.3164062,26.15625 Z M36.9648438,18.3671875 C36.2773403,18.3671875 35.7291687,18.5911436 35.3203125,19.0390625 C34.9114563,19.4869814 34.6705733,20.1067669 34.5976562,20.8984375 L39.0742188,20.8984375 C39.0742188,20.0807251 38.8919289,19.4544293 38.5273438,19.0195312 C38.1627586,18.5846332 37.6419305,18.3671875 36.9648438,18.3671875 L36.9648438,18.3671875 Z M46.6601562,26.15625 C46.1028618,26.15625 45.5937523,26.0533864 45.1328125,25.8476562 C44.6718727,25.6419261 44.2851578,25.325523 43.9726562,24.8984375 L43.8789062,24.8984375 C43.9414066,25.39844 43.9726562,25.8723936 43.9726562,26.3203125 L43.9726562,29.84375 L42.6757812,29.84375 L42.6757812,17.4375 L43.7304688,17.4375 L43.9101562,18.609375 L43.9726562,18.609375 C44.3059912,18.1406227 44.6940082,17.8020844 45.1367188,17.59375 C45.5794293,17.3854156 46.0872367,17.28125 46.6601562,17.28125 C47.7955786,17.28125 48.6718719,17.669267 49.2890625,18.4453125 C49.9062531,19.221358 50.2148438,20.3098888 50.2148438,21.7109375 C50.2148438,23.1171945 49.9010448,24.2096315 49.2734375,24.9882812 C48.6458302,25.766931 47.7747452,26.15625 46.6601562,26.15625 L46.6601562,26.15625 Z M46.4726562,18.3828125 C45.5976519,18.3828125 44.9648457,18.6249976 44.5742188,19.109375 C44.1835918,19.5937524 43.983073,20.364578 43.9726562,21.421875 L43.9726562,21.7109375 C43.9726562,22.9140685 44.1731751,23.774737 44.5742188,24.2929688 C44.9752624,24.8112005 45.6184852,25.0703125 46.5039062,25.0703125 C47.2434933,25.0703125 47.8229146,24.7708363 48.2421875,24.171875 C48.6614604,23.5729137 48.8710938,22.7474011 48.8710938,21.6953125 C48.8710938,20.6275988 48.6614604,19.8085966 48.2421875,19.2382812 C47.8229146,18.6679659 47.2330767,18.3828125 46.4726562,18.3828125 L46.4726562,18.3828125 Z" id="Step-Copy" fill="#23B0E8"></path>
                    </g>
                    <g id="Group-20" transform="translate(152.000000, 0.000000)">
                        <path d="M1,21.5 L1,21.5 C1,32.8236081 10.1738674,42 21.4922821,42 L46.5077179,42 C57.8173962,42 67,32.8176615 67,21.5 C67,10.1763919 57.8261326,1 46.5077179,1 L21.4922821,1 C10.1826038,1 1,10.1823385 1,21.5 L1,21.5 Z M0,21.5 C0,9.62587788 9.63449504,0 21.4922821,0 L46.5077179,0 C58.3775775,0 68,9.62326709 68,21.5 C68,33.3741221 58.365505,43 46.5077179,43 L21.4922821,43 C9.62242246,43 0,33.3767329 0,21.5 L0,21.5 Z" id="Rectangle-157-Copy-6" fill="#B0B8C6"></path>
                        <path d="M25.9101562,22.9609375 C25.9101562,23.9661509 25.5455766,24.7499972 24.8164062,25.3125 C24.0872359,25.8750028 23.0976625,26.15625 21.8476562,26.15625 C20.4934828,26.15625 19.4518266,25.9817726 18.7226562,25.6328125 L18.7226562,24.3515625 C19.1914086,24.5494802 19.7018202,24.7057286 20.2539062,24.8203125 C20.8059923,24.9348964 21.3528619,24.9921875 21.8945312,24.9921875 C22.7799523,24.9921875 23.4466123,24.8242204 23.8945312,24.4882812 C24.3424502,24.1523421 24.5664062,23.6848988 24.5664062,23.0859375 C24.5664062,22.6901022 24.48698,22.3658867 24.328125,22.1132812 C24.16927,21.8606758 23.9036477,21.6276052 23.53125,21.4140625 C23.1588523,21.2005198 22.5924517,20.9583347 21.8320312,20.6875 C20.7695259,20.3072898 20.0104189,19.8567734 19.5546875,19.3359375 C19.0989561,18.8151016 18.8710938,18.1354209 18.8710938,17.296875 C18.8710938,16.4166623 19.2018196,15.7161484 19.8632812,15.1953125 C20.5247429,14.6744766 21.3997341,14.4140625 22.4882812,14.4140625 C23.6237036,14.4140625 24.667964,14.6223938 25.6210938,15.0390625 L25.2070312,16.1953125 C24.2643182,15.7994772 23.3476607,15.6015625 22.4570312,15.6015625 C21.7539027,15.6015625 21.2044291,15.7526027 20.8085938,16.0546875 C20.4127584,16.3567723 20.2148438,16.776039 20.2148438,17.3125 C20.2148438,17.7083353 20.2877597,18.0325508 20.4335938,18.2851562 C20.5794278,18.5377617 20.8255191,18.7695302 21.171875,18.9804688 C21.5182309,19.1914073 22.0481735,19.4244779 22.7617188,19.6796875 C23.9596414,20.106773 24.7838519,20.5651017 25.234375,21.0546875 C25.6848981,21.5442733 25.9101562,22.1796836 25.9101562,22.9609375 L25.9101562,22.9609375 Z M30.8164062,25.0859375 C31.0455741,25.0859375 31.266926,25.0690106 31.4804688,25.0351562 C31.6940115,25.0013019 31.8632806,24.966146 31.9882812,24.9296875 L31.9882812,25.921875 C31.8476555,25.9895837 31.6406264,26.0455727 31.3671875,26.0898438 C31.0937486,26.1341148 30.8476573,26.15625 30.6289062,26.15625 C28.972648,26.15625 28.1445312,25.2838629 28.1445312,23.5390625 L28.1445312,18.4453125 L26.9179688,18.4453125 L26.9179688,17.8203125 L28.1445312,17.28125 L28.6914062,15.453125 L29.4414062,15.453125 L29.4414062,17.4375 L31.9257812,17.4375 L31.9257812,18.4453125 L29.4414062,18.4453125 L29.4414062,23.484375 C29.4414062,24.0000026 29.5638009,24.395832 29.8085938,24.671875 C30.0533866,24.947918 30.3893208,25.0859375 30.8164062,25.0859375 L30.8164062,25.0859375 Z M37.3164062,26.15625 C36.0507749,26.15625 35.052087,25.7708372 34.3203125,25 C33.588538,24.2291628 33.2226562,23.158861 33.2226562,21.7890625 C33.2226562,20.4088473 33.5624966,19.3125041 34.2421875,18.5 C34.9218784,17.6874959 35.8346297,17.28125 36.9804688,17.28125 C38.0533908,17.28125 38.9023406,17.6341111 39.5273438,18.3398438 C40.1523469,19.0455764 40.4648438,19.9765567 40.4648438,21.1328125 L40.4648438,21.953125 L34.5664062,21.953125 C34.592448,22.9583384 34.8463518,23.7213516 35.328125,24.2421875 C35.8098982,24.7630234 36.4882769,25.0234375 37.3632812,25.0234375 C38.2851609,25.0234375 39.1966101,24.8307311 40.0976562,24.4453125 L40.0976562,25.6015625 C39.6393206,25.7994802 39.2057312,25.9414058 38.796875,26.0273438 C38.3880188,26.1132817 37.8945341,26.15625 37.3164062,26.15625 L37.3164062,26.15625 Z M36.9648438,18.3671875 C36.2773403,18.3671875 35.7291687,18.5911436 35.3203125,19.0390625 C34.9114563,19.4869814 34.6705733,20.1067669 34.5976562,20.8984375 L39.0742188,20.8984375 C39.0742188,20.0807251 38.8919289,19.4544293 38.5273438,19.0195312 C38.1627586,18.5846332 37.6419305,18.3671875 36.9648438,18.3671875 L36.9648438,18.3671875 Z M46.6601562,26.15625 C46.1028618,26.15625 45.5937523,26.0533864 45.1328125,25.8476562 C44.6718727,25.6419261 44.2851578,25.325523 43.9726562,24.8984375 L43.8789062,24.8984375 C43.9414066,25.39844 43.9726562,25.8723936 43.9726562,26.3203125 L43.9726562,29.84375 L42.6757812,29.84375 L42.6757812,17.4375 L43.7304688,17.4375 L43.9101562,18.609375 L43.9726562,18.609375 C44.3059912,18.1406227 44.6940082,17.8020844 45.1367188,17.59375 C45.5794293,17.3854156 46.0872367,17.28125 46.6601562,17.28125 C47.7955786,17.28125 48.6718719,17.669267 49.2890625,18.4453125 C49.9062531,19.221358 50.2148438,20.3098888 50.2148438,21.7109375 C50.2148438,23.1171945 49.9010448,24.2096315 49.2734375,24.9882812 C48.6458302,25.766931 47.7747452,26.15625 46.6601562,26.15625 L46.6601562,26.15625 Z M46.4726562,18.3828125 C45.5976519,18.3828125 44.9648457,18.6249976 44.5742188,19.109375 C44.1835918,19.5937524 43.983073,20.364578 43.9726562,21.421875 L43.9726562,21.7109375 C43.9726562,22.9140685 44.1731751,23.774737 44.5742188,24.2929688 C44.9752624,24.8112005 45.6184852,25.0703125 46.5039062,25.0703125 C47.2434933,25.0703125 47.8229146,24.7708363 48.2421875,24.171875 C48.6614604,23.5729137 48.8710938,22.7474011 48.8710938,21.6953125 C48.8710938,20.6275988 48.6614604,19.8085966 48.2421875,19.2382812 C47.8229146,18.6679659 47.2330767,18.3828125 46.4726562,18.3828125 L46.4726562,18.3828125 Z" id="Step-Copy-2" fill="#23B0E8"></path>
                    </g>
                </g>
                <g id="Group-16" transform="translate(56.000000, 114.000000)">
                    <g id="Group-7">
                        <rect id="Rectangle-path" fill="#B0B8C6" x="6.72463768" y="8" width="16.1391304" height="1.33333333"></rect>
                        <rect id="Rectangle-path" fill="#B0B8C6" x="6.72463768" y="12" width="6.72463768" height="1.33333333"></rect>
                        <rect id="Rectangle-path" fill="#B0B8C6" x="14.7942029" y="12" width="5.37971014" height="1.33333333"></rect>
                        <rect id="Rectangle-path" fill="#B0B8C6" x="9.41449275" y="16" width="10.7594203" height="1.33333333"></rect>
                        <rect id="Rectangle-path" fill="#B0B8C6" x="9.41449275" y="24" width="8.06956522" height="1.33333333"></rect>
                        <rect id="Rectangle-path" fill="#B0B8C6" x="6.72463768" y="20" width="4.03478261" height="1.33333333"></rect>
                        <path d="M9.41423839,31.6666667 L7.48080704,31.6666667 L6.92989285,31.6666667 L4.70695172,31.6666667 C2.10723358,31.6666667 -0.000141253704,29.5889283 0,26.9941409 L0.00121512589,4.67252572 C0.00135560492,2.09196103 2.11257529,0 4.69998836,0 L9.41596224,0" id="Shape" stroke="#B0B8C6" stroke-width="1.5"></path>
                        <path d="M29.5881515,31.6666667 L24.8725072,31.6666667 L24.8725072,31.6666667 C22.2774049,31.6666667 20.1737718,29.5889283 20.173913,26.9941409 L20.1751282,4.67252572 C20.1752686,2.09196103 22.2852274,7.83047101e-15 24.8838678,3.09351941e-15 C24.8838678,3.09351941e-15 26.4458926,-6.38038379e-15 24.8739014,7.83047101e-15 C23.3019101,3.62521803e-14 28.017884,7.83047101e-15 29.5898753,7.83047101e-15" id="Shape" stroke="#B0B8C6" stroke-width="1.5" transform="translate(24.881894, 15.833333) scale(-1, 1) translate(-24.881894, -15.833333) "></path>
                    </g>
                    <path d="M48.2519531,5.43310547 C48.2519531,6.53760318 48.0297874,7.5130166 47.5854492,8.359375 C47.1411111,9.2057334 46.5063518,9.85741959 45.6811523,10.3144531 C44.8559529,10.7714867 43.8890029,11 42.7802734,11 L40.5458984,11 L42.5073242,1.71972656 L44.6782227,1.71972656 C45.8461972,1.71972656 46.7338023,2.03604827 47.3410645,2.66870117 C47.9483266,3.30135407 48.2519531,4.22281296 48.2519531,5.43310547 L48.2519531,5.43310547 Z M42.8500977,10.0668945 C43.7049196,10.0668945 44.4560515,9.87329295 45.1035156,9.48608398 C45.7509798,9.09887502 46.24715,8.55192411 46.592041,7.84521484 C46.9369321,7.13850558 47.109375,6.33024543 47.109375,5.42041016 C47.109375,4.51057488 46.891441,3.82186106 46.4555664,3.35424805 C46.0196918,2.88663503 45.3807008,2.65283203 44.5385742,2.65283203 L43.4086914,2.65283203 L41.8217773,10.0668945 L42.8500977,10.0668945 Z M51.78125,11.1269531 C51.0026003,11.1269531 50.3911155,10.8963239 49.9467773,10.4350586 C49.5024392,9.97379327 49.2802734,9.33480226 49.2802734,8.51806641 C49.2802734,7.72248951 49.4379053,6.95972045 49.7531738,6.22973633 C50.0684423,5.49975221 50.4863255,4.93164266 51.0068359,4.52539062 C51.5273464,4.11913859 52.1007456,3.91601562 52.7270508,3.91601562 C53.374515,3.91601562 53.8611637,4.0567206 54.1870117,4.33813477 C54.5128597,4.61954893 54.6757812,5.01204175 54.6757812,5.515625 C54.6757812,6.27734756 54.3245478,6.87507921 53.6220703,7.30883789 C52.9195928,7.74259657 51.9145573,7.95947266 50.6069336,7.95947266 L50.3974609,7.95947266 L50.3720703,8.46728516 C50.3720703,9.02164991 50.502196,9.45434415 50.7624512,9.76538086 C51.0227064,10.0764176 51.4257785,10.2319336 51.9716797,10.2319336 C52.2382826,10.2319336 52.512287,10.193848 52.7937012,10.1176758 C53.0751153,10.0415035 53.4252909,9.90185648 53.8442383,9.69873047 L53.8442383,10.6254883 C53.4464498,10.8116871 53.0952164,10.9418128 52.7905273,11.0158691 C52.4858383,11.0899255 52.1494159,11.1269531 51.78125,11.1269531 L51.78125,11.1269531 Z M52.6635742,4.82373047 C52.2276996,4.82373047 51.8182799,5.02262171 51.4353027,5.42041016 C51.0523256,5.8181986 50.7592784,6.37043917 50.5561523,7.07714844 L50.6323242,7.07714844 C51.5971728,7.07714844 52.3366674,6.95125451 52.8508301,6.69946289 C53.3649928,6.44767127 53.6220703,6.08268468 53.6220703,5.60449219 C53.6220703,5.38020721 53.5448413,5.19401116 53.3903809,5.04589844 C53.2359205,4.89778572 52.993654,4.82373047 52.6635742,4.82373047 L52.6635742,4.82373047 Z M54.4091797,14.1230469 C54.117186,14.1230469 53.852703,14.0786137 53.6157227,13.9897461 L53.6157227,13.0947266 C53.8865573,13.187826 54.1235341,13.234375 54.3266602,13.234375 C54.6482763,13.234375 54.8958325,13.1031914 55.0693359,12.8408203 C55.2428394,12.5784492 55.3824865,12.2039412 55.4882812,11.7172852 L56.9291992,4.84912109 L55.7041016,4.84912109 L55.7866211,4.42382812 L57.0942383,4.00488281 L57.2402344,3.37011719 C57.4348968,2.52375879 57.7046695,1.92602714 58.0495605,1.5769043 C58.3944516,1.22778146 58.9054328,1.05322266 59.5825195,1.05322266 C59.7517912,1.05322266 59.9591459,1.0775551 60.2045898,1.1262207 C60.4500338,1.17488631 60.6404616,1.22884085 60.7758789,1.28808594 L60.5029297,2.10693359 C60.1813135,1.98421163 59.8914401,1.92285156 59.6333008,1.92285156 C59.2651349,1.92285156 58.982667,2.02547098 58.7858887,2.23071289 C58.5891103,2.4359548 58.4293626,2.81152071 58.3066406,3.35742188 L58.1479492,4.04296875 L59.6586914,4.04296875 L59.5,4.84912109 L57.9956055,4.84912109 L56.5229492,11.8188477 C56.3579093,12.6186563 56.1040056,13.2026349 55.7612305,13.5708008 C55.4184553,13.9389667 54.9677762,14.1230469 54.4091797,14.1230469 L54.4091797,14.1230469 Z M60.5917969,11 L59.5253906,11 L61.0107422,4.04296875 L62.0771484,4.04296875 L60.5917969,11 Z M61.309082,2.265625 C61.309082,2.02864465 61.3767897,1.83504307 61.512207,1.68481445 C61.6476244,1.53458584 61.8232411,1.45947266 62.0390625,1.45947266 C62.4114602,1.45947266 62.5976562,1.64990044 62.5976562,2.03076172 C62.5976562,2.26351028 62.5267748,2.46028565 62.3850098,2.62109375 C62.2432447,2.78190185 62.0792653,2.86230469 61.8930664,2.86230469 C61.7237947,2.86230469 61.5841477,2.81046601 61.4741211,2.70678711 C61.3640945,2.60310821 61.309082,2.45605564 61.309082,2.265625 L61.309082,2.265625 Z M67.0917969,11 L68.03125,6.60742188 C68.1158858,6.16731551 68.1582031,5.86263105 68.1582031,5.69335938 C68.1582031,5.42675648 68.0830899,5.21305419 67.9328613,5.05224609 C67.7826327,4.891438 67.5424821,4.81103516 67.2124023,4.81103516 C66.8357729,4.81103516 66.4686704,4.93798701 66.111084,5.19189453 C65.7534976,5.44580205 65.4382338,5.80761484 65.1652832,6.27734375 C64.8923326,6.74707266 64.6860359,7.31624015 64.5463867,7.98486328 L63.9052734,11 L62.8388672,11 L64.3242188,4.04296875 L65.206543,4.04296875 L65.0668945,5.33154297 L65.1303711,5.33154297 C65.5366231,4.81526435 65.9291159,4.45027776 66.3078613,4.23657227 C66.6866067,4.02286677 67.0790995,3.91601562 67.4853516,3.91601562 C68.0227891,3.91601562 68.4470199,4.06306819 68.7580566,4.35717773 C69.0690934,4.65128728 69.2246094,5.06282288 69.2246094,5.59179688 C69.2246094,5.92610844 69.1759445,6.30696401 69.0786133,6.734375 L68.1708984,11 L67.0917969,11 Z M73.090332,11.1269531 C72.3116823,11.1269531 71.7001975,10.8963239 71.2558594,10.4350586 C70.8115212,9.97379327 70.5893555,9.33480226 70.5893555,8.51806641 C70.5893555,7.72248951 70.7469874,6.95972045 71.0622559,6.22973633 C71.3775244,5.49975221 71.7954076,4.93164266 72.315918,4.52539062 C72.8364284,4.11913859 73.4098276,3.91601562 74.0361328,3.91601562 C74.683597,3.91601562 75.1702458,4.0567206 75.4960938,4.33813477 C75.8219417,4.61954893 75.9848633,5.01204175 75.9848633,5.515625 C75.9848633,6.27734756 75.6336298,6.87507921 74.9311523,7.30883789 C74.2286749,7.74259657 73.2236394,7.95947266 71.9160156,7.95947266 L71.706543,7.95947266 L71.6811523,8.46728516 C71.6811523,9.02164991 71.811278,9.45434415 72.0715332,9.76538086 C72.3317884,10.0764176 72.7348606,10.2319336 73.2807617,10.2319336 C73.5473646,10.2319336 73.821369,10.193848 74.1027832,10.1176758 C74.3841974,10.0415035 74.7343729,9.90185648 75.1533203,9.69873047 L75.1533203,10.6254883 C74.7555319,10.8116871 74.4042984,10.9418128 74.0996094,11.0158691 C73.7949204,11.0899255 73.4584979,11.1269531 73.090332,11.1269531 L73.090332,11.1269531 Z M73.9726562,4.82373047 C73.5367817,4.82373047 73.1273619,5.02262171 72.7443848,5.42041016 C72.3614076,5.8181986 72.0683604,6.37043917 71.8652344,7.07714844 L71.9414062,7.07714844 C72.9062548,7.07714844 73.6457494,6.95125451 74.1599121,6.69946289 C74.6740748,6.44767127 74.9311523,6.08268468 74.9311523,5.60449219 C74.9311523,5.38020721 74.8539233,5.19401116 74.6994629,5.04589844 C74.5450025,4.89778572 74.302736,4.82373047 73.9726562,4.82373047 L73.9726562,4.82373047 Z M80.4345703,3.92871094 C81.255538,3.92871094 81.8500958,4.33072515 82.2182617,5.13476562 L82.2817383,5.13476562 C82.3536787,4.47883787 82.4488926,3.89909106 82.5673828,3.39550781 L83.0625,1.12304688 L84.1162109,1.12304688 L82.0214844,11 L81.1391602,11 L81.2788086,9.67333984 L81.2280273,9.67333984 C80.8006164,10.2023138 80.400718,10.5768218 80.0283203,10.796875 C79.6559226,11.0169282 79.2708353,11.1269531 78.8730469,11.1269531 C78.2848278,11.1269531 77.8256852,10.9195984 77.4956055,10.5048828 C77.1655257,10.0901672 77.0004883,9.51465212 77.0004883,8.77832031 C77.0004883,7.87271683 77.1528305,7.04329804 77.4575195,6.29003906 C77.7622086,5.53678009 78.1737442,4.95491742 78.6921387,4.54443359 C79.2105332,4.13394977 79.7913379,3.92871094 80.4345703,3.92871094 L80.4345703,3.92871094 Z M79.2285156,10.2446289 C79.6263041,10.2446289 80.0367817,10.0467956 80.4599609,9.65112305 C80.8831401,9.2554505 81.2185046,8.74975894 81.4660645,8.1340332 C81.7136243,7.51830747 81.8374023,6.89095372 81.8374023,6.25195312 C81.8374023,5.78222421 81.7231457,5.42464315 81.4946289,5.17919922 C81.2661121,4.93375528 80.9339215,4.81103516 80.4980469,4.81103516 C80.0706359,4.81103516 79.6739113,4.98559396 79.3078613,5.3347168 C78.9418113,5.68383964 78.6477062,6.17472014 78.4255371,6.80737305 C78.203368,7.44002595 78.0922852,8.10546526 78.0922852,8.80371094 C78.0922852,9.76432772 78.4710249,10.2446289 79.2285156,10.2446289 L79.2285156,10.2446289 Z M88.6992188,11 L87.6328125,11 L89.1181641,4.04296875 L90.1845703,4.04296875 L88.6992188,11 Z M89.4165039,2.265625 C89.4165039,2.02864465 89.4842116,1.83504307 89.6196289,1.68481445 C89.7550462,1.53458584 89.930663,1.45947266 90.1464844,1.45947266 C90.5188821,1.45947266 90.7050781,1.64990044 90.7050781,2.03076172 C90.7050781,2.26351028 90.6341967,2.46028565 90.4924316,2.62109375 C90.3506666,2.78190185 90.1866871,2.86230469 90.0004883,2.86230469 C89.8312166,2.86230469 89.6915696,2.81046601 89.581543,2.70678711 C89.4715164,2.60310821 89.4165039,2.45605564 89.4165039,2.265625 L89.4165039,2.265625 Z M95.1865234,11 L96.1259766,6.60742188 C96.2106124,6.16731551 96.2529297,5.86263105 96.2529297,5.69335938 C96.2529297,5.42675648 96.1778165,5.21305419 96.0275879,5.05224609 C95.8773593,4.891438 95.6372087,4.81103516 95.3071289,4.81103516 C94.9304994,4.81103516 94.563397,4.93798701 94.2058105,5.19189453 C93.8482241,5.44580205 93.5329603,5.80761484 93.2600098,6.27734375 C92.9870592,6.74707266 92.7807624,7.31624015 92.6411133,7.98486328 L92,11 L90.9335938,11 L92.4189453,4.04296875 L93.3012695,4.04296875 L93.1616211,5.33154297 L93.2250977,5.33154297 C93.6313497,4.81526435 94.0238425,4.45027776 94.4025879,4.23657227 C94.7813333,4.02286677 95.1738261,3.91601562 95.5800781,3.91601562 C96.1175157,3.91601562 96.5417465,4.06306819 96.8527832,4.35717773 C97.1638199,4.65128728 97.3193359,5.06282288 97.3193359,5.59179688 C97.3193359,5.92610844 97.2706711,6.30696401 97.1733398,6.734375 L96.265625,11 L95.1865234,11 Z M45.2749023,29 L45.0717773,25.1787109 C45.0548502,24.7809225 45.0463867,24.4169938 45.0463867,24.0869141 L45.0463867,23.0966797 L44.9892578,23.0966797 L44.671875,23.8457031 L44.1450195,25.0454102 L42.2978516,29 L41.015625,29 L40.7426758,22.0429688 L41.7836914,22.0429688 L41.8979492,25.8134766 L41.8979492,26.3720703 C41.8979492,26.9941437 41.8810223,27.5633112 41.847168,28.0795898 L41.8852539,28.0795898 C42.0841481,27.5548476 42.3740215,26.8735393 42.7548828,26.0356445 L44.6274414,22.0429688 L45.7827148,22.0429688 L46.0175781,25.8134766 C46.0429689,26.5244176 46.0556641,27.0787741 46.0556641,27.4765625 L46.0556641,27.8129883 L46.0429688,28.0795898 L46.0810547,28.0795898 C46.1995449,27.7156557 46.3751616,27.2533394 46.6079102,26.692627 C46.8406587,26.1319145 47.5240829,24.5820439 48.6582031,22.0429688 L49.7880859,22.0429688 L46.5761719,29 L45.2749023,29 Z M52.4414062,29.1269531 C51.6627565,29.1269531 51.0512718,28.8963239 50.6069336,28.4350586 C50.1625954,27.9737933 49.9404297,27.3348023 49.9404297,26.5180664 C49.9404297,25.7224895 50.0980616,24.9597204 50.4133301,24.2297363 C50.7285986,23.4997522 51.1464818,22.9316427 51.6669922,22.5253906 C52.1875026,22.1191386 52.7609018,21.9160156 53.387207,21.9160156 C54.0346712,21.9160156 54.52132,22.0567206 54.847168,22.3381348 C55.173016,22.6195489 55.3359375,23.0120418 55.3359375,23.515625 C55.3359375,24.2773476 54.984704,24.8750792 54.2822266,25.3088379 C53.5797491,25.7425966 52.5747136,25.9594727 51.2670898,25.9594727 L51.0576172,25.9594727 L51.0322266,26.4672852 C51.0322266,27.0216499 51.1623522,27.4543441 51.4226074,27.7653809 C51.6828626,28.0764176 52.0859348,28.2319336 52.6318359,28.2319336 C52.8984388,28.2319336 53.1724433,28.193848 53.4538574,28.1176758 C53.7352716,28.0415035 54.0854471,27.9018565 54.5043945,27.6987305 L54.5043945,28.6254883 C54.1066061,28.8116871 53.7553726,28.9418128 53.4506836,29.0158691 C53.1459946,29.0899255 52.8095722,29.1269531 52.4414062,29.1269531 L52.4414062,29.1269531 Z M53.3237305,22.8237305 C52.8878559,22.8237305 52.4784362,23.0226217 52.095459,23.4204102 C51.7124818,23.8181986 51.4194346,24.3704392 51.2163086,25.0771484 L51.2924805,25.0771484 C52.257329,25.0771484 52.9968236,24.9512545 53.5109863,24.6994629 C54.0251491,24.4476713 54.2822266,24.0826847 54.2822266,23.6044922 C54.2822266,23.3802072 54.2049975,23.1940112 54.0505371,23.0458984 C53.8960767,22.8977857 53.6538102,22.8237305 53.3237305,22.8237305 L53.3237305,22.8237305 Z M60.5029297,21.9160156 C60.7949233,21.9160156 61.048827,21.9456377 61.2646484,22.0048828 L61.0361328,22.9570312 C60.8118478,22.902018 60.5896821,22.8745117 60.3696289,22.8745117 C59.9845358,22.8745117 59.623781,23.0014636 59.2873535,23.2553711 C58.9509261,23.5092786 58.6568209,23.86157 58.4050293,24.3122559 C58.1532377,24.7629417 57.9680996,25.2633436 57.8496094,25.8134766 L57.1704102,29 L56.1040039,29 L57.5893555,22.0429688 L58.4716797,22.0429688 L58.3320312,23.331543 L58.3955078,23.331543 C58.7001968,22.9295227 58.9519847,22.6407073 59.1508789,22.4650879 C59.3497731,22.2894685 59.5581858,22.1540532 59.776123,22.0588379 C59.9940603,21.9636226 60.2363268,21.9160156 60.5029297,21.9160156 L60.5029297,21.9160156 Z M64.0893555,29.1269531 C63.2683878,29.1269531 62.6315127,28.9005556 62.1787109,28.4477539 C61.7259092,27.9949522 61.4995117,27.3559612 61.4995117,26.5307617 C61.4995117,25.6844033 61.6560857,24.9036494 61.9692383,24.1884766 C62.2823909,23.4733037 62.7150851,22.9157735 63.267334,22.5158691 C63.8195828,22.1159648 64.440589,21.9160156 65.1303711,21.9160156 C65.7101266,21.9160156 66.2771782,22.0239247 66.831543,22.2397461 L66.5332031,23.1347656 C66.0253881,22.9189442 65.5620138,22.8110352 65.1430664,22.8110352 C64.6691057,22.8110352 64.2364115,22.9728988 63.8449707,23.2966309 C63.4535299,23.6203629 63.1467296,24.071042 62.9245605,24.6486816 C62.7023915,25.2263212 62.5913086,25.853675 62.5913086,26.5307617 C62.5913086,27.0724311 62.7320136,27.4934881 63.0134277,27.7939453 C63.2948419,28.0944025 63.683103,28.2446289 64.1782227,28.2446289 C64.4829117,28.2446289 64.7706692,28.2023116 65.0415039,28.1176758 C65.3123386,28.0330399 65.5789375,27.9335943 65.8413086,27.8193359 L65.8413086,28.7270508 C65.3165664,28.9936537 64.7325879,29.1269531 64.0893555,29.1269531 L64.0893555,29.1269531 Z M68.824707,25.4516602 L72.1635742,22.0429688 L73.4394531,22.0429688 L70.4624023,25.0073242 L72.3349609,29 L71.1479492,29 L69.65625,25.6738281 L68.6914062,26.4545898 L68.1708984,29 L67.0917969,29 L69.1865234,19.1230469 L70.265625,19.1230469 C69.960936,20.544929 69.6879895,21.8186793 69.4467773,22.9443359 C69.2055652,24.0699926 68.989747,24.905759 68.7993164,25.4516602 L68.824707,25.4516602 Z M76.1943359,29.1269531 C75.4156862,29.1269531 74.8042014,28.8963239 74.3598633,28.4350586 C73.9155251,27.9737933 73.6933594,27.3348023 73.6933594,26.5180664 C73.6933594,25.7224895 73.8509913,24.9597204 74.1662598,24.2297363 C74.4815283,23.4997522 74.8994115,22.9316427 75.4199219,22.5253906 C75.9404323,22.1191386 76.5138315,21.9160156 77.1401367,21.9160156 C77.7876009,21.9160156 78.2742497,22.0567206 78.6000977,22.3381348 C78.9259456,22.6195489 79.0888672,23.0120418 79.0888672,23.515625 C79.0888672,24.2773476 78.7376337,24.8750792 78.0351562,25.3088379 C77.3326788,25.7425966 76.3276433,25.9594727 75.0200195,25.9594727 L74.8105469,25.9594727 L74.7851562,26.4672852 C74.7851562,27.0216499 74.9152819,27.4543441 75.1755371,27.7653809 C75.4357923,28.0764176 75.8388645,28.2319336 76.3847656,28.2319336 C76.6513685,28.2319336 76.9253729,28.193848 77.2067871,28.1176758 C77.4882013,28.0415035 77.8383768,27.9018565 78.2573242,27.6987305 L78.2573242,28.6254883 C77.8595358,28.8116871 77.5083023,28.9418128 77.2036133,29.0158691 C76.8989243,29.0899255 76.5625018,29.1269531 76.1943359,29.1269531 L76.1943359,29.1269531 Z M77.0766602,22.8237305 C76.6407856,22.8237305 76.2313658,23.0226217 75.8483887,23.4204102 C75.4654115,23.8181986 75.1723643,24.3704392 74.9692383,25.0771484 L75.0454102,25.0771484 C76.0102587,25.0771484 76.7497533,24.9512545 77.263916,24.6994629 C77.7780787,24.4476713 78.0351562,24.0826847 78.0351562,23.6044922 C78.0351562,23.3802072 77.9579272,23.1940112 77.8034668,23.0458984 C77.6490064,22.8977857 77.4067399,22.8237305 77.0766602,22.8237305 L77.0766602,22.8237305 Z M84.2558594,21.9160156 C84.547853,21.9160156 84.8017567,21.9456377 85.0175781,22.0048828 L84.7890625,22.9570312 C84.5647775,22.902018 84.3426118,22.8745117 84.1225586,22.8745117 C83.7374655,22.8745117 83.3767107,23.0014636 83.0402832,23.2553711 C82.7038557,23.5092786 82.4097506,23.86157 82.157959,24.3122559 C81.9061674,24.7629417 81.7210292,25.2633436 81.6025391,25.8134766 L80.9233398,29 L79.8569336,29 L81.3422852,22.0429688 L82.2246094,22.0429688 L82.0849609,23.331543 L82.1484375,23.331543 C82.4531265,22.9295227 82.7049144,22.6407073 82.9038086,22.4650879 C83.1027028,22.2894685 83.3111154,22.1540532 83.5290527,22.0588379 C83.74699,21.9636226 83.9892565,21.9160156 84.2558594,21.9160156 L84.2558594,21.9160156 Z M84.9033203,28.5302734 C84.9033203,28.2044255 84.9890128,27.9452321 85.1604004,27.7526855 C85.331788,27.560139 85.5677068,27.4638672 85.8681641,27.4638672 C86.0501311,27.4638672 86.1971837,27.5188797 86.3093262,27.6289062 C86.4214687,27.7389328 86.4775391,27.9060861 86.4775391,28.1303711 C86.4775391,28.4308283 86.3929045,28.6815582 86.2236328,28.8825684 C86.0543611,29.0835785 85.8258478,29.184082 85.5380859,29.184082 C85.3434235,29.184082 85.1889654,29.1290696 85.074707,29.019043 C84.9604486,28.9090164 84.9033203,28.7460948 84.9033203,28.5302734 L84.9033203,28.5302734 Z M88.5405273,22.0429688 L89.6069336,22.0429688 L90.0766602,25.5024414 C90.1189781,25.7944351 90.1602374,26.2250134 90.2004395,26.7941895 C90.2406415,27.3633655 90.2607422,27.8214501 90.2607422,28.168457 L90.2988281,28.168457 C90.4469408,27.8002911 90.631021,27.3771183 90.8510742,26.8989258 C91.0711274,26.4207333 91.234049,26.0906585 91.3398438,25.9086914 L93.402832,22.0429688 L94.5327148,22.0429688 L90.1147461,30.1806641 C89.7211894,30.9085323 89.3318704,31.4142238 88.9467773,31.6977539 C88.5616843,31.981284 88.09831,32.1230469 87.5566406,32.1230469 C87.2519516,32.1230469 86.9557306,32.0786137 86.6679688,31.9897461 L86.6679688,31.1328125 C86.9345716,31.2089848 87.2117499,31.2470703 87.4995117,31.2470703 C87.8465187,31.2470703 88.1437976,31.1402192 88.3913574,30.9265137 C88.6389173,30.7128082 88.8790678,30.3964865 89.1118164,29.9775391 L89.5942383,29.1142578 L88.5405273,22.0429688 Z M98.3413086,29 L99.2807617,24.6074219 C99.356934,24.2096334 99.3950195,23.9239918 99.3950195,23.7504883 C99.3950195,23.4542628 99.3294277,23.2236336 99.1982422,23.0585938 C99.0670566,22.8935539 98.842775,22.8110352 98.5253906,22.8110352 C98.1699201,22.8110352 97.8239763,22.937987 97.4875488,23.1918945 C97.1511214,23.4458021 96.8549004,23.8086728 96.598877,24.2805176 C96.3428535,24.7523624 96.1450202,25.3204719 96.0053711,25.9848633 L95.3642578,29 L94.2978516,29 L95.7832031,22.0429688 L96.6655273,22.0429688 L96.5258789,23.331543 L96.5893555,23.331543 C96.9575214,22.8279597 97.3246238,22.4661469 97.6906738,22.2460938 C98.0567238,22.0260406 98.4344056,21.9160156 98.8237305,21.9160156 C99.301923,21.9160156 99.6700833,22.0535468 99.9282227,22.3286133 C100.186362,22.6036798 100.338704,22.9866512 100.385254,23.4775391 L100.436035,23.4775391 C100.799969,22.9485651 101.187172,22.5560722 101.597656,22.3000488 C102.00814,22.0440254 102.422849,21.9160156 102.841797,21.9160156 C103.379234,21.9160156 103.795002,22.0598944 104.089111,22.3476562 C104.383221,22.6354181 104.530273,23.0543592 104.530273,23.6044922 C104.530273,23.892254 104.483724,24.2688779 104.390625,24.734375 L103.476562,29 L102.397461,29 L103.336914,24.6074219 C103.42155,24.1673155 103.463867,23.8583993 103.463867,23.6806641 C103.463867,23.418293 103.39087,23.2077645 103.244873,23.0490723 C103.098876,22.8903801 102.869305,22.8110352 102.556152,22.8110352 C102.213377,22.8110352 101.874839,22.9337553 101.540527,23.1791992 C101.206216,23.4246432 100.913169,23.7727028 100.661377,24.2233887 C100.409585,24.6740745 100.2181,25.2083302 100.086914,25.8261719 L99.4077148,29 L98.3413086,29 Z M106.688477,29 L105.62207,29 L107.729492,19.1230469 L108.795898,19.1230469 L106.688477,29 Z" id="Defined-in" fill="#9B9B9B"></path>
                </g>
            </g>
            <g id="Group-25" transform="translate(73.000000, 63.000000)">
                <path d="M97.7485352,14 L95.4633789,14 L93.2836914,6.3359375 C93.1899409,6.00195146 93.0727546,5.52002268 92.9321289,4.89013672 C92.7915032,4.26025076 92.7065431,3.82226686 92.6772461,3.57617188 C92.6186521,3.95117375 92.5234382,4.43749701 92.3916016,5.03515625 C92.259765,5.63281549 92.1499028,6.07812354 92.0620117,6.37109375 L89.9350586,14 L87.6499023,14 L85.9887695,7.56640625 L84.3012695,1.15039062 L86.4458008,1.15039062 L88.2827148,8.63867188 C88.5698257,9.83984976 88.7749017,10.900386 88.8979492,11.8203125 C88.9624027,11.3222631 89.0590814,10.7656281 89.1879883,10.1503906 C89.3168952,9.53515317 89.4340815,9.03711128 89.5395508,8.65625 L91.6313477,1.15039062 L93.7143555,1.15039062 L95.8588867,8.69140625 C96.0639659,9.38867536 96.2807606,10.4316337 96.5092773,11.8203125 C96.5971684,10.9824177 96.8081038,9.9160221 97.1420898,8.62109375 L98.9702148,1.15039062 L101.097168,1.15039062 L97.7485352,14 Z M110.958496,9.12207031 C110.958496,10.7099689 110.551274,11.9492143 109.736816,12.8398438 C108.922359,13.7304732 107.788581,14.1757812 106.335449,14.1757812 C105.427242,14.1757812 104.624515,13.9707052 103.927246,13.5605469 C103.229977,13.1503886 102.69385,12.5615273 102.318848,11.7939453 C101.943846,11.0263633 101.756348,10.1357473 101.756348,9.12207031 C101.756348,7.54589056 102.16064,6.31543411 102.969238,5.43066406 C103.777836,4.54589401 104.917473,4.10351562 106.388184,4.10351562 C107.794441,4.10351562 108.907711,4.55614782 109.728027,5.46142578 C110.548344,6.36670375 110.958496,7.58690639 110.958496,9.12207031 L110.958496,9.12207031 Z M103.883301,9.12207031 C103.883301,11.3662222 104.712394,12.4882812 106.370605,12.4882812 C108.011239,12.4882812 108.831543,11.3662222 108.831543,9.12207031 C108.831543,6.90135608 108.005379,5.79101562 106.353027,5.79101562 C105.485836,5.79101562 104.857424,6.07812213 104.467773,6.65234375 C104.078123,7.22656537 103.883301,8.04979933 103.883301,9.12207031 L103.883301,9.12207031 Z M118.262207,4.10351562 C118.678225,4.10351562 119.020995,4.13281221 119.290527,4.19140625 L119.088379,6.11621094 C118.795409,6.04589809 118.490724,6.01074219 118.174316,6.01074219 C117.34814,6.01074219 116.678714,6.28027074 116.166016,6.81933594 C115.653318,7.35840113 115.396973,8.05858944 115.396973,8.91992188 L115.396973,14 L113.331543,14 L113.331543,4.27929688 L114.94873,4.27929688 L115.221191,5.99316406 L115.32666,5.99316406 C115.648927,5.41308304 116.069333,4.9531267 116.587891,4.61328125 C117.106448,4.2734358 117.664548,4.10351562 118.262207,4.10351562 L118.262207,4.10351562 Z M123.087402,8.8671875 L124.256348,7.40820312 L127.191895,4.27929688 L129.57373,4.27929688 L125.662598,8.45410156 L129.819824,14 L127.394043,14 L124.273926,9.73730469 L123.140137,10.6689453 L123.140137,14 L121.092285,14 L121.092285,0.32421875 L123.140137,0.32421875 L123.140137,6.99511719 L123.034668,8.8671875 L123.087402,8.8671875 Z M136.262207,5.84375 L133.88916,5.84375 L133.88916,14 L131.814941,14 L131.814941,5.84375 L130.215332,5.84375 L130.215332,4.87695312 L131.814941,4.24414062 L131.814941,3.61132812 C131.814941,2.46288488 132.08447,1.61181917 132.623535,1.05810547 C133.1626,0.504391763 133.985834,0.227539062 135.093262,0.227539062 C135.819828,0.227539062 136.534664,0.347655049 137.237793,0.587890625 L136.692871,2.15234375 C136.183103,1.98828043 135.69678,1.90625 135.233887,1.90625 C134.765134,1.90625 134.423829,2.05126808 134.209961,2.34130859 C133.996093,2.63134911 133.88916,3.06640335 133.88916,3.64648438 L133.88916,4.27929688 L136.262207,4.27929688 L136.262207,5.84375 Z M139.97998,14 L137.914551,14 L137.914551,0.32421875 L139.97998,0.32421875 L139.97998,14 Z M151.563965,9.12207031 C151.563965,10.7099689 151.156742,11.9492143 150.342285,12.8398438 C149.527828,13.7304732 148.39405,14.1757812 146.940918,14.1757812 C146.03271,14.1757812 145.229984,13.9707052 144.532715,13.5605469 C143.835446,13.1503886 143.299318,12.5615273 142.924316,11.7939453 C142.549315,11.0263633 142.361816,10.1357473 142.361816,9.12207031 C142.361816,7.54589056 142.766109,6.31543411 143.574707,5.43066406 C144.383305,4.54589401 145.522942,4.10351562 146.993652,4.10351562 C148.399909,4.10351562 149.513179,4.55614782 150.333496,5.46142578 C151.153813,6.36670375 151.563965,7.58690639 151.563965,9.12207031 L151.563965,9.12207031 Z M144.48877,9.12207031 C144.48877,11.3662222 145.317863,12.4882812 146.976074,12.4882812 C148.616707,12.4882812 149.437012,11.3662222 149.437012,9.12207031 C149.437012,6.90135608 148.610848,5.79101562 146.958496,5.79101562 C146.091304,5.79101562 145.462893,6.07812213 145.073242,6.65234375 C144.683592,7.22656537 144.48877,8.04979933 144.48877,9.12207031 L144.48877,9.12207031 Z M161.54834,14 L160.291504,9.46484375 C160.139159,8.9843726 159.863772,7.86817282 159.465332,6.11621094 L159.38623,6.11621094 C159.046385,7.6982501 158.776856,8.82030919 158.577637,9.48242188 L157.285645,14 L155.000488,14 L152.275879,4.27929688 L154.385254,4.27929688 L155.624512,9.06933594 C155.905763,10.2529356 156.10498,11.2665973 156.222168,12.1103516 L156.274902,12.1103516 C156.333496,11.682615 156.422851,11.1918973 156.542969,10.6381836 C156.663087,10.0844699 156.767089,9.66992325 156.85498,9.39453125 L158.331543,4.27929688 L160.599121,4.27929688 L162.031738,9.39453125 C162.119629,9.68164206 162.229492,10.1210908 162.361328,10.7128906 C162.493165,11.3046905 162.570801,11.7646468 162.594238,12.0927734 L162.664551,12.0927734 C162.752442,11.3720667 162.957518,10.3642643 163.279785,9.06933594 L164.536621,4.27929688 L166.61084,4.27929688 L163.868652,14 L161.54834,14 Z" id="Workflow" fill="#23B0E8"></path>
                <g id="Group-24" transform="translate(0.000000, 42.000000)">
                    <g id="Group-22">
                        <path d="M1,21.5 L1,21.5 C1,32.8234276 10.1814465,42 21.5096151,42 L92.6687886,42 C103.999966,42 113.178404,32.8238769 113.178404,21.5 C113.178404,10.1765724 103.996957,1 92.6687886,1 L21.5096151,1 C10.1784373,1 1,10.1761231 1,21.5 L1,21.5 Z M0,21.5 C0,9.62587788 9.62411246,0 21.5096151,0 L92.6687886,0 C104.548221,0 114.178404,9.62326709 114.178404,21.5 C114.178404,33.3741221 104.554291,43 92.6687886,43 L21.5096151,43 C9.63018272,43 0,33.3767329 0,21.5 L0,21.5 Z" id="Rectangle-157-Copy-3" fill="#B0B8C6"></path>
                        <path d="M43.6601562,27 L42.3320312,27 L42.3320312,21.625 L36.3164062,21.625 L36.3164062,27 L34.9882812,27 L34.9882812,15.578125 L36.3164062,15.578125 L36.3164062,20.4375 L42.3320312,20.4375 L42.3320312,15.578125 L43.6601562,15.578125 L43.6601562,27 Z M53.9882812,22.7109375 C53.9882812,24.1067778 53.6367223,25.1966107 52.9335938,25.9804688 C52.2304652,26.7643268 51.2591208,27.15625 50.0195312,27.15625 C49.2539024,27.15625 48.5742217,26.9765643 47.9804688,26.6171875 C47.3867158,26.2578107 46.928387,25.7421909 46.6054688,25.0703125 C46.2825505,24.3984341 46.1210938,23.6119837 46.1210938,22.7109375 C46.1210938,21.3150972 46.4700486,20.2278685 47.1679688,19.4492188 C47.8658889,18.670569 48.8346292,18.28125 50.0742188,18.28125 C51.2721414,18.28125 52.2239548,18.6796835 52.9296875,19.4765625 C53.6354202,20.2734415 53.9882812,21.3515557 53.9882812,22.7109375 L53.9882812,22.7109375 Z M47.4648438,22.7109375 C47.4648438,23.804693 47.6835916,24.638018 48.1210938,25.2109375 C48.5585959,25.783857 49.2018187,26.0703125 50.0507812,26.0703125 C50.8997438,26.0703125 51.5442686,25.7851591 51.984375,25.2148438 C52.4244814,24.6445284 52.6445312,23.8099013 52.6445312,22.7109375 C52.6445312,21.6223904 52.4244814,20.7955757 51.984375,20.2304688 C51.5442686,19.6653618 50.8945355,19.3828125 50.0351562,19.3828125 C49.1861937,19.3828125 48.5455751,19.6614555 48.1132812,20.21875 C47.6809874,20.7760445 47.4648438,21.6067653 47.4648438,22.7109375 L47.4648438,22.7109375 Z M63.6523438,22.7109375 C63.6523438,24.1067778 63.3007848,25.1966107 62.5976562,25.9804688 C61.8945277,26.7643268 60.9231833,27.15625 59.6835938,27.15625 C58.9179649,27.15625 58.2382842,26.9765643 57.6445312,26.6171875 C57.0507783,26.2578107 56.5924495,25.7421909 56.2695312,25.0703125 C55.946613,24.3984341 55.7851562,23.6119837 55.7851562,22.7109375 C55.7851562,21.3150972 56.1341111,20.2278685 56.8320312,19.4492188 C57.5299514,18.670569 58.4986917,18.28125 59.7382812,18.28125 C60.9362039,18.28125 61.8880173,18.6796835 62.59375,19.4765625 C63.2994827,20.2734415 63.6523438,21.3515557 63.6523438,22.7109375 L63.6523438,22.7109375 Z M57.1289062,22.7109375 C57.1289062,23.804693 57.3476541,24.638018 57.7851562,25.2109375 C58.2226584,25.783857 58.8658812,26.0703125 59.7148438,26.0703125 C60.5638063,26.0703125 61.2083311,25.7851591 61.6484375,25.2148438 C62.0885439,24.6445284 62.3085938,23.8099013 62.3085938,22.7109375 C62.3085938,21.6223904 62.0885439,20.7955757 61.6484375,20.2304688 C61.2083311,19.6653618 60.558598,19.3828125 59.6992188,19.3828125 C58.8502562,19.3828125 58.2096376,19.6614555 57.7773438,20.21875 C57.3450499,20.7760445 57.1289062,21.6067653 57.1289062,22.7109375 L57.1289062,22.7109375 Z M67.2070312,22.6171875 C67.4309907,22.2994776 67.7721331,21.8828151 68.2304688,21.3671875 L70.9960938,18.4375 L72.5351562,18.4375 L69.0664062,22.0859375 L72.7773438,27 L71.2070312,27 L68.1835938,22.953125 L67.2070312,23.796875 L67.2070312,27 L65.9257812,27 L65.9257812,14.84375 L67.2070312,14.84375 L67.2070312,21.2890625 C67.2070312,21.5755223 67.1861981,22.0182262 67.1445312,22.6171875 L67.2070312,22.6171875 Z M79.8476562,24.6640625 C79.8476562,25.4609415 79.5507842,26.0755187 78.9570312,26.5078125 C78.3632783,26.9401063 77.5299533,27.15625 76.4570312,27.15625 C75.3216089,27.15625 74.4362011,26.9765643 73.8007812,26.6171875 L73.8007812,25.4140625 C74.2122416,25.6223969 74.6536435,25.7864577 75.125,25.90625 C75.5963565,26.0260423 76.0507791,26.0859375 76.4882812,26.0859375 C77.165368,26.0859375 77.6861961,25.9778657 78.0507812,25.7617188 C78.4153664,25.5455718 78.5976562,25.216148 78.5976562,24.7734375 C78.5976562,24.4401025 78.4531264,24.1549491 78.1640625,23.9179688 C77.8749986,23.6809884 77.3112021,23.4010433 76.4726562,23.078125 C75.6757773,22.7812485 75.1093767,22.5221365 74.7734375,22.3007812 C74.4374983,22.079426 74.1875008,21.8281264 74.0234375,21.546875 C73.8593742,21.2656236 73.7773438,20.9296895 73.7773438,20.5390625 C73.7773438,19.8411423 74.0611951,19.2903666 74.6289062,18.8867188 C75.1966174,18.4830709 75.9752555,18.28125 76.9648438,18.28125 C77.8867234,18.28125 78.787756,18.4687481 79.6679688,18.84375 L79.2070312,19.8984375 C78.347652,19.5442691 77.5690139,19.3671875 76.8710938,19.3671875 C76.2565073,19.3671875 75.7929703,19.4635407 75.4804688,19.65625 C75.1679672,19.8489593 75.0117188,20.1145816 75.0117188,20.453125 C75.0117188,20.6822928 75.0703119,20.8776034 75.1875,21.0390625 C75.3046881,21.2005216 75.4934883,21.3541659 75.7539062,21.5 C76.0143242,21.6458341 76.5143192,21.8567695 77.2539062,22.1328125 C78.2695363,22.502606 78.9557274,22.8749981 79.3125,23.25 C79.6692726,23.6250019 79.8476562,24.0963513 79.8476562,24.6640625 L79.8476562,24.6640625 Z" id="Hooks" fill="#23B0E8"></path>
                    </g>
                    <g id="Group-23" transform="translate(136.000000, 0.000000)">
                        <path d="M1,21.5 L1,21.5 C1,32.8234276 10.1814465,42 21.5096151,42 L92.6687886,42 C103.999966,42 113.178404,32.8238769 113.178404,21.5 C113.178404,10.1765724 103.996957,1 92.6687886,1 L21.5096151,1 C10.1784373,1 1,10.1761231 1,21.5 L1,21.5 Z M0,21.5 C0,9.62587788 9.62411246,0 21.5096151,0 L92.6687886,0 C104.548221,0 114.178404,9.62326709 114.178404,21.5 C114.178404,33.3741221 104.554291,43 92.6687886,43 L21.5096151,43 C9.63018272,43 0,33.3767329 0,21.5 L0,21.5 Z" id="Rectangle-157-Copy-4" fill="#B0B8C6"></path>
                        <path d="M32.5785285,18.90625 C32.5785285,20.0625058 32.1840012,20.9518198 31.3949347,21.5742188 C30.6058683,22.1966177 29.4769733,22.5078125 28.008216,22.5078125 L26.664466,22.5078125 L26.664466,27 L25.336341,27 L25.336341,15.578125 L28.2972785,15.578125 C31.1514594,15.578125 32.5785285,16.6874889 32.5785285,18.90625 L32.5785285,18.90625 Z M26.664466,21.3671875 L27.8597785,21.3671875 C29.0368677,21.3671875 29.8884217,21.1770852 30.414466,20.796875 C30.9405103,20.4166648 31.2035285,19.8072959 31.2035285,18.96875 C31.2035285,18.2135379 30.9561351,17.6510435 30.461341,17.28125 C29.9665468,16.9114565 29.1957212,16.7265625 28.148841,16.7265625 L26.664466,16.7265625 L26.664466,21.3671875 Z M36.070716,27 L34.773841,27 L34.773841,18.4375 L36.070716,18.4375 L36.070716,27 Z M34.664466,16.1171875 C34.664466,15.820311 34.7373819,15.6028653 34.883216,15.4648438 C35.02905,15.3268222 35.2113399,15.2578125 35.430091,15.2578125 C35.6384253,15.2578125 35.818111,15.3281243 35.9691535,15.46875 C36.1201959,15.6093757 36.195716,15.8255194 36.195716,16.1171875 C36.195716,16.4088556 36.1201959,16.6263014 35.9691535,16.7695312 C35.818111,16.9127611 35.6384253,16.984375 35.430091,16.984375 C35.2113399,16.984375 35.02905,16.9127611 34.883216,16.7695312 C34.7373819,16.6263014 34.664466,16.4088556 34.664466,16.1171875 L34.664466,16.1171875 Z M42.805091,27.15625 C42.2477965,27.15625 41.738687,27.0533864 41.2777472,26.8476562 C40.8168074,26.6419261 40.4300925,26.325523 40.117591,25.8984375 L40.023841,25.8984375 C40.0863413,26.39844 40.117591,26.8723936 40.117591,27.3203125 L40.117591,30.84375 L38.820716,30.84375 L38.820716,18.4375 L39.8754035,18.4375 L40.055091,19.609375 L40.117591,19.609375 C40.450926,19.1406227 40.8389429,18.8020844 41.2816535,18.59375 C41.724364,18.3854156 42.2321714,18.28125 42.805091,18.28125 C43.9405133,18.28125 44.8168066,18.669267 45.4339972,19.4453125 C46.0511878,20.221358 46.3597785,21.3098888 46.3597785,22.7109375 C46.3597785,24.1171945 46.0459795,25.2096315 45.4183722,25.9882812 C44.7907649,26.766931 43.9196799,27.15625 42.805091,27.15625 L42.805091,27.15625 Z M42.617591,19.3828125 C41.7425866,19.3828125 41.1097804,19.6249976 40.7191535,20.109375 C40.3285265,20.5937524 40.1280077,21.364578 40.117591,22.421875 L40.117591,22.7109375 C40.117591,23.9140685 40.3181098,24.774737 40.7191535,25.2929688 C41.1201971,25.8112005 41.7634199,26.0703125 42.648841,26.0703125 C43.388428,26.0703125 43.9678493,25.7708363 44.3871222,25.171875 C44.8063951,24.5729137 45.0160285,23.7474011 45.0160285,22.6953125 C45.0160285,21.6275988 44.8063951,20.8085966 44.3871222,20.2382812 C43.9678493,19.6679659 43.3780114,19.3828125 42.617591,19.3828125 L42.617591,19.3828125 Z M52.242591,27.15625 C50.9769596,27.15625 49.9782717,26.7708372 49.2464972,26 C48.5147227,25.2291628 48.148841,24.158861 48.148841,22.7890625 C48.148841,21.4088473 48.4886813,20.3125041 49.1683722,19.5 C49.8480631,18.6874959 50.7608144,18.28125 51.9066535,18.28125 C52.9795755,18.28125 53.8285253,18.6341111 54.4535285,19.3398438 C55.0785316,20.0455764 55.3910285,20.9765567 55.3910285,22.1328125 L55.3910285,22.953125 L49.492591,22.953125 C49.5186328,23.9583384 49.7725365,24.7213516 50.2543097,25.2421875 C50.736083,25.7630234 51.4144616,26.0234375 52.289466,26.0234375 C53.2113456,26.0234375 54.1227948,25.8307311 55.023841,25.4453125 L55.023841,26.6015625 C54.5655053,26.7994802 54.1319159,26.9414058 53.7230597,27.0273438 C53.3142035,27.1132817 52.8207189,27.15625 52.242591,27.15625 L52.242591,27.15625 Z M51.8910285,19.3671875 C51.203525,19.3671875 50.6553534,19.5911436 50.2464972,20.0390625 C49.837641,20.4869814 49.596758,21.1067669 49.523841,21.8984375 L54.0004035,21.8984375 C54.0004035,21.0807251 53.8181136,20.4544293 53.4535285,20.0195312 C53.0889433,19.5846332 52.5681152,19.3671875 51.8910285,19.3671875 L51.8910285,19.3671875 Z M58.898841,27 L57.601966,27 L57.601966,14.84375 L58.898841,14.84375 L58.898841,27 Z M62.945716,27 L61.648841,27 L61.648841,18.4375 L62.945716,18.4375 L62.945716,27 Z M61.539466,16.1171875 C61.539466,15.820311 61.6123819,15.6028653 61.758216,15.4648438 C61.90405,15.3268222 62.0863399,15.2578125 62.305091,15.2578125 C62.5134253,15.2578125 62.693111,15.3281243 62.8441535,15.46875 C62.9951959,15.6093757 63.070716,15.8255194 63.070716,16.1171875 C63.070716,16.4088556 62.9951959,16.6263014 62.8441535,16.7695312 C62.693111,16.9127611 62.5134253,16.984375 62.305091,16.984375 C62.0863399,16.984375 61.90405,16.9127611 61.758216,16.7695312 C61.6123819,16.6263014 61.539466,16.4088556 61.539466,16.1171875 L61.539466,16.1171875 Z M71.555091,27 L71.555091,21.4609375 C71.555091,20.7630173 71.3962384,20.2421892 71.0785285,19.8984375 C70.7608185,19.5546858 70.2634277,19.3828125 69.586341,19.3828125 C68.6905031,19.3828125 68.0342597,19.6249976 67.617591,20.109375 C67.2009222,20.5937524 66.992591,21.3932236 66.992591,22.5078125 L66.992591,27 L65.695716,27 L65.695716,18.4375 L66.7504035,18.4375 L66.961341,19.609375 L67.023841,19.609375 C67.2894673,19.1874979 67.6618594,18.8606782 68.1410285,18.6289062 C68.6201975,18.3971343 69.1540464,18.28125 69.742591,18.28125 C70.7738461,18.28125 71.54988,18.5299454 72.070716,19.0273438 C72.5915519,19.5247421 72.851966,20.320307 72.851966,21.4140625 L72.851966,27 L71.555091,27 Z M79.133216,27.15625 C77.8675846,27.15625 76.8688967,26.7708372 76.1371222,26 C75.4053477,25.2291628 75.039466,24.158861 75.039466,22.7890625 C75.039466,21.4088473 75.3793063,20.3125041 76.0589972,19.5 C76.7386881,18.6874959 77.6514394,18.28125 78.7972785,18.28125 C79.8702005,18.28125 80.7191503,18.6341111 81.3441535,19.3398438 C81.9691566,20.0455764 82.2816535,20.9765567 82.2816535,22.1328125 L82.2816535,22.953125 L76.383216,22.953125 C76.4092578,23.9583384 76.6631615,24.7213516 77.1449347,25.2421875 C77.626708,25.7630234 78.3050866,26.0234375 79.180091,26.0234375 C80.1019706,26.0234375 81.0134198,25.8307311 81.914466,25.4453125 L81.914466,26.6015625 C81.4561303,26.7994802 81.0225409,26.9414058 80.6136847,27.0273438 C80.2048285,27.1132817 79.7113439,27.15625 79.133216,27.15625 L79.133216,27.15625 Z M78.7816535,19.3671875 C78.09415,19.3671875 77.5459784,19.5911436 77.1371222,20.0390625 C76.728266,20.4869814 76.487383,21.1067669 76.414466,21.8984375 L80.8910285,21.8984375 C80.8910285,21.0807251 80.7087386,20.4544293 80.3441535,20.0195312 C79.9795683,19.5846332 79.4587402,19.3671875 78.7816535,19.3671875 L78.7816535,19.3671875 Z M90.0160285,24.6640625 C90.0160285,25.4609415 89.7191564,26.0755187 89.1254035,26.5078125 C88.5316505,26.9401063 87.6983255,27.15625 86.6254035,27.15625 C85.4899811,27.15625 84.6045733,26.9765643 83.9691535,26.6171875 L83.9691535,25.4140625 C84.3806139,25.6223969 84.8220157,25.7864577 85.2933722,25.90625 C85.7647287,26.0260423 86.2191513,26.0859375 86.6566535,26.0859375 C87.3337402,26.0859375 87.8545683,25.9778657 88.2191535,25.7617188 C88.5837386,25.5455718 88.7660285,25.216148 88.7660285,24.7734375 C88.7660285,24.4401025 88.6214987,24.1549491 88.3324347,23.9179688 C88.0433708,23.6809884 87.4795743,23.4010433 86.6410285,23.078125 C85.8441495,22.7812485 85.2777489,22.5221365 84.9418097,22.3007812 C84.6058705,22.079426 84.355873,21.8281264 84.1918097,21.546875 C84.0277464,21.2656236 83.945716,20.9296895 83.945716,20.5390625 C83.945716,19.8411423 84.2295673,19.2903666 84.7972785,18.8867188 C85.3649896,18.4830709 86.1436277,18.28125 87.133216,18.28125 C88.0550956,18.28125 88.9561282,18.4687481 89.836341,18.84375 L89.3754035,19.8984375 C88.5160242,19.5442691 87.7373861,19.3671875 87.039466,19.3671875 C86.4248796,19.3671875 85.9613425,19.4635407 85.648841,19.65625 C85.3363394,19.8489593 85.180091,20.1145816 85.180091,20.453125 C85.180091,20.6822928 85.2386841,20.8776034 85.3558722,21.0390625 C85.4730603,21.2005216 85.6618605,21.3541659 85.9222785,21.5 C86.1826964,21.6458341 86.6826914,21.8567695 87.4222785,22.1328125 C88.4379085,22.502606 89.1240996,22.8749981 89.4808722,23.25 C89.8376448,23.6250019 90.0160285,24.0963513 90.0160285,24.6640625 L90.0160285,24.6640625 Z" id="Pipelines" fill="#23B0E8"></path>
                    </g>
                </g>
                <g id="Group-17" transform="translate(64.000000, 111.000000)">
                    <path d="M51.2519531,6.43310547 C51.2519531,7.53760318 51.0297874,8.5130166 50.5854492,9.359375 C50.1411111,10.2057334 49.5063518,10.8574196 48.6811523,11.3144531 C47.8559529,11.7714867 46.8890029,12 45.7802734,12 L43.5458984,12 L45.5073242,2.71972656 L47.6782227,2.71972656 C48.8461972,2.71972656 49.7338023,3.03604827 50.3410645,3.66870117 C50.9483266,4.30135407 51.2519531,5.22281296 51.2519531,6.43310547 L51.2519531,6.43310547 Z M45.8500977,11.0668945 C46.7049196,11.0668945 47.4560515,10.873293 48.1035156,10.486084 C48.7509798,10.098875 49.24715,9.55192411 49.592041,8.84521484 C49.9369321,8.13850558 50.109375,7.33024543 50.109375,6.42041016 C50.109375,5.51057488 49.891441,4.82186106 49.4555664,4.35424805 C49.0196918,3.88663503 48.3807008,3.65283203 47.5385742,3.65283203 L46.4086914,3.65283203 L44.8217773,11.0668945 L45.8500977,11.0668945 Z M54.78125,12.1269531 C54.0026003,12.1269531 53.3911155,11.8963239 52.9467773,11.4350586 C52.5024392,10.9737933 52.2802734,10.3348023 52.2802734,9.51806641 C52.2802734,8.72248951 52.4379053,7.95972045 52.7531738,7.22973633 C53.0684423,6.49975221 53.4863255,5.93164266 54.0068359,5.52539062 C54.5273464,5.11913859 55.1007456,4.91601562 55.7270508,4.91601562 C56.374515,4.91601562 56.8611637,5.0567206 57.1870117,5.33813477 C57.5128597,5.61954893 57.6757812,6.01204175 57.6757812,6.515625 C57.6757812,7.27734756 57.3245478,7.87507921 56.6220703,8.30883789 C55.9195928,8.74259657 54.9145573,8.95947266 53.6069336,8.95947266 L53.3974609,8.95947266 L53.3720703,9.46728516 C53.3720703,10.0216499 53.502196,10.4543441 53.7624512,10.7653809 C54.0227064,11.0764176 54.4257785,11.2319336 54.9716797,11.2319336 C55.2382826,11.2319336 55.512287,11.193848 55.7937012,11.1176758 C56.0751153,11.0415035 56.4252909,10.9018565 56.8442383,10.6987305 L56.8442383,11.6254883 C56.4464498,11.8116871 56.0952164,11.9418128 55.7905273,12.0158691 C55.4858383,12.0899255 55.1494159,12.1269531 54.78125,12.1269531 L54.78125,12.1269531 Z M55.6635742,5.82373047 C55.2276996,5.82373047 54.8182799,6.02262171 54.4353027,6.42041016 C54.0523256,6.8181986 53.7592784,7.37043917 53.5561523,8.07714844 L53.6323242,8.07714844 C54.5971728,8.07714844 55.3366674,7.95125451 55.8508301,7.69946289 C56.3649928,7.44767127 56.6220703,7.08268468 56.6220703,6.60449219 C56.6220703,6.38020721 56.5448413,6.19401116 56.3903809,6.04589844 C56.2359205,5.89778572 55.993654,5.82373047 55.6635742,5.82373047 L55.6635742,5.82373047 Z M57.4091797,15.1230469 C57.117186,15.1230469 56.852703,15.0786137 56.6157227,14.9897461 L56.6157227,14.0947266 C56.8865573,14.187826 57.1235341,14.234375 57.3266602,14.234375 C57.6482763,14.234375 57.8958325,14.1031914 58.0693359,13.8408203 C58.2428394,13.5784492 58.3824865,13.2039412 58.4882812,12.7172852 L59.9291992,5.84912109 L58.7041016,5.84912109 L58.7866211,5.42382812 L60.0942383,5.00488281 L60.2402344,4.37011719 C60.4348968,3.52375879 60.7046695,2.92602714 61.0495605,2.5769043 C61.3944516,2.22778146 61.9054328,2.05322266 62.5825195,2.05322266 C62.7517912,2.05322266 62.9591459,2.0775551 63.2045898,2.1262207 C63.4500338,2.17488631 63.6404616,2.22884085 63.7758789,2.28808594 L63.5029297,3.10693359 C63.1813135,2.98421163 62.8914401,2.92285156 62.6333008,2.92285156 C62.2651349,2.92285156 61.982667,3.02547098 61.7858887,3.23071289 C61.5891103,3.4359548 61.4293626,3.81152071 61.3066406,4.35742188 L61.1479492,5.04296875 L62.6586914,5.04296875 L62.5,5.84912109 L60.9956055,5.84912109 L59.5229492,12.8188477 C59.3579093,13.6186563 59.1040056,14.2026349 58.7612305,14.5708008 C58.4184553,14.9389667 57.9677762,15.1230469 57.4091797,15.1230469 L57.4091797,15.1230469 Z M63.5917969,12 L62.5253906,12 L64.0107422,5.04296875 L65.0771484,5.04296875 L63.5917969,12 Z M64.309082,3.265625 C64.309082,3.02864465 64.3767897,2.83504307 64.512207,2.68481445 C64.6476244,2.53458584 64.8232411,2.45947266 65.0390625,2.45947266 C65.4114602,2.45947266 65.5976562,2.64990044 65.5976562,3.03076172 C65.5976562,3.26351028 65.5267748,3.46028565 65.3850098,3.62109375 C65.2432447,3.78190185 65.0792653,3.86230469 64.8930664,3.86230469 C64.7237947,3.86230469 64.5841477,3.81046601 64.4741211,3.70678711 C64.3640945,3.60310821 64.309082,3.45605564 64.309082,3.265625 L64.309082,3.265625 Z M70.0917969,12 L71.03125,7.60742188 C71.1158858,7.16731551 71.1582031,6.86263105 71.1582031,6.69335938 C71.1582031,6.42675648 71.0830899,6.21305419 70.9328613,6.05224609 C70.7826327,5.891438 70.5424821,5.81103516 70.2124023,5.81103516 C69.8357729,5.81103516 69.4686704,5.93798701 69.111084,6.19189453 C68.7534976,6.44580205 68.4382338,6.80761484 68.1652832,7.27734375 C67.8923326,7.74707266 67.6860359,8.31624015 67.5463867,8.98486328 L66.9052734,12 L65.8388672,12 L67.3242188,5.04296875 L68.206543,5.04296875 L68.0668945,6.33154297 L68.1303711,6.33154297 C68.5366231,5.81526435 68.9291159,5.45027776 69.3078613,5.23657227 C69.6866067,5.02286677 70.0790995,4.91601562 70.4853516,4.91601562 C71.0227891,4.91601562 71.4470199,5.06306819 71.7580566,5.35717773 C72.0690934,5.65128728 72.2246094,6.06282288 72.2246094,6.59179688 C72.2246094,6.92610844 72.1759445,7.30696401 72.0786133,7.734375 L71.1708984,12 L70.0917969,12 Z M76.090332,12.1269531 C75.3116823,12.1269531 74.7001975,11.8963239 74.2558594,11.4350586 C73.8115212,10.9737933 73.5893555,10.3348023 73.5893555,9.51806641 C73.5893555,8.72248951 73.7469874,7.95972045 74.0622559,7.22973633 C74.3775244,6.49975221 74.7954076,5.93164266 75.315918,5.52539062 C75.8364284,5.11913859 76.4098276,4.91601562 77.0361328,4.91601562 C77.683597,4.91601562 78.1702458,5.0567206 78.4960938,5.33813477 C78.8219417,5.61954893 78.9848633,6.01204175 78.9848633,6.515625 C78.9848633,7.27734756 78.6336298,7.87507921 77.9311523,8.30883789 C77.2286749,8.74259657 76.2236394,8.95947266 74.9160156,8.95947266 L74.706543,8.95947266 L74.6811523,9.46728516 C74.6811523,10.0216499 74.811278,10.4543441 75.0715332,10.7653809 C75.3317884,11.0764176 75.7348606,11.2319336 76.2807617,11.2319336 C76.5473646,11.2319336 76.821369,11.193848 77.1027832,11.1176758 C77.3841974,11.0415035 77.7343729,10.9018565 78.1533203,10.6987305 L78.1533203,11.6254883 C77.7555319,11.8116871 77.4042984,11.9418128 77.0996094,12.0158691 C76.7949204,12.0899255 76.4584979,12.1269531 76.090332,12.1269531 L76.090332,12.1269531 Z M76.9726562,5.82373047 C76.5367817,5.82373047 76.1273619,6.02262171 75.7443848,6.42041016 C75.3614076,6.8181986 75.0683604,7.37043917 74.8652344,8.07714844 L74.9414062,8.07714844 C75.9062548,8.07714844 76.6457494,7.95125451 77.1599121,7.69946289 C77.6740748,7.44767127 77.9311523,7.08268468 77.9311523,6.60449219 C77.9311523,6.38020721 77.8539233,6.19401116 77.6994629,6.04589844 C77.5450025,5.89778572 77.302736,5.82373047 76.9726562,5.82373047 L76.9726562,5.82373047 Z M83.4345703,4.92871094 C84.255538,4.92871094 84.8500958,5.33072515 85.2182617,6.13476562 L85.2817383,6.13476562 C85.3536787,5.47883787 85.4488926,4.89909106 85.5673828,4.39550781 L86.0625,2.12304688 L87.1162109,2.12304688 L85.0214844,12 L84.1391602,12 L84.2788086,10.6733398 L84.2280273,10.6733398 C83.8006164,11.2023138 83.400718,11.5768218 83.0283203,11.796875 C82.6559226,12.0169282 82.2708353,12.1269531 81.8730469,12.1269531 C81.2848278,12.1269531 80.8256852,11.9195984 80.4956055,11.5048828 C80.1655257,11.0901672 80.0004883,10.5146521 80.0004883,9.77832031 C80.0004883,8.87271683 80.1528305,8.04329804 80.4575195,7.29003906 C80.7622086,6.53678009 81.1737442,5.95491742 81.6921387,5.54443359 C82.2105332,5.13394977 82.7913379,4.92871094 83.4345703,4.92871094 L83.4345703,4.92871094 Z M82.2285156,11.2446289 C82.6263041,11.2446289 83.0367817,11.0467956 83.4599609,10.651123 C83.8831401,10.2554505 84.2185046,9.74975894 84.4660645,9.1340332 C84.7136243,8.51830747 84.8374023,7.89095372 84.8374023,7.25195312 C84.8374023,6.78222421 84.7231457,6.42464315 84.4946289,6.17919922 C84.2661121,5.93375528 83.9339215,5.81103516 83.4980469,5.81103516 C83.0706359,5.81103516 82.6739113,5.98559396 82.3078613,6.3347168 C81.9418113,6.68383964 81.6477062,7.17472014 81.4255371,7.80737305 C81.203368,8.44002595 81.0922852,9.10546526 81.0922852,9.80371094 C81.0922852,10.7643277 81.4710249,11.2446289 82.2285156,11.2446289 L82.2285156,11.2446289 Z M91.6992188,12 L90.6328125,12 L92.1181641,5.04296875 L93.1845703,5.04296875 L91.6992188,12 Z M92.4165039,3.265625 C92.4165039,3.02864465 92.4842116,2.83504307 92.6196289,2.68481445 C92.7550462,2.53458584 92.930663,2.45947266 93.1464844,2.45947266 C93.5188821,2.45947266 93.7050781,2.64990044 93.7050781,3.03076172 C93.7050781,3.26351028 93.6341967,3.46028565 93.4924316,3.62109375 C93.3506666,3.78190185 93.1866871,3.86230469 93.0004883,3.86230469 C92.8312166,3.86230469 92.6915696,3.81046601 92.581543,3.70678711 C92.4715164,3.60310821 92.4165039,3.45605564 92.4165039,3.265625 L92.4165039,3.265625 Z M98.1865234,12 L99.1259766,7.60742188 C99.2106124,7.16731551 99.2529297,6.86263105 99.2529297,6.69335938 C99.2529297,6.42675648 99.1778165,6.21305419 99.0275879,6.05224609 C98.8773593,5.891438 98.6372087,5.81103516 98.3071289,5.81103516 C97.9304994,5.81103516 97.563397,5.93798701 97.2058105,6.19189453 C96.8482241,6.44580205 96.5329603,6.80761484 96.2600098,7.27734375 C95.9870592,7.74707266 95.7807624,8.31624015 95.6411133,8.98486328 L95,12 L93.9335938,12 L95.4189453,5.04296875 L96.3012695,5.04296875 L96.1616211,6.33154297 L96.2250977,6.33154297 C96.6313497,5.81526435 97.0238425,5.45027776 97.4025879,5.23657227 C97.7813333,5.02286677 98.1738261,4.91601562 98.5800781,4.91601562 C99.1175157,4.91601562 99.5417465,5.06306819 99.8527832,5.35717773 C100.16382,5.65128728 100.319336,6.06282288 100.319336,6.59179688 C100.319336,6.92610844 100.270671,7.30696401 100.17334,7.734375 L99.265625,12 L98.1865234,12 Z M51.9311523,20.7197266 L50.6298828,26.8515625 C50.3971343,27.9645238 49.9792511,28.7886529 49.3762207,29.3239746 C48.7731903,29.8592963 47.9511771,30.1269531 46.9101562,30.1269531 C45.9368441,30.1269531 45.2153344,29.9069032 44.7456055,29.4667969 C44.2758766,29.0266905 44.0410156,28.3940471 44.0410156,27.5688477 C44.0410156,27.2260725 44.0917964,26.8007838 44.1933594,26.2929688 L45.3930664,20.7197266 L46.472168,20.7197266 L45.2597656,26.3754883 C45.1666662,26.8240582 45.1201172,27.2218407 45.1201172,27.5688477 C45.1201172,28.0639673 45.2745753,28.4543443 45.5834961,28.7399902 C45.8924169,29.0256362 46.3536753,29.168457 46.9672852,29.168457 C47.6951534,29.168457 48.2611471,28.9833189 48.6652832,28.6130371 C49.0694193,28.2427553 49.3645824,27.6302126 49.5507812,26.7753906 L50.8520508,20.7197266 L51.9311523,20.7197266 Z M56.4506836,28.0258789 C56.4506836,28.6860385 56.2168806,29.2012514 55.7492676,29.5715332 C55.2816546,29.941815 54.6225628,30.1269531 53.7719727,30.1269531 C53.0567998,30.1269531 52.4114612,29.9809585 51.8359375,29.6889648 L51.8359375,28.6860352 C52.1321629,28.8637704 52.4516584,29.0013016 52.7944336,29.0986328 C53.1372087,29.195964 53.4545884,29.2446289 53.746582,29.2446289 C54.2797878,29.2446289 54.681802,29.1388357 54.9526367,28.9272461 C55.2234714,28.7156565 55.3588867,28.4448259 55.3588867,28.1147461 C55.3588867,27.873534 55.2848315,27.670411 55.1367188,27.5053711 C54.988606,27.3403312 54.6691105,27.1139337 54.1782227,26.8261719 C53.6280897,26.5172511 53.2387707,26.2146825 53.0102539,25.918457 C52.7817371,25.6222316 52.6674805,25.2709981 52.6674805,24.8647461 C52.6674805,24.2807588 52.8811828,23.809979 53.3085938,23.4523926 C53.7360047,23.0948062 54.2988246,22.9160156 54.9970703,22.9160156 C55.7207067,22.9160156 56.4189419,23.0725896 57.0917969,23.3857422 L56.7490234,24.2553711 L56.3935547,24.0966797 C55.9661437,23.9147126 55.5006536,23.8237305 54.9970703,23.8237305 C54.6035137,23.8237305 54.2945975,23.9157706 54.0703125,24.0998535 C53.8460275,24.2839365 53.7338867,24.5219712 53.7338867,24.8139648 C53.7338867,25.0509452 53.8089999,25.2540682 53.9592285,25.4233398 C54.1094571,25.5926115 54.4194312,25.8105455 54.8891602,26.0771484 C55.3419619,26.331056 55.6667471,26.54899 55.8635254,26.730957 C56.0603037,26.9129241 56.2073563,27.1086415 56.3046875,27.3181152 C56.4020187,27.5275889 56.4506836,27.7635078 56.4506836,28.0258789 L56.4506836,28.0258789 Z M60.4750977,30.1269531 C59.6964479,30.1269531 59.0849632,29.8963239 58.640625,29.4350586 C58.1962868,28.9737933 57.9741211,28.3348023 57.9741211,27.5180664 C57.9741211,26.7224895 58.131753,25.9597204 58.4470215,25.2297363 C58.76229,24.4997522 59.1801732,23.9316427 59.7006836,23.5253906 C60.221194,23.1191386 60.7945932,22.9160156 61.4208984,22.9160156 C62.0683626,22.9160156 62.5550114,23.0567206 62.8808594,23.3381348 C63.2067074,23.6195489 63.3696289,24.0120418 63.3696289,24.515625 C63.3696289,25.2773476 63.0183954,25.8750792 62.315918,26.3088379 C61.6134405,26.7425966 60.608405,26.9594727 59.3007812,26.9594727 L59.0913086,26.9594727 L59.065918,27.4672852 C59.065918,28.0216499 59.1960436,28.4543441 59.4562988,28.7653809 C59.716554,29.0764176 60.1196262,29.2319336 60.6655273,29.2319336 C60.9321302,29.2319336 61.2061347,29.193848 61.4875488,29.1176758 C61.768963,29.0415035 62.1191385,28.9018565 62.5380859,28.6987305 L62.5380859,29.6254883 C62.1402975,29.8116871 61.789064,29.9418128 61.484375,30.0158691 C61.179686,30.0899255 60.8432636,30.1269531 60.4750977,30.1269531 L60.4750977,30.1269531 Z M61.3574219,23.8237305 C60.9215473,23.8237305 60.5121276,24.0226217 60.1291504,24.4204102 C59.7461732,24.8181986 59.453126,25.3704392 59.25,26.0771484 L59.3261719,26.0771484 C60.2910204,26.0771484 61.030515,25.9512545 61.5446777,25.6994629 C62.0588405,25.4476713 62.315918,25.0826847 62.315918,24.6044922 C62.315918,24.3802072 62.2386889,24.1940112 62.0842285,24.0458984 C61.9297681,23.8977857 61.6875017,23.8237305 61.3574219,23.8237305 L61.3574219,23.8237305 Z M68.5366211,22.9160156 C68.8286147,22.9160156 69.0825185,22.9456377 69.2983398,23.0048828 L69.0698242,23.9570312 C68.8455392,23.902018 68.6233735,23.8745117 68.4033203,23.8745117 C68.0182272,23.8745117 67.6574724,24.0014636 67.3210449,24.2553711 C66.9846175,24.5092786 66.6905123,24.86157 66.4387207,25.3122559 C66.1869291,25.7629417 66.001791,26.2633436 65.8833008,26.8134766 L65.2041016,30 L64.1376953,30 L65.6230469,23.0429688 L66.5053711,23.0429688 L66.3657227,24.331543 L66.4291992,24.331543 C66.7338882,23.9295227 66.9856761,23.6407073 67.1845703,23.4650879 C67.3834645,23.2894685 67.5918772,23.1540532 67.8098145,23.0588379 C68.0277517,22.9636226 68.2700182,22.9160156 68.5366211,22.9160156 L68.5366211,22.9160156 Z M72.8339844,30 L74.8081055,20.7197266 L75.8745117,20.7197266 L73.9003906,30 L72.8339844,30 Z M80.4638672,30 L81.4033203,25.6074219 C81.4879562,25.1673155 81.5302734,24.8626311 81.5302734,24.6933594 C81.5302734,24.4267565 81.4551603,24.2130542 81.3049316,24.0522461 C81.154703,23.891438 80.9145524,23.8110352 80.5844727,23.8110352 C80.2078432,23.8110352 79.8407407,23.937987 79.4831543,24.1918945 C79.1255679,24.4458021 78.8103041,24.8076148 78.5373535,25.2773438 C78.2644029,25.7470727 78.0581062,26.3162401 77.918457,26.9848633 L77.2773438,30 L76.2109375,30 L77.6962891,23.0429688 L78.5786133,23.0429688 L78.4389648,24.331543 L78.5024414,24.331543 C78.9086934,23.8152643 79.3011863,23.4502778 79.6799316,23.2365723 C80.058677,23.0228668 80.4511698,22.9160156 80.8574219,22.9160156 C81.3948595,22.9160156 81.8190902,23.0630682 82.130127,23.3571777 C82.4411637,23.6512873 82.5966797,24.0628229 82.5966797,24.5917969 C82.5966797,24.9261084 82.5480148,25.306964 82.4506836,25.734375 L81.5429688,30 L80.4638672,30 Z M85.8466797,29.2573242 C86.0794282,29.2573242 86.3841127,29.2023117 86.7607422,29.0922852 L86.7607422,29.9111328 C86.6168613,29.9703779 86.4391287,30.0211586 86.2275391,30.0634766 C86.0159495,30.1057945 85.8466803,30.1269531 85.7197266,30.1269531 C85.1907526,30.1269531 84.7855646,30.0010592 84.5041504,29.7492676 C84.2227362,29.497476 84.0820312,29.12191 84.0820312,28.6225586 C84.0820312,28.3432603 84.1201168,28.0258807 84.1962891,27.6704102 L85.0024414,23.8491211 L83.9106445,23.8491211 L83.9995117,23.3857422 L85.1738281,22.890625 L85.9672852,21.4433594 L86.5893555,21.4433594 L86.2402344,23.0429688 L87.9794922,23.0429688 L87.8144531,23.8491211 L86.081543,23.8491211 L85.2626953,27.6831055 C85.1865231,28.0512714 85.1484375,28.3305655 85.1484375,28.5209961 C85.1484375,28.7579764 85.2097976,28.9399408 85.3325195,29.0668945 C85.4552415,29.1938483 85.6266265,29.2573242 85.8466797,29.2573242 L85.8466797,29.2573242 Z M90.6772461,30.1269531 C89.8985964,30.1269531 89.2871116,29.8963239 88.8427734,29.4350586 C88.3984353,28.9737933 88.1762695,28.3348023 88.1762695,27.5180664 C88.1762695,26.7224895 88.3339014,25.9597204 88.6491699,25.2297363 C88.9644384,24.4997522 89.3823216,23.9316427 89.902832,23.5253906 C90.4233424,23.1191386 90.9967417,22.9160156 91.6230469,22.9160156 C92.270511,22.9160156 92.7571598,23.0567206 93.0830078,23.3381348 C93.4088558,23.6195489 93.5717773,24.0120418 93.5717773,24.515625 C93.5717773,25.2773476 93.2205439,25.8750792 92.5180664,26.3088379 C91.8155889,26.7425966 90.8105534,26.9594727 89.5029297,26.9594727 L89.293457,26.9594727 L89.2680664,27.4672852 C89.2680664,28.0216499 89.3981921,28.4543441 89.6584473,28.7653809 C89.9187025,29.0764176 90.3217746,29.2319336 90.8676758,29.2319336 C91.1342787,29.2319336 91.4082831,29.193848 91.6896973,29.1176758 C91.9711114,29.0415035 92.321287,28.9018565 92.7402344,28.6987305 L92.7402344,29.6254883 C92.3424459,29.8116871 91.9912125,29.9418128 91.6865234,30.0158691 C91.3818344,30.0899255 91.045412,30.1269531 90.6772461,30.1269531 L90.6772461,30.1269531 Z M91.5595703,23.8237305 C91.1236957,23.8237305 90.714276,24.0226217 90.3312988,24.4204102 C89.9483217,24.8181986 89.6552745,25.3704392 89.4521484,26.0771484 L89.5283203,26.0771484 C90.4931689,26.0771484 91.2326634,25.9512545 91.7468262,25.6994629 C92.2609889,25.4476713 92.5180664,25.0826847 92.5180664,24.6044922 C92.5180664,24.3802072 92.4408374,24.1940112 92.286377,24.0458984 C92.1319165,23.8977857 91.8896501,23.8237305 91.5595703,23.8237305 L91.5595703,23.8237305 Z M98.7387695,22.9160156 C99.0307632,22.9160156 99.2846669,22.9456377 99.5004883,23.0048828 L99.2719727,23.9570312 C99.0476877,23.902018 98.8255219,23.8745117 98.6054688,23.8745117 C98.2203757,23.8745117 97.8596208,24.0014636 97.5231934,24.2553711 C97.1867659,24.5092786 96.8926608,24.86157 96.6408691,25.3122559 C96.3890775,25.7629417 96.2039394,26.2633436 96.0854492,26.8134766 L95.40625,30 L94.3398438,30 L95.8251953,23.0429688 L96.7075195,23.0429688 L96.5678711,24.331543 L96.6313477,24.331543 C96.9360367,23.9295227 97.1878245,23.6407073 97.3867188,23.4650879 C97.585613,23.2894685 97.7940256,23.1540532 98.0119629,23.0588379 C98.2299002,22.9636226 98.4721666,22.9160156 98.7387695,22.9160156 L98.7387695,22.9160156 Z M98.453125,33.1230469 C98.1611314,33.1230469 97.8966483,33.0786137 97.659668,32.9897461 L97.659668,32.0947266 C97.9305027,32.187826 98.1674795,32.234375 98.3706055,32.234375 C98.6922217,32.234375 98.9397778,32.1031914 99.1132812,31.8408203 C99.2867847,31.5784492 99.4264318,31.2039412 99.5322266,30.7172852 L100.973145,23.8491211 L99.7480469,23.8491211 L99.8305664,23.4238281 L101.138184,23.0048828 L101.28418,22.3701172 C101.478842,21.5237588 101.748615,20.9260271 102.093506,20.5769043 C102.438397,20.2277815 102.949378,20.0532227 103.626465,20.0532227 C103.795737,20.0532227 104.003091,20.0775551 104.248535,20.1262207 C104.493979,20.1748863 104.684407,20.2288408 104.819824,20.2880859 L104.546875,21.1069336 C104.225259,20.9842116 103.935385,20.9228516 103.677246,20.9228516 C103.30908,20.9228516 103.026612,21.025471 102.829834,21.2307129 C102.633056,21.4359548 102.473308,21.8115207 102.350586,22.3574219 L102.191895,23.0429688 L103.702637,23.0429688 L103.543945,23.8491211 L102.039551,23.8491211 L100.566895,30.8188477 C100.401855,31.6186563 100.147951,32.2026349 99.8051758,32.5708008 C99.4624006,32.9389667 99.0117215,33.1230469 98.453125,33.1230469 L98.453125,33.1230469 Z M107.238281,22.9160156 C107.627606,22.9160156 107.974608,23.0207509 108.279297,23.2302246 C108.583986,23.4396983 108.820963,23.741209 108.990234,24.1347656 L109.060059,24.1347656 L109.485352,23.0429688 L110.291504,23.0429688 L108.8125,30 L107.968262,30 L108.133301,28.6733398 L108.08252,28.6733398 C107.325029,29.6424202 106.527348,30.1269531 105.689453,30.1269531 C105.101234,30.1269531 104.639976,29.9174826 104.305664,29.4985352 C103.971352,29.0795877 103.804199,28.5061885 103.804199,27.7783203 C103.804199,26.8981076 103.954426,26.081384 104.254883,25.328125 C104.55534,24.574866 104.970049,23.9845399 105.499023,23.5571289 C106.027997,23.1297179 106.607744,22.9160156 107.238281,22.9160156 L107.238281,22.9160156 Z M106.032227,29.2446289 C106.44271,29.2446289 106.851072,29.0489115 107.257324,28.6574707 C107.663576,28.2660299 107.993651,27.7561067 108.247559,27.1276855 C108.501466,26.4992644 108.628418,25.8697948 108.628418,25.2392578 C108.628418,24.8033832 108.50993,24.4563815 108.272949,24.1982422 C108.035969,23.9401029 107.724937,23.8110352 107.339844,23.8110352 C106.899737,23.8110352 106.490318,23.9929995 106.111572,24.3569336 C105.732827,24.7208677 105.435548,25.2138641 105.219727,25.8359375 C105.003905,26.4580109 104.895996,27.1139288 104.895996,27.8037109 C104.895996,28.2861352 104.995442,28.6468901 105.194336,28.8859863 C105.39323,29.1250826 105.672524,29.2446289 106.032227,29.2446289 L106.032227,29.2446289 Z M113.738281,30.1269531 C112.917314,30.1269531 112.280438,29.9005556 111.827637,29.4477539 C111.374835,28.9949522 111.148438,28.3559612 111.148438,27.5307617 C111.148438,26.6844033 111.305011,25.9036494 111.618164,25.1884766 C111.931317,24.4733037 112.364011,23.9157735 112.91626,23.5158691 C113.468509,23.1159648 114.089515,22.9160156 114.779297,22.9160156 C115.359052,22.9160156 115.926104,23.0239247 116.480469,23.2397461 L116.182129,24.1347656 C115.674314,23.9189442 115.21094,23.8110352 114.791992,23.8110352 C114.318031,23.8110352 113.885337,23.9728988 113.493896,24.2966309 C113.102456,24.6203629 112.795655,25.071042 112.573486,25.6486816 C112.351317,26.2263212 112.240234,26.853675 112.240234,27.5307617 C112.240234,28.0724311 112.380939,28.4934881 112.662354,28.7939453 C112.943768,29.0944025 113.332029,29.2446289 113.827148,29.2446289 C114.131837,29.2446289 114.419595,29.2023116 114.69043,29.1176758 C114.961264,29.0330399 115.227863,28.9335943 115.490234,28.8193359 L115.490234,29.7270508 C114.965492,29.9936537 114.381514,30.1269531 113.738281,30.1269531 L113.738281,30.1269531 Z M119.501953,30.1269531 C118.723303,30.1269531 118.111819,29.8963239 117.66748,29.4350586 C117.223142,28.9737933 117.000977,28.3348023 117.000977,27.5180664 C117.000977,26.7224895 117.158608,25.9597204 117.473877,25.2297363 C117.789145,24.4997522 118.207029,23.9316427 118.727539,23.5253906 C119.248049,23.1191386 119.821449,22.9160156 120.447754,22.9160156 C121.095218,22.9160156 121.581867,23.0567206 121.907715,23.3381348 C122.233563,23.6195489 122.396484,24.0120418 122.396484,24.515625 C122.396484,25.2773476 122.045251,25.8750792 121.342773,26.3088379 C120.640296,26.7425966 119.63526,26.9594727 118.327637,26.9594727 L118.118164,26.9594727 L118.092773,27.4672852 C118.092773,28.0216499 118.222899,28.4543441 118.483154,28.7653809 C118.74341,29.0764176 119.146482,29.2319336 119.692383,29.2319336 C119.958986,29.2319336 120.23299,29.193848 120.514404,29.1176758 C120.795818,29.0415035 121.145994,28.9018565 121.564941,28.6987305 L121.564941,29.6254883 C121.167153,29.8116871 120.815919,29.9418128 120.51123,30.0158691 C120.206541,30.0899255 119.870119,30.1269531 119.501953,30.1269531 L119.501953,30.1269531 Z M120.384277,23.8237305 C119.948403,23.8237305 119.538983,24.0226217 119.156006,24.4204102 C118.773029,24.8181986 118.479981,25.3704392 118.276855,26.0771484 L118.353027,26.0771484 C119.317876,26.0771484 120.05737,25.9512545 120.571533,25.6994629 C121.085696,25.4476713 121.342773,25.0826847 121.342773,24.6044922 C121.342773,24.3802072 121.265544,24.1940112 121.111084,24.0458984 C120.956624,23.8977857 120.714357,23.8237305 120.384277,23.8237305 L120.384277,23.8237305 Z" id="Defined-in" fill="#9B9B9B"></path>
                    <g id="Group-14">
                        <path d="M1.83333333,10.6944444 L31.1911117,10.6944444" id="Line" stroke="#B0B8C6" stroke-width="1.5" stroke-linecap="square"></path>
                        <use id="Rectangle-165" stroke="#B0B8C6" mask="url(#mask-4)" stroke-width="3" xlink:href="#path-3"></use>
                        <circle id="Oval-27" fill="#B0B8C6" cx="4.88888889" cy="6.11111111" r="1.22222222"></circle>
                        <circle id="Oval-27-Copy" fill="#B0B8C6" cx="8.55555556" cy="6.11111111" r="1.22222222"></circle>
                        <ellipse id="Oval-27-Copy-2" fill="#B0B8C6" cx="12.2222222" cy="6.11111111" rx="1.22222222" ry="1.22222222"></ellipse>
                    </g>
                </g>
            </g>
        </g>
    </g>
</svg>