<?xml version="1.0" encoding="UTF-8" standalone="no"?>
<svg width="780px" height="262px" viewBox="0 0 780 262" version="1.1" xmlns="http://www.w3.org/2000/svg" xmlns:xlink="http://www.w3.org/1999/xlink">
    <!-- Generator: Sketch 3.6.1 (26313) - http://www.bohemiancoding.com/sketch -->
    <title>Group 15</title>
    <desc>Created with Sketch.</desc>
    <defs></defs>
    <g id="Page-1" stroke="none" stroke-width="1" fill="none" fill-rule="evenodd">
        <g id="Group-15">
            <rect id="Rectangle-26" fill="#FFFFFF" x="0" y="0" width="780" height="262"></rect>
            <g id="Group-13" transform="translate(67.000000, 89.000000)">
                <g id="Group-9" transform="translate(224.000000, 50.000000)" stroke="#B0B8C6" stroke-width="3">
                    <path d="M2.48602927,5.5 L119.568352,5.5" id="Line-Copy-2" stroke-linecap="square"></path>
                    <path d="M62,12.0789474 C65.2707128,12.0789474 67.9220779,9.35592183 67.9220779,6 C67.9220779,2.64264951 65.2707128,-0.0789473684 62,-0.0789473684 C58.730679,-0.0789473684 56.0779221,2.64264951 56.0779221,6 C56.0779221,9.35592183 58.730679,12.0789474 62,12.0789474 L62,12.0789474 Z" id="Stroke-9-Copy-4" fill="#FFFFFF"></path>
                    <path d="M119,12.0789474 C122.270713,12.0789474 124.922078,9.35592183 124.922078,6 C124.922078,2.64264951 122.270713,-0.0789473684 119,-0.0789473684 C115.730679,-0.0789473684 113.077922,2.64264951 113.077922,6 C113.077922,9.35592183 115.730679,12.0789474 119,12.0789474 L119,12.0789474 Z" id="Stroke-9-Copy-6" fill="#FFFFFF"></path>
                    <path d="M6,12.0789474 C9.27071284,12.0789474 11.9220779,9.35592183 11.9220779,6 C11.9220779,2.64264951 9.27071284,-0.0789473684 6,-0.0789473684 C2.73067896,-0.0789473684 0.0779220779,2.64264951 0.0779220779,6 C0.0779220779,9.35592183 2.73067896,12.0789474 6,12.0789474 L6,12.0789474 Z" id="Stroke-9-Copy-5" fill="#FFFFFF"></path>
                </g>
                <g id="Group-9-Copy-2" transform="translate(434.000000, 50.000000)" stroke="#B0B8C6" stroke-width="3">
                    <path d="M2.48602927,5.5 L119.568352,5.5" id="Line-Copy-2" stroke-linecap="square"></path>
                    <path d="M62,12.0789474 C65.2707128,12.0789474 67.9220779,9.35592183 67.9220779,6 C67.9220779,2.64264951 65.2707128,-0.0789473684 62,-0.0789473684 C58.730679,-0.0789473684 56.0779221,2.64264951 56.0779221,6 C56.0779221,9.35592183 58.730679,12.0789474 62,12.0789474 L62,12.0789474 Z" id="Stroke-9-Copy-4" fill="#FFFFFF"></path>
                    <path d="M119,12.0789474 C122.270713,12.0789474 124.922078,9.35592183 124.922078,6 C124.922078,2.64264951 122.270713,-0.0789473684 119,-0.0789473684 C115.730679,-0.0789473684 113.077922,2.64264951 113.077922,6 C113.077922,9.35592183 115.730679,12.0789474 119,12.0789474 L119,12.0789474 Z" id="Stroke-9-Copy-6" fill="#FFFFFF"></path>
                    <path d="M6,12.0789474 C9.27071284,12.0789474 11.9220779,9.35592183 11.9220779,6 C11.9220779,2.64264951 9.27071284,-0.0789473684 6,-0.0789473684 C2.73067896,-0.0789473684 0.0779220779,2.64264951 0.0779220779,6 C0.0779220779,9.35592183 2.73067896,12.0789474 6,12.0789474 L6,12.0789474 Z" id="Stroke-9-Copy-5" fill="#FFFFFF"></path>
                </g>
                <g id="Group-9-Copy" transform="translate(52.000000, 50.000000)" stroke="#B0B8C6" stroke-width="3">
                    <path d="M2.48602927,5.5 L119.568352,5.5" id="Line-Copy-2" stroke-linecap="square"></path>
                    <path d="M62,12.0789474 C65.2707128,12.0789474 67.9220779,9.35592183 67.9220779,6 C67.9220779,2.64264951 65.2707128,-0.0789473684 62,-0.0789473684 C58.730679,-0.0789473684 56.0779221,2.64264951 56.0779221,6 C56.0779221,9.35592183 58.730679,12.0789474 62,12.0789474 L62,12.0789474 Z" id="Stroke-9-Copy-4" fill="#FFFFFF"></path>
                    <path d="M119,12.0789474 C122.270713,12.0789474 124.922078,9.35592183 124.922078,6 C124.922078,2.64264951 122.270713,-0.0789473684 119,-0.0789473684 C115.730679,-0.0789473684 113.077922,2.64264951 113.077922,6 C113.077922,9.35592183 115.730679,12.0789474 119,12.0789474 L119,12.0789474 Z" id="Stroke-9-Copy-6" fill="#FFFFFF"></path>
                    <path d="M6,12.0789474 C9.27071284,12.0789474 11.9220779,9.35592183 11.9220779,6 C11.9220779,2.64264951 9.27071284,-0.0789473684 6,-0.0789473684 C2.73067896,-0.0789473684 0.0779220779,2.64264951 0.0779220779,6 C0.0779220779,9.35592183 2.73067896,12.0789474 6,12.0789474 L6,12.0789474 Z" id="Stroke-9-Copy-5" fill="#FFFFFF"></path>
                </g>
                <g id="Group-10" transform="translate(190.000000, 42.000000)">
                    <path d="M0.00108971482,6.71233055 L0.00108971482,20.1364401 L11.4855942,26.8482192 L22.9722782,20.1358886 L22.9717333,6.71233055 L11.4866839,0 L0.00108971482,6.71233055 Z M11.486139,13.4241096 L11.4855942,13.4241096 L11.486139,13.4241096 L11.486139,13.4241096 Z" id="Shape" fill="#23B0E8"></path>
                    <path d="M0,6.71233055 L11.4845045,13.4241096 L22.9711884,6.71177905 M11.4850493,0 L11.4845045,0 L11.4850493,0 L11.4850493,0 Z" id="Shape" stroke="#F9FBFF" stroke-width="1.5"></path>
                    <path d="M11.2945427,13.5942857 L11.2945427,26.9448002" id="Path-195" stroke="#F9FBFF" stroke-width="1.5"></path>
                </g>
                <g id="Group-10-Copy" transform="translate(378.000000, 43.000000)">
                    <path d="M0.00108971482,6.71233055 L0.00108971482,20.1364401 L11.4855942,26.8482192 L22.9722782,20.1358886 L22.9717333,6.71233055 L11.4866839,0 L0.00108971482,6.71233055 Z M11.486139,13.4241096 L11.4855942,13.4241096 L11.486139,13.4241096 L11.486139,13.4241096 Z" id="Shape" fill="#C8CDD5"></path>
                    <path d="M0,6.71233055 L11.4845045,13.4241096 L22.9711884,6.71177905 M11.4850493,0 L11.4845045,0 L11.4850493,0 L11.4850493,0 Z" id="Shape" stroke="#F9FBFF" stroke-width="1.5"></path>
                    <path d="M11.2945427,13.5942857 L11.2945427,26.9448002" id="Path-195" stroke="#F9FBFF" stroke-width="1.5"></path>
                </g>
                <g id="Group-10-Copy-7" transform="translate(363.000000, 51.000000)">
                    <path d="M0.00108971482,6.71233055 L0.00108971482,20.1364401 L11.4855942,26.8482192 L22.9722782,20.1358886 L22.9717333,6.71233055 L11.4866839,0 L0.00108971482,6.71233055 Z M11.486139,13.4241096 L11.4855942,13.4241096 L11.486139,13.4241096 L11.486139,13.4241096 Z" id="Shape" fill="#D8DCE3"></path>
                    <path d="M0,6.71233055 L11.4845045,13.4241096 L22.9711884,6.71177905 M11.4850493,0 L11.4845045,0 L11.4850493,0 L11.4850493,0 Z" id="Shape" stroke="#F9FBFF" stroke-width="1.5"></path>
                    <path d="M11.2945427,13.5942857 L11.2945427,26.9448002" id="Path-195" stroke="#F9FBFF" stroke-width="1.5"></path>
                </g>
                <g id="Group-10-Copy-3" transform="translate(378.000000, 29.000000)">
                    <path d="M0.00108971482,6.71233055 L0.00108971482,20.1364401 L11.4855942,26.8482192 L22.9722782,20.1358886 L22.9717333,6.71233055 L11.4866839,0 L0.00108971482,6.71233055 Z M11.486139,13.4241096 L11.4855942,13.4241096 L11.486139,13.4241096 L11.486139,13.4241096 Z" id="Shape" fill="#C8CDD5"></path>
                    <path d="M0,6.71233055 L11.4845045,13.4241096 L22.9711884,6.71177905 M11.4850493,0 L11.4845045,0 L11.4850493,0 L11.4850493,0 Z" id="Shape" stroke="#F9FBFF" stroke-width="1.5"></path>
                    <path d="M11.2945427,13.5942857 L11.2945427,26.9448002" id="Path-195" stroke="#F9FBFF" stroke-width="1.5"></path>
                </g>
                <g id="Group-10-Copy-2" transform="translate(393.000000, 52.000000)">
                    <path d="M0.00108971482,6.71233055 L0.00108971482,20.1364401 L11.4855942,26.8482192 L22.9722782,20.1358886 L22.9717333,6.71233055 L11.4866839,0 L0.00108971482,6.71233055 Z M11.486139,13.4241096 L11.4855942,13.4241096 L11.486139,13.4241096 L11.486139,13.4241096 Z" id="Shape" fill="#D8DCE3"></path>
                    <path d="M0,6.71233055 L11.4845045,13.4241096 L22.9711884,6.71177905 M11.4850493,0 L11.4845045,0 L11.4850493,0 L11.4850493,0 Z" id="Shape" stroke="#F9FBFF" stroke-width="1.5"></path>
                    <path d="M11.2945427,13.5942857 L11.2945427,26.9448002" id="Path-195" stroke="#F9FBFF" stroke-width="1.5"></path>
                </g>
                <g id="Group-10-Copy-9" transform="translate(378.000000, 60.000000)">
                    <path d="M0.00108971482,6.71233055 L0.00108971482,20.1364401 L11.4855942,26.8482192 L22.9722782,20.1358886 L22.9717333,6.71233055 L11.4866839,0 L0.00108971482,6.71233055 Z M11.486139,13.4241096 L11.4855942,13.4241096 L11.486139,13.4241096 L11.486139,13.4241096 Z" id="Shape" fill="#D8DCE3"></path>
                    <path d="M0,6.71233055 L11.4845045,13.4241096 L22.9711884,6.71177905 M11.4850493,0 L11.4845045,0 L11.4850493,0 L11.4850493,0 Z" id="Shape" stroke="#F9FBFF" stroke-width="1.5"></path>
                    <path d="M11.2945427,13.5942857 L11.2945427,26.9448002" id="Path-195" stroke="#F9FBFF" stroke-width="1.5"></path>
                </g>
                <g id="Group-10-Copy-8" transform="translate(363.000000, 37.000000)">
                    <path d="M0.00108971482,6.71233055 L0.00108971482,20.1364401 L11.4855942,26.8482192 L22.9722782,20.1358886 L22.9717333,6.71233055 L11.4866839,0 L0.00108971482,6.71233055 Z M11.486139,13.4241096 L11.4855942,13.4241096 L11.486139,13.4241096 L11.486139,13.4241096 Z" id="Shape" fill="#23B0E8"></path>
                    <path d="M0,6.71233055 L11.4845045,13.4241096 L22.9711884,6.71177905 M11.4850493,0 L11.4845045,0 L11.4850493,0 L11.4850493,0 Z" id="Shape" stroke="#F9FBFF" stroke-width="1.5"></path>
                    <path d="M11.2945427,13.5942857 L11.2945427,26.9448002" id="Path-195" stroke="#F9FBFF" stroke-width="1.5"></path>
                </g>
                <g id="Group-10-Copy-4" transform="translate(393.000000, 37.000000)">
                    <path d="M0.00108971482,7.71233055 L0.00108971482,21.1364401 L11.4855942,27.8482192 L22.9722782,21.1358886 L22.9717333,7.71233055 L11.4866839,1 L0.00108971482,7.71233055 Z M11.486139,14.4241096 L11.4855942,14.4241096 L11.486139,14.4241096 L11.486139,14.4241096 Z" id="Shape" fill="#D8DCE3"></path>
                    <path d="M0,6.71233055 L11.4845045,13.4241096 L22.9711884,6.71177905 M11.4850493,0 L11.4845045,0 L11.4850493,0 L11.4850493,0 Z" id="Shape" stroke="#F9FBFF" stroke-width="1.5"></path>
                    <path d="M11.2945427,13.5942857 L11.2945427,26.9448002" id="Path-195" stroke="#F9FBFF" stroke-width="1.5"></path>
                </g>
                <g id="Group-10-Copy-6" transform="translate(393.000000, 23.000000)">
                    <path d="M0.00108971482,6.71233055 L0.00108971482,20.1364401 L11.4855942,26.8482192 L22.9722782,20.1358886 L22.9717333,6.71233055 L11.4866839,0 L0.00108971482,6.71233055 Z M11.486139,13.4241096 L11.4855942,13.4241096 L11.486139,13.4241096 L11.486139,13.4241096 Z" id="Shape" fill="#D8DCE3"></path>
                    <path d="M0,6.71233055 L11.4845045,13.4241096 L22.9711884,6.71177905 M11.4850493,0 L11.4845045,0 L11.4850493,0 L11.4850493,0 Z" id="Shape" stroke="#F9FBFF" stroke-width="1.5"></path>
                    <path d="M11.2945427,13.5942857 L11.2945427,26.9448002" id="Path-195" stroke="#F9FBFF" stroke-width="1.5"></path>
                </g>
                <path d="M5.4296875,65.421875 C5.4296875,66.4843803 5.73958023,67.2786432 6.359375,67.8046875 C6.97916977,68.3307318 8.03384672,68.6093748 9.5234375,68.640625 L9.5234375,70.0625 C7.49217734,70.0625 6.0468793,69.6718789 5.1875,68.890625 C4.3281207,68.1093711 3.8984375,66.9062581 3.8984375,65.28125 L3.8984375,60.015625 C3.8984375,57.8801977 2.70053281,56.7916669 0.3046875,56.75 L0.3046875,55.5 C1.57552719,55.4791666 2.49218469,55.2135442 3.0546875,54.703125 C3.61719031,54.1927058 3.8984375,53.4218802 3.8984375,52.390625 L3.8984375,46.921875 C3.8984375,43.8072761 5.77341875,42.2187503 9.5234375,42.15625 L9.5234375,43.5625 C8.08593031,43.6145836 7.04427406,43.9166639 6.3984375,44.46875 C5.75260094,45.0208361 5.4296875,45.8385362 5.4296875,46.921875 L5.4296875,51.6875 C5.4296875,53.0416734 5.20052313,54.05208 4.7421875,54.71875 C4.28385187,55.38542 3.54427594,55.8281239 2.5234375,56.046875 L2.5234375,56.171875 C3.53385922,56.3802094 4.27083102,56.8151009 4.734375,57.4765625 C5.19791898,58.1380241 5.4296875,59.1093686 5.4296875,60.390625 L5.4296875,65.421875 Z" id="{" fill="#23B0E8"></path>
                <path d="M35.4296875,65.421875 C35.4296875,66.4843803 35.7395802,67.2786432 36.359375,67.8046875 C36.9791698,68.3307318 38.0338467,68.6093748 39.5234375,68.640625 L39.5234375,70.0625 C37.4921773,70.0625 36.0468793,69.6718789 35.1875,68.890625 C34.3281207,68.1093711 33.8984375,66.9062581 33.8984375,65.28125 L33.8984375,60.015625 C33.8984375,57.8801977 32.7005328,56.7916669 30.3046875,56.75 L30.3046875,55.5 C31.5755272,55.4791666 32.4921847,55.2135442 33.0546875,54.703125 C33.6171903,54.1927058 33.8984375,53.4218802 33.8984375,52.390625 L33.8984375,46.921875 C33.8984375,43.8072761 35.7734187,42.2187503 39.5234375,42.15625 L39.5234375,43.5625 C38.0859303,43.6145836 37.0442741,43.9166639 36.3984375,44.46875 C35.7526009,45.0208361 35.4296875,45.8385362 35.4296875,46.921875 L35.4296875,51.6875 C35.4296875,53.0416734 35.2005231,54.05208 34.7421875,54.71875 C34.2838519,55.38542 33.5442759,55.8281239 32.5234375,56.046875 L32.5234375,56.171875 C33.5338592,56.3802094 34.270831,56.8151009 34.734375,57.4765625 C35.197919,58.1380241 35.4296875,59.1093686 35.4296875,60.390625 L35.4296875,65.421875 Z" id="{" fill="#23B0E8" transform="translate(35.476562, 56.109375) scale(-1, 1) translate(-35.476562, -56.109375) "></path>
                <path d="M16.621582,55.5791016 L20.2993164,55.5791016 L20.2993164,60.5966797 C19.6977509,60.7926442 19.12012,60.9316402 18.5664062,61.0136719 C18.0126925,61.0957035 17.414554,61.1367188 16.7719727,61.1367188 C15.2589443,61.1367188 14.0922893,60.6889693 13.2719727,59.793457 C12.4516561,58.8979447 12.0415039,57.6344483 12.0415039,56.0029297 C12.0415039,54.3941977 12.5040644,53.1352585 13.4291992,52.2260742 C14.3543341,51.31689 15.6280843,50.8623047 17.2504883,50.8623047 C18.2941133,50.8623047 19.2830357,51.0628235 20.2172852,51.4638672 L19.6430664,52.8242188 C18.8318644,52.450519 18.0206746,52.2636719 17.2094727,52.2636719 C16.1430611,52.2636719 15.2999705,52.5986295 14.6801758,53.2685547 C14.060381,53.9384799 13.7504883,54.8544864 13.7504883,56.0166016 C13.7504883,57.2379618 14.0296196,58.1665007 14.5878906,58.8022461 C15.1461616,59.4379915 15.9493763,59.7558594 16.9975586,59.7558594 C17.5262071,59.7558594 18.0913056,59.6897793 18.6928711,59.5576172 L18.6928711,56.9804688 L16.621582,56.9804688 L16.621582,55.5791016 Z M24.1342773,61 L22.527832,61 L22.527832,53.4394531 L24.1342773,53.4394531 L24.1342773,61 Z M22.4321289,51.4365234 C22.4321289,51.1494126 22.5107414,50.9283862 22.6679688,50.7734375 C22.8251961,50.6184888 23.0496405,50.5410156 23.3413086,50.5410156 C23.6238621,50.5410156 23.8437492,50.6184888 24.0009766,50.7734375 C24.1582039,50.9283862 24.2368164,51.1494126 24.2368164,51.4365234 C24.2368164,51.7099623 24.1582039,51.9252922 24.0009766,52.0825195 C23.8437492,52.2397469 23.6238621,52.3183594 23.3413086,52.3183594 C23.0496405,52.3183594 22.8251961,52.2397469 22.6679688,52.0825195 C22.5107414,51.9252922 22.4321289,51.7099623 22.4321289,51.4365234 L22.4321289,51.4365234 Z M29.2475586,59.8378906 C29.6394876,59.8378906 30.0314108,59.7763678 30.4233398,59.6533203 L30.4233398,60.8632812 C30.2456046,60.9407556 30.016603,61.0056964 29.7363281,61.0581055 C29.4560533,61.1105146 29.1655288,61.1367188 28.8647461,61.1367188 C27.3426031,61.1367188 26.581543,60.3346434 26.581543,58.7304688 L26.581543,54.65625 L25.5493164,54.65625 L25.5493164,53.9453125 L26.6567383,53.3574219 L27.2036133,51.7578125 L28.1948242,51.7578125 L28.1948242,53.4394531 L30.3481445,53.4394531 L30.3481445,54.65625 L28.1948242,54.65625 L28.1948242,58.703125 C28.1948242,59.0904967 28.2916657,59.3764639 28.4853516,59.5610352 C28.6790374,59.7456064 28.9331039,59.8378906 29.2475586,59.8378906 L29.2475586,59.8378906 Z" id="Git" fill="#23B0E8"></path>
                <path d="M52.3193359,1.00585938 L55.2861328,1.00585938 C56.6624418,1.00585938 57.6570607,1.2063782 58.2700195,1.60742188 C58.8829783,2.00846555 59.1894531,2.64192275 59.1894531,3.5078125 C59.1894531,4.09114875 59.039064,4.57649546 58.7382812,4.96386719 C58.4374985,5.35123892 58.0045601,5.59505158 57.4394531,5.6953125 L57.4394531,5.76367188 C58.1412796,5.89583399 58.6573877,6.15673633 58.987793,6.54638672 C59.3181983,6.9360371 59.4833984,7.46353834 59.4833984,8.12890625 C59.4833984,9.0266972 59.1700878,9.72965241 58.543457,10.237793 C57.9168263,10.7459335 57.045253,11 55.9287109,11 L52.3193359,11 L52.3193359,1.00585938 Z M53.953125,5.13476562 L55.5253906,5.13476562 C56.2089878,5.13476562 56.7080062,5.02653103 57.0224609,4.81005859 C57.3369156,4.59358616 57.4941406,4.22558854 57.4941406,3.70605469 C57.4941406,3.2366513 57.3243832,2.89713646 56.9848633,2.6875 C56.6453434,2.47786354 56.106449,2.37304688 55.3681641,2.37304688 L53.953125,2.37304688 L53.953125,5.13476562 Z M53.953125,6.4609375 L53.953125,9.62597656 L55.6894531,9.62597656 C56.3730503,9.62597656 56.8891584,9.49495574 57.237793,9.23291016 C57.5864275,8.97086458 57.7607422,8.55729449 57.7607422,7.9921875 C57.7607422,7.47265365 57.5830096,7.08756636 57.2275391,6.83691406 C56.8720685,6.58626177 56.3320349,6.4609375 55.6074219,6.4609375 L53.953125,6.4609375 Z M66.7226562,11 L66.4970703,10.0087891 L66.4150391,10.0087891 C66.1917307,10.3597023 65.8738627,10.6354157 65.4614258,10.8359375 C65.0489888,11.0364593 64.5784532,11.1367188 64.0498047,11.1367188 C63.1337845,11.1367188 62.4501976,10.9088564 61.9990234,10.453125 C61.5478493,9.99739355 61.3222656,9.30697077 61.3222656,8.38183594 L61.3222656,3.43945312 L62.9423828,3.43945312 L62.9423828,8.1015625 C62.9423828,8.68034144 63.0608712,9.11441913 63.2978516,9.40380859 C63.5348319,9.69319806 63.9062475,9.83789062 64.4121094,9.83789062 C65.0865919,9.83789062 65.5821924,9.63623249 65.8989258,9.23291016 C66.2156591,8.82958783 66.3740234,8.15397609 66.3740234,7.20605469 L66.3740234,3.43945312 L67.9873047,3.43945312 L67.9873047,11 L66.7226562,11 Z M71.8837891,11 L70.2773438,11 L70.2773438,3.43945312 L71.8837891,3.43945312 L71.8837891,11 Z M70.1816406,1.43652344 C70.1816406,1.14941263 70.2602531,0.928386191 70.4174805,0.7734375 C70.5747078,0.618488809 70.7991522,0.541015625 71.0908203,0.541015625 C71.3733738,0.541015625 71.5932609,0.618488809 71.7504883,0.7734375 C71.9077156,0.928386191 71.9863281,1.14941263 71.9863281,1.43652344 C71.9863281,1.7099623 71.9077156,1.92529218 71.7504883,2.08251953 C71.5932609,2.23974688 71.3733738,2.31835938 71.0908203,2.31835938 C70.7991522,2.31835938 70.5747078,2.23974688 70.4174805,2.08251953 C70.2602531,1.92529218 70.1816406,1.7099623 70.1816406,1.43652344 L70.1816406,1.43652344 Z M75.7871094,11 L74.1806641,11 L74.1806641,0.36328125 L75.7871094,0.36328125 L75.7871094,11 Z M80.6337891,11.1367188 C79.690425,11.1367188 78.9544297,10.7949253 78.4257812,10.1113281 C77.8971328,9.42773096 77.6328125,8.46843065 77.6328125,7.23339844 C77.6328125,5.99380891 77.9005507,5.02881205 78.4360352,4.33837891 C78.9715196,3.64794577 79.7132114,3.30273438 80.6611328,3.30273438 C81.6546274,3.30273438 82.4111302,3.66959269 82.9306641,4.40332031 L83.0126953,4.40332031 C82.935221,3.86099989 82.8964844,3.43261876 82.8964844,3.11816406 L82.8964844,0.36328125 L84.5097656,0.36328125 L84.5097656,11 L83.2519531,11 L82.9716797,10.0087891 L82.8964844,10.0087891 C82.3815078,10.7607459 81.6272836,11.1367188 80.6337891,11.1367188 L80.6337891,11.1367188 Z M81.0644531,9.83789062 C81.7252637,9.83789062 82.2060532,9.65218285 82.5068359,9.28076172 C82.8076187,8.90934059 82.9625651,8.30664479 82.9716797,7.47265625 L82.9716797,7.24707031 C82.9716797,6.29459159 82.8167333,5.61784055 82.5068359,5.21679688 C82.1969386,4.8157532 81.7115918,4.61523438 81.0507812,4.61523438 C80.4856743,4.61523438 80.0504573,4.84423599 79.7451172,5.30224609 C79.4397771,5.7602562 79.2871094,6.4130817 79.2871094,7.26074219 C79.2871094,8.09928805 79.4352199,8.73844181 79.7314453,9.17822266 C80.0276708,9.6180035 80.4720022,9.83789062 81.0644531,9.83789062 L81.0644531,9.83789062 Z M88.4746094,9.53027344 C88.2558583,10.3779339 87.8548206,11.4693944 87.2714844,12.8046875 L86.0888672,12.8046875 C86.4033219,11.5742126 86.6380201,10.4303438 86.7929688,9.37304688 L88.3720703,9.37304688 L88.4746094,9.53027344 Z M96.9990234,9.83789062 C97.3909525,9.83789062 97.7828756,9.7763678 98.1748047,9.65332031 L98.1748047,10.8632812 C97.9970694,10.9407556 97.7680678,11.0056964 97.487793,11.0581055 C97.2075181,11.1105146 96.9169937,11.1367188 96.6162109,11.1367188 C95.0940679,11.1367188 94.3330078,10.3346434 94.3330078,8.73046875 L94.3330078,4.65625 L93.3007812,4.65625 L93.3007812,3.9453125 L94.4082031,3.35742188 L94.9550781,1.7578125 L95.9462891,1.7578125 L95.9462891,3.43945312 L98.0996094,3.43945312 L98.0996094,4.65625 L95.9462891,4.65625 L95.9462891,8.703125 C95.9462891,9.09049673 96.0431305,9.37646392 96.2368164,9.56103516 C96.4305023,9.74560639 96.6845687,9.83789062 96.9990234,9.83789062 L96.9990234,9.83789062 Z M102.987305,11.1367188 C101.811518,11.1367188 100.892093,10.793786 100.229004,10.1079102 C99.5659147,9.42203433 99.234375,8.47754508 99.234375,7.27441406 C99.234375,6.03938185 99.5419891,5.06868843 100.157227,4.36230469 C100.772464,3.65592095 101.617833,3.30273438 102.693359,3.30273438 C103.691411,3.30273438 104.479815,3.60579124 105.058594,4.21191406 C105.637373,4.81803688 105.926758,5.65201292 105.926758,6.71386719 L105.926758,7.58203125 L100.888672,7.58203125 C100.911458,8.31575888 101.109699,8.87971808 101.483398,9.27392578 C101.857098,9.66813348 102.38346,9.86523438 103.0625,9.86523438 C103.509117,9.86523438 103.924966,9.82307985 104.310059,9.73876953 C104.695152,9.65445921 105.108722,9.5143239 105.550781,9.31835938 L105.550781,10.6240234 C105.158852,10.8108733 104.762372,10.9430335 104.361328,11.0205078 C103.960284,11.0979822 103.502281,11.1367188 102.987305,11.1367188 L102.987305,11.1367188 Z M102.693359,4.51953125 C102.18294,4.51953125 101.773927,4.68131349 101.466309,5.00488281 C101.15869,5.32845214 100.975261,5.80012711 100.916016,6.41992188 L104.347656,6.41992188 C104.338542,5.79556979 104.188153,5.32275551 103.896484,5.00146484 C103.604816,4.68017417 103.203779,4.51953125 102.693359,4.51953125 L102.693359,4.51953125 Z M112.831055,8.84667969 C112.831055,9.58496463 112.562177,10.1512025 112.024414,10.5454102 C111.486651,10.9396179 110.716476,11.1367188 109.713867,11.1367188 C108.706701,11.1367188 107.89779,10.984051 107.287109,10.6787109 L107.287109,9.29101562 C108.175786,9.70117393 109.002926,9.90625 109.768555,9.90625 C110.757492,9.90625 111.251953,9.60775038 111.251953,9.01074219 C111.251953,8.81933498 111.197266,8.65983137 111.087891,8.53222656 C110.978515,8.40462176 110.798504,8.27246162 110.547852,8.13574219 C110.297199,7.99902275 109.94857,7.84407639 109.501953,7.67089844 C108.631506,7.33365717 108.042482,6.99642096 107.734863,6.65917969 C107.427245,6.32193842 107.273438,5.88444279 107.273438,5.34667969 C107.273438,4.69954104 107.53434,4.19710465 108.056152,3.83935547 C108.577965,3.48160628 109.287756,3.30273438 110.185547,3.30273438 C111.074223,3.30273438 111.915035,3.4827456 112.708008,3.84277344 L112.188477,5.05273438 C111.372717,4.71549311 110.686852,4.546875 110.130859,4.546875 C109.283199,4.546875 108.859375,4.78840904 108.859375,5.27148438 C108.859375,5.50846473 108.969888,5.70898355 109.190918,5.87304688 C109.411948,6.0371102 109.893876,6.26269388 110.636719,6.54980469 C111.261071,6.79134235 111.714517,7.01236879 111.99707,7.21289062 C112.279624,7.41341246 112.489257,7.6446927 112.625977,7.90673828 C112.762696,8.16878386 112.831055,8.48209453 112.831055,8.84667969 L112.831055,8.84667969 Z M117.383789,9.83789062 C117.775718,9.83789062 118.167641,9.7763678 118.55957,9.65332031 L118.55957,10.8632812 C118.381835,10.9407556 118.152833,11.0056964 117.872559,11.0581055 C117.592284,11.1105146 117.301759,11.1367188 117.000977,11.1367188 C115.478834,11.1367188 114.717773,10.3346434 114.717773,8.73046875 L114.717773,4.65625 L113.685547,4.65625 L113.685547,3.9453125 L114.792969,3.35742188 L115.339844,1.7578125 L116.331055,1.7578125 L116.331055,3.43945312 L118.484375,3.43945312 L118.484375,4.65625 L116.331055,4.65625 L116.331055,8.703125 C116.331055,9.09049673 116.427896,9.37646392 116.621582,9.56103516 C116.815268,9.74560639 117.069334,9.83789062 117.383789,9.83789062 L117.383789,9.83789062 Z M128.4375,11 L128.116211,9.94726562 L128.061523,9.94726562 C127.696938,10.4075544 127.33008,10.7208651 126.960938,10.887207 C126.591795,11.053549 126.117841,11.1367188 125.539062,11.1367188 C124.79622,11.1367188 124.216311,10.9361999 123.799316,10.5351562 C123.382322,10.1341126 123.173828,9.56673544 123.173828,8.83300781 C123.173828,8.05370704 123.463213,7.46582229 124.041992,7.06933594 C124.620771,6.67284958 125.502598,6.45638039 126.6875,6.41992188 L127.993164,6.37890625 L127.993164,5.97558594 C127.993164,5.49251061 127.880372,5.13134885 127.654785,4.89208984 C127.429198,4.65283083 127.079429,4.53320312 126.605469,4.53320312 C126.218097,4.53320312 125.846681,4.5901687 125.491211,4.70410156 C125.13574,4.81803442 124.793947,4.95247318 124.46582,5.10742188 L123.946289,3.95898438 C124.356447,3.7447906 124.805336,3.58186905 125.292969,3.47021484 C125.780601,3.35856064 126.240883,3.30273438 126.673828,3.30273438 C127.635421,3.30273438 128.361163,3.5123677 128.851074,3.93164062 C129.340986,4.35091355 129.585938,5.00943562 129.585938,5.90722656 L129.585938,11 L128.4375,11 Z M126.044922,9.90625 C126.628258,9.90625 127.096515,9.74332845 127.449707,9.41748047 C127.802899,9.09163249 127.979492,8.63476856 127.979492,8.046875 L127.979492,7.390625 L127.008789,7.43164062 C126.252275,7.45898451 125.701987,7.58544809 125.35791,7.81103516 C125.013833,8.03662222 124.841797,8.38183361 124.841797,8.84667969 C124.841797,9.18392096 124.942056,9.4448233 125.142578,9.62939453 C125.3431,9.81396577 125.643878,9.90625 126.044922,9.90625 L126.044922,9.90625 Z M138.479492,11 L136.866211,11 L136.866211,6.3515625 C136.866211,5.76822625 136.748862,5.33300925 136.51416,5.04589844 C136.279458,4.75878763 135.906904,4.61523438 135.396484,4.61523438 C134.717445,4.61523438 134.220705,4.8157532 133.90625,5.21679688 C133.591795,5.61784055 133.43457,6.29003435 133.43457,7.23339844 L133.43457,11 L131.828125,11 L131.828125,3.43945312 L133.085938,3.43945312 L133.311523,4.43066406 L133.393555,4.43066406 C133.62142,4.07063622 133.944985,3.79264421 134.364258,3.59667969 C134.783531,3.40071517 135.24837,3.30273438 135.758789,3.30273438 C137.5726,3.30273438 138.479492,4.22557671 138.479492,6.07128906 L138.479492,11 Z M143.264648,11.1367188 C142.321284,11.1367188 141.585289,10.7949253 141.056641,10.1113281 C140.527992,9.42773096 140.263672,8.46843065 140.263672,7.23339844 C140.263672,5.99380891 140.53141,5.02881205 141.066895,4.33837891 C141.602379,3.64794577 142.344071,3.30273438 143.291992,3.30273438 C144.285487,3.30273438 145.04199,3.66959269 145.561523,4.40332031 L145.643555,4.40332031 C145.56608,3.86099989 145.527344,3.43261876 145.527344,3.11816406 L145.527344,0.36328125 L147.140625,0.36328125 L147.140625,11 L145.882812,11 L145.602539,10.0087891 L145.527344,10.0087891 C145.012367,10.7607459 144.258143,11.1367188 143.264648,11.1367188 L143.264648,11.1367188 Z M143.695312,9.83789062 C144.356123,9.83789062 144.836913,9.65218285 145.137695,9.28076172 C145.438478,8.90934059 145.593424,8.30664479 145.602539,7.47265625 L145.602539,7.24707031 C145.602539,6.29459159 145.447593,5.61784055 145.137695,5.21679688 C144.827798,4.8157532 144.342451,4.61523438 143.681641,4.61523438 C143.116534,4.61523438 142.681317,4.84423599 142.375977,5.30224609 C142.070636,5.7602562 141.917969,6.4130817 141.917969,7.26074219 C141.917969,8.09928805 142.066079,8.73844181 142.362305,9.17822266 C142.65853,9.6180035 143.102862,9.83789062 143.695312,9.83789062 L143.695312,9.83789062 Z M55.1972656,30.1367188 C54.0533797,30.1367188 53.184085,29.8029005 52.5893555,29.1352539 C51.9946259,28.4676073 51.6972656,27.5094463 51.6972656,26.2607422 C51.6972656,24.9892515 52.0082977,24.0117222 52.6303711,23.328125 C53.2524445,22.6445278 54.1513613,22.3027344 55.3271484,22.3027344 C56.1246785,22.3027344 56.8424447,22.4508449 57.4804688,22.7470703 L56.9951172,24.0390625 C56.3160773,23.7747383 55.7555361,23.6425781 55.3134766,23.6425781 C54.0055273,23.6425781 53.3515625,24.5107335 53.3515625,26.2470703 C53.3515625,27.0947308 53.514484,27.7316059 53.840332,28.1577148 C54.16618,28.5838237 54.6435515,28.796875 55.2724609,28.796875 C55.9879593,28.796875 56.6647104,28.6191424 57.3027344,28.2636719 L57.3027344,29.6650391 C57.0156236,29.8336597 56.7091488,29.9544267 56.3833008,30.0273438 C56.0574528,30.1002608 55.6621117,30.1367188 55.1972656,30.1367188 L55.1972656,30.1367188 Z M65.7861328,26.2060547 C65.7861328,27.4410869 65.4694042,28.4049445 64.8359375,29.0976562 C64.2024708,29.790368 63.3206437,30.1367188 62.1904297,30.1367188 C61.4840459,30.1367188 60.8597032,29.9772151 60.3173828,29.6582031 C59.7750624,29.3391911 59.3580744,28.8811879 59.0664062,28.2841797 C58.7747381,27.6871715 58.6289062,26.9944701 58.6289062,26.2060547 C58.6289062,24.9801371 58.9433562,24.0231154 59.5722656,23.3349609 C60.201175,22.6468065 61.0875594,22.3027344 62.2314453,22.3027344 C63.3252008,22.3027344 64.1910775,22.6547816 64.8291016,23.3588867 C65.4671256,24.0629918 65.7861328,25.0120383 65.7861328,26.2060547 L65.7861328,26.2060547 Z M60.2832031,26.2060547 C60.2832031,27.9515061 60.9280534,28.8242188 62.2177734,28.8242188 C63.4938215,28.8242188 64.1318359,27.9515061 64.1318359,26.2060547 C64.1318359,24.4788325 63.4892642,23.6152344 62.2041016,23.6152344 C61.529619,23.6152344 61.0408544,23.8385394 60.737793,24.2851562 C60.4347316,24.7317731 60.2832031,25.3720661 60.2832031,26.2060547 L60.2832031,26.2060547 Z M74.0029297,30 L72.3896484,30 L72.3896484,25.3378906 C72.3896484,24.7591117 72.2802745,24.3273126 72.0615234,24.0424805 C71.8427723,23.7576483 71.5009789,23.6152344 71.0361328,23.6152344 C70.416338,23.6152344 69.9617527,23.8168925 69.6723633,24.2202148 C69.3829738,24.6235372 69.2382812,25.2945917 69.2382812,26.2333984 L69.2382812,30 L67.6318359,30 L67.6318359,22.4394531 L68.8896484,22.4394531 L69.1152344,23.4306641 L69.1972656,23.4306641 C69.4069021,23.0706362 69.7110983,22.7926442 70.1098633,22.5966797 C70.5086283,22.4007152 70.9472632,22.3027344 71.4257812,22.3027344 C72.5878964,22.3027344 73.358071,22.6992148 73.7363281,23.4921875 L73.8457031,23.4921875 C74.0690115,23.1184877 74.3834615,22.826824 74.7890625,22.6171875 C75.1946635,22.407551 75.6595026,22.3027344 76.1835938,22.3027344 C77.085942,22.3027344 77.7433248,22.5305967 78.1557617,22.9863281 C78.5681987,23.4420596 78.7744141,24.1370396 78.7744141,25.0712891 L78.7744141,30 L77.1679688,30 L77.1679688,25.3378906 C77.1679688,24.7591117 77.0574555,24.3273126 76.8364258,24.0424805 C76.615396,23.7576483 76.2724633,23.6152344 75.8076172,23.6152344 C75.1832651,23.6152344 74.7264012,23.8100566 74.4370117,24.199707 C74.1476223,24.5893574 74.0029297,25.187496 74.0029297,25.9941406 L74.0029297,30 Z M84.8515625,30.1367188 C83.8945265,30.1367188 83.1516954,29.7926467 82.6230469,29.1044922 L82.5273438,29.1044922 C82.5911462,29.7425162 82.6230469,30.1298821 82.6230469,30.2666016 L82.6230469,33.3632812 L81.0166016,33.3632812 L81.0166016,22.4394531 L82.3154297,22.4394531 C82.3518882,22.5807299 82.4270828,22.9179661 82.5410156,23.4511719 L82.6230469,23.4511719 C83.1243515,22.685543 83.8762971,22.3027344 84.8789062,22.3027344 C85.8222703,22.3027344 86.5571263,22.6445278 87.0834961,23.328125 C87.6098659,24.0117222 87.8730469,24.9710225 87.8730469,26.2060547 C87.8730469,27.4410869 87.6053087,28.4049445 87.0698242,29.0976562 C86.5343398,29.790368 85.7949266,30.1367188 84.8515625,30.1367188 L84.8515625,30.1367188 Z M84.4619141,23.6152344 C83.82389,23.6152344 83.3579116,23.8020815 83.0639648,24.1757812 C82.7700181,24.549481 82.6230469,25.1464803 82.6230469,25.9667969 L82.6230469,26.2060547 C82.6230469,27.1266322 82.7688787,27.7931294 83.0605469,28.2055664 C83.352215,28.6180034 83.8284472,28.8242188 84.4892578,28.8242188 C85.0452502,28.8242188 85.4736313,28.5963564 85.7744141,28.140625 C86.0751968,27.6848936 86.2255859,27.035486 86.2255859,26.1923828 C86.2255859,25.3447223 86.0763361,24.7032899 85.777832,24.2680664 C85.4793279,23.8328429 85.040693,23.6152344 84.4619141,23.6152344 L84.4619141,23.6152344 Z M91.3457031,30 L89.7392578,30 L89.7392578,22.4394531 L91.3457031,22.4394531 L91.3457031,30 Z M89.6435547,20.4365234 C89.6435547,20.1494126 89.7221672,19.9283862 89.8793945,19.7734375 C90.0366219,19.6184888 90.2610662,19.5410156 90.5527344,19.5410156 C90.8352879,19.5410156 91.055175,19.6184888 91.2124023,19.7734375 C91.3696297,19.9283862 91.4482422,20.1494126 91.4482422,20.4365234 C91.4482422,20.7099623 91.3696297,20.9252922 91.2124023,21.0825195 C91.055175,21.2397469 90.8352879,21.3183594 90.5527344,21.3183594 C90.2610662,21.3183594 90.0366219,21.2397469 89.8793945,21.0825195 C89.7221672,20.9252922 89.6435547,20.7099623 89.6435547,20.4365234 L89.6435547,20.4365234 Z M95.2490234,30 L93.6425781,30 L93.6425781,19.3632812 L95.2490234,19.3632812 L95.2490234,30 Z M100.847656,30.1367188 C99.6718691,30.1367188 98.7524447,29.793786 98.0893555,29.1079102 C97.4262662,28.4220343 97.0947266,27.4775451 97.0947266,26.2744141 C97.0947266,25.0393818 97.4023407,24.0686884 98.0175781,23.3623047 C98.6328156,22.6559209 99.4781847,22.3027344 100.553711,22.3027344 C101.551763,22.3027344 102.340166,22.6057912 102.918945,23.2119141 C103.497724,23.8180369 103.787109,24.6520129 103.787109,25.7138672 L103.787109,26.5820312 L98.7490234,26.5820312 C98.77181,27.3157589 98.9700502,27.8797181 99.34375,28.2739258 C99.7174498,28.6681335 100.243812,28.8652344 100.922852,28.8652344 C101.369468,28.8652344 101.785317,28.8230798 102.17041,28.7387695 C102.555503,28.6544592 102.969073,28.5143239 103.411133,28.3183594 L103.411133,29.6240234 C103.019204,29.8108733 102.622723,29.9430335 102.22168,30.0205078 C101.820636,30.0979822 101.362633,30.1367188 100.847656,30.1367188 L100.847656,30.1367188 Z M100.553711,23.5195312 C100.043292,23.5195312 99.6342789,23.6813135 99.3266602,24.0048828 C99.0190414,24.3284521 98.8356123,24.8001271 98.7763672,25.4199219 L102.208008,25.4199219 C102.198893,24.7955698 102.048504,24.3227555 101.756836,24.0014648 C101.465168,23.6801742 101.06413,23.5195312 100.553711,23.5195312 L100.553711,23.5195312 Z" id="Build,-test-and-comp" fill="#626463"></path>
                <path d="M232.936523,20.0273438 C232.936523,21.0709688 232.59473,21.8707654 231.911133,22.4267578 C231.227536,22.9827502 230.254564,23.2607422 228.992188,23.2607422 L227.953125,23.2607422 L227.953125,27 L226.319336,27 L226.319336,17.0058594 L229.197266,17.0058594 C230.44597,17.0058594 231.381345,17.2610652 232.003418,17.7714844 C232.625491,18.2819036 232.936523,19.0338492 232.936523,20.0273438 L232.936523,20.0273438 Z M227.953125,21.8867188 L228.821289,21.8867188 C229.659835,21.8867188 230.275063,21.7408869 230.666992,21.4492188 C231.058921,21.1575506 231.254883,20.701826 231.254883,20.0820312 C231.254883,19.5078096 231.079429,19.0794285 230.728516,18.796875 C230.377602,18.5143215 229.830733,18.3730469 229.087891,18.3730469 L227.953125,18.3730469 L227.953125,21.8867188 Z M240.09375,27 L239.868164,26.0087891 L239.786133,26.0087891 C239.562824,26.3597023 239.244956,26.6354157 238.83252,26.8359375 C238.420083,27.0364593 237.949547,27.1367188 237.420898,27.1367188 C236.504878,27.1367188 235.821291,26.9088564 235.370117,26.453125 C234.918943,25.9973936 234.693359,25.3069708 234.693359,24.3818359 L234.693359,19.4394531 L236.313477,19.4394531 L236.313477,24.1015625 C236.313477,24.6803414 236.431965,25.1144191 236.668945,25.4038086 C236.905926,25.6931981 237.277341,25.8378906 237.783203,25.8378906 C238.457686,25.8378906 238.953286,25.6362325 239.27002,25.2329102 C239.586753,24.8295878 239.745117,24.1539761 239.745117,23.2060547 L239.745117,19.4394531 L241.358398,19.4394531 L241.358398,27 L240.09375,27 Z M248.727539,24.8466797 C248.727539,25.5849646 248.458662,26.1512025 247.920898,26.5454102 C247.383135,26.9396179 246.612961,27.1367188 245.610352,27.1367188 C244.603185,27.1367188 243.794274,26.984051 243.183594,26.6787109 L243.183594,25.2910156 C244.07227,25.7011739 244.89941,25.90625 245.665039,25.90625 C246.653976,25.90625 247.148438,25.6077504 247.148438,25.0107422 C247.148438,24.819335 247.093751,24.6598314 246.984375,24.5322266 C246.874999,24.4046218 246.694988,24.2724616 246.444336,24.1357422 C246.193684,23.9990228 245.845054,23.8440764 245.398438,23.6708984 C244.52799,23.3336572 243.938966,22.996421 243.631348,22.6591797 C243.323729,22.3219384 243.169922,21.8844428 243.169922,21.3466797 C243.169922,20.699541 243.430824,20.1971047 243.952637,19.8393555 C244.474449,19.4816063 245.18424,19.3027344 246.082031,19.3027344 C246.970708,19.3027344 247.811519,19.4827456 248.604492,19.8427734 L248.084961,21.0527344 C247.269202,20.7154931 246.583336,20.546875 246.027344,20.546875 C245.179683,20.546875 244.755859,20.788409 244.755859,21.2714844 C244.755859,21.5084647 244.866373,21.7089836 245.087402,21.8730469 C245.308432,22.0371102 245.790361,22.2626939 246.533203,22.5498047 C247.157555,22.7913424 247.611001,23.0123688 247.893555,23.2128906 C248.176108,23.4134125 248.385742,23.6446927 248.522461,23.9067383 C248.65918,24.1687839 248.727539,24.4820945 248.727539,24.8466797 L248.727539,24.8466797 Z M257.115234,27 L255.501953,27 L255.501953,22.3515625 C255.501953,21.7682263 255.384604,21.3330092 255.149902,21.0458984 C254.915201,20.7587876 254.542646,20.6152344 254.032227,20.6152344 C253.357744,20.6152344 252.862144,20.8168925 252.54541,21.2202148 C252.228677,21.6235372 252.070312,22.2991489 252.070312,23.2470703 L252.070312,27 L250.463867,27 L250.463867,16.3632812 L252.070312,16.3632812 L252.070312,19.0634766 C252.070312,19.4964214 252.042969,19.9589819 251.988281,20.4511719 L252.09082,20.4511719 C252.309571,20.0865867 252.613768,19.8040375 253.003418,19.6035156 C253.393068,19.4029938 253.847654,19.3027344 254.367188,19.3027344 C256.199228,19.3027344 257.115234,20.2255767 257.115234,22.0712891 L257.115234,27 Z M265.803711,25.8378906 C266.19564,25.8378906 266.587563,25.7763678 266.979492,25.6533203 L266.979492,26.8632812 C266.801757,26.9407556 266.572755,27.0056964 266.29248,27.0581055 C266.012206,27.1105146 265.721681,27.1367188 265.420898,27.1367188 C263.898755,27.1367188 263.137695,26.3346434 263.137695,24.7304688 L263.137695,20.65625 L262.105469,20.65625 L262.105469,19.9453125 L263.212891,19.3574219 L263.759766,17.7578125 L264.750977,17.7578125 L264.750977,19.4394531 L266.904297,19.4394531 L266.904297,20.65625 L264.750977,20.65625 L264.750977,24.703125 C264.750977,25.0904967 264.847818,25.3764639 265.041504,25.5610352 C265.23519,25.7456064 265.489256,25.8378906 265.803711,25.8378906 L265.803711,25.8378906 Z M275.196289,23.2060547 C275.196289,24.4410869 274.87956,25.4049445 274.246094,26.0976562 C273.612627,26.790368 272.7308,27.1367188 271.600586,27.1367188 C270.894202,27.1367188 270.269859,26.9772151 269.727539,26.6582031 C269.185219,26.3391911 268.768231,25.8811879 268.476562,25.2841797 C268.184894,24.6871715 268.039062,23.9944701 268.039062,23.2060547 C268.039062,21.9801371 268.353512,21.0231154 268.982422,20.3349609 C269.611331,19.6468065 270.497716,19.3027344 271.641602,19.3027344 C272.735357,19.3027344 273.601234,19.6547816 274.239258,20.3588867 C274.877282,21.0629918 275.196289,22.0120383 275.196289,23.2060547 L275.196289,23.2060547 Z M269.693359,23.2060547 C269.693359,24.9515061 270.33821,25.8242188 271.62793,25.8242188 C272.903978,25.8242188 273.541992,24.9515061 273.541992,23.2060547 C273.541992,21.4788325 272.89942,20.6152344 271.614258,20.6152344 C270.939775,20.6152344 270.451011,20.8385394 270.147949,21.2851562 C269.844888,21.7317731 269.693359,22.3720661 269.693359,23.2060547 L269.693359,23.2060547 Z M284.513672,19.3027344 C284.837241,19.3027344 285.10384,19.3255206 285.313477,19.3710938 L285.15625,20.8681641 C284.928384,20.8134763 284.691407,20.7861328 284.445312,20.7861328 C283.802731,20.7861328 283.282066,20.9957661 282.883301,21.4150391 C282.484536,21.834312 282.285156,22.3789029 282.285156,23.0488281 L282.285156,27 L280.678711,27 L280.678711,19.4394531 L281.936523,19.4394531 L282.148438,20.7724609 L282.230469,20.7724609 C282.481121,20.3212868 282.808103,19.963543 283.211426,19.6992188 C283.614748,19.4348945 284.048826,19.3027344 284.513672,19.3027344 L284.513672,19.3027344 Z M290.016602,27.1367188 C288.840814,27.1367188 287.92139,26.793786 287.258301,26.1079102 C286.595212,25.4220343 286.263672,24.4775451 286.263672,23.2744141 C286.263672,22.0393818 286.571286,21.0686884 287.186523,20.3623047 C287.801761,19.6559209 288.64713,19.3027344 289.722656,19.3027344 C290.720708,19.3027344 291.509112,19.6057912 292.087891,20.2119141 C292.66667,20.8180369 292.956055,21.6520129 292.956055,22.7138672 L292.956055,23.5820312 L287.917969,23.5820312 C287.940755,24.3157589 288.138996,24.8797181 288.512695,25.2739258 C288.886395,25.6681335 289.412757,25.8652344 290.091797,25.8652344 C290.538414,25.8652344 290.954262,25.8230798 291.339355,25.7387695 C291.724449,25.6544592 292.138019,25.5143239 292.580078,25.3183594 L292.580078,26.6240234 C292.188149,26.8108733 291.791669,26.9430335 291.390625,27.0205078 C290.989581,27.0979822 290.531578,27.1367188 290.016602,27.1367188 L290.016602,27.1367188 Z M289.722656,20.5195312 C289.212237,20.5195312 288.803224,20.6813135 288.495605,21.0048828 C288.187987,21.3284521 288.004558,21.8001271 287.945312,22.4199219 L291.376953,22.4199219 C291.367838,21.7955698 291.217449,21.3227555 290.925781,21.0014648 C290.634113,20.6801742 290.233075,20.5195312 289.722656,20.5195312 L289.722656,20.5195312 Z M301.166016,19.4394531 L301.166016,20.3212891 L299.874023,20.5605469 C299.992514,20.7200529 300.090494,20.9160145 300.167969,21.1484375 C300.245443,21.3808605 300.28418,21.6269518 300.28418,21.8867188 C300.28418,22.6660195 300.015302,23.2789691 299.477539,23.7255859 C298.939776,24.1722028 298.199223,24.3955078 297.255859,24.3955078 C297.014322,24.3955078 296.795574,24.3772788 296.599609,24.3408203 C296.253253,24.5550141 296.080078,24.8056626 296.080078,25.0927734 C296.080078,25.2659514 296.160969,25.3958329 296.322754,25.4824219 C296.484539,25.5690108 296.781899,25.6123047 297.214844,25.6123047 L298.53418,25.6123047 C299.368168,25.6123047 300.001625,25.7900373 300.43457,26.1455078 C300.867515,26.5009783 301.083984,27.0136685 301.083984,27.6835938 C301.083984,28.5403689 300.730798,29.2011696 300.024414,29.6660156 C299.31803,30.1308617 298.297207,30.3632812 296.961914,30.3632812 C295.931961,30.3632812 295.145836,30.1809914 294.603516,29.8164062 C294.061195,29.4518211 293.790039,28.932295 293.790039,28.2578125 C293.790039,27.7929664 293.93701,27.4021826 294.230957,27.0854492 C294.524904,26.7687159 294.936195,26.5488287 295.464844,26.4257812 C295.25065,26.334635 295.074057,26.1876638 294.935059,25.9848633 C294.796061,25.7820628 294.726562,25.5690115 294.726562,25.3457031 C294.726562,25.0631496 294.806314,24.8238942 294.96582,24.6279297 C295.125326,24.4319652 295.362303,24.2382822 295.676758,24.046875 C295.284829,23.8782544 294.966961,23.6036803 294.723145,23.2231445 C294.479328,22.8426088 294.357422,22.397138 294.357422,21.8867188 C294.357422,21.0664021 294.616046,20.4306663 295.133301,19.9794922 C295.650556,19.5283181 296.387691,19.3027344 297.344727,19.3027344 C297.55892,19.3027344 297.783365,19.3175454 298.018066,19.347168 C298.252768,19.3767905 298.429361,19.4075519 298.547852,19.4394531 L301.166016,19.4394531 Z M295.225586,28.1757812 C295.225586,28.5221371 295.381672,28.788736 295.693848,28.9755859 C296.006024,29.1624358 296.444659,29.2558594 297.009766,29.2558594 C297.88477,29.2558594 298.536456,29.1305351 298.964844,28.8798828 C299.393231,28.6292305 299.607422,28.2965516 299.607422,27.8818359 C299.607422,27.5537093 299.490073,27.3201504 299.255371,27.1811523 C299.020669,27.0421543 298.584313,26.9726562 297.946289,26.9726562 L296.729492,26.9726562 C296.269203,26.9726562 295.903484,27.0808908 295.632324,27.2973633 C295.361164,27.5138357 295.225586,27.8066388 295.225586,28.1757812 L295.225586,28.1757812 Z M295.916016,21.8867188 C295.916016,22.3606795 296.037922,22.7252591 296.281738,22.9804688 C296.525555,23.2356784 296.875323,23.3632812 297.331055,23.3632812 C298.260747,23.3632812 298.725586,22.8665414 298.725586,21.8730469 C298.725586,21.3808569 298.610515,21.0014662 298.380371,20.7348633 C298.150227,20.4682604 297.800458,20.3349609 297.331055,20.3349609 C296.866209,20.3349609 296.514161,20.4671211 296.274902,20.7314453 C296.035643,20.9957696 295.916016,21.3808568 295.916016,21.8867188 L295.916016,21.8867188 Z M304.173828,27 L302.567383,27 L302.567383,19.4394531 L304.173828,19.4394531 L304.173828,27 Z M302.47168,17.4365234 C302.47168,17.1494126 302.550292,16.9283862 302.70752,16.7734375 C302.864747,16.6184888 303.089191,16.5410156 303.380859,16.5410156 C303.663413,16.5410156 303.8833,16.6184888 304.040527,16.7734375 C304.197755,16.9283862 304.276367,17.1494126 304.276367,17.4365234 C304.276367,17.7099623 304.197755,17.9252922 304.040527,18.0825195 C303.8833,18.2397469 303.663413,18.3183594 303.380859,18.3183594 C303.089191,18.3183594 302.864747,18.2397469 302.70752,18.0825195 C302.550292,17.9252922 302.47168,17.7099623 302.47168,17.4365234 L302.47168,17.4365234 Z M311.549805,24.8466797 C311.549805,25.5849646 311.280927,26.1512025 310.743164,26.5454102 C310.205401,26.9396179 309.435226,27.1367188 308.432617,27.1367188 C307.425451,27.1367188 306.61654,26.984051 306.005859,26.6787109 L306.005859,25.2910156 C306.894536,25.7011739 307.721676,25.90625 308.487305,25.90625 C309.476242,25.90625 309.970703,25.6077504 309.970703,25.0107422 C309.970703,24.819335 309.916016,24.6598314 309.806641,24.5322266 C309.697265,24.4046218 309.517254,24.2724616 309.266602,24.1357422 C309.015949,23.9990228 308.66732,23.8440764 308.220703,23.6708984 C307.350256,23.3336572 306.761232,22.996421 306.453613,22.6591797 C306.145995,22.3219384 305.992188,21.8844428 305.992188,21.3466797 C305.992188,20.699541 306.25309,20.1971047 306.774902,19.8393555 C307.296715,19.4816063 308.006506,19.3027344 308.904297,19.3027344 C309.792973,19.3027344 310.633785,19.4827456 311.426758,19.8427734 L310.907227,21.0527344 C310.091467,20.7154931 309.405602,20.546875 308.849609,20.546875 C308.001949,20.546875 307.578125,20.788409 307.578125,21.2714844 C307.578125,21.5084647 307.688638,21.7089836 307.909668,21.8730469 C308.130698,22.0371102 308.612626,22.2626939 309.355469,22.5498047 C309.979821,22.7913424 310.433267,23.0123688 310.71582,23.2128906 C310.998374,23.4134125 311.208007,23.6446927 311.344727,23.9067383 C311.481446,24.1687839 311.549805,24.4820945 311.549805,24.8466797 L311.549805,24.8466797 Z M316.102539,25.8378906 C316.494468,25.8378906 316.886391,25.7763678 317.27832,25.6533203 L317.27832,26.8632812 C317.100585,26.9407556 316.871583,27.0056964 316.591309,27.0581055 C316.311034,27.1105146 316.020509,27.1367188 315.719727,27.1367188 C314.197584,27.1367188 313.436523,26.3346434 313.436523,24.7304688 L313.436523,20.65625 L312.404297,20.65625 L312.404297,19.9453125 L313.511719,19.3574219 L314.058594,17.7578125 L315.049805,17.7578125 L315.049805,19.4394531 L317.203125,19.4394531 L317.203125,20.65625 L315.049805,20.65625 L315.049805,24.703125 C315.049805,25.0904967 315.146646,25.3764639 315.340332,25.5610352 C315.534018,25.7456064 315.788084,25.8378906 316.102539,25.8378906 L316.102539,25.8378906 Z M322.624023,19.3027344 C322.947593,19.3027344 323.214192,19.3255206 323.423828,19.3710938 L323.266602,20.8681641 C323.038736,20.8134763 322.801759,20.7861328 322.555664,20.7861328 C321.913083,20.7861328 321.392417,20.9957661 320.993652,21.4150391 C320.594887,21.834312 320.395508,22.3789029 320.395508,23.0488281 L320.395508,27 L318.789062,27 L318.789062,19.4394531 L320.046875,19.4394531 L320.258789,20.7724609 L320.34082,20.7724609 C320.591473,20.3212868 320.918455,19.963543 321.321777,19.6992188 C321.7251,19.4348945 322.159177,19.3027344 322.624023,19.3027344 L322.624023,19.3027344 Z M323.676758,19.4394531 L325.426758,19.4394531 L326.964844,23.7255859 C327.197267,24.3362661 327.352213,24.9104791 327.429688,25.4482422 L327.484375,25.4482422 C327.525391,25.1975899 327.600585,24.8933937 327.709961,24.5356445 C327.819336,24.1778953 328.398107,22.4791819 329.446289,19.4394531 L331.182617,19.4394531 L327.949219,28.0048828 C327.361325,29.5771563 326.381517,30.3632812 325.009766,30.3632812 C324.654295,30.3632812 324.307944,30.3245447 323.970703,30.2470703 L323.970703,28.9755859 C324.212241,29.0302737 324.487954,29.0576172 324.797852,29.0576172 C325.572595,29.0576172 326.117186,28.6087284 326.431641,27.7109375 L326.711914,27 L323.676758,19.4394531 Z" id="Push-to-registry" fill="#626463"></path>
                <path d="M442.645508,30 L440.642578,30 L435.727539,22.0361328 L435.672852,22.0361328 L435.707031,22.4804688 C435.770834,23.3281292 435.802734,24.1028611 435.802734,24.8046875 L435.802734,30 L434.319336,30 L434.319336,20.0058594 L436.301758,20.0058594 L441.203125,27.9287109 L441.244141,27.9287109 C441.235026,27.8238927 441.216797,27.4422233 441.189453,26.7836914 C441.162109,26.1251595 441.148438,25.61133 441.148438,25.2421875 L441.148438,20.0058594 L442.645508,20.0058594 L442.645508,30 Z M451.819336,26.2060547 C451.819336,27.4410869 451.502607,28.4049445 450.869141,29.0976562 C450.235674,29.790368 449.353847,30.1367188 448.223633,30.1367188 C447.517249,30.1367188 446.892906,29.9772151 446.350586,29.6582031 C445.808266,29.3391911 445.391278,28.8811879 445.099609,28.2841797 C444.807941,27.6871715 444.662109,26.9944701 444.662109,26.2060547 C444.662109,24.9801371 444.976559,24.0231154 445.605469,23.3349609 C446.234378,22.6468065 447.120763,22.3027344 448.264648,22.3027344 C449.358404,22.3027344 450.224281,22.6547816 450.862305,23.3588867 C451.500329,24.0629918 451.819336,25.0120383 451.819336,26.2060547 L451.819336,26.2060547 Z M446.316406,26.2060547 C446.316406,27.9515061 446.961257,28.8242188 448.250977,28.8242188 C449.527025,28.8242188 450.165039,27.9515061 450.165039,26.2060547 C450.165039,24.4788325 449.522467,23.6152344 448.237305,23.6152344 C447.562822,23.6152344 447.074058,23.8385394 446.770996,24.2851562 C446.467935,24.7317731 446.316406,25.3720661 446.316406,26.2060547 L446.316406,26.2060547 Z M456.481445,28.8378906 C456.873374,28.8378906 457.265298,28.7763678 457.657227,28.6533203 L457.657227,29.8632812 C457.479491,29.9407556 457.25049,30.0056964 456.970215,30.0581055 C456.68994,30.1105146 456.399416,30.1367188 456.098633,30.1367188 C454.57649,30.1367188 453.81543,29.3346434 453.81543,27.7304688 L453.81543,23.65625 L452.783203,23.65625 L452.783203,22.9453125 L453.890625,22.3574219 L454.4375,20.7578125 L455.428711,20.7578125 L455.428711,22.4394531 L457.582031,22.4394531 L457.582031,23.65625 L455.428711,23.65625 L455.428711,27.703125 C455.428711,28.0904967 455.525552,28.3764639 455.719238,28.5610352 C455.912924,28.7456064 456.166991,28.8378906 456.481445,28.8378906 L456.481445,28.8378906 Z M460.774414,30 L459.167969,30 L459.167969,22.4394531 L460.774414,22.4394531 L460.774414,30 Z M459.072266,20.4365234 C459.072266,20.1494126 459.150878,19.9283862 459.308105,19.7734375 C459.465333,19.6184888 459.689777,19.5410156 459.981445,19.5410156 C460.263999,19.5410156 460.483886,19.6184888 460.641113,19.7734375 C460.798341,19.9283862 460.876953,20.1494126 460.876953,20.4365234 C460.876953,20.7099623 460.798341,20.9252922 460.641113,21.0825195 C460.483886,21.2397469 460.263999,21.3183594 459.981445,21.3183594 C459.689777,21.3183594 459.465333,21.2397469 459.308105,21.0825195 C459.150878,20.9252922 459.072266,20.7099623 459.072266,20.4365234 L459.072266,20.4365234 Z M466.865234,23.65625 L465.019531,23.65625 L465.019531,30 L463.40625,30 L463.40625,23.65625 L462.162109,23.65625 L462.162109,22.9042969 L463.40625,22.4121094 L463.40625,21.9199219 C463.40625,21.0266882 463.615883,20.3647482 464.035156,19.934082 C464.454429,19.5034158 465.094722,19.2880859 465.956055,19.2880859 C466.521162,19.2880859 467.077146,19.3815095 467.624023,19.5683594 L467.200195,20.7851562 C466.803709,20.6575514 466.425458,20.59375 466.06543,20.59375 C465.700845,20.59375 465.435385,20.7065418 465.269043,20.9321289 C465.102701,21.157716 465.019531,21.4960915 465.019531,21.9472656 L465.019531,22.4394531 L466.865234,22.4394531 L466.865234,23.65625 Z M467.001953,22.4394531 L468.751953,22.4394531 L470.290039,26.7255859 C470.522462,27.3362661 470.677408,27.9104791 470.754883,28.4482422 L470.80957,28.4482422 C470.850586,28.1975899 470.925781,27.8933937 471.035156,27.5356445 C471.144532,27.1778953 471.723302,25.4791819 472.771484,22.4394531 L474.507812,22.4394531 L471.274414,31.0048828 C470.68652,32.5771563 469.706713,33.3632812 468.334961,33.3632812 C467.97949,33.3632812 467.63314,33.3245447 467.295898,33.2470703 L467.295898,31.9755859 C467.537436,32.0302737 467.813149,32.0576172 468.123047,32.0576172 C468.89779,32.0576172 469.442381,31.6087284 469.756836,30.7109375 L470.037109,30 L467.001953,22.4394531 Z M484.37207,27.8466797 C484.37207,28.5849646 484.103193,29.1512025 483.56543,29.5454102 C483.027667,29.9396179 482.257492,30.1367188 481.254883,30.1367188 C480.247716,30.1367188 479.438805,29.984051 478.828125,29.6787109 L478.828125,28.2910156 C479.716801,28.7011739 480.543941,28.90625 481.30957,28.90625 C482.298508,28.90625 482.792969,28.6077504 482.792969,28.0107422 C482.792969,27.819335 482.738282,27.6598314 482.628906,27.5322266 C482.519531,27.4046218 482.339519,27.2724616 482.088867,27.1357422 C481.838215,26.9990228 481.489586,26.8440764 481.042969,26.6708984 C480.172522,26.3336572 479.583498,25.996421 479.275879,25.6591797 C478.96826,25.3219384 478.814453,24.8844428 478.814453,24.3466797 C478.814453,23.699541 479.075355,23.1971047 479.597168,22.8393555 C480.11898,22.4816063 480.828772,22.3027344 481.726562,22.3027344 C482.615239,22.3027344 483.456051,22.4827456 484.249023,22.8427734 L483.729492,24.0527344 C482.913733,23.7154931 482.227867,23.546875 481.671875,23.546875 C480.824215,23.546875 480.400391,23.788409 480.400391,24.2714844 C480.400391,24.5084647 480.510904,24.7089836 480.731934,24.8730469 C480.952963,25.0371102 481.434892,25.2626939 482.177734,25.5498047 C482.802086,25.7913424 483.255532,26.0123688 483.538086,26.2128906 C483.820639,26.4134125 484.030273,26.6446927 484.166992,26.9067383 C484.303712,27.1687839 484.37207,27.4820945 484.37207,27.8466797 L484.37207,27.8466797 Z M489.157227,30.1367188 C488.013341,30.1367188 487.144046,29.8029005 486.549316,29.1352539 C485.954587,28.4676073 485.657227,27.5094463 485.657227,26.2607422 C485.657227,24.9892515 485.968259,24.0117222 486.590332,23.328125 C487.212405,22.6445278 488.111322,22.3027344 489.287109,22.3027344 C490.084639,22.3027344 490.802406,22.4508449 491.44043,22.7470703 L490.955078,24.0390625 C490.276038,23.7747383 489.715497,23.6425781 489.273438,23.6425781 C487.965488,23.6425781 487.311523,24.5107335 487.311523,26.2470703 C487.311523,27.0947308 487.474445,27.7316059 487.800293,28.1577148 C488.126141,28.5838237 488.603512,28.796875 489.232422,28.796875 C489.94792,28.796875 490.624671,28.6191424 491.262695,28.2636719 L491.262695,29.6650391 C490.975585,29.8336597 490.66911,29.9544267 490.343262,30.0273438 C490.017414,30.1002608 489.622073,30.1367188 489.157227,30.1367188 L489.157227,30.1367188 Z M499.691406,30 L498.078125,30 L498.078125,25.3515625 C498.078125,24.7682263 497.960776,24.3330092 497.726074,24.0458984 C497.491373,23.7587876 497.118818,23.6152344 496.608398,23.6152344 C495.933916,23.6152344 495.438315,23.8168925 495.121582,24.2202148 C494.804849,24.6235372 494.646484,25.2991489 494.646484,26.2470703 L494.646484,30 L493.040039,30 L493.040039,19.3632812 L494.646484,19.3632812 L494.646484,22.0634766 C494.646484,22.4964214 494.619141,22.9589819 494.564453,23.4511719 L494.666992,23.4511719 C494.885743,23.0865867 495.189939,22.8040375 495.57959,22.6035156 C495.96924,22.4029938 496.423826,22.3027344 496.943359,22.3027344 C498.7754,22.3027344 499.691406,23.2255767 499.691406,25.0712891 L499.691406,30 Z M505.228516,30.1367188 C504.052728,30.1367188 503.133304,29.793786 502.470215,29.1079102 C501.807126,28.4220343 501.475586,27.4775451 501.475586,26.2744141 C501.475586,25.0393818 501.7832,24.0686884 502.398438,23.3623047 C503.013675,22.6559209 503.859044,22.3027344 504.93457,22.3027344 C505.932622,22.3027344 506.721026,22.6057912 507.299805,23.2119141 C507.878584,23.8180369 508.167969,24.6520129 508.167969,25.7138672 L508.167969,26.5820312 L503.129883,26.5820312 C503.152669,27.3157589 503.35091,27.8797181 503.724609,28.2739258 C504.098309,28.6681335 504.624671,28.8652344 505.303711,28.8652344 C505.750328,28.8652344 506.166176,28.8230798 506.55127,28.7387695 C506.936363,28.6544592 507.349933,28.5143239 507.791992,28.3183594 L507.791992,29.6240234 C507.400063,29.8108733 507.003583,29.9430335 506.602539,30.0205078 C506.201495,30.0979822 505.743492,30.1367188 505.228516,30.1367188 L505.228516,30.1367188 Z M504.93457,23.5195312 C504.424151,23.5195312 504.015138,23.6813135 503.70752,24.0048828 C503.399901,24.3284521 503.216472,24.8001271 503.157227,25.4199219 L506.588867,25.4199219 C506.579753,24.7955698 506.429363,24.3227555 506.137695,24.0014648 C505.846027,23.6801742 505.44499,23.5195312 504.93457,23.5195312 L504.93457,23.5195312 Z M512.542969,30.1367188 C511.599605,30.1367188 510.863609,29.7949253 510.334961,29.1113281 C509.806312,28.427731 509.541992,27.4684307 509.541992,26.2333984 C509.541992,24.9938089 509.80973,24.028812 510.345215,23.3383789 C510.880699,22.6479458 511.622391,22.3027344 512.570312,22.3027344 C513.563807,22.3027344 514.32031,22.6695927 514.839844,23.4033203 L514.921875,23.4033203 C514.844401,22.8609999 514.805664,22.4326188 514.805664,22.1181641 L514.805664,19.3632812 L516.418945,19.3632812 L516.418945,30 L515.161133,30 L514.880859,29.0087891 L514.805664,29.0087891 C514.290688,29.7607459 513.536463,30.1367188 512.542969,30.1367188 L512.542969,30.1367188 Z M512.973633,28.8378906 C513.634443,28.8378906 514.115233,28.6521828 514.416016,28.2807617 C514.716798,27.9093406 514.871745,27.3066448 514.880859,26.4726562 L514.880859,26.2470703 C514.880859,25.2945916 514.725913,24.6178405 514.416016,24.2167969 C514.106118,23.8157532 513.620772,23.6152344 512.959961,23.6152344 C512.394854,23.6152344 511.959637,23.844236 511.654297,24.3022461 C511.348957,24.7602562 511.196289,25.4130817 511.196289,26.2607422 C511.196289,27.099288 511.3444,27.7384418 511.640625,28.1782227 C511.93685,28.6180035 512.381182,28.8378906 512.973633,28.8378906 L512.973633,28.8378906 Z M524.047852,30 L523.822266,29.0087891 L523.740234,29.0087891 C523.516926,29.3597023 523.199058,29.6354157 522.786621,29.8359375 C522.374184,30.0364593 521.903648,30.1367188 521.375,30.1367188 C520.45898,30.1367188 519.775393,29.9088564 519.324219,29.453125 C518.873045,28.9973936 518.647461,28.3069708 518.647461,27.3818359 L518.647461,22.4394531 L520.267578,22.4394531 L520.267578,27.1015625 C520.267578,27.6803414 520.386067,28.1144191 520.623047,28.4038086 C520.860027,28.6931981 521.231443,28.8378906 521.737305,28.8378906 C522.411787,28.8378906 522.907388,28.6362325 523.224121,28.2329102 C523.540854,27.8295878 523.699219,27.1539761 523.699219,26.2060547 L523.699219,22.4394531 L525.3125,22.4394531 L525.3125,30 L524.047852,30 Z M529.208984,30 L527.602539,30 L527.602539,19.3632812 L529.208984,19.3632812 L529.208984,30 Z M534.807617,30.1367188 C533.63183,30.1367188 532.712406,29.793786 532.049316,29.1079102 C531.386227,28.4220343 531.054688,27.4775451 531.054688,26.2744141 C531.054688,25.0393818 531.362302,24.0686884 531.977539,23.3623047 C532.592777,22.6559209 533.438146,22.3027344 534.513672,22.3027344 C535.511724,22.3027344 536.300127,22.6057912 536.878906,23.2119141 C537.457685,23.8180369 537.74707,24.6520129 537.74707,25.7138672 L537.74707,26.5820312 L532.708984,26.5820312 C532.731771,27.3157589 532.930011,27.8797181 533.303711,28.2739258 C533.677411,28.6681335 534.203773,28.8652344 534.882812,28.8652344 C535.329429,28.8652344 535.745278,28.8230798 536.130371,28.7387695 C536.515464,28.6544592 536.929034,28.5143239 537.371094,28.3183594 L537.371094,29.6240234 C536.979165,29.8108733 536.582684,29.9430335 536.181641,30.0205078 C535.780597,30.0979822 535.322594,30.1367188 534.807617,30.1367188 L534.807617,30.1367188 Z M534.513672,23.5195312 C534.003253,23.5195312 533.59424,23.6813135 533.286621,24.0048828 C532.979002,24.3284521 532.795573,24.8001271 532.736328,25.4199219 L536.167969,25.4199219 C536.158854,24.7955698 536.008465,24.3227555 535.716797,24.0014648 C535.425129,23.6801742 535.024091,23.5195312 534.513672,23.5195312 L534.513672,23.5195312 Z M543.407227,22.3027344 C543.730796,22.3027344 543.997395,22.3255206 544.207031,22.3710938 L544.049805,23.8681641 C543.821939,23.8134763 543.584962,23.7861328 543.338867,23.7861328 C542.696286,23.7861328 542.17562,23.9957661 541.776855,24.4150391 C541.37809,24.834312 541.178711,25.3789029 541.178711,26.0488281 L541.178711,30 L539.572266,30 L539.572266,22.4394531 L540.830078,22.4394531 L541.041992,23.7724609 L541.124023,23.7724609 C541.374676,23.3212868 541.701658,22.963543 542.10498,22.6992188 C542.508303,22.4348945 542.94238,22.3027344 543.407227,22.3027344 L543.407227,22.3027344 Z" id="Notify-scheduler" fill="#626463"></path>
                <g id="Group-10-Copy-5" transform="translate(575.000000, 42.000000)">
                    <path d="M0.00108971482,6.71233055 L0.00108971482,20.1364401 L11.4855942,26.8482192 L22.9722782,20.1358886 L22.9717333,6.71233055 L11.4866839,0 L0.00108971482,6.71233055 Z M11.486139,13.4241096 L11.4855942,13.4241096 L11.486139,13.4241096 L11.486139,13.4241096 Z" id="Shape" fill="#23B0E8"></path>
                    <path d="M0,6.71233055 L11.4845045,13.4241096 L22.9711884,6.71177905 M11.4850493,0 L11.4845045,0 L11.4850493,0 L11.4850493,0 Z" id="Shape" stroke="#F9FBFF" stroke-width="1.5"></path>
                    <path d="M11.2945427,13.5942857 L11.2945427,26.9448002" id="Path-195" stroke="#F9FBFF" stroke-width="1.5"></path>
                </g>
                <g id="Group-10-Copy-9" opacity="0.5" transform="translate(588.000000, 64.000000)">
                    <path d="M0.00108971482,6.71233055 L0.00108971482,20.1364401 L11.4855942,26.8482192 L22.9722782,20.1358886 L22.9717333,6.71233055 L11.4866839,0 L0.00108971482,6.71233055 Z M11.486139,13.4241096 L11.4855942,13.4241096 L11.486139,13.4241096 L11.486139,13.4241096 Z" id="Shape" fill="#B0B8C6"></path>
                    <path d="M0,6.71233055 L11.4845045,13.4241096 L22.9711884,6.71177905 M11.4850493,0 L11.4845045,0 L11.4850493,0 L11.4850493,0 Z" id="Shape" stroke="#F9FBFF" stroke-width="1.5"></path>
                    <path d="M11.2945427,13.5942857 L11.2945427,26.9448002" id="Path-195" stroke="#F9FBFF" stroke-width="1.5"></path>
                </g>
                <g id="Group-10-Copy-11" opacity="0.5" transform="translate(613.000000, 63.000000)">
                    <path d="M0.00108971482,6.71233055 L0.00108971482,20.1364401 L11.4855942,26.8482192 L22.9722782,20.1358886 L22.9717333,6.71233055 L11.4866839,0 L0.00108971482,6.71233055 Z M11.486139,13.4241096 L11.4855942,13.4241096 L11.486139,13.4241096 L11.486139,13.4241096 Z" id="Shape" fill="#B0B8C6"></path>
                    <path d="M0,6.71233055 L11.4845045,13.4241096 L22.9711884,6.71177905 M11.4850493,0 L11.4845045,0 L11.4850493,0 L11.4850493,0 Z" id="Shape" stroke="#F9FBFF" stroke-width="1.5"></path>
                    <path d="M11.2945427,13.5942857 L11.2945427,26.9448002" id="Path-195" stroke="#F9FBFF" stroke-width="1.5"></path>
                </g>
                <g id="Group-10-Copy-12" opacity="0.5" transform="translate(625.000000, 41.000000)">
                    <path d="M0.00108971482,6.71233055 L0.00108971482,20.1364401 L11.4855942,26.8482192 L22.9722782,20.1358886 L22.9717333,6.71233055 L11.4866839,0 L0.00108971482,6.71233055 Z M11.486139,13.4241096 L11.4855942,13.4241096 L11.486139,13.4241096 L11.486139,13.4241096 Z" id="Shape" fill="#B0B8C6"></path>
                    <path d="M0,6.71233055 L11.4845045,13.4241096 L22.9711884,6.71177905 M11.4850493,0 L11.4845045,0 L11.4850493,0 L11.4850493,0 Z" id="Shape" stroke="#F9FBFF" stroke-width="1.5"></path>
                    <path d="M11.2945427,13.5942857 L11.2945427,26.9448002" id="Path-195" stroke="#F9FBFF" stroke-width="1.5"></path>
                </g>
                <g id="Group-10-Copy-13" opacity="0.5" transform="translate(613.000000, 19.000000)">
                    <path d="M0.00108971482,6.71233055 L0.00108971482,20.1364401 L11.4855942,26.8482192 L22.9722782,20.1358886 L22.9717333,6.71233055 L11.4866839,0 L0.00108971482,6.71233055 Z M11.486139,13.4241096 L11.4855942,13.4241096 L11.486139,13.4241096 L11.486139,13.4241096 Z" id="Shape" fill="#B0B8C6"></path>
                    <path d="M0,6.71233055 L11.4845045,13.4241096 L22.9711884,6.71177905 M11.4850493,0 L11.4845045,0 L11.4850493,0 L11.4850493,0 Z" id="Shape" stroke="#F9FBFF" stroke-width="1.5"></path>
                    <path d="M11.2945427,13.5942857 L11.2945427,26.9448002" id="Path-195" stroke="#F9FBFF" stroke-width="1.5"></path>
                </g>
                <g id="Group-10-Copy-14" opacity="0.5" transform="translate(587.000000, 19.000000)">
                    <path d="M0.00108971482,6.71233055 L0.00108971482,20.1364401 L11.4855942,26.8482192 L22.9722782,20.1358886 L22.9717333,6.71233055 L11.4866839,0 L0.00108971482,6.71233055 Z M11.486139,13.4241096 L11.4855942,13.4241096 L11.486139,13.4241096 L11.486139,13.4241096 Z" id="Shape" fill="#B0B8C6"></path>
                    <path d="M0,6.71233055 L11.4845045,13.4241096 L22.9711884,6.71177905 M11.4850493,0 L11.4845045,0 L11.4850493,0 L11.4850493,0 Z" id="Shape" stroke="#F9FBFF" stroke-width="1.5"></path>
                    <path d="M11.2945427,13.5942857 L11.2945427,26.9448002" id="Path-195" stroke="#F9FBFF" stroke-width="1.5"></path>
                </g>
                <g id="Group-10-Copy-10" opacity="0.5" transform="translate(600.000000, 41.000000)">
                    <path d="M0.00108971482,6.71233055 L0.00108971482,20.1364401 L11.4855942,26.8482192 L22.9722782,20.1358886 L22.9717333,6.71233055 L11.4866839,0 L0.00108971482,6.71233055 Z M11.486139,13.4241096 L11.4855942,13.4241096 L11.486139,13.4241096 L11.486139,13.4241096 Z" id="Shape" fill="#B0B8C6"></path>
                    <path d="M0,6.71233055 L11.4845045,13.4241096 L22.9711884,6.71177905 M11.4850493,0 L11.4845045,0 L11.4850493,0 L11.4850493,0 Z" id="Shape" stroke="#F9FBFF" stroke-width="1.5"></path>
                    <path d="M11.2945427,13.5942857 L11.2945427,26.9448002" id="Path-195" stroke="#F9FBFF" stroke-width="1.5"></path>
                </g>
            </g>
        </g>
    </g>
</svg>